%TF.GenerationSoftware,KiCad,Pcbnew,8.0.5*%
%TF.CreationDate,2024-12-06T12:49:07-05:00*%
%TF.ProjectId,RailsidePDB,5261696c-7369-4646-9550-44422e6b6963,rev?*%
%TF.SameCoordinates,Original*%
%TF.FileFunction,Copper,L2,Bot*%
%TF.FilePolarity,Positive*%
%FSLAX46Y46*%
G04 Gerber Fmt 4.6, Leading zero omitted, Abs format (unit mm)*
G04 Created by KiCad (PCBNEW 8.0.5) date 2024-12-06 12:49:07*
%MOMM*%
%LPD*%
G01*
G04 APERTURE LIST*
G04 Aperture macros list*
%AMRoundRect*
0 Rectangle with rounded corners*
0 $1 Rounding radius*
0 $2 $3 $4 $5 $6 $7 $8 $9 X,Y pos of 4 corners*
0 Add a 4 corners polygon primitive as box body*
4,1,4,$2,$3,$4,$5,$6,$7,$8,$9,$2,$3,0*
0 Add four circle primitives for the rounded corners*
1,1,$1+$1,$2,$3*
1,1,$1+$1,$4,$5*
1,1,$1+$1,$6,$7*
1,1,$1+$1,$8,$9*
0 Add four rect primitives between the rounded corners*
20,1,$1+$1,$2,$3,$4,$5,0*
20,1,$1+$1,$4,$5,$6,$7,0*
20,1,$1+$1,$6,$7,$8,$9,0*
20,1,$1+$1,$8,$9,$2,$3,0*%
G04 Aperture macros list end*
%TA.AperFunction,WasherPad*%
%ADD10C,9.000000*%
%TD*%
%TA.AperFunction,ComponentPad*%
%ADD11RoundRect,0.750000X0.750000X-0.750000X0.750000X0.750000X-0.750000X0.750000X-0.750000X-0.750000X0*%
%TD*%
%TA.AperFunction,ComponentPad*%
%ADD12C,3.000000*%
%TD*%
%TA.AperFunction,ComponentPad*%
%ADD13C,2.780000*%
%TD*%
%TA.AperFunction,Conductor*%
%ADD14C,3.000000*%
%TD*%
%TA.AperFunction,Conductor*%
%ADD15C,1.500000*%
%TD*%
G04 APERTURE END LIST*
D10*
%TO.P,,*%
%TO.N,*%
X75150000Y-79125000D03*
%TD*%
%TO.P,,*%
%TO.N,*%
X98025000Y-66750000D03*
%TD*%
D11*
%TO.P,BT2,1,+*%
%TO.N,Net-(BT1-+)*%
X78500000Y-71500000D03*
D12*
%TO.P,BT2,2,-*%
%TO.N,Net-(BT1--)*%
X78500000Y-66500000D03*
%TD*%
D11*
%TO.P,BT3,1,+*%
%TO.N,Net-(BT1-+)*%
X71500000Y-71500000D03*
D12*
%TO.P,BT3,2,-*%
%TO.N,Net-(BT1--)*%
X71500000Y-66500000D03*
%TD*%
D11*
%TO.P,BT4,1,+*%
%TO.N,Net-(BT1-+)*%
X108500000Y-76000000D03*
D12*
%TO.P,BT4,2,-*%
%TO.N,Net-(BT4--)*%
X108500000Y-71000000D03*
%TD*%
D13*
%TO.P,Fuse,1*%
%TO.N,Net-(BT1--)*%
X92040000Y-73300000D03*
X92040000Y-76700000D03*
%TO.P,Fuse,2*%
%TO.N,Net-(SW1-A)*%
X101960000Y-73300000D03*
X101960000Y-76700000D03*
%TD*%
D11*
%TO.P,BT1,1,+*%
%TO.N,Net-(BT1-+)*%
X85500000Y-71500000D03*
D12*
%TO.P,BT1,2,-*%
%TO.N,Net-(BT1--)*%
X85500000Y-66500000D03*
%TD*%
D14*
%TO.N,Net-(SW1-A)*%
X97100000Y-69800000D02*
X97460000Y-69800000D01*
X95380000Y-68080000D02*
X97100000Y-69800000D01*
X95380000Y-67000000D02*
X95380000Y-68080000D01*
X97460000Y-69800000D02*
X101960000Y-74300000D01*
%TO.N,Net-(BT1-+)*%
X108500000Y-79400000D02*
X107000000Y-80900000D01*
X108500000Y-76110000D02*
X108500000Y-79400000D01*
X85500000Y-71500000D02*
X71500000Y-71500000D01*
X85500000Y-78500000D02*
X85500000Y-71500000D01*
X87900000Y-80900000D02*
X85500000Y-78500000D01*
%TO.N,Net-(BT1--)*%
X88500000Y-66500000D02*
X71500000Y-66500000D01*
X92040000Y-73300000D02*
X92040000Y-70040000D01*
X92040000Y-70040000D02*
X88500000Y-66500000D01*
%TO.N,Net-(BT1-+)*%
X107000000Y-80900000D02*
X87900000Y-80900000D01*
D15*
X78650000Y-71000000D02*
X78600000Y-70950000D01*
D14*
%TO.N,Net-(BT1--)*%
X92040000Y-73300000D02*
X92040000Y-76700000D01*
%TO.N,Net-(SW1-A)*%
X101960000Y-73300000D02*
X101960000Y-76700000D01*
%TD*%
M02*
