%TF.GenerationSoftware,KiCad,Pcbnew,8.0.5*%
%TF.CreationDate,2024-12-04T12:46:02-05:00*%
%TF.ProjectId,RailsidePDB,5261696c-7369-4646-9550-44422e6b6963,rev?*%
%TF.SameCoordinates,Original*%
%TF.FileFunction,Drillmap*%
%TF.FilePolarity,Positive*%
%FSLAX45Y45*%
G04 Gerber Fmt 4.5, Leading zero omitted, Abs format (unit mm)*
G04 Created by KiCad (PCBNEW 8.0.5) date 2024-12-04 12:46:02*
%MOMM*%
%LPD*%
G01*
G04 APERTURE LIST*
%ADD10C,0.200000*%
%ADD11C,0.178000*%
%ADD12C,0.180000*%
%ADD13C,0.680000*%
G04 APERTURE END LIST*
D10*
X6750000Y-6200000D02*
X11250000Y-6200000D01*
X11250000Y-8450000D01*
X6750000Y-8450000D01*
X6750000Y-6200000D01*
D11*
X9115000Y-7241000D02*
X9293000Y-7419000D01*
X9293000Y-7241000D02*
X9115000Y-7419000D01*
X9115000Y-7581000D02*
X9293000Y-7759000D01*
X9293000Y-7581000D02*
X9115000Y-7759000D01*
X10107000Y-7241000D02*
X10285000Y-7419000D01*
X10285000Y-7241000D02*
X10107000Y-7419000D01*
X10107000Y-7581000D02*
X10285000Y-7759000D01*
X10285000Y-7581000D02*
X10107000Y-7759000D01*
D12*
X7240000Y-6650000D02*
G75*
G02*
X7060000Y-6650000I-90000J0D01*
G01*
X7060000Y-6650000D02*
G75*
G02*
X7240000Y-6650000I90000J0D01*
G01*
X7240000Y-7150000D02*
G75*
G02*
X7060000Y-7150000I-90000J0D01*
G01*
X7060000Y-7150000D02*
G75*
G02*
X7240000Y-7150000I90000J0D01*
G01*
X7940000Y-6650000D02*
G75*
G02*
X7760000Y-6650000I-90000J0D01*
G01*
X7760000Y-6650000D02*
G75*
G02*
X7940000Y-6650000I90000J0D01*
G01*
X7940000Y-7150000D02*
G75*
G02*
X7760000Y-7150000I-90000J0D01*
G01*
X7760000Y-7150000D02*
G75*
G02*
X7940000Y-7150000I90000J0D01*
G01*
X8640000Y-6650000D02*
G75*
G02*
X8460000Y-6650000I-90000J0D01*
G01*
X8460000Y-6650000D02*
G75*
G02*
X8640000Y-6650000I90000J0D01*
G01*
X8640000Y-7150000D02*
G75*
G02*
X8460000Y-7150000I-90000J0D01*
G01*
X8460000Y-7150000D02*
G75*
G02*
X8640000Y-7150000I90000J0D01*
G01*
X10940000Y-7100000D02*
G75*
G02*
X10760000Y-7100000I-90000J0D01*
G01*
X10760000Y-7100000D02*
G75*
G02*
X10940000Y-7100000I90000J0D01*
G01*
X10940000Y-7600000D02*
G75*
G02*
X10760000Y-7600000I-90000J0D01*
G01*
X10760000Y-7600000D02*
G75*
G02*
X10940000Y-7600000I90000J0D01*
G01*
D13*
X7634000Y-7610000D02*
X7634000Y-8290000D01*
X7294000Y-7950000D02*
X7974000Y-7950000D01*
X9764000Y-6360000D02*
X9764000Y-7040000D01*
X9424000Y-6700000D02*
X10104000Y-6700000D01*
D10*
X7000777Y-8771484D02*
X7000777Y-8571484D01*
X7000777Y-8571484D02*
X7048396Y-8571484D01*
X7048396Y-8571484D02*
X7076967Y-8581008D01*
X7076967Y-8581008D02*
X7096015Y-8600055D01*
X7096015Y-8600055D02*
X7105539Y-8619103D01*
X7105539Y-8619103D02*
X7115062Y-8657198D01*
X7115062Y-8657198D02*
X7115062Y-8685770D01*
X7115062Y-8685770D02*
X7105539Y-8723865D01*
X7105539Y-8723865D02*
X7096015Y-8742912D01*
X7096015Y-8742912D02*
X7076967Y-8761960D01*
X7076967Y-8761960D02*
X7048396Y-8771484D01*
X7048396Y-8771484D02*
X7000777Y-8771484D01*
X7200777Y-8771484D02*
X7200777Y-8638150D01*
X7200777Y-8676246D02*
X7210301Y-8657198D01*
X7210301Y-8657198D02*
X7219824Y-8647674D01*
X7219824Y-8647674D02*
X7238872Y-8638150D01*
X7238872Y-8638150D02*
X7257920Y-8638150D01*
X7324586Y-8771484D02*
X7324586Y-8638150D01*
X7324586Y-8571484D02*
X7315062Y-8581008D01*
X7315062Y-8581008D02*
X7324586Y-8590531D01*
X7324586Y-8590531D02*
X7334110Y-8581008D01*
X7334110Y-8581008D02*
X7324586Y-8571484D01*
X7324586Y-8571484D02*
X7324586Y-8590531D01*
X7448396Y-8771484D02*
X7429348Y-8761960D01*
X7429348Y-8761960D02*
X7419824Y-8742912D01*
X7419824Y-8742912D02*
X7419824Y-8571484D01*
X7553158Y-8771484D02*
X7534110Y-8761960D01*
X7534110Y-8761960D02*
X7524586Y-8742912D01*
X7524586Y-8742912D02*
X7524586Y-8571484D01*
X7781729Y-8771484D02*
X7781729Y-8571484D01*
X7781729Y-8571484D02*
X7848396Y-8714341D01*
X7848396Y-8714341D02*
X7915062Y-8571484D01*
X7915062Y-8571484D02*
X7915062Y-8771484D01*
X8096015Y-8771484D02*
X8096015Y-8666722D01*
X8096015Y-8666722D02*
X8086491Y-8647674D01*
X8086491Y-8647674D02*
X8067443Y-8638150D01*
X8067443Y-8638150D02*
X8029348Y-8638150D01*
X8029348Y-8638150D02*
X8010301Y-8647674D01*
X8096015Y-8761960D02*
X8076967Y-8771484D01*
X8076967Y-8771484D02*
X8029348Y-8771484D01*
X8029348Y-8771484D02*
X8010301Y-8761960D01*
X8010301Y-8761960D02*
X8000777Y-8742912D01*
X8000777Y-8742912D02*
X8000777Y-8723865D01*
X8000777Y-8723865D02*
X8010301Y-8704817D01*
X8010301Y-8704817D02*
X8029348Y-8695293D01*
X8029348Y-8695293D02*
X8076967Y-8695293D01*
X8076967Y-8695293D02*
X8096015Y-8685770D01*
X8191253Y-8638150D02*
X8191253Y-8838150D01*
X8191253Y-8647674D02*
X8210301Y-8638150D01*
X8210301Y-8638150D02*
X8248396Y-8638150D01*
X8248396Y-8638150D02*
X8267443Y-8647674D01*
X8267443Y-8647674D02*
X8276967Y-8657198D01*
X8276967Y-8657198D02*
X8286491Y-8676246D01*
X8286491Y-8676246D02*
X8286491Y-8733389D01*
X8286491Y-8733389D02*
X8276967Y-8752436D01*
X8276967Y-8752436D02*
X8267443Y-8761960D01*
X8267443Y-8761960D02*
X8248396Y-8771484D01*
X8248396Y-8771484D02*
X8210301Y-8771484D01*
X8210301Y-8771484D02*
X8191253Y-8761960D01*
X8372205Y-8752436D02*
X8381729Y-8761960D01*
X8381729Y-8761960D02*
X8372205Y-8771484D01*
X8372205Y-8771484D02*
X8362682Y-8761960D01*
X8362682Y-8761960D02*
X8372205Y-8752436D01*
X8372205Y-8752436D02*
X8372205Y-8771484D01*
X8372205Y-8647674D02*
X8381729Y-8657198D01*
X8381729Y-8657198D02*
X8372205Y-8666722D01*
X8372205Y-8666722D02*
X8362682Y-8657198D01*
X8362682Y-8657198D02*
X8372205Y-8647674D01*
X8372205Y-8647674D02*
X8372205Y-8666722D01*
D11*
X6562000Y-9011000D02*
X6740000Y-9189000D01*
X6740000Y-9011000D02*
X6562000Y-9189000D01*
D10*
X7105539Y-9191484D02*
X6991253Y-9191484D01*
X7048396Y-9191484D02*
X7048396Y-8991484D01*
X7048396Y-8991484D02*
X7029348Y-9020055D01*
X7029348Y-9020055D02*
X7010301Y-9039103D01*
X7010301Y-9039103D02*
X6991253Y-9048627D01*
X7191253Y-9172436D02*
X7200777Y-9181960D01*
X7200777Y-9181960D02*
X7191253Y-9191484D01*
X7191253Y-9191484D02*
X7181729Y-9181960D01*
X7181729Y-9181960D02*
X7191253Y-9172436D01*
X7191253Y-9172436D02*
X7191253Y-9191484D01*
X7267443Y-8991484D02*
X7400777Y-8991484D01*
X7400777Y-8991484D02*
X7315062Y-9191484D01*
X7505539Y-9077198D02*
X7486491Y-9067674D01*
X7486491Y-9067674D02*
X7476967Y-9058150D01*
X7476967Y-9058150D02*
X7467443Y-9039103D01*
X7467443Y-9039103D02*
X7467443Y-9029579D01*
X7467443Y-9029579D02*
X7476967Y-9010531D01*
X7476967Y-9010531D02*
X7486491Y-9001008D01*
X7486491Y-9001008D02*
X7505539Y-8991484D01*
X7505539Y-8991484D02*
X7543634Y-8991484D01*
X7543634Y-8991484D02*
X7562682Y-9001008D01*
X7562682Y-9001008D02*
X7572205Y-9010531D01*
X7572205Y-9010531D02*
X7581729Y-9029579D01*
X7581729Y-9029579D02*
X7581729Y-9039103D01*
X7581729Y-9039103D02*
X7572205Y-9058150D01*
X7572205Y-9058150D02*
X7562682Y-9067674D01*
X7562682Y-9067674D02*
X7543634Y-9077198D01*
X7543634Y-9077198D02*
X7505539Y-9077198D01*
X7505539Y-9077198D02*
X7486491Y-9086722D01*
X7486491Y-9086722D02*
X7476967Y-9096246D01*
X7476967Y-9096246D02*
X7467443Y-9115293D01*
X7467443Y-9115293D02*
X7467443Y-9153389D01*
X7467443Y-9153389D02*
X7476967Y-9172436D01*
X7476967Y-9172436D02*
X7486491Y-9181960D01*
X7486491Y-9181960D02*
X7505539Y-9191484D01*
X7505539Y-9191484D02*
X7543634Y-9191484D01*
X7543634Y-9191484D02*
X7562682Y-9181960D01*
X7562682Y-9181960D02*
X7572205Y-9172436D01*
X7572205Y-9172436D02*
X7581729Y-9153389D01*
X7581729Y-9153389D02*
X7581729Y-9115293D01*
X7581729Y-9115293D02*
X7572205Y-9096246D01*
X7572205Y-9096246D02*
X7562682Y-9086722D01*
X7562682Y-9086722D02*
X7543634Y-9077198D01*
X7705539Y-8991484D02*
X7724586Y-8991484D01*
X7724586Y-8991484D02*
X7743634Y-9001008D01*
X7743634Y-9001008D02*
X7753158Y-9010531D01*
X7753158Y-9010531D02*
X7762682Y-9029579D01*
X7762682Y-9029579D02*
X7772205Y-9067674D01*
X7772205Y-9067674D02*
X7772205Y-9115293D01*
X7772205Y-9115293D02*
X7762682Y-9153389D01*
X7762682Y-9153389D02*
X7753158Y-9172436D01*
X7753158Y-9172436D02*
X7743634Y-9181960D01*
X7743634Y-9181960D02*
X7724586Y-9191484D01*
X7724586Y-9191484D02*
X7705539Y-9191484D01*
X7705539Y-9191484D02*
X7686491Y-9181960D01*
X7686491Y-9181960D02*
X7676967Y-9172436D01*
X7676967Y-9172436D02*
X7667443Y-9153389D01*
X7667443Y-9153389D02*
X7657920Y-9115293D01*
X7657920Y-9115293D02*
X7657920Y-9067674D01*
X7657920Y-9067674D02*
X7667443Y-9029579D01*
X7667443Y-9029579D02*
X7676967Y-9010531D01*
X7676967Y-9010531D02*
X7686491Y-9001008D01*
X7686491Y-9001008D02*
X7705539Y-8991484D01*
X7857920Y-9191484D02*
X7857920Y-9058150D01*
X7857920Y-9077198D02*
X7867443Y-9067674D01*
X7867443Y-9067674D02*
X7886491Y-9058150D01*
X7886491Y-9058150D02*
X7915063Y-9058150D01*
X7915063Y-9058150D02*
X7934110Y-9067674D01*
X7934110Y-9067674D02*
X7943634Y-9086722D01*
X7943634Y-9086722D02*
X7943634Y-9191484D01*
X7943634Y-9086722D02*
X7953158Y-9067674D01*
X7953158Y-9067674D02*
X7972205Y-9058150D01*
X7972205Y-9058150D02*
X8000777Y-9058150D01*
X8000777Y-9058150D02*
X8019824Y-9067674D01*
X8019824Y-9067674D02*
X8029348Y-9086722D01*
X8029348Y-9086722D02*
X8029348Y-9191484D01*
X8124586Y-9191484D02*
X8124586Y-9058150D01*
X8124586Y-9077198D02*
X8134110Y-9067674D01*
X8134110Y-9067674D02*
X8153158Y-9058150D01*
X8153158Y-9058150D02*
X8181729Y-9058150D01*
X8181729Y-9058150D02*
X8200777Y-9067674D01*
X8200777Y-9067674D02*
X8210301Y-9086722D01*
X8210301Y-9086722D02*
X8210301Y-9191484D01*
X8210301Y-9086722D02*
X8219824Y-9067674D01*
X8219824Y-9067674D02*
X8238872Y-9058150D01*
X8238872Y-9058150D02*
X8267443Y-9058150D01*
X8267443Y-9058150D02*
X8286491Y-9067674D01*
X8286491Y-9067674D02*
X8296015Y-9086722D01*
X8296015Y-9086722D02*
X8296015Y-9191484D01*
X8686491Y-8981960D02*
X8515063Y-9239103D01*
X8943634Y-8991484D02*
X8962682Y-8991484D01*
X8962682Y-8991484D02*
X8981729Y-9001008D01*
X8981729Y-9001008D02*
X8991253Y-9010531D01*
X8991253Y-9010531D02*
X9000777Y-9029579D01*
X9000777Y-9029579D02*
X9010301Y-9067674D01*
X9010301Y-9067674D02*
X9010301Y-9115293D01*
X9010301Y-9115293D02*
X9000777Y-9153389D01*
X9000777Y-9153389D02*
X8991253Y-9172436D01*
X8991253Y-9172436D02*
X8981729Y-9181960D01*
X8981729Y-9181960D02*
X8962682Y-9191484D01*
X8962682Y-9191484D02*
X8943634Y-9191484D01*
X8943634Y-9191484D02*
X8924587Y-9181960D01*
X8924587Y-9181960D02*
X8915063Y-9172436D01*
X8915063Y-9172436D02*
X8905539Y-9153389D01*
X8905539Y-9153389D02*
X8896015Y-9115293D01*
X8896015Y-9115293D02*
X8896015Y-9067674D01*
X8896015Y-9067674D02*
X8905539Y-9029579D01*
X8905539Y-9029579D02*
X8915063Y-9010531D01*
X8915063Y-9010531D02*
X8924587Y-9001008D01*
X8924587Y-9001008D02*
X8943634Y-8991484D01*
X9096015Y-9172436D02*
X9105539Y-9181960D01*
X9105539Y-9181960D02*
X9096015Y-9191484D01*
X9096015Y-9191484D02*
X9086491Y-9181960D01*
X9086491Y-9181960D02*
X9096015Y-9172436D01*
X9096015Y-9172436D02*
X9096015Y-9191484D01*
X9229348Y-8991484D02*
X9248396Y-8991484D01*
X9248396Y-8991484D02*
X9267444Y-9001008D01*
X9267444Y-9001008D02*
X9276968Y-9010531D01*
X9276968Y-9010531D02*
X9286491Y-9029579D01*
X9286491Y-9029579D02*
X9296015Y-9067674D01*
X9296015Y-9067674D02*
X9296015Y-9115293D01*
X9296015Y-9115293D02*
X9286491Y-9153389D01*
X9286491Y-9153389D02*
X9276968Y-9172436D01*
X9276968Y-9172436D02*
X9267444Y-9181960D01*
X9267444Y-9181960D02*
X9248396Y-9191484D01*
X9248396Y-9191484D02*
X9229348Y-9191484D01*
X9229348Y-9191484D02*
X9210301Y-9181960D01*
X9210301Y-9181960D02*
X9200777Y-9172436D01*
X9200777Y-9172436D02*
X9191253Y-9153389D01*
X9191253Y-9153389D02*
X9181729Y-9115293D01*
X9181729Y-9115293D02*
X9181729Y-9067674D01*
X9181729Y-9067674D02*
X9191253Y-9029579D01*
X9191253Y-9029579D02*
X9200777Y-9010531D01*
X9200777Y-9010531D02*
X9210301Y-9001008D01*
X9210301Y-9001008D02*
X9229348Y-8991484D01*
X9362682Y-8991484D02*
X9496015Y-8991484D01*
X9496015Y-8991484D02*
X9410301Y-9191484D01*
X9610301Y-8991484D02*
X9629349Y-8991484D01*
X9629349Y-8991484D02*
X9648396Y-9001008D01*
X9648396Y-9001008D02*
X9657920Y-9010531D01*
X9657920Y-9010531D02*
X9667444Y-9029579D01*
X9667444Y-9029579D02*
X9676968Y-9067674D01*
X9676968Y-9067674D02*
X9676968Y-9115293D01*
X9676968Y-9115293D02*
X9667444Y-9153389D01*
X9667444Y-9153389D02*
X9657920Y-9172436D01*
X9657920Y-9172436D02*
X9648396Y-9181960D01*
X9648396Y-9181960D02*
X9629349Y-9191484D01*
X9629349Y-9191484D02*
X9610301Y-9191484D01*
X9610301Y-9191484D02*
X9591253Y-9181960D01*
X9591253Y-9181960D02*
X9581729Y-9172436D01*
X9581729Y-9172436D02*
X9572206Y-9153389D01*
X9572206Y-9153389D02*
X9562682Y-9115293D01*
X9562682Y-9115293D02*
X9562682Y-9067674D01*
X9562682Y-9067674D02*
X9572206Y-9029579D01*
X9572206Y-9029579D02*
X9581729Y-9010531D01*
X9581729Y-9010531D02*
X9591253Y-9001008D01*
X9591253Y-9001008D02*
X9610301Y-8991484D01*
X9867444Y-9191484D02*
X9753158Y-9191484D01*
X9810301Y-9191484D02*
X9810301Y-8991484D01*
X9810301Y-8991484D02*
X9791253Y-9020055D01*
X9791253Y-9020055D02*
X9772206Y-9039103D01*
X9772206Y-9039103D02*
X9753158Y-9048627D01*
X9943634Y-8991484D02*
X9943634Y-9029579D01*
X10019825Y-8991484D02*
X10019825Y-9029579D01*
X10315063Y-9267674D02*
X10305539Y-9258150D01*
X10305539Y-9258150D02*
X10286491Y-9229579D01*
X10286491Y-9229579D02*
X10276968Y-9210531D01*
X10276968Y-9210531D02*
X10267444Y-9181960D01*
X10267444Y-9181960D02*
X10257920Y-9134341D01*
X10257920Y-9134341D02*
X10257920Y-9096246D01*
X10257920Y-9096246D02*
X10267444Y-9048627D01*
X10267444Y-9048627D02*
X10276968Y-9020055D01*
X10276968Y-9020055D02*
X10286491Y-9001008D01*
X10286491Y-9001008D02*
X10305539Y-8972436D01*
X10305539Y-8972436D02*
X10315063Y-8962912D01*
X10476968Y-9058150D02*
X10476968Y-9191484D01*
X10429349Y-8981960D02*
X10381730Y-9124817D01*
X10381730Y-9124817D02*
X10505539Y-9124817D01*
X10734111Y-9191484D02*
X10734111Y-8991484D01*
X10819825Y-9191484D02*
X10819825Y-9086722D01*
X10819825Y-9086722D02*
X10810301Y-9067674D01*
X10810301Y-9067674D02*
X10791253Y-9058150D01*
X10791253Y-9058150D02*
X10762682Y-9058150D01*
X10762682Y-9058150D02*
X10743634Y-9067674D01*
X10743634Y-9067674D02*
X10734111Y-9077198D01*
X10943634Y-9191484D02*
X10924587Y-9181960D01*
X10924587Y-9181960D02*
X10915063Y-9172436D01*
X10915063Y-9172436D02*
X10905539Y-9153389D01*
X10905539Y-9153389D02*
X10905539Y-9096246D01*
X10905539Y-9096246D02*
X10915063Y-9077198D01*
X10915063Y-9077198D02*
X10924587Y-9067674D01*
X10924587Y-9067674D02*
X10943634Y-9058150D01*
X10943634Y-9058150D02*
X10972206Y-9058150D01*
X10972206Y-9058150D02*
X10991253Y-9067674D01*
X10991253Y-9067674D02*
X11000777Y-9077198D01*
X11000777Y-9077198D02*
X11010301Y-9096246D01*
X11010301Y-9096246D02*
X11010301Y-9153389D01*
X11010301Y-9153389D02*
X11000777Y-9172436D01*
X11000777Y-9172436D02*
X10991253Y-9181960D01*
X10991253Y-9181960D02*
X10972206Y-9191484D01*
X10972206Y-9191484D02*
X10943634Y-9191484D01*
X11124587Y-9191484D02*
X11105539Y-9181960D01*
X11105539Y-9181960D02*
X11096015Y-9162912D01*
X11096015Y-9162912D02*
X11096015Y-8991484D01*
X11276968Y-9181960D02*
X11257920Y-9191484D01*
X11257920Y-9191484D02*
X11219825Y-9191484D01*
X11219825Y-9191484D02*
X11200777Y-9181960D01*
X11200777Y-9181960D02*
X11191253Y-9162912D01*
X11191253Y-9162912D02*
X11191253Y-9086722D01*
X11191253Y-9086722D02*
X11200777Y-9067674D01*
X11200777Y-9067674D02*
X11219825Y-9058150D01*
X11219825Y-9058150D02*
X11257920Y-9058150D01*
X11257920Y-9058150D02*
X11276968Y-9067674D01*
X11276968Y-9067674D02*
X11286491Y-9086722D01*
X11286491Y-9086722D02*
X11286491Y-9105770D01*
X11286491Y-9105770D02*
X11191253Y-9124817D01*
X11362682Y-9181960D02*
X11381730Y-9191484D01*
X11381730Y-9191484D02*
X11419825Y-9191484D01*
X11419825Y-9191484D02*
X11438872Y-9181960D01*
X11438872Y-9181960D02*
X11448396Y-9162912D01*
X11448396Y-9162912D02*
X11448396Y-9153389D01*
X11448396Y-9153389D02*
X11438872Y-9134341D01*
X11438872Y-9134341D02*
X11419825Y-9124817D01*
X11419825Y-9124817D02*
X11391253Y-9124817D01*
X11391253Y-9124817D02*
X11372206Y-9115293D01*
X11372206Y-9115293D02*
X11362682Y-9096246D01*
X11362682Y-9096246D02*
X11362682Y-9086722D01*
X11362682Y-9086722D02*
X11372206Y-9067674D01*
X11372206Y-9067674D02*
X11391253Y-9058150D01*
X11391253Y-9058150D02*
X11419825Y-9058150D01*
X11419825Y-9058150D02*
X11438872Y-9067674D01*
X11515063Y-9267674D02*
X11524587Y-9258150D01*
X11524587Y-9258150D02*
X11543634Y-9229579D01*
X11543634Y-9229579D02*
X11553158Y-9210531D01*
X11553158Y-9210531D02*
X11562682Y-9181960D01*
X11562682Y-9181960D02*
X11572206Y-9134341D01*
X11572206Y-9134341D02*
X11572206Y-9096246D01*
X11572206Y-9096246D02*
X11562682Y-9048627D01*
X11562682Y-9048627D02*
X11553158Y-9020055D01*
X11553158Y-9020055D02*
X11543634Y-9001008D01*
X11543634Y-9001008D02*
X11524587Y-8972436D01*
X11524587Y-8972436D02*
X11515063Y-8962912D01*
D12*
X6740000Y-9398000D02*
G75*
G02*
X6560000Y-9398000I-90000J0D01*
G01*
X6560000Y-9398000D02*
G75*
G02*
X6740000Y-9398000I90000J0D01*
G01*
D10*
X7105539Y-9489484D02*
X6991253Y-9489484D01*
X7048396Y-9489484D02*
X7048396Y-9289484D01*
X7048396Y-9289484D02*
X7029348Y-9318055D01*
X7029348Y-9318055D02*
X7010301Y-9337103D01*
X7010301Y-9337103D02*
X6991253Y-9346627D01*
X7191253Y-9470436D02*
X7200777Y-9479960D01*
X7200777Y-9479960D02*
X7191253Y-9489484D01*
X7191253Y-9489484D02*
X7181729Y-9479960D01*
X7181729Y-9479960D02*
X7191253Y-9470436D01*
X7191253Y-9470436D02*
X7191253Y-9489484D01*
X7315062Y-9375198D02*
X7296015Y-9365674D01*
X7296015Y-9365674D02*
X7286491Y-9356150D01*
X7286491Y-9356150D02*
X7276967Y-9337103D01*
X7276967Y-9337103D02*
X7276967Y-9327579D01*
X7276967Y-9327579D02*
X7286491Y-9308531D01*
X7286491Y-9308531D02*
X7296015Y-9299008D01*
X7296015Y-9299008D02*
X7315062Y-9289484D01*
X7315062Y-9289484D02*
X7353158Y-9289484D01*
X7353158Y-9289484D02*
X7372205Y-9299008D01*
X7372205Y-9299008D02*
X7381729Y-9308531D01*
X7381729Y-9308531D02*
X7391253Y-9327579D01*
X7391253Y-9327579D02*
X7391253Y-9337103D01*
X7391253Y-9337103D02*
X7381729Y-9356150D01*
X7381729Y-9356150D02*
X7372205Y-9365674D01*
X7372205Y-9365674D02*
X7353158Y-9375198D01*
X7353158Y-9375198D02*
X7315062Y-9375198D01*
X7315062Y-9375198D02*
X7296015Y-9384722D01*
X7296015Y-9384722D02*
X7286491Y-9394246D01*
X7286491Y-9394246D02*
X7276967Y-9413293D01*
X7276967Y-9413293D02*
X7276967Y-9451389D01*
X7276967Y-9451389D02*
X7286491Y-9470436D01*
X7286491Y-9470436D02*
X7296015Y-9479960D01*
X7296015Y-9479960D02*
X7315062Y-9489484D01*
X7315062Y-9489484D02*
X7353158Y-9489484D01*
X7353158Y-9489484D02*
X7372205Y-9479960D01*
X7372205Y-9479960D02*
X7381729Y-9470436D01*
X7381729Y-9470436D02*
X7391253Y-9451389D01*
X7391253Y-9451389D02*
X7391253Y-9413293D01*
X7391253Y-9413293D02*
X7381729Y-9394246D01*
X7381729Y-9394246D02*
X7372205Y-9384722D01*
X7372205Y-9384722D02*
X7353158Y-9375198D01*
X7515062Y-9289484D02*
X7534110Y-9289484D01*
X7534110Y-9289484D02*
X7553158Y-9299008D01*
X7553158Y-9299008D02*
X7562682Y-9308531D01*
X7562682Y-9308531D02*
X7572205Y-9327579D01*
X7572205Y-9327579D02*
X7581729Y-9365674D01*
X7581729Y-9365674D02*
X7581729Y-9413293D01*
X7581729Y-9413293D02*
X7572205Y-9451389D01*
X7572205Y-9451389D02*
X7562682Y-9470436D01*
X7562682Y-9470436D02*
X7553158Y-9479960D01*
X7553158Y-9479960D02*
X7534110Y-9489484D01*
X7534110Y-9489484D02*
X7515062Y-9489484D01*
X7515062Y-9489484D02*
X7496015Y-9479960D01*
X7496015Y-9479960D02*
X7486491Y-9470436D01*
X7486491Y-9470436D02*
X7476967Y-9451389D01*
X7476967Y-9451389D02*
X7467443Y-9413293D01*
X7467443Y-9413293D02*
X7467443Y-9365674D01*
X7467443Y-9365674D02*
X7476967Y-9327579D01*
X7476967Y-9327579D02*
X7486491Y-9308531D01*
X7486491Y-9308531D02*
X7496015Y-9299008D01*
X7496015Y-9299008D02*
X7515062Y-9289484D01*
X7705539Y-9289484D02*
X7724586Y-9289484D01*
X7724586Y-9289484D02*
X7743634Y-9299008D01*
X7743634Y-9299008D02*
X7753158Y-9308531D01*
X7753158Y-9308531D02*
X7762682Y-9327579D01*
X7762682Y-9327579D02*
X7772205Y-9365674D01*
X7772205Y-9365674D02*
X7772205Y-9413293D01*
X7772205Y-9413293D02*
X7762682Y-9451389D01*
X7762682Y-9451389D02*
X7753158Y-9470436D01*
X7753158Y-9470436D02*
X7743634Y-9479960D01*
X7743634Y-9479960D02*
X7724586Y-9489484D01*
X7724586Y-9489484D02*
X7705539Y-9489484D01*
X7705539Y-9489484D02*
X7686491Y-9479960D01*
X7686491Y-9479960D02*
X7676967Y-9470436D01*
X7676967Y-9470436D02*
X7667443Y-9451389D01*
X7667443Y-9451389D02*
X7657920Y-9413293D01*
X7657920Y-9413293D02*
X7657920Y-9365674D01*
X7657920Y-9365674D02*
X7667443Y-9327579D01*
X7667443Y-9327579D02*
X7676967Y-9308531D01*
X7676967Y-9308531D02*
X7686491Y-9299008D01*
X7686491Y-9299008D02*
X7705539Y-9289484D01*
X7857920Y-9489484D02*
X7857920Y-9356150D01*
X7857920Y-9375198D02*
X7867443Y-9365674D01*
X7867443Y-9365674D02*
X7886491Y-9356150D01*
X7886491Y-9356150D02*
X7915063Y-9356150D01*
X7915063Y-9356150D02*
X7934110Y-9365674D01*
X7934110Y-9365674D02*
X7943634Y-9384722D01*
X7943634Y-9384722D02*
X7943634Y-9489484D01*
X7943634Y-9384722D02*
X7953158Y-9365674D01*
X7953158Y-9365674D02*
X7972205Y-9356150D01*
X7972205Y-9356150D02*
X8000777Y-9356150D01*
X8000777Y-9356150D02*
X8019824Y-9365674D01*
X8019824Y-9365674D02*
X8029348Y-9384722D01*
X8029348Y-9384722D02*
X8029348Y-9489484D01*
X8124586Y-9489484D02*
X8124586Y-9356150D01*
X8124586Y-9375198D02*
X8134110Y-9365674D01*
X8134110Y-9365674D02*
X8153158Y-9356150D01*
X8153158Y-9356150D02*
X8181729Y-9356150D01*
X8181729Y-9356150D02*
X8200777Y-9365674D01*
X8200777Y-9365674D02*
X8210301Y-9384722D01*
X8210301Y-9384722D02*
X8210301Y-9489484D01*
X8210301Y-9384722D02*
X8219824Y-9365674D01*
X8219824Y-9365674D02*
X8238872Y-9356150D01*
X8238872Y-9356150D02*
X8267443Y-9356150D01*
X8267443Y-9356150D02*
X8286491Y-9365674D01*
X8286491Y-9365674D02*
X8296015Y-9384722D01*
X8296015Y-9384722D02*
X8296015Y-9489484D01*
X8686491Y-9279960D02*
X8515063Y-9537103D01*
X8943634Y-9289484D02*
X8962682Y-9289484D01*
X8962682Y-9289484D02*
X8981729Y-9299008D01*
X8981729Y-9299008D02*
X8991253Y-9308531D01*
X8991253Y-9308531D02*
X9000777Y-9327579D01*
X9000777Y-9327579D02*
X9010301Y-9365674D01*
X9010301Y-9365674D02*
X9010301Y-9413293D01*
X9010301Y-9413293D02*
X9000777Y-9451389D01*
X9000777Y-9451389D02*
X8991253Y-9470436D01*
X8991253Y-9470436D02*
X8981729Y-9479960D01*
X8981729Y-9479960D02*
X8962682Y-9489484D01*
X8962682Y-9489484D02*
X8943634Y-9489484D01*
X8943634Y-9489484D02*
X8924587Y-9479960D01*
X8924587Y-9479960D02*
X8915063Y-9470436D01*
X8915063Y-9470436D02*
X8905539Y-9451389D01*
X8905539Y-9451389D02*
X8896015Y-9413293D01*
X8896015Y-9413293D02*
X8896015Y-9365674D01*
X8896015Y-9365674D02*
X8905539Y-9327579D01*
X8905539Y-9327579D02*
X8915063Y-9308531D01*
X8915063Y-9308531D02*
X8924587Y-9299008D01*
X8924587Y-9299008D02*
X8943634Y-9289484D01*
X9096015Y-9470436D02*
X9105539Y-9479960D01*
X9105539Y-9479960D02*
X9096015Y-9489484D01*
X9096015Y-9489484D02*
X9086491Y-9479960D01*
X9086491Y-9479960D02*
X9096015Y-9470436D01*
X9096015Y-9470436D02*
X9096015Y-9489484D01*
X9229348Y-9289484D02*
X9248396Y-9289484D01*
X9248396Y-9289484D02*
X9267444Y-9299008D01*
X9267444Y-9299008D02*
X9276968Y-9308531D01*
X9276968Y-9308531D02*
X9286491Y-9327579D01*
X9286491Y-9327579D02*
X9296015Y-9365674D01*
X9296015Y-9365674D02*
X9296015Y-9413293D01*
X9296015Y-9413293D02*
X9286491Y-9451389D01*
X9286491Y-9451389D02*
X9276968Y-9470436D01*
X9276968Y-9470436D02*
X9267444Y-9479960D01*
X9267444Y-9479960D02*
X9248396Y-9489484D01*
X9248396Y-9489484D02*
X9229348Y-9489484D01*
X9229348Y-9489484D02*
X9210301Y-9479960D01*
X9210301Y-9479960D02*
X9200777Y-9470436D01*
X9200777Y-9470436D02*
X9191253Y-9451389D01*
X9191253Y-9451389D02*
X9181729Y-9413293D01*
X9181729Y-9413293D02*
X9181729Y-9365674D01*
X9181729Y-9365674D02*
X9191253Y-9327579D01*
X9191253Y-9327579D02*
X9200777Y-9308531D01*
X9200777Y-9308531D02*
X9210301Y-9299008D01*
X9210301Y-9299008D02*
X9229348Y-9289484D01*
X9362682Y-9289484D02*
X9496015Y-9289484D01*
X9496015Y-9289484D02*
X9410301Y-9489484D01*
X9610301Y-9289484D02*
X9629349Y-9289484D01*
X9629349Y-9289484D02*
X9648396Y-9299008D01*
X9648396Y-9299008D02*
X9657920Y-9308531D01*
X9657920Y-9308531D02*
X9667444Y-9327579D01*
X9667444Y-9327579D02*
X9676968Y-9365674D01*
X9676968Y-9365674D02*
X9676968Y-9413293D01*
X9676968Y-9413293D02*
X9667444Y-9451389D01*
X9667444Y-9451389D02*
X9657920Y-9470436D01*
X9657920Y-9470436D02*
X9648396Y-9479960D01*
X9648396Y-9479960D02*
X9629349Y-9489484D01*
X9629349Y-9489484D02*
X9610301Y-9489484D01*
X9610301Y-9489484D02*
X9591253Y-9479960D01*
X9591253Y-9479960D02*
X9581729Y-9470436D01*
X9581729Y-9470436D02*
X9572206Y-9451389D01*
X9572206Y-9451389D02*
X9562682Y-9413293D01*
X9562682Y-9413293D02*
X9562682Y-9365674D01*
X9562682Y-9365674D02*
X9572206Y-9327579D01*
X9572206Y-9327579D02*
X9581729Y-9308531D01*
X9581729Y-9308531D02*
X9591253Y-9299008D01*
X9591253Y-9299008D02*
X9610301Y-9289484D01*
X9772206Y-9489484D02*
X9810301Y-9489484D01*
X9810301Y-9489484D02*
X9829349Y-9479960D01*
X9829349Y-9479960D02*
X9838872Y-9470436D01*
X9838872Y-9470436D02*
X9857920Y-9441865D01*
X9857920Y-9441865D02*
X9867444Y-9403770D01*
X9867444Y-9403770D02*
X9867444Y-9327579D01*
X9867444Y-9327579D02*
X9857920Y-9308531D01*
X9857920Y-9308531D02*
X9848396Y-9299008D01*
X9848396Y-9299008D02*
X9829349Y-9289484D01*
X9829349Y-9289484D02*
X9791253Y-9289484D01*
X9791253Y-9289484D02*
X9772206Y-9299008D01*
X9772206Y-9299008D02*
X9762682Y-9308531D01*
X9762682Y-9308531D02*
X9753158Y-9327579D01*
X9753158Y-9327579D02*
X9753158Y-9375198D01*
X9753158Y-9375198D02*
X9762682Y-9394246D01*
X9762682Y-9394246D02*
X9772206Y-9403770D01*
X9772206Y-9403770D02*
X9791253Y-9413293D01*
X9791253Y-9413293D02*
X9829349Y-9413293D01*
X9829349Y-9413293D02*
X9848396Y-9403770D01*
X9848396Y-9403770D02*
X9857920Y-9394246D01*
X9857920Y-9394246D02*
X9867444Y-9375198D01*
X9943634Y-9289484D02*
X9943634Y-9327579D01*
X10019825Y-9289484D02*
X10019825Y-9327579D01*
X10315063Y-9565674D02*
X10305539Y-9556150D01*
X10305539Y-9556150D02*
X10286491Y-9527579D01*
X10286491Y-9527579D02*
X10276968Y-9508531D01*
X10276968Y-9508531D02*
X10267444Y-9479960D01*
X10267444Y-9479960D02*
X10257920Y-9432341D01*
X10257920Y-9432341D02*
X10257920Y-9394246D01*
X10257920Y-9394246D02*
X10267444Y-9346627D01*
X10267444Y-9346627D02*
X10276968Y-9318055D01*
X10276968Y-9318055D02*
X10286491Y-9299008D01*
X10286491Y-9299008D02*
X10305539Y-9270436D01*
X10305539Y-9270436D02*
X10315063Y-9260912D01*
X10419825Y-9375198D02*
X10400777Y-9365674D01*
X10400777Y-9365674D02*
X10391253Y-9356150D01*
X10391253Y-9356150D02*
X10381730Y-9337103D01*
X10381730Y-9337103D02*
X10381730Y-9327579D01*
X10381730Y-9327579D02*
X10391253Y-9308531D01*
X10391253Y-9308531D02*
X10400777Y-9299008D01*
X10400777Y-9299008D02*
X10419825Y-9289484D01*
X10419825Y-9289484D02*
X10457920Y-9289484D01*
X10457920Y-9289484D02*
X10476968Y-9299008D01*
X10476968Y-9299008D02*
X10486491Y-9308531D01*
X10486491Y-9308531D02*
X10496015Y-9327579D01*
X10496015Y-9327579D02*
X10496015Y-9337103D01*
X10496015Y-9337103D02*
X10486491Y-9356150D01*
X10486491Y-9356150D02*
X10476968Y-9365674D01*
X10476968Y-9365674D02*
X10457920Y-9375198D01*
X10457920Y-9375198D02*
X10419825Y-9375198D01*
X10419825Y-9375198D02*
X10400777Y-9384722D01*
X10400777Y-9384722D02*
X10391253Y-9394246D01*
X10391253Y-9394246D02*
X10381730Y-9413293D01*
X10381730Y-9413293D02*
X10381730Y-9451389D01*
X10381730Y-9451389D02*
X10391253Y-9470436D01*
X10391253Y-9470436D02*
X10400777Y-9479960D01*
X10400777Y-9479960D02*
X10419825Y-9489484D01*
X10419825Y-9489484D02*
X10457920Y-9489484D01*
X10457920Y-9489484D02*
X10476968Y-9479960D01*
X10476968Y-9479960D02*
X10486491Y-9470436D01*
X10486491Y-9470436D02*
X10496015Y-9451389D01*
X10496015Y-9451389D02*
X10496015Y-9413293D01*
X10496015Y-9413293D02*
X10486491Y-9394246D01*
X10486491Y-9394246D02*
X10476968Y-9384722D01*
X10476968Y-9384722D02*
X10457920Y-9375198D01*
X10734111Y-9489484D02*
X10734111Y-9289484D01*
X10819825Y-9489484D02*
X10819825Y-9384722D01*
X10819825Y-9384722D02*
X10810301Y-9365674D01*
X10810301Y-9365674D02*
X10791253Y-9356150D01*
X10791253Y-9356150D02*
X10762682Y-9356150D01*
X10762682Y-9356150D02*
X10743634Y-9365674D01*
X10743634Y-9365674D02*
X10734111Y-9375198D01*
X10943634Y-9489484D02*
X10924587Y-9479960D01*
X10924587Y-9479960D02*
X10915063Y-9470436D01*
X10915063Y-9470436D02*
X10905539Y-9451389D01*
X10905539Y-9451389D02*
X10905539Y-9394246D01*
X10905539Y-9394246D02*
X10915063Y-9375198D01*
X10915063Y-9375198D02*
X10924587Y-9365674D01*
X10924587Y-9365674D02*
X10943634Y-9356150D01*
X10943634Y-9356150D02*
X10972206Y-9356150D01*
X10972206Y-9356150D02*
X10991253Y-9365674D01*
X10991253Y-9365674D02*
X11000777Y-9375198D01*
X11000777Y-9375198D02*
X11010301Y-9394246D01*
X11010301Y-9394246D02*
X11010301Y-9451389D01*
X11010301Y-9451389D02*
X11000777Y-9470436D01*
X11000777Y-9470436D02*
X10991253Y-9479960D01*
X10991253Y-9479960D02*
X10972206Y-9489484D01*
X10972206Y-9489484D02*
X10943634Y-9489484D01*
X11124587Y-9489484D02*
X11105539Y-9479960D01*
X11105539Y-9479960D02*
X11096015Y-9460912D01*
X11096015Y-9460912D02*
X11096015Y-9289484D01*
X11276968Y-9479960D02*
X11257920Y-9489484D01*
X11257920Y-9489484D02*
X11219825Y-9489484D01*
X11219825Y-9489484D02*
X11200777Y-9479960D01*
X11200777Y-9479960D02*
X11191253Y-9460912D01*
X11191253Y-9460912D02*
X11191253Y-9384722D01*
X11191253Y-9384722D02*
X11200777Y-9365674D01*
X11200777Y-9365674D02*
X11219825Y-9356150D01*
X11219825Y-9356150D02*
X11257920Y-9356150D01*
X11257920Y-9356150D02*
X11276968Y-9365674D01*
X11276968Y-9365674D02*
X11286491Y-9384722D01*
X11286491Y-9384722D02*
X11286491Y-9403770D01*
X11286491Y-9403770D02*
X11191253Y-9422817D01*
X11362682Y-9479960D02*
X11381730Y-9489484D01*
X11381730Y-9489484D02*
X11419825Y-9489484D01*
X11419825Y-9489484D02*
X11438872Y-9479960D01*
X11438872Y-9479960D02*
X11448396Y-9460912D01*
X11448396Y-9460912D02*
X11448396Y-9451389D01*
X11448396Y-9451389D02*
X11438872Y-9432341D01*
X11438872Y-9432341D02*
X11419825Y-9422817D01*
X11419825Y-9422817D02*
X11391253Y-9422817D01*
X11391253Y-9422817D02*
X11372206Y-9413293D01*
X11372206Y-9413293D02*
X11362682Y-9394246D01*
X11362682Y-9394246D02*
X11362682Y-9384722D01*
X11362682Y-9384722D02*
X11372206Y-9365674D01*
X11372206Y-9365674D02*
X11391253Y-9356150D01*
X11391253Y-9356150D02*
X11419825Y-9356150D01*
X11419825Y-9356150D02*
X11438872Y-9365674D01*
X11515063Y-9565674D02*
X11524587Y-9556150D01*
X11524587Y-9556150D02*
X11543634Y-9527579D01*
X11543634Y-9527579D02*
X11553158Y-9508531D01*
X11553158Y-9508531D02*
X11562682Y-9479960D01*
X11562682Y-9479960D02*
X11572206Y-9432341D01*
X11572206Y-9432341D02*
X11572206Y-9394246D01*
X11572206Y-9394246D02*
X11562682Y-9346627D01*
X11562682Y-9346627D02*
X11553158Y-9318055D01*
X11553158Y-9318055D02*
X11543634Y-9299008D01*
X11543634Y-9299008D02*
X11524587Y-9270436D01*
X11524587Y-9270436D02*
X11515063Y-9260912D01*
X6640000Y-9598000D02*
X6640000Y-9798000D01*
X6540000Y-9698000D02*
X6740000Y-9698000D01*
X7086491Y-9589484D02*
X7048396Y-9589484D01*
X7048396Y-9589484D02*
X7029348Y-9599008D01*
X7029348Y-9599008D02*
X7019824Y-9608531D01*
X7019824Y-9608531D02*
X7000777Y-9637103D01*
X7000777Y-9637103D02*
X6991253Y-9675198D01*
X6991253Y-9675198D02*
X6991253Y-9751389D01*
X6991253Y-9751389D02*
X7000777Y-9770436D01*
X7000777Y-9770436D02*
X7010301Y-9779960D01*
X7010301Y-9779960D02*
X7029348Y-9789484D01*
X7029348Y-9789484D02*
X7067443Y-9789484D01*
X7067443Y-9789484D02*
X7086491Y-9779960D01*
X7086491Y-9779960D02*
X7096015Y-9770436D01*
X7096015Y-9770436D02*
X7105539Y-9751389D01*
X7105539Y-9751389D02*
X7105539Y-9703770D01*
X7105539Y-9703770D02*
X7096015Y-9684722D01*
X7096015Y-9684722D02*
X7086491Y-9675198D01*
X7086491Y-9675198D02*
X7067443Y-9665674D01*
X7067443Y-9665674D02*
X7029348Y-9665674D01*
X7029348Y-9665674D02*
X7010301Y-9675198D01*
X7010301Y-9675198D02*
X7000777Y-9684722D01*
X7000777Y-9684722D02*
X6991253Y-9703770D01*
X7191253Y-9770436D02*
X7200777Y-9779960D01*
X7200777Y-9779960D02*
X7191253Y-9789484D01*
X7191253Y-9789484D02*
X7181729Y-9779960D01*
X7181729Y-9779960D02*
X7191253Y-9770436D01*
X7191253Y-9770436D02*
X7191253Y-9789484D01*
X7315062Y-9675198D02*
X7296015Y-9665674D01*
X7296015Y-9665674D02*
X7286491Y-9656150D01*
X7286491Y-9656150D02*
X7276967Y-9637103D01*
X7276967Y-9637103D02*
X7276967Y-9627579D01*
X7276967Y-9627579D02*
X7286491Y-9608531D01*
X7286491Y-9608531D02*
X7296015Y-9599008D01*
X7296015Y-9599008D02*
X7315062Y-9589484D01*
X7315062Y-9589484D02*
X7353158Y-9589484D01*
X7353158Y-9589484D02*
X7372205Y-9599008D01*
X7372205Y-9599008D02*
X7381729Y-9608531D01*
X7381729Y-9608531D02*
X7391253Y-9627579D01*
X7391253Y-9627579D02*
X7391253Y-9637103D01*
X7391253Y-9637103D02*
X7381729Y-9656150D01*
X7381729Y-9656150D02*
X7372205Y-9665674D01*
X7372205Y-9665674D02*
X7353158Y-9675198D01*
X7353158Y-9675198D02*
X7315062Y-9675198D01*
X7315062Y-9675198D02*
X7296015Y-9684722D01*
X7296015Y-9684722D02*
X7286491Y-9694246D01*
X7286491Y-9694246D02*
X7276967Y-9713293D01*
X7276967Y-9713293D02*
X7276967Y-9751389D01*
X7276967Y-9751389D02*
X7286491Y-9770436D01*
X7286491Y-9770436D02*
X7296015Y-9779960D01*
X7296015Y-9779960D02*
X7315062Y-9789484D01*
X7315062Y-9789484D02*
X7353158Y-9789484D01*
X7353158Y-9789484D02*
X7372205Y-9779960D01*
X7372205Y-9779960D02*
X7381729Y-9770436D01*
X7381729Y-9770436D02*
X7391253Y-9751389D01*
X7391253Y-9751389D02*
X7391253Y-9713293D01*
X7391253Y-9713293D02*
X7381729Y-9694246D01*
X7381729Y-9694246D02*
X7372205Y-9684722D01*
X7372205Y-9684722D02*
X7353158Y-9675198D01*
X7515062Y-9589484D02*
X7534110Y-9589484D01*
X7534110Y-9589484D02*
X7553158Y-9599008D01*
X7553158Y-9599008D02*
X7562682Y-9608531D01*
X7562682Y-9608531D02*
X7572205Y-9627579D01*
X7572205Y-9627579D02*
X7581729Y-9665674D01*
X7581729Y-9665674D02*
X7581729Y-9713293D01*
X7581729Y-9713293D02*
X7572205Y-9751389D01*
X7572205Y-9751389D02*
X7562682Y-9770436D01*
X7562682Y-9770436D02*
X7553158Y-9779960D01*
X7553158Y-9779960D02*
X7534110Y-9789484D01*
X7534110Y-9789484D02*
X7515062Y-9789484D01*
X7515062Y-9789484D02*
X7496015Y-9779960D01*
X7496015Y-9779960D02*
X7486491Y-9770436D01*
X7486491Y-9770436D02*
X7476967Y-9751389D01*
X7476967Y-9751389D02*
X7467443Y-9713293D01*
X7467443Y-9713293D02*
X7467443Y-9665674D01*
X7467443Y-9665674D02*
X7476967Y-9627579D01*
X7476967Y-9627579D02*
X7486491Y-9608531D01*
X7486491Y-9608531D02*
X7496015Y-9599008D01*
X7496015Y-9599008D02*
X7515062Y-9589484D01*
X7705539Y-9589484D02*
X7724586Y-9589484D01*
X7724586Y-9589484D02*
X7743634Y-9599008D01*
X7743634Y-9599008D02*
X7753158Y-9608531D01*
X7753158Y-9608531D02*
X7762682Y-9627579D01*
X7762682Y-9627579D02*
X7772205Y-9665674D01*
X7772205Y-9665674D02*
X7772205Y-9713293D01*
X7772205Y-9713293D02*
X7762682Y-9751389D01*
X7762682Y-9751389D02*
X7753158Y-9770436D01*
X7753158Y-9770436D02*
X7743634Y-9779960D01*
X7743634Y-9779960D02*
X7724586Y-9789484D01*
X7724586Y-9789484D02*
X7705539Y-9789484D01*
X7705539Y-9789484D02*
X7686491Y-9779960D01*
X7686491Y-9779960D02*
X7676967Y-9770436D01*
X7676967Y-9770436D02*
X7667443Y-9751389D01*
X7667443Y-9751389D02*
X7657920Y-9713293D01*
X7657920Y-9713293D02*
X7657920Y-9665674D01*
X7657920Y-9665674D02*
X7667443Y-9627579D01*
X7667443Y-9627579D02*
X7676967Y-9608531D01*
X7676967Y-9608531D02*
X7686491Y-9599008D01*
X7686491Y-9599008D02*
X7705539Y-9589484D01*
X7857920Y-9789484D02*
X7857920Y-9656150D01*
X7857920Y-9675198D02*
X7867443Y-9665674D01*
X7867443Y-9665674D02*
X7886491Y-9656150D01*
X7886491Y-9656150D02*
X7915063Y-9656150D01*
X7915063Y-9656150D02*
X7934110Y-9665674D01*
X7934110Y-9665674D02*
X7943634Y-9684722D01*
X7943634Y-9684722D02*
X7943634Y-9789484D01*
X7943634Y-9684722D02*
X7953158Y-9665674D01*
X7953158Y-9665674D02*
X7972205Y-9656150D01*
X7972205Y-9656150D02*
X8000777Y-9656150D01*
X8000777Y-9656150D02*
X8019824Y-9665674D01*
X8019824Y-9665674D02*
X8029348Y-9684722D01*
X8029348Y-9684722D02*
X8029348Y-9789484D01*
X8124586Y-9789484D02*
X8124586Y-9656150D01*
X8124586Y-9675198D02*
X8134110Y-9665674D01*
X8134110Y-9665674D02*
X8153158Y-9656150D01*
X8153158Y-9656150D02*
X8181729Y-9656150D01*
X8181729Y-9656150D02*
X8200777Y-9665674D01*
X8200777Y-9665674D02*
X8210301Y-9684722D01*
X8210301Y-9684722D02*
X8210301Y-9789484D01*
X8210301Y-9684722D02*
X8219824Y-9665674D01*
X8219824Y-9665674D02*
X8238872Y-9656150D01*
X8238872Y-9656150D02*
X8267443Y-9656150D01*
X8267443Y-9656150D02*
X8286491Y-9665674D01*
X8286491Y-9665674D02*
X8296015Y-9684722D01*
X8296015Y-9684722D02*
X8296015Y-9789484D01*
X8686491Y-9579960D02*
X8515063Y-9837103D01*
X8943634Y-9589484D02*
X8962682Y-9589484D01*
X8962682Y-9589484D02*
X8981729Y-9599008D01*
X8981729Y-9599008D02*
X8991253Y-9608531D01*
X8991253Y-9608531D02*
X9000777Y-9627579D01*
X9000777Y-9627579D02*
X9010301Y-9665674D01*
X9010301Y-9665674D02*
X9010301Y-9713293D01*
X9010301Y-9713293D02*
X9000777Y-9751389D01*
X9000777Y-9751389D02*
X8991253Y-9770436D01*
X8991253Y-9770436D02*
X8981729Y-9779960D01*
X8981729Y-9779960D02*
X8962682Y-9789484D01*
X8962682Y-9789484D02*
X8943634Y-9789484D01*
X8943634Y-9789484D02*
X8924587Y-9779960D01*
X8924587Y-9779960D02*
X8915063Y-9770436D01*
X8915063Y-9770436D02*
X8905539Y-9751389D01*
X8905539Y-9751389D02*
X8896015Y-9713293D01*
X8896015Y-9713293D02*
X8896015Y-9665674D01*
X8896015Y-9665674D02*
X8905539Y-9627579D01*
X8905539Y-9627579D02*
X8915063Y-9608531D01*
X8915063Y-9608531D02*
X8924587Y-9599008D01*
X8924587Y-9599008D02*
X8943634Y-9589484D01*
X9096015Y-9770436D02*
X9105539Y-9779960D01*
X9105539Y-9779960D02*
X9096015Y-9789484D01*
X9096015Y-9789484D02*
X9086491Y-9779960D01*
X9086491Y-9779960D02*
X9096015Y-9770436D01*
X9096015Y-9770436D02*
X9096015Y-9789484D01*
X9181729Y-9608531D02*
X9191253Y-9599008D01*
X9191253Y-9599008D02*
X9210301Y-9589484D01*
X9210301Y-9589484D02*
X9257920Y-9589484D01*
X9257920Y-9589484D02*
X9276968Y-9599008D01*
X9276968Y-9599008D02*
X9286491Y-9608531D01*
X9286491Y-9608531D02*
X9296015Y-9627579D01*
X9296015Y-9627579D02*
X9296015Y-9646627D01*
X9296015Y-9646627D02*
X9286491Y-9675198D01*
X9286491Y-9675198D02*
X9172206Y-9789484D01*
X9172206Y-9789484D02*
X9296015Y-9789484D01*
X9467444Y-9589484D02*
X9429348Y-9589484D01*
X9429348Y-9589484D02*
X9410301Y-9599008D01*
X9410301Y-9599008D02*
X9400777Y-9608531D01*
X9400777Y-9608531D02*
X9381729Y-9637103D01*
X9381729Y-9637103D02*
X9372206Y-9675198D01*
X9372206Y-9675198D02*
X9372206Y-9751389D01*
X9372206Y-9751389D02*
X9381729Y-9770436D01*
X9381729Y-9770436D02*
X9391253Y-9779960D01*
X9391253Y-9779960D02*
X9410301Y-9789484D01*
X9410301Y-9789484D02*
X9448396Y-9789484D01*
X9448396Y-9789484D02*
X9467444Y-9779960D01*
X9467444Y-9779960D02*
X9476968Y-9770436D01*
X9476968Y-9770436D02*
X9486491Y-9751389D01*
X9486491Y-9751389D02*
X9486491Y-9703770D01*
X9486491Y-9703770D02*
X9476968Y-9684722D01*
X9476968Y-9684722D02*
X9467444Y-9675198D01*
X9467444Y-9675198D02*
X9448396Y-9665674D01*
X9448396Y-9665674D02*
X9410301Y-9665674D01*
X9410301Y-9665674D02*
X9391253Y-9675198D01*
X9391253Y-9675198D02*
X9381729Y-9684722D01*
X9381729Y-9684722D02*
X9372206Y-9703770D01*
X9553158Y-9589484D02*
X9686491Y-9589484D01*
X9686491Y-9589484D02*
X9600777Y-9789484D01*
X9743634Y-9589484D02*
X9876968Y-9589484D01*
X9876968Y-9589484D02*
X9791253Y-9789484D01*
X9943634Y-9589484D02*
X9943634Y-9627579D01*
X10019825Y-9589484D02*
X10019825Y-9627579D01*
X10315063Y-9865674D02*
X10305539Y-9856150D01*
X10305539Y-9856150D02*
X10286491Y-9827579D01*
X10286491Y-9827579D02*
X10276968Y-9808531D01*
X10276968Y-9808531D02*
X10267444Y-9779960D01*
X10267444Y-9779960D02*
X10257920Y-9732341D01*
X10257920Y-9732341D02*
X10257920Y-9694246D01*
X10257920Y-9694246D02*
X10267444Y-9646627D01*
X10267444Y-9646627D02*
X10276968Y-9618055D01*
X10276968Y-9618055D02*
X10286491Y-9599008D01*
X10286491Y-9599008D02*
X10305539Y-9570436D01*
X10305539Y-9570436D02*
X10315063Y-9560912D01*
X10381730Y-9608531D02*
X10391253Y-9599008D01*
X10391253Y-9599008D02*
X10410301Y-9589484D01*
X10410301Y-9589484D02*
X10457920Y-9589484D01*
X10457920Y-9589484D02*
X10476968Y-9599008D01*
X10476968Y-9599008D02*
X10486491Y-9608531D01*
X10486491Y-9608531D02*
X10496015Y-9627579D01*
X10496015Y-9627579D02*
X10496015Y-9646627D01*
X10496015Y-9646627D02*
X10486491Y-9675198D01*
X10486491Y-9675198D02*
X10372206Y-9789484D01*
X10372206Y-9789484D02*
X10496015Y-9789484D01*
X10734111Y-9789484D02*
X10734111Y-9589484D01*
X10819825Y-9789484D02*
X10819825Y-9684722D01*
X10819825Y-9684722D02*
X10810301Y-9665674D01*
X10810301Y-9665674D02*
X10791253Y-9656150D01*
X10791253Y-9656150D02*
X10762682Y-9656150D01*
X10762682Y-9656150D02*
X10743634Y-9665674D01*
X10743634Y-9665674D02*
X10734111Y-9675198D01*
X10943634Y-9789484D02*
X10924587Y-9779960D01*
X10924587Y-9779960D02*
X10915063Y-9770436D01*
X10915063Y-9770436D02*
X10905539Y-9751389D01*
X10905539Y-9751389D02*
X10905539Y-9694246D01*
X10905539Y-9694246D02*
X10915063Y-9675198D01*
X10915063Y-9675198D02*
X10924587Y-9665674D01*
X10924587Y-9665674D02*
X10943634Y-9656150D01*
X10943634Y-9656150D02*
X10972206Y-9656150D01*
X10972206Y-9656150D02*
X10991253Y-9665674D01*
X10991253Y-9665674D02*
X11000777Y-9675198D01*
X11000777Y-9675198D02*
X11010301Y-9694246D01*
X11010301Y-9694246D02*
X11010301Y-9751389D01*
X11010301Y-9751389D02*
X11000777Y-9770436D01*
X11000777Y-9770436D02*
X10991253Y-9779960D01*
X10991253Y-9779960D02*
X10972206Y-9789484D01*
X10972206Y-9789484D02*
X10943634Y-9789484D01*
X11124587Y-9789484D02*
X11105539Y-9779960D01*
X11105539Y-9779960D02*
X11096015Y-9760912D01*
X11096015Y-9760912D02*
X11096015Y-9589484D01*
X11276968Y-9779960D02*
X11257920Y-9789484D01*
X11257920Y-9789484D02*
X11219825Y-9789484D01*
X11219825Y-9789484D02*
X11200777Y-9779960D01*
X11200777Y-9779960D02*
X11191253Y-9760912D01*
X11191253Y-9760912D02*
X11191253Y-9684722D01*
X11191253Y-9684722D02*
X11200777Y-9665674D01*
X11200777Y-9665674D02*
X11219825Y-9656150D01*
X11219825Y-9656150D02*
X11257920Y-9656150D01*
X11257920Y-9656150D02*
X11276968Y-9665674D01*
X11276968Y-9665674D02*
X11286491Y-9684722D01*
X11286491Y-9684722D02*
X11286491Y-9703770D01*
X11286491Y-9703770D02*
X11191253Y-9722817D01*
X11362682Y-9779960D02*
X11381730Y-9789484D01*
X11381730Y-9789484D02*
X11419825Y-9789484D01*
X11419825Y-9789484D02*
X11438872Y-9779960D01*
X11438872Y-9779960D02*
X11448396Y-9760912D01*
X11448396Y-9760912D02*
X11448396Y-9751389D01*
X11448396Y-9751389D02*
X11438872Y-9732341D01*
X11438872Y-9732341D02*
X11419825Y-9722817D01*
X11419825Y-9722817D02*
X11391253Y-9722817D01*
X11391253Y-9722817D02*
X11372206Y-9713293D01*
X11372206Y-9713293D02*
X11362682Y-9694246D01*
X11362682Y-9694246D02*
X11362682Y-9684722D01*
X11362682Y-9684722D02*
X11372206Y-9665674D01*
X11372206Y-9665674D02*
X11391253Y-9656150D01*
X11391253Y-9656150D02*
X11419825Y-9656150D01*
X11419825Y-9656150D02*
X11438872Y-9665674D01*
X11515063Y-9865674D02*
X11524587Y-9856150D01*
X11524587Y-9856150D02*
X11543634Y-9827579D01*
X11543634Y-9827579D02*
X11553158Y-9808531D01*
X11553158Y-9808531D02*
X11562682Y-9779960D01*
X11562682Y-9779960D02*
X11572206Y-9732341D01*
X11572206Y-9732341D02*
X11572206Y-9694246D01*
X11572206Y-9694246D02*
X11562682Y-9646627D01*
X11562682Y-9646627D02*
X11553158Y-9618055D01*
X11553158Y-9618055D02*
X11543634Y-9599008D01*
X11543634Y-9599008D02*
X11524587Y-9570436D01*
X11524587Y-9570436D02*
X11515063Y-9560912D01*
M02*
