%TF.GenerationSoftware,KiCad,Pcbnew,8.0.5*%
%TF.CreationDate,2024-12-04T12:46:02-05:00*%
%TF.ProjectId,RailsidePDB,5261696c-7369-4646-9550-44422e6b6963,rev?*%
%TF.SameCoordinates,Original*%
%TF.FileFunction,Drillmap*%
%TF.FilePolarity,Positive*%
%FSLAX45Y45*%
G04 Gerber Fmt 4.5, Leading zero omitted, Abs format (unit mm)*
G04 Created by KiCad (PCBNEW 8.0.5) date 2024-12-04 12:46:02*
%MOMM*%
%LPD*%
G01*
G04 APERTURE LIST*
%ADD10C,0.200000*%
G04 APERTURE END LIST*
D10*
X6750000Y-6200000D02*
X11250000Y-6200000D01*
X11250000Y-8450000D01*
X6750000Y-8450000D01*
X6750000Y-6200000D01*
X7000777Y-8771484D02*
X7000777Y-8571484D01*
X7000777Y-8571484D02*
X7048396Y-8571484D01*
X7048396Y-8571484D02*
X7076967Y-8581008D01*
X7076967Y-8581008D02*
X7096015Y-8600055D01*
X7096015Y-8600055D02*
X7105539Y-8619103D01*
X7105539Y-8619103D02*
X7115062Y-8657198D01*
X7115062Y-8657198D02*
X7115062Y-8685770D01*
X7115062Y-8685770D02*
X7105539Y-8723865D01*
X7105539Y-8723865D02*
X7096015Y-8742912D01*
X7096015Y-8742912D02*
X7076967Y-8761960D01*
X7076967Y-8761960D02*
X7048396Y-8771484D01*
X7048396Y-8771484D02*
X7000777Y-8771484D01*
X7200777Y-8771484D02*
X7200777Y-8638150D01*
X7200777Y-8676246D02*
X7210301Y-8657198D01*
X7210301Y-8657198D02*
X7219824Y-8647674D01*
X7219824Y-8647674D02*
X7238872Y-8638150D01*
X7238872Y-8638150D02*
X7257920Y-8638150D01*
X7324586Y-8771484D02*
X7324586Y-8638150D01*
X7324586Y-8571484D02*
X7315062Y-8581008D01*
X7315062Y-8581008D02*
X7324586Y-8590531D01*
X7324586Y-8590531D02*
X7334110Y-8581008D01*
X7334110Y-8581008D02*
X7324586Y-8571484D01*
X7324586Y-8571484D02*
X7324586Y-8590531D01*
X7448396Y-8771484D02*
X7429348Y-8761960D01*
X7429348Y-8761960D02*
X7419824Y-8742912D01*
X7419824Y-8742912D02*
X7419824Y-8571484D01*
X7553158Y-8771484D02*
X7534110Y-8761960D01*
X7534110Y-8761960D02*
X7524586Y-8742912D01*
X7524586Y-8742912D02*
X7524586Y-8571484D01*
X7781729Y-8771484D02*
X7781729Y-8571484D01*
X7781729Y-8571484D02*
X7848396Y-8714341D01*
X7848396Y-8714341D02*
X7915062Y-8571484D01*
X7915062Y-8571484D02*
X7915062Y-8771484D01*
X8096015Y-8771484D02*
X8096015Y-8666722D01*
X8096015Y-8666722D02*
X8086491Y-8647674D01*
X8086491Y-8647674D02*
X8067443Y-8638150D01*
X8067443Y-8638150D02*
X8029348Y-8638150D01*
X8029348Y-8638150D02*
X8010301Y-8647674D01*
X8096015Y-8761960D02*
X8076967Y-8771484D01*
X8076967Y-8771484D02*
X8029348Y-8771484D01*
X8029348Y-8771484D02*
X8010301Y-8761960D01*
X8010301Y-8761960D02*
X8000777Y-8742912D01*
X8000777Y-8742912D02*
X8000777Y-8723865D01*
X8000777Y-8723865D02*
X8010301Y-8704817D01*
X8010301Y-8704817D02*
X8029348Y-8695293D01*
X8029348Y-8695293D02*
X8076967Y-8695293D01*
X8076967Y-8695293D02*
X8096015Y-8685770D01*
X8191253Y-8638150D02*
X8191253Y-8838150D01*
X8191253Y-8647674D02*
X8210301Y-8638150D01*
X8210301Y-8638150D02*
X8248396Y-8638150D01*
X8248396Y-8638150D02*
X8267443Y-8647674D01*
X8267443Y-8647674D02*
X8276967Y-8657198D01*
X8276967Y-8657198D02*
X8286491Y-8676246D01*
X8286491Y-8676246D02*
X8286491Y-8733389D01*
X8286491Y-8733389D02*
X8276967Y-8752436D01*
X8276967Y-8752436D02*
X8267443Y-8761960D01*
X8267443Y-8761960D02*
X8248396Y-8771484D01*
X8248396Y-8771484D02*
X8210301Y-8771484D01*
X8210301Y-8771484D02*
X8191253Y-8761960D01*
X8372205Y-8752436D02*
X8381729Y-8761960D01*
X8381729Y-8761960D02*
X8372205Y-8771484D01*
X8372205Y-8771484D02*
X8362682Y-8761960D01*
X8362682Y-8761960D02*
X8372205Y-8752436D01*
X8372205Y-8752436D02*
X8372205Y-8771484D01*
X8372205Y-8647674D02*
X8381729Y-8657198D01*
X8381729Y-8657198D02*
X8372205Y-8666722D01*
X8372205Y-8666722D02*
X8362682Y-8657198D01*
X8362682Y-8657198D02*
X8372205Y-8647674D01*
X8372205Y-8647674D02*
X8372205Y-8666722D01*
M02*
