%TF.GenerationSoftware,KiCad,Pcbnew,8.0.6*%
%TF.CreationDate,2024-11-20T20:18:22-05:00*%
%TF.ProjectId,RailsidePDB,5261696c-7369-4646-9550-44422e6b6963,rev?*%
%TF.SameCoordinates,Original*%
%TF.FileFunction,Drillmap*%
%TF.FilePolarity,Positive*%
%FSLAX45Y45*%
G04 Gerber Fmt 4.5, Leading zero omitted, Abs format (unit mm)*
G04 Created by KiCad (PCBNEW 8.0.6) date 2024-11-20 20:18:22*
%MOMM*%
%LPD*%
G01*
G04 APERTURE LIST*
%ADD10C,0.050000*%
%ADD11C,0.200000*%
%ADD12C,0.100000*%
%ADD13C,0.178000*%
%ADD14C,0.180000*%
%ADD15C,0.425000*%
G04 APERTURE END LIST*
D10*
X5100000Y-6350000D02*
X11500000Y-6350000D01*
X11500000Y-15800000D01*
X5100000Y-15800000D01*
X5100000Y-6350000D01*
D11*
D12*
X9398000Y-11570000D02*
X9478000Y-11650000D01*
X9478000Y-11570000D02*
X9398000Y-11650000D01*
X9482000Y-9086000D02*
X9562000Y-9166000D01*
X9562000Y-9086000D02*
X9482000Y-9166000D01*
X9482000Y-13990000D02*
X9562000Y-14070000D01*
X9562000Y-13990000D02*
X9482000Y-14070000D01*
X9498000Y-6660000D02*
X9578000Y-6740000D01*
X9578000Y-6660000D02*
X9498000Y-6740000D01*
X10160000Y-11570000D02*
X10240000Y-11650000D01*
X10240000Y-11570000D02*
X10160000Y-11650000D01*
X10244000Y-9086000D02*
X10324000Y-9166000D01*
X10324000Y-9086000D02*
X10244000Y-9166000D01*
X10244000Y-13990000D02*
X10324000Y-14070000D01*
X10324000Y-13990000D02*
X10244000Y-14070000D01*
X10260000Y-6660000D02*
X10340000Y-6740000D01*
X10340000Y-6660000D02*
X10260000Y-6740000D01*
D13*
X9193000Y-12240000D02*
G75*
G02*
X9015000Y-12240000I-89000J0D01*
G01*
X9015000Y-12240000D02*
G75*
G02*
X9193000Y-12240000I89000J0D01*
G01*
X9193000Y-12580000D02*
G75*
G02*
X9015000Y-12580000I-89000J0D01*
G01*
X9015000Y-12580000D02*
G75*
G02*
X9193000Y-12580000I89000J0D01*
G01*
X9277000Y-9756000D02*
G75*
G02*
X9099000Y-9756000I-89000J0D01*
G01*
X9099000Y-9756000D02*
G75*
G02*
X9277000Y-9756000I89000J0D01*
G01*
X9277000Y-10096000D02*
G75*
G02*
X9099000Y-10096000I-89000J0D01*
G01*
X9099000Y-10096000D02*
G75*
G02*
X9277000Y-10096000I89000J0D01*
G01*
X9277000Y-14660000D02*
G75*
G02*
X9099000Y-14660000I-89000J0D01*
G01*
X9099000Y-14660000D02*
G75*
G02*
X9277000Y-14660000I89000J0D01*
G01*
X9277000Y-15000000D02*
G75*
G02*
X9099000Y-15000000I-89000J0D01*
G01*
X9099000Y-15000000D02*
G75*
G02*
X9277000Y-15000000I89000J0D01*
G01*
X9293000Y-7330000D02*
G75*
G02*
X9115000Y-7330000I-89000J0D01*
G01*
X9115000Y-7330000D02*
G75*
G02*
X9293000Y-7330000I89000J0D01*
G01*
X9293000Y-7670000D02*
G75*
G02*
X9115000Y-7670000I-89000J0D01*
G01*
X9115000Y-7670000D02*
G75*
G02*
X9293000Y-7670000I89000J0D01*
G01*
X10185000Y-12240000D02*
G75*
G02*
X10007000Y-12240000I-89000J0D01*
G01*
X10007000Y-12240000D02*
G75*
G02*
X10185000Y-12240000I89000J0D01*
G01*
X10185000Y-12580000D02*
G75*
G02*
X10007000Y-12580000I-89000J0D01*
G01*
X10007000Y-12580000D02*
G75*
G02*
X10185000Y-12580000I89000J0D01*
G01*
X10269000Y-9756000D02*
G75*
G02*
X10091000Y-9756000I-89000J0D01*
G01*
X10091000Y-9756000D02*
G75*
G02*
X10269000Y-9756000I89000J0D01*
G01*
X10269000Y-10096000D02*
G75*
G02*
X10091000Y-10096000I-89000J0D01*
G01*
X10091000Y-10096000D02*
G75*
G02*
X10269000Y-10096000I89000J0D01*
G01*
X10269000Y-14660000D02*
G75*
G02*
X10091000Y-14660000I-89000J0D01*
G01*
X10091000Y-14660000D02*
G75*
G02*
X10269000Y-14660000I89000J0D01*
G01*
X10269000Y-15000000D02*
G75*
G02*
X10091000Y-15000000I-89000J0D01*
G01*
X10091000Y-15000000D02*
G75*
G02*
X10269000Y-15000000I89000J0D01*
G01*
X10285000Y-7330000D02*
G75*
G02*
X10107000Y-7330000I-89000J0D01*
G01*
X10107000Y-7330000D02*
G75*
G02*
X10285000Y-7330000I89000J0D01*
G01*
X10285000Y-7670000D02*
G75*
G02*
X10107000Y-7670000I-89000J0D01*
G01*
X10107000Y-7670000D02*
G75*
G02*
X10285000Y-7670000I89000J0D01*
G01*
D14*
X5300000Y-8510000D02*
X5300000Y-8690000D01*
X5210000Y-8600000D02*
X5390000Y-8600000D01*
X5300000Y-10910000D02*
X5300000Y-11090000D01*
X5210000Y-11000000D02*
X5390000Y-11000000D01*
X5300000Y-13410000D02*
X5300000Y-13590000D01*
X5210000Y-13500000D02*
X5390000Y-13500000D01*
X5500000Y-8510000D02*
X5500000Y-8690000D01*
X5410000Y-8600000D02*
X5590000Y-8600000D01*
X5500000Y-10910000D02*
X5500000Y-11090000D01*
X5410000Y-11000000D02*
X5590000Y-11000000D01*
X5500000Y-13410000D02*
X5500000Y-13590000D01*
X5410000Y-13500000D02*
X5590000Y-13500000D01*
X5700000Y-8510000D02*
X5700000Y-8690000D01*
X5610000Y-8600000D02*
X5790000Y-8600000D01*
X5700000Y-10910000D02*
X5700000Y-11090000D01*
X5610000Y-11000000D02*
X5790000Y-11000000D01*
X5700000Y-13410000D02*
X5700000Y-13590000D01*
X5610000Y-13500000D02*
X5790000Y-13500000D01*
X5900000Y-8510000D02*
X5900000Y-8690000D01*
X5810000Y-8600000D02*
X5990000Y-8600000D01*
X5900000Y-10910000D02*
X5900000Y-11090000D01*
X5810000Y-11000000D02*
X5990000Y-11000000D01*
X5900000Y-13410000D02*
X5900000Y-13590000D01*
X5810000Y-13500000D02*
X5990000Y-13500000D01*
X6100000Y-8510000D02*
X6100000Y-8690000D01*
X6010000Y-8600000D02*
X6190000Y-8600000D01*
X6100000Y-10910000D02*
X6100000Y-11090000D01*
X6010000Y-11000000D02*
X6190000Y-11000000D01*
X6100000Y-13410000D02*
X6100000Y-13590000D01*
X6010000Y-13500000D02*
X6190000Y-13500000D01*
X6277500Y-11897500D02*
X6277500Y-12077500D01*
X6187500Y-11987500D02*
X6367500Y-11987500D01*
X6277500Y-12397500D02*
X6277500Y-12577500D01*
X6187500Y-12487500D02*
X6367500Y-12487500D01*
X6300000Y-8510000D02*
X6300000Y-8690000D01*
X6210000Y-8600000D02*
X6390000Y-8600000D01*
X6300000Y-10910000D02*
X6300000Y-11090000D01*
X6210000Y-11000000D02*
X6390000Y-11000000D01*
X6300000Y-13410000D02*
X6300000Y-13590000D01*
X6210000Y-13500000D02*
X6390000Y-13500000D01*
X6361500Y-9413500D02*
X6361500Y-9593500D01*
X6271500Y-9503500D02*
X6451500Y-9503500D01*
X6361500Y-9913500D02*
X6361500Y-10093500D01*
X6271500Y-10003500D02*
X6451500Y-10003500D01*
X6361500Y-14317500D02*
X6361500Y-14497500D01*
X6271500Y-14407500D02*
X6451500Y-14407500D01*
X6361500Y-14817500D02*
X6361500Y-14997500D01*
X6271500Y-14907500D02*
X6451500Y-14907500D01*
X6377500Y-6987500D02*
X6377500Y-7167500D01*
X6287500Y-7077500D02*
X6467500Y-7077500D01*
X6377500Y-7487500D02*
X6377500Y-7667500D01*
X6287500Y-7577500D02*
X6467500Y-7577500D01*
X6500000Y-8510000D02*
X6500000Y-8690000D01*
X6410000Y-8600000D02*
X6590000Y-8600000D01*
X6500000Y-10910000D02*
X6500000Y-11090000D01*
X6410000Y-11000000D02*
X6590000Y-11000000D01*
X6500000Y-13410000D02*
X6500000Y-13590000D01*
X6410000Y-13500000D02*
X6590000Y-13500000D01*
X6700000Y-8510000D02*
X6700000Y-8690000D01*
X6610000Y-8600000D02*
X6790000Y-8600000D01*
X6700000Y-10910000D02*
X6700000Y-11090000D01*
X6610000Y-11000000D02*
X6790000Y-11000000D01*
X6700000Y-13410000D02*
X6700000Y-13590000D01*
X6610000Y-13500000D02*
X6790000Y-13500000D01*
X6900000Y-8510000D02*
X6900000Y-8690000D01*
X6810000Y-8600000D02*
X6990000Y-8600000D01*
X6900000Y-10910000D02*
X6900000Y-11090000D01*
X6810000Y-11000000D02*
X6990000Y-11000000D01*
X6900000Y-13410000D02*
X6900000Y-13590000D01*
X6810000Y-13500000D02*
X6990000Y-13500000D01*
X6957500Y-11897500D02*
X6957500Y-12077500D01*
X6867500Y-11987500D02*
X7047500Y-11987500D01*
X6957500Y-12397500D02*
X6957500Y-12577500D01*
X6867500Y-12487500D02*
X7047500Y-12487500D01*
X7041500Y-9413500D02*
X7041500Y-9593500D01*
X6951500Y-9503500D02*
X7131500Y-9503500D01*
X7041500Y-9913500D02*
X7041500Y-10093500D01*
X6951500Y-10003500D02*
X7131500Y-10003500D01*
X7041500Y-14317500D02*
X7041500Y-14497500D01*
X6951500Y-14407500D02*
X7131500Y-14407500D01*
X7041500Y-14817500D02*
X7041500Y-14997500D01*
X6951500Y-14907500D02*
X7131500Y-14907500D01*
X7057500Y-6987500D02*
X7057500Y-7167500D01*
X6967500Y-7077500D02*
X7147500Y-7077500D01*
X7057500Y-7487500D02*
X7057500Y-7667500D01*
X6967500Y-7577500D02*
X7147500Y-7577500D01*
X7100000Y-8510000D02*
X7100000Y-8690000D01*
X7010000Y-8600000D02*
X7190000Y-8600000D01*
X7100000Y-10910000D02*
X7100000Y-11090000D01*
X7010000Y-11000000D02*
X7190000Y-11000000D01*
X7100000Y-13410000D02*
X7100000Y-13590000D01*
X7010000Y-13500000D02*
X7190000Y-13500000D01*
X7300000Y-8510000D02*
X7300000Y-8690000D01*
X7210000Y-8600000D02*
X7390000Y-8600000D01*
X7300000Y-10910000D02*
X7300000Y-11090000D01*
X7210000Y-11000000D02*
X7390000Y-11000000D01*
X7300000Y-13410000D02*
X7300000Y-13590000D01*
X7210000Y-13500000D02*
X7390000Y-13500000D01*
X7500000Y-8510000D02*
X7500000Y-8690000D01*
X7410000Y-8600000D02*
X7590000Y-8600000D01*
X7500000Y-10910000D02*
X7500000Y-11090000D01*
X7410000Y-11000000D02*
X7590000Y-11000000D01*
X7500000Y-13410000D02*
X7500000Y-13590000D01*
X7410000Y-13500000D02*
X7590000Y-13500000D01*
X7660000Y-11915000D02*
X7660000Y-12095000D01*
X7570000Y-12005000D02*
X7750000Y-12005000D01*
X7660000Y-12415000D02*
X7660000Y-12595000D01*
X7570000Y-12505000D02*
X7750000Y-12505000D01*
X7700000Y-8510000D02*
X7700000Y-8690000D01*
X7610000Y-8600000D02*
X7790000Y-8600000D01*
X7700000Y-10910000D02*
X7700000Y-11090000D01*
X7610000Y-11000000D02*
X7790000Y-11000000D01*
X7700000Y-13410000D02*
X7700000Y-13590000D01*
X7610000Y-13500000D02*
X7790000Y-13500000D01*
X7744000Y-9431000D02*
X7744000Y-9611000D01*
X7654000Y-9521000D02*
X7834000Y-9521000D01*
X7744000Y-9931000D02*
X7744000Y-10111000D01*
X7654000Y-10021000D02*
X7834000Y-10021000D01*
X7744000Y-14335000D02*
X7744000Y-14515000D01*
X7654000Y-14425000D02*
X7834000Y-14425000D01*
X7744000Y-14835000D02*
X7744000Y-15015000D01*
X7654000Y-14925000D02*
X7834000Y-14925000D01*
X7760000Y-7005000D02*
X7760000Y-7185000D01*
X7670000Y-7095000D02*
X7850000Y-7095000D01*
X7760000Y-7505000D02*
X7760000Y-7685000D01*
X7670000Y-7595000D02*
X7850000Y-7595000D01*
X7900000Y-8510000D02*
X7900000Y-8690000D01*
X7810000Y-8600000D02*
X7990000Y-8600000D01*
X7900000Y-10910000D02*
X7900000Y-11090000D01*
X7810000Y-11000000D02*
X7990000Y-11000000D01*
X7900000Y-13410000D02*
X7900000Y-13590000D01*
X7810000Y-13500000D02*
X7990000Y-13500000D01*
X8100000Y-8510000D02*
X8100000Y-8690000D01*
X8010000Y-8600000D02*
X8190000Y-8600000D01*
X8100000Y-10910000D02*
X8100000Y-11090000D01*
X8010000Y-11000000D02*
X8190000Y-11000000D01*
X8100000Y-13410000D02*
X8100000Y-13590000D01*
X8010000Y-13500000D02*
X8190000Y-13500000D01*
X8300000Y-8510000D02*
X8300000Y-8690000D01*
X8210000Y-8600000D02*
X8390000Y-8600000D01*
X8300000Y-10910000D02*
X8300000Y-11090000D01*
X8210000Y-11000000D02*
X8390000Y-11000000D01*
X8300000Y-13410000D02*
X8300000Y-13590000D01*
X8210000Y-13500000D02*
X8390000Y-13500000D01*
X8350000Y-11920000D02*
X8350000Y-12100000D01*
X8260000Y-12010000D02*
X8440000Y-12010000D01*
X8350000Y-12420000D02*
X8350000Y-12600000D01*
X8260000Y-12510000D02*
X8440000Y-12510000D01*
X8434000Y-9436000D02*
X8434000Y-9616000D01*
X8344000Y-9526000D02*
X8524000Y-9526000D01*
X8434000Y-9936000D02*
X8434000Y-10116000D01*
X8344000Y-10026000D02*
X8524000Y-10026000D01*
X8434000Y-14340000D02*
X8434000Y-14520000D01*
X8344000Y-14430000D02*
X8524000Y-14430000D01*
X8434000Y-14840000D02*
X8434000Y-15020000D01*
X8344000Y-14930000D02*
X8524000Y-14930000D01*
X8450000Y-7010000D02*
X8450000Y-7190000D01*
X8360000Y-7100000D02*
X8540000Y-7100000D01*
X8450000Y-7510000D02*
X8450000Y-7690000D01*
X8360000Y-7600000D02*
X8540000Y-7600000D01*
X8500000Y-8510000D02*
X8500000Y-8690000D01*
X8410000Y-8600000D02*
X8590000Y-8600000D01*
X8500000Y-10910000D02*
X8500000Y-11090000D01*
X8410000Y-11000000D02*
X8590000Y-11000000D01*
X8500000Y-13410000D02*
X8500000Y-13590000D01*
X8410000Y-13500000D02*
X8590000Y-13500000D01*
X8700000Y-8510000D02*
X8700000Y-8690000D01*
X8610000Y-8600000D02*
X8790000Y-8600000D01*
X8700000Y-10910000D02*
X8700000Y-11090000D01*
X8610000Y-11000000D02*
X8790000Y-11000000D01*
X8700000Y-13410000D02*
X8700000Y-13590000D01*
X8610000Y-13500000D02*
X8790000Y-13500000D01*
X8900000Y-8510000D02*
X8900000Y-8690000D01*
X8810000Y-8600000D02*
X8990000Y-8600000D01*
X8900000Y-10910000D02*
X8900000Y-11090000D01*
X8810000Y-11000000D02*
X8990000Y-11000000D01*
X8900000Y-13410000D02*
X8900000Y-13590000D01*
X8810000Y-13500000D02*
X8990000Y-13500000D01*
X9100000Y-8510000D02*
X9100000Y-8690000D01*
X9010000Y-8600000D02*
X9190000Y-8600000D01*
X9100000Y-10910000D02*
X9100000Y-11090000D01*
X9010000Y-11000000D02*
X9190000Y-11000000D01*
X9100000Y-13410000D02*
X9100000Y-13590000D01*
X9010000Y-13500000D02*
X9190000Y-13500000D01*
X9300000Y-8510000D02*
X9300000Y-8690000D01*
X9210000Y-8600000D02*
X9390000Y-8600000D01*
X9300000Y-10910000D02*
X9300000Y-11090000D01*
X9210000Y-11000000D02*
X9390000Y-11000000D01*
X9300000Y-13410000D02*
X9300000Y-13590000D01*
X9210000Y-13500000D02*
X9390000Y-13500000D01*
X9500000Y-8510000D02*
X9500000Y-8690000D01*
X9410000Y-8600000D02*
X9590000Y-8600000D01*
X9500000Y-10910000D02*
X9500000Y-11090000D01*
X9410000Y-11000000D02*
X9590000Y-11000000D01*
X9500000Y-13410000D02*
X9500000Y-13590000D01*
X9410000Y-13500000D02*
X9590000Y-13500000D01*
X9700000Y-8510000D02*
X9700000Y-8690000D01*
X9610000Y-8600000D02*
X9790000Y-8600000D01*
X9700000Y-10910000D02*
X9700000Y-11090000D01*
X9610000Y-11000000D02*
X9790000Y-11000000D01*
X9700000Y-13410000D02*
X9700000Y-13590000D01*
X9610000Y-13500000D02*
X9790000Y-13500000D01*
X9900000Y-8510000D02*
X9900000Y-8690000D01*
X9810000Y-8600000D02*
X9990000Y-8600000D01*
X9900000Y-10910000D02*
X9900000Y-11090000D01*
X9810000Y-11000000D02*
X9990000Y-11000000D01*
X9900000Y-13410000D02*
X9900000Y-13590000D01*
X9810000Y-13500000D02*
X9990000Y-13500000D01*
X10100000Y-8510000D02*
X10100000Y-8690000D01*
X10010000Y-8600000D02*
X10190000Y-8600000D01*
X10100000Y-10910000D02*
X10100000Y-11090000D01*
X10010000Y-11000000D02*
X10190000Y-11000000D01*
X10100000Y-13410000D02*
X10100000Y-13590000D01*
X10010000Y-13500000D02*
X10190000Y-13500000D01*
X10300000Y-8510000D02*
X10300000Y-8690000D01*
X10210000Y-8600000D02*
X10390000Y-8600000D01*
X10300000Y-10910000D02*
X10300000Y-11090000D01*
X10210000Y-11000000D02*
X10390000Y-11000000D01*
X10300000Y-13410000D02*
X10300000Y-13590000D01*
X10210000Y-13500000D02*
X10390000Y-13500000D01*
X10500000Y-8510000D02*
X10500000Y-8690000D01*
X10410000Y-8600000D02*
X10590000Y-8600000D01*
X10500000Y-10910000D02*
X10500000Y-11090000D01*
X10410000Y-11000000D02*
X10590000Y-11000000D01*
X10500000Y-13410000D02*
X10500000Y-13590000D01*
X10410000Y-13500000D02*
X10590000Y-13500000D01*
X10700000Y-8510000D02*
X10700000Y-8690000D01*
X10610000Y-8600000D02*
X10790000Y-8600000D01*
X10700000Y-10910000D02*
X10700000Y-11090000D01*
X10610000Y-11000000D02*
X10790000Y-11000000D01*
X10700000Y-13410000D02*
X10700000Y-13590000D01*
X10610000Y-13500000D02*
X10790000Y-13500000D01*
X10816000Y-11931000D02*
X10816000Y-12111000D01*
X10726000Y-12021000D02*
X10906000Y-12021000D01*
X10816000Y-12431000D02*
X10816000Y-12611000D01*
X10726000Y-12521000D02*
X10906000Y-12521000D01*
X10900000Y-8510000D02*
X10900000Y-8690000D01*
X10810000Y-8600000D02*
X10990000Y-8600000D01*
X10900000Y-9447000D02*
X10900000Y-9627000D01*
X10810000Y-9537000D02*
X10990000Y-9537000D01*
X10900000Y-9947000D02*
X10900000Y-10127000D01*
X10810000Y-10037000D02*
X10990000Y-10037000D01*
X10900000Y-10910000D02*
X10900000Y-11090000D01*
X10810000Y-11000000D02*
X10990000Y-11000000D01*
X10900000Y-13410000D02*
X10900000Y-13590000D01*
X10810000Y-13500000D02*
X10990000Y-13500000D01*
X10900000Y-14351000D02*
X10900000Y-14531000D01*
X10810000Y-14441000D02*
X10990000Y-14441000D01*
X10900000Y-14851000D02*
X10900000Y-15031000D01*
X10810000Y-14941000D02*
X10990000Y-14941000D01*
X10916000Y-7021000D02*
X10916000Y-7201000D01*
X10826000Y-7111000D02*
X11006000Y-7111000D01*
X10916000Y-7521000D02*
X10916000Y-7701000D01*
X10826000Y-7611000D02*
X11006000Y-7611000D01*
X11100000Y-8510000D02*
X11100000Y-8690000D01*
X11010000Y-8600000D02*
X11190000Y-8600000D01*
X11100000Y-10910000D02*
X11100000Y-11090000D01*
X11010000Y-11000000D02*
X11190000Y-11000000D01*
X11100000Y-13410000D02*
X11100000Y-13590000D01*
X11010000Y-13500000D02*
X11190000Y-13500000D01*
X11300000Y-8510000D02*
X11300000Y-8690000D01*
X11210000Y-8600000D02*
X11390000Y-8600000D01*
X11300000Y-10910000D02*
X11300000Y-11090000D01*
X11210000Y-11000000D02*
X11390000Y-11000000D01*
X11300000Y-13410000D02*
X11300000Y-13590000D01*
X11210000Y-13500000D02*
X11390000Y-13500000D01*
D15*
X5650262Y-12360262D02*
X5650262Y-12059738D01*
X5349738Y-12059738D01*
X5349738Y-12360262D01*
X5650262Y-12360262D01*
X5734262Y-9876262D02*
X5734262Y-9575738D01*
X5433738Y-9575738D01*
X5433738Y-9876262D01*
X5734262Y-9876262D01*
X5734262Y-14780262D02*
X5734262Y-14479738D01*
X5433738Y-14479738D01*
X5433738Y-14780262D01*
X5734262Y-14780262D01*
X5750262Y-7450262D02*
X5750262Y-7149738D01*
X5449738Y-7149738D01*
X5449738Y-7450262D01*
X5750262Y-7450262D01*
X9880762Y-11760262D02*
X9880762Y-11459738D01*
X9580238Y-11459738D01*
X9580238Y-11760262D01*
X9880762Y-11760262D01*
X9964762Y-9276262D02*
X9964762Y-8975738D01*
X9664238Y-8975738D01*
X9664238Y-9276262D01*
X9964762Y-9276262D01*
X9964762Y-14180262D02*
X9964762Y-13879738D01*
X9664238Y-13879738D01*
X9664238Y-14180262D01*
X9964762Y-14180262D01*
X9980762Y-6850262D02*
X9980762Y-6549738D01*
X9680238Y-6549738D01*
X9680238Y-6850262D01*
X9980762Y-6850262D01*
D11*
X5358277Y-16113984D02*
X5358277Y-15913984D01*
X5358277Y-15913984D02*
X5405896Y-15913984D01*
X5405896Y-15913984D02*
X5434467Y-15923508D01*
X5434467Y-15923508D02*
X5453515Y-15942555D01*
X5453515Y-15942555D02*
X5463039Y-15961603D01*
X5463039Y-15961603D02*
X5472563Y-15999698D01*
X5472563Y-15999698D02*
X5472563Y-16028269D01*
X5472563Y-16028269D02*
X5463039Y-16066365D01*
X5463039Y-16066365D02*
X5453515Y-16085412D01*
X5453515Y-16085412D02*
X5434467Y-16104460D01*
X5434467Y-16104460D02*
X5405896Y-16113984D01*
X5405896Y-16113984D02*
X5358277Y-16113984D01*
X5558277Y-16113984D02*
X5558277Y-15980650D01*
X5558277Y-16018746D02*
X5567801Y-15999698D01*
X5567801Y-15999698D02*
X5577324Y-15990174D01*
X5577324Y-15990174D02*
X5596372Y-15980650D01*
X5596372Y-15980650D02*
X5615420Y-15980650D01*
X5682086Y-16113984D02*
X5682086Y-15980650D01*
X5682086Y-15913984D02*
X5672562Y-15923508D01*
X5672562Y-15923508D02*
X5682086Y-15933031D01*
X5682086Y-15933031D02*
X5691610Y-15923508D01*
X5691610Y-15923508D02*
X5682086Y-15913984D01*
X5682086Y-15913984D02*
X5682086Y-15933031D01*
X5805896Y-16113984D02*
X5786848Y-16104460D01*
X5786848Y-16104460D02*
X5777324Y-16085412D01*
X5777324Y-16085412D02*
X5777324Y-15913984D01*
X5910658Y-16113984D02*
X5891610Y-16104460D01*
X5891610Y-16104460D02*
X5882086Y-16085412D01*
X5882086Y-16085412D02*
X5882086Y-15913984D01*
X6139229Y-16113984D02*
X6139229Y-15913984D01*
X6139229Y-15913984D02*
X6205896Y-16056841D01*
X6205896Y-16056841D02*
X6272562Y-15913984D01*
X6272562Y-15913984D02*
X6272562Y-16113984D01*
X6453515Y-16113984D02*
X6453515Y-16009222D01*
X6453515Y-16009222D02*
X6443991Y-15990174D01*
X6443991Y-15990174D02*
X6424943Y-15980650D01*
X6424943Y-15980650D02*
X6386848Y-15980650D01*
X6386848Y-15980650D02*
X6367801Y-15990174D01*
X6453515Y-16104460D02*
X6434467Y-16113984D01*
X6434467Y-16113984D02*
X6386848Y-16113984D01*
X6386848Y-16113984D02*
X6367801Y-16104460D01*
X6367801Y-16104460D02*
X6358277Y-16085412D01*
X6358277Y-16085412D02*
X6358277Y-16066365D01*
X6358277Y-16066365D02*
X6367801Y-16047317D01*
X6367801Y-16047317D02*
X6386848Y-16037793D01*
X6386848Y-16037793D02*
X6434467Y-16037793D01*
X6434467Y-16037793D02*
X6453515Y-16028269D01*
X6548753Y-15980650D02*
X6548753Y-16180650D01*
X6548753Y-15990174D02*
X6567801Y-15980650D01*
X6567801Y-15980650D02*
X6605896Y-15980650D01*
X6605896Y-15980650D02*
X6624943Y-15990174D01*
X6624943Y-15990174D02*
X6634467Y-15999698D01*
X6634467Y-15999698D02*
X6643991Y-16018746D01*
X6643991Y-16018746D02*
X6643991Y-16075888D01*
X6643991Y-16075888D02*
X6634467Y-16094936D01*
X6634467Y-16094936D02*
X6624943Y-16104460D01*
X6624943Y-16104460D02*
X6605896Y-16113984D01*
X6605896Y-16113984D02*
X6567801Y-16113984D01*
X6567801Y-16113984D02*
X6548753Y-16104460D01*
X6729705Y-16094936D02*
X6739229Y-16104460D01*
X6739229Y-16104460D02*
X6729705Y-16113984D01*
X6729705Y-16113984D02*
X6720182Y-16104460D01*
X6720182Y-16104460D02*
X6729705Y-16094936D01*
X6729705Y-16094936D02*
X6729705Y-16113984D01*
X6729705Y-15990174D02*
X6739229Y-15999698D01*
X6739229Y-15999698D02*
X6729705Y-16009222D01*
X6729705Y-16009222D02*
X6720182Y-15999698D01*
X6720182Y-15999698D02*
X6729705Y-15990174D01*
X6729705Y-15990174D02*
X6729705Y-16009222D01*
D12*
X5017500Y-16402500D02*
X5097500Y-16482500D01*
X5097500Y-16402500D02*
X5017500Y-16482500D01*
D11*
X5396372Y-16333984D02*
X5415420Y-16333984D01*
X5415420Y-16333984D02*
X5434467Y-16343508D01*
X5434467Y-16343508D02*
X5443991Y-16353031D01*
X5443991Y-16353031D02*
X5453515Y-16372079D01*
X5453515Y-16372079D02*
X5463039Y-16410174D01*
X5463039Y-16410174D02*
X5463039Y-16457793D01*
X5463039Y-16457793D02*
X5453515Y-16495888D01*
X5453515Y-16495888D02*
X5443991Y-16514936D01*
X5443991Y-16514936D02*
X5434467Y-16524460D01*
X5434467Y-16524460D02*
X5415420Y-16533984D01*
X5415420Y-16533984D02*
X5396372Y-16533984D01*
X5396372Y-16533984D02*
X5377324Y-16524460D01*
X5377324Y-16524460D02*
X5367801Y-16514936D01*
X5367801Y-16514936D02*
X5358277Y-16495888D01*
X5358277Y-16495888D02*
X5348753Y-16457793D01*
X5348753Y-16457793D02*
X5348753Y-16410174D01*
X5348753Y-16410174D02*
X5358277Y-16372079D01*
X5358277Y-16372079D02*
X5367801Y-16353031D01*
X5367801Y-16353031D02*
X5377324Y-16343508D01*
X5377324Y-16343508D02*
X5396372Y-16333984D01*
X5548753Y-16514936D02*
X5558277Y-16524460D01*
X5558277Y-16524460D02*
X5548753Y-16533984D01*
X5548753Y-16533984D02*
X5539229Y-16524460D01*
X5539229Y-16524460D02*
X5548753Y-16514936D01*
X5548753Y-16514936D02*
X5548753Y-16533984D01*
X5672562Y-16419698D02*
X5653515Y-16410174D01*
X5653515Y-16410174D02*
X5643991Y-16400650D01*
X5643991Y-16400650D02*
X5634467Y-16381603D01*
X5634467Y-16381603D02*
X5634467Y-16372079D01*
X5634467Y-16372079D02*
X5643991Y-16353031D01*
X5643991Y-16353031D02*
X5653515Y-16343508D01*
X5653515Y-16343508D02*
X5672562Y-16333984D01*
X5672562Y-16333984D02*
X5710658Y-16333984D01*
X5710658Y-16333984D02*
X5729705Y-16343508D01*
X5729705Y-16343508D02*
X5739229Y-16353031D01*
X5739229Y-16353031D02*
X5748753Y-16372079D01*
X5748753Y-16372079D02*
X5748753Y-16381603D01*
X5748753Y-16381603D02*
X5739229Y-16400650D01*
X5739229Y-16400650D02*
X5729705Y-16410174D01*
X5729705Y-16410174D02*
X5710658Y-16419698D01*
X5710658Y-16419698D02*
X5672562Y-16419698D01*
X5672562Y-16419698D02*
X5653515Y-16429222D01*
X5653515Y-16429222D02*
X5643991Y-16438746D01*
X5643991Y-16438746D02*
X5634467Y-16457793D01*
X5634467Y-16457793D02*
X5634467Y-16495888D01*
X5634467Y-16495888D02*
X5643991Y-16514936D01*
X5643991Y-16514936D02*
X5653515Y-16524460D01*
X5653515Y-16524460D02*
X5672562Y-16533984D01*
X5672562Y-16533984D02*
X5710658Y-16533984D01*
X5710658Y-16533984D02*
X5729705Y-16524460D01*
X5729705Y-16524460D02*
X5739229Y-16514936D01*
X5739229Y-16514936D02*
X5748753Y-16495888D01*
X5748753Y-16495888D02*
X5748753Y-16457793D01*
X5748753Y-16457793D02*
X5739229Y-16438746D01*
X5739229Y-16438746D02*
X5729705Y-16429222D01*
X5729705Y-16429222D02*
X5710658Y-16419698D01*
X5872562Y-16333984D02*
X5891610Y-16333984D01*
X5891610Y-16333984D02*
X5910658Y-16343508D01*
X5910658Y-16343508D02*
X5920182Y-16353031D01*
X5920182Y-16353031D02*
X5929705Y-16372079D01*
X5929705Y-16372079D02*
X5939229Y-16410174D01*
X5939229Y-16410174D02*
X5939229Y-16457793D01*
X5939229Y-16457793D02*
X5929705Y-16495888D01*
X5929705Y-16495888D02*
X5920182Y-16514936D01*
X5920182Y-16514936D02*
X5910658Y-16524460D01*
X5910658Y-16524460D02*
X5891610Y-16533984D01*
X5891610Y-16533984D02*
X5872562Y-16533984D01*
X5872562Y-16533984D02*
X5853515Y-16524460D01*
X5853515Y-16524460D02*
X5843991Y-16514936D01*
X5843991Y-16514936D02*
X5834467Y-16495888D01*
X5834467Y-16495888D02*
X5824943Y-16457793D01*
X5824943Y-16457793D02*
X5824943Y-16410174D01*
X5824943Y-16410174D02*
X5834467Y-16372079D01*
X5834467Y-16372079D02*
X5843991Y-16353031D01*
X5843991Y-16353031D02*
X5853515Y-16343508D01*
X5853515Y-16343508D02*
X5872562Y-16333984D01*
X6063039Y-16333984D02*
X6082086Y-16333984D01*
X6082086Y-16333984D02*
X6101134Y-16343508D01*
X6101134Y-16343508D02*
X6110658Y-16353031D01*
X6110658Y-16353031D02*
X6120182Y-16372079D01*
X6120182Y-16372079D02*
X6129705Y-16410174D01*
X6129705Y-16410174D02*
X6129705Y-16457793D01*
X6129705Y-16457793D02*
X6120182Y-16495888D01*
X6120182Y-16495888D02*
X6110658Y-16514936D01*
X6110658Y-16514936D02*
X6101134Y-16524460D01*
X6101134Y-16524460D02*
X6082086Y-16533984D01*
X6082086Y-16533984D02*
X6063039Y-16533984D01*
X6063039Y-16533984D02*
X6043991Y-16524460D01*
X6043991Y-16524460D02*
X6034467Y-16514936D01*
X6034467Y-16514936D02*
X6024943Y-16495888D01*
X6024943Y-16495888D02*
X6015420Y-16457793D01*
X6015420Y-16457793D02*
X6015420Y-16410174D01*
X6015420Y-16410174D02*
X6024943Y-16372079D01*
X6024943Y-16372079D02*
X6034467Y-16353031D01*
X6034467Y-16353031D02*
X6043991Y-16343508D01*
X6043991Y-16343508D02*
X6063039Y-16333984D01*
X6215420Y-16533984D02*
X6215420Y-16400650D01*
X6215420Y-16419698D02*
X6224943Y-16410174D01*
X6224943Y-16410174D02*
X6243991Y-16400650D01*
X6243991Y-16400650D02*
X6272563Y-16400650D01*
X6272563Y-16400650D02*
X6291610Y-16410174D01*
X6291610Y-16410174D02*
X6301134Y-16429222D01*
X6301134Y-16429222D02*
X6301134Y-16533984D01*
X6301134Y-16429222D02*
X6310658Y-16410174D01*
X6310658Y-16410174D02*
X6329705Y-16400650D01*
X6329705Y-16400650D02*
X6358277Y-16400650D01*
X6358277Y-16400650D02*
X6377324Y-16410174D01*
X6377324Y-16410174D02*
X6386848Y-16429222D01*
X6386848Y-16429222D02*
X6386848Y-16533984D01*
X6482086Y-16533984D02*
X6482086Y-16400650D01*
X6482086Y-16419698D02*
X6491610Y-16410174D01*
X6491610Y-16410174D02*
X6510658Y-16400650D01*
X6510658Y-16400650D02*
X6539229Y-16400650D01*
X6539229Y-16400650D02*
X6558277Y-16410174D01*
X6558277Y-16410174D02*
X6567801Y-16429222D01*
X6567801Y-16429222D02*
X6567801Y-16533984D01*
X6567801Y-16429222D02*
X6577324Y-16410174D01*
X6577324Y-16410174D02*
X6596372Y-16400650D01*
X6596372Y-16400650D02*
X6624943Y-16400650D01*
X6624943Y-16400650D02*
X6643991Y-16410174D01*
X6643991Y-16410174D02*
X6653515Y-16429222D01*
X6653515Y-16429222D02*
X6653515Y-16533984D01*
X7043991Y-16324460D02*
X6872563Y-16581603D01*
X7301134Y-16333984D02*
X7320182Y-16333984D01*
X7320182Y-16333984D02*
X7339229Y-16343508D01*
X7339229Y-16343508D02*
X7348753Y-16353031D01*
X7348753Y-16353031D02*
X7358277Y-16372079D01*
X7358277Y-16372079D02*
X7367801Y-16410174D01*
X7367801Y-16410174D02*
X7367801Y-16457793D01*
X7367801Y-16457793D02*
X7358277Y-16495888D01*
X7358277Y-16495888D02*
X7348753Y-16514936D01*
X7348753Y-16514936D02*
X7339229Y-16524460D01*
X7339229Y-16524460D02*
X7320182Y-16533984D01*
X7320182Y-16533984D02*
X7301134Y-16533984D01*
X7301134Y-16533984D02*
X7282086Y-16524460D01*
X7282086Y-16524460D02*
X7272563Y-16514936D01*
X7272563Y-16514936D02*
X7263039Y-16495888D01*
X7263039Y-16495888D02*
X7253515Y-16457793D01*
X7253515Y-16457793D02*
X7253515Y-16410174D01*
X7253515Y-16410174D02*
X7263039Y-16372079D01*
X7263039Y-16372079D02*
X7272563Y-16353031D01*
X7272563Y-16353031D02*
X7282086Y-16343508D01*
X7282086Y-16343508D02*
X7301134Y-16333984D01*
X7453515Y-16514936D02*
X7463039Y-16524460D01*
X7463039Y-16524460D02*
X7453515Y-16533984D01*
X7453515Y-16533984D02*
X7443991Y-16524460D01*
X7443991Y-16524460D02*
X7453515Y-16514936D01*
X7453515Y-16514936D02*
X7453515Y-16533984D01*
X7586848Y-16333984D02*
X7605896Y-16333984D01*
X7605896Y-16333984D02*
X7624944Y-16343508D01*
X7624944Y-16343508D02*
X7634467Y-16353031D01*
X7634467Y-16353031D02*
X7643991Y-16372079D01*
X7643991Y-16372079D02*
X7653515Y-16410174D01*
X7653515Y-16410174D02*
X7653515Y-16457793D01*
X7653515Y-16457793D02*
X7643991Y-16495888D01*
X7643991Y-16495888D02*
X7634467Y-16514936D01*
X7634467Y-16514936D02*
X7624944Y-16524460D01*
X7624944Y-16524460D02*
X7605896Y-16533984D01*
X7605896Y-16533984D02*
X7586848Y-16533984D01*
X7586848Y-16533984D02*
X7567801Y-16524460D01*
X7567801Y-16524460D02*
X7558277Y-16514936D01*
X7558277Y-16514936D02*
X7548753Y-16495888D01*
X7548753Y-16495888D02*
X7539229Y-16457793D01*
X7539229Y-16457793D02*
X7539229Y-16410174D01*
X7539229Y-16410174D02*
X7548753Y-16372079D01*
X7548753Y-16372079D02*
X7558277Y-16353031D01*
X7558277Y-16353031D02*
X7567801Y-16343508D01*
X7567801Y-16343508D02*
X7586848Y-16333984D01*
X7720182Y-16333984D02*
X7843991Y-16333984D01*
X7843991Y-16333984D02*
X7777325Y-16410174D01*
X7777325Y-16410174D02*
X7805896Y-16410174D01*
X7805896Y-16410174D02*
X7824944Y-16419698D01*
X7824944Y-16419698D02*
X7834467Y-16429222D01*
X7834467Y-16429222D02*
X7843991Y-16448269D01*
X7843991Y-16448269D02*
X7843991Y-16495888D01*
X7843991Y-16495888D02*
X7834467Y-16514936D01*
X7834467Y-16514936D02*
X7824944Y-16524460D01*
X7824944Y-16524460D02*
X7805896Y-16533984D01*
X7805896Y-16533984D02*
X7748753Y-16533984D01*
X7748753Y-16533984D02*
X7729706Y-16524460D01*
X7729706Y-16524460D02*
X7720182Y-16514936D01*
X8034467Y-16533984D02*
X7920182Y-16533984D01*
X7977325Y-16533984D02*
X7977325Y-16333984D01*
X7977325Y-16333984D02*
X7958277Y-16362555D01*
X7958277Y-16362555D02*
X7939229Y-16381603D01*
X7939229Y-16381603D02*
X7920182Y-16391127D01*
X8215420Y-16333984D02*
X8120182Y-16333984D01*
X8120182Y-16333984D02*
X8110658Y-16429222D01*
X8110658Y-16429222D02*
X8120182Y-16419698D01*
X8120182Y-16419698D02*
X8139229Y-16410174D01*
X8139229Y-16410174D02*
X8186848Y-16410174D01*
X8186848Y-16410174D02*
X8205896Y-16419698D01*
X8205896Y-16419698D02*
X8215420Y-16429222D01*
X8215420Y-16429222D02*
X8224944Y-16448269D01*
X8224944Y-16448269D02*
X8224944Y-16495888D01*
X8224944Y-16495888D02*
X8215420Y-16514936D01*
X8215420Y-16514936D02*
X8205896Y-16524460D01*
X8205896Y-16524460D02*
X8186848Y-16533984D01*
X8186848Y-16533984D02*
X8139229Y-16533984D01*
X8139229Y-16533984D02*
X8120182Y-16524460D01*
X8120182Y-16524460D02*
X8110658Y-16514936D01*
X8301134Y-16333984D02*
X8301134Y-16372079D01*
X8377325Y-16333984D02*
X8377325Y-16372079D01*
X8672563Y-16610174D02*
X8663039Y-16600650D01*
X8663039Y-16600650D02*
X8643991Y-16572079D01*
X8643991Y-16572079D02*
X8634468Y-16553031D01*
X8634468Y-16553031D02*
X8624944Y-16524460D01*
X8624944Y-16524460D02*
X8615420Y-16476841D01*
X8615420Y-16476841D02*
X8615420Y-16438746D01*
X8615420Y-16438746D02*
X8624944Y-16391127D01*
X8624944Y-16391127D02*
X8634468Y-16362555D01*
X8634468Y-16362555D02*
X8643991Y-16343508D01*
X8643991Y-16343508D02*
X8663039Y-16314936D01*
X8663039Y-16314936D02*
X8672563Y-16305412D01*
X8777325Y-16419698D02*
X8758277Y-16410174D01*
X8758277Y-16410174D02*
X8748753Y-16400650D01*
X8748753Y-16400650D02*
X8739230Y-16381603D01*
X8739230Y-16381603D02*
X8739230Y-16372079D01*
X8739230Y-16372079D02*
X8748753Y-16353031D01*
X8748753Y-16353031D02*
X8758277Y-16343508D01*
X8758277Y-16343508D02*
X8777325Y-16333984D01*
X8777325Y-16333984D02*
X8815420Y-16333984D01*
X8815420Y-16333984D02*
X8834468Y-16343508D01*
X8834468Y-16343508D02*
X8843991Y-16353031D01*
X8843991Y-16353031D02*
X8853515Y-16372079D01*
X8853515Y-16372079D02*
X8853515Y-16381603D01*
X8853515Y-16381603D02*
X8843991Y-16400650D01*
X8843991Y-16400650D02*
X8834468Y-16410174D01*
X8834468Y-16410174D02*
X8815420Y-16419698D01*
X8815420Y-16419698D02*
X8777325Y-16419698D01*
X8777325Y-16419698D02*
X8758277Y-16429222D01*
X8758277Y-16429222D02*
X8748753Y-16438746D01*
X8748753Y-16438746D02*
X8739230Y-16457793D01*
X8739230Y-16457793D02*
X8739230Y-16495888D01*
X8739230Y-16495888D02*
X8748753Y-16514936D01*
X8748753Y-16514936D02*
X8758277Y-16524460D01*
X8758277Y-16524460D02*
X8777325Y-16533984D01*
X8777325Y-16533984D02*
X8815420Y-16533984D01*
X8815420Y-16533984D02*
X8834468Y-16524460D01*
X8834468Y-16524460D02*
X8843991Y-16514936D01*
X8843991Y-16514936D02*
X8853515Y-16495888D01*
X8853515Y-16495888D02*
X8853515Y-16457793D01*
X8853515Y-16457793D02*
X8843991Y-16438746D01*
X8843991Y-16438746D02*
X8834468Y-16429222D01*
X8834468Y-16429222D02*
X8815420Y-16419698D01*
X9091611Y-16533984D02*
X9091611Y-16333984D01*
X9177325Y-16533984D02*
X9177325Y-16429222D01*
X9177325Y-16429222D02*
X9167801Y-16410174D01*
X9167801Y-16410174D02*
X9148753Y-16400650D01*
X9148753Y-16400650D02*
X9120182Y-16400650D01*
X9120182Y-16400650D02*
X9101134Y-16410174D01*
X9101134Y-16410174D02*
X9091611Y-16419698D01*
X9301134Y-16533984D02*
X9282087Y-16524460D01*
X9282087Y-16524460D02*
X9272563Y-16514936D01*
X9272563Y-16514936D02*
X9263039Y-16495888D01*
X9263039Y-16495888D02*
X9263039Y-16438746D01*
X9263039Y-16438746D02*
X9272563Y-16419698D01*
X9272563Y-16419698D02*
X9282087Y-16410174D01*
X9282087Y-16410174D02*
X9301134Y-16400650D01*
X9301134Y-16400650D02*
X9329706Y-16400650D01*
X9329706Y-16400650D02*
X9348753Y-16410174D01*
X9348753Y-16410174D02*
X9358277Y-16419698D01*
X9358277Y-16419698D02*
X9367801Y-16438746D01*
X9367801Y-16438746D02*
X9367801Y-16495888D01*
X9367801Y-16495888D02*
X9358277Y-16514936D01*
X9358277Y-16514936D02*
X9348753Y-16524460D01*
X9348753Y-16524460D02*
X9329706Y-16533984D01*
X9329706Y-16533984D02*
X9301134Y-16533984D01*
X9482087Y-16533984D02*
X9463039Y-16524460D01*
X9463039Y-16524460D02*
X9453515Y-16505412D01*
X9453515Y-16505412D02*
X9453515Y-16333984D01*
X9634468Y-16524460D02*
X9615420Y-16533984D01*
X9615420Y-16533984D02*
X9577325Y-16533984D01*
X9577325Y-16533984D02*
X9558277Y-16524460D01*
X9558277Y-16524460D02*
X9548753Y-16505412D01*
X9548753Y-16505412D02*
X9548753Y-16429222D01*
X9548753Y-16429222D02*
X9558277Y-16410174D01*
X9558277Y-16410174D02*
X9577325Y-16400650D01*
X9577325Y-16400650D02*
X9615420Y-16400650D01*
X9615420Y-16400650D02*
X9634468Y-16410174D01*
X9634468Y-16410174D02*
X9643992Y-16429222D01*
X9643992Y-16429222D02*
X9643992Y-16448269D01*
X9643992Y-16448269D02*
X9548753Y-16467317D01*
X9720182Y-16524460D02*
X9739230Y-16533984D01*
X9739230Y-16533984D02*
X9777325Y-16533984D01*
X9777325Y-16533984D02*
X9796373Y-16524460D01*
X9796373Y-16524460D02*
X9805896Y-16505412D01*
X9805896Y-16505412D02*
X9805896Y-16495888D01*
X9805896Y-16495888D02*
X9796373Y-16476841D01*
X9796373Y-16476841D02*
X9777325Y-16467317D01*
X9777325Y-16467317D02*
X9748753Y-16467317D01*
X9748753Y-16467317D02*
X9729706Y-16457793D01*
X9729706Y-16457793D02*
X9720182Y-16438746D01*
X9720182Y-16438746D02*
X9720182Y-16429222D01*
X9720182Y-16429222D02*
X9729706Y-16410174D01*
X9729706Y-16410174D02*
X9748753Y-16400650D01*
X9748753Y-16400650D02*
X9777325Y-16400650D01*
X9777325Y-16400650D02*
X9796373Y-16410174D01*
X9872563Y-16610174D02*
X9882087Y-16600650D01*
X9882087Y-16600650D02*
X9901134Y-16572079D01*
X9901134Y-16572079D02*
X9910658Y-16553031D01*
X9910658Y-16553031D02*
X9920182Y-16524460D01*
X9920182Y-16524460D02*
X9929706Y-16476841D01*
X9929706Y-16476841D02*
X9929706Y-16438746D01*
X9929706Y-16438746D02*
X9920182Y-16391127D01*
X9920182Y-16391127D02*
X9910658Y-16362555D01*
X9910658Y-16362555D02*
X9901134Y-16343508D01*
X9901134Y-16343508D02*
X9882087Y-16314936D01*
X9882087Y-16314936D02*
X9872563Y-16305412D01*
D13*
X5097500Y-16706500D02*
G75*
G02*
X4919500Y-16706500I-89000J0D01*
G01*
X4919500Y-16706500D02*
G75*
G02*
X5097500Y-16706500I89000J0D01*
G01*
D11*
X5463039Y-16797984D02*
X5348753Y-16797984D01*
X5405896Y-16797984D02*
X5405896Y-16597984D01*
X5405896Y-16597984D02*
X5386848Y-16626555D01*
X5386848Y-16626555D02*
X5367801Y-16645603D01*
X5367801Y-16645603D02*
X5348753Y-16655127D01*
X5548753Y-16778936D02*
X5558277Y-16788460D01*
X5558277Y-16788460D02*
X5548753Y-16797984D01*
X5548753Y-16797984D02*
X5539229Y-16788460D01*
X5539229Y-16788460D02*
X5548753Y-16778936D01*
X5548753Y-16778936D02*
X5548753Y-16797984D01*
X5624943Y-16597984D02*
X5758277Y-16597984D01*
X5758277Y-16597984D02*
X5672562Y-16797984D01*
X5863039Y-16683698D02*
X5843991Y-16674174D01*
X5843991Y-16674174D02*
X5834467Y-16664650D01*
X5834467Y-16664650D02*
X5824943Y-16645603D01*
X5824943Y-16645603D02*
X5824943Y-16636079D01*
X5824943Y-16636079D02*
X5834467Y-16617031D01*
X5834467Y-16617031D02*
X5843991Y-16607508D01*
X5843991Y-16607508D02*
X5863039Y-16597984D01*
X5863039Y-16597984D02*
X5901134Y-16597984D01*
X5901134Y-16597984D02*
X5920182Y-16607508D01*
X5920182Y-16607508D02*
X5929705Y-16617031D01*
X5929705Y-16617031D02*
X5939229Y-16636079D01*
X5939229Y-16636079D02*
X5939229Y-16645603D01*
X5939229Y-16645603D02*
X5929705Y-16664650D01*
X5929705Y-16664650D02*
X5920182Y-16674174D01*
X5920182Y-16674174D02*
X5901134Y-16683698D01*
X5901134Y-16683698D02*
X5863039Y-16683698D01*
X5863039Y-16683698D02*
X5843991Y-16693222D01*
X5843991Y-16693222D02*
X5834467Y-16702746D01*
X5834467Y-16702746D02*
X5824943Y-16721793D01*
X5824943Y-16721793D02*
X5824943Y-16759888D01*
X5824943Y-16759888D02*
X5834467Y-16778936D01*
X5834467Y-16778936D02*
X5843991Y-16788460D01*
X5843991Y-16788460D02*
X5863039Y-16797984D01*
X5863039Y-16797984D02*
X5901134Y-16797984D01*
X5901134Y-16797984D02*
X5920182Y-16788460D01*
X5920182Y-16788460D02*
X5929705Y-16778936D01*
X5929705Y-16778936D02*
X5939229Y-16759888D01*
X5939229Y-16759888D02*
X5939229Y-16721793D01*
X5939229Y-16721793D02*
X5929705Y-16702746D01*
X5929705Y-16702746D02*
X5920182Y-16693222D01*
X5920182Y-16693222D02*
X5901134Y-16683698D01*
X6063039Y-16597984D02*
X6082086Y-16597984D01*
X6082086Y-16597984D02*
X6101134Y-16607508D01*
X6101134Y-16607508D02*
X6110658Y-16617031D01*
X6110658Y-16617031D02*
X6120182Y-16636079D01*
X6120182Y-16636079D02*
X6129705Y-16674174D01*
X6129705Y-16674174D02*
X6129705Y-16721793D01*
X6129705Y-16721793D02*
X6120182Y-16759888D01*
X6120182Y-16759888D02*
X6110658Y-16778936D01*
X6110658Y-16778936D02*
X6101134Y-16788460D01*
X6101134Y-16788460D02*
X6082086Y-16797984D01*
X6082086Y-16797984D02*
X6063039Y-16797984D01*
X6063039Y-16797984D02*
X6043991Y-16788460D01*
X6043991Y-16788460D02*
X6034467Y-16778936D01*
X6034467Y-16778936D02*
X6024943Y-16759888D01*
X6024943Y-16759888D02*
X6015420Y-16721793D01*
X6015420Y-16721793D02*
X6015420Y-16674174D01*
X6015420Y-16674174D02*
X6024943Y-16636079D01*
X6024943Y-16636079D02*
X6034467Y-16617031D01*
X6034467Y-16617031D02*
X6043991Y-16607508D01*
X6043991Y-16607508D02*
X6063039Y-16597984D01*
X6215420Y-16797984D02*
X6215420Y-16664650D01*
X6215420Y-16683698D02*
X6224943Y-16674174D01*
X6224943Y-16674174D02*
X6243991Y-16664650D01*
X6243991Y-16664650D02*
X6272563Y-16664650D01*
X6272563Y-16664650D02*
X6291610Y-16674174D01*
X6291610Y-16674174D02*
X6301134Y-16693222D01*
X6301134Y-16693222D02*
X6301134Y-16797984D01*
X6301134Y-16693222D02*
X6310658Y-16674174D01*
X6310658Y-16674174D02*
X6329705Y-16664650D01*
X6329705Y-16664650D02*
X6358277Y-16664650D01*
X6358277Y-16664650D02*
X6377324Y-16674174D01*
X6377324Y-16674174D02*
X6386848Y-16693222D01*
X6386848Y-16693222D02*
X6386848Y-16797984D01*
X6482086Y-16797984D02*
X6482086Y-16664650D01*
X6482086Y-16683698D02*
X6491610Y-16674174D01*
X6491610Y-16674174D02*
X6510658Y-16664650D01*
X6510658Y-16664650D02*
X6539229Y-16664650D01*
X6539229Y-16664650D02*
X6558277Y-16674174D01*
X6558277Y-16674174D02*
X6567801Y-16693222D01*
X6567801Y-16693222D02*
X6567801Y-16797984D01*
X6567801Y-16693222D02*
X6577324Y-16674174D01*
X6577324Y-16674174D02*
X6596372Y-16664650D01*
X6596372Y-16664650D02*
X6624943Y-16664650D01*
X6624943Y-16664650D02*
X6643991Y-16674174D01*
X6643991Y-16674174D02*
X6653515Y-16693222D01*
X6653515Y-16693222D02*
X6653515Y-16797984D01*
X7043991Y-16588460D02*
X6872563Y-16845603D01*
X7301134Y-16597984D02*
X7320182Y-16597984D01*
X7320182Y-16597984D02*
X7339229Y-16607508D01*
X7339229Y-16607508D02*
X7348753Y-16617031D01*
X7348753Y-16617031D02*
X7358277Y-16636079D01*
X7358277Y-16636079D02*
X7367801Y-16674174D01*
X7367801Y-16674174D02*
X7367801Y-16721793D01*
X7367801Y-16721793D02*
X7358277Y-16759888D01*
X7358277Y-16759888D02*
X7348753Y-16778936D01*
X7348753Y-16778936D02*
X7339229Y-16788460D01*
X7339229Y-16788460D02*
X7320182Y-16797984D01*
X7320182Y-16797984D02*
X7301134Y-16797984D01*
X7301134Y-16797984D02*
X7282086Y-16788460D01*
X7282086Y-16788460D02*
X7272563Y-16778936D01*
X7272563Y-16778936D02*
X7263039Y-16759888D01*
X7263039Y-16759888D02*
X7253515Y-16721793D01*
X7253515Y-16721793D02*
X7253515Y-16674174D01*
X7253515Y-16674174D02*
X7263039Y-16636079D01*
X7263039Y-16636079D02*
X7272563Y-16617031D01*
X7272563Y-16617031D02*
X7282086Y-16607508D01*
X7282086Y-16607508D02*
X7301134Y-16597984D01*
X7453515Y-16778936D02*
X7463039Y-16788460D01*
X7463039Y-16788460D02*
X7453515Y-16797984D01*
X7453515Y-16797984D02*
X7443991Y-16788460D01*
X7443991Y-16788460D02*
X7453515Y-16778936D01*
X7453515Y-16778936D02*
X7453515Y-16797984D01*
X7586848Y-16597984D02*
X7605896Y-16597984D01*
X7605896Y-16597984D02*
X7624944Y-16607508D01*
X7624944Y-16607508D02*
X7634467Y-16617031D01*
X7634467Y-16617031D02*
X7643991Y-16636079D01*
X7643991Y-16636079D02*
X7653515Y-16674174D01*
X7653515Y-16674174D02*
X7653515Y-16721793D01*
X7653515Y-16721793D02*
X7643991Y-16759888D01*
X7643991Y-16759888D02*
X7634467Y-16778936D01*
X7634467Y-16778936D02*
X7624944Y-16788460D01*
X7624944Y-16788460D02*
X7605896Y-16797984D01*
X7605896Y-16797984D02*
X7586848Y-16797984D01*
X7586848Y-16797984D02*
X7567801Y-16788460D01*
X7567801Y-16788460D02*
X7558277Y-16778936D01*
X7558277Y-16778936D02*
X7548753Y-16759888D01*
X7548753Y-16759888D02*
X7539229Y-16721793D01*
X7539229Y-16721793D02*
X7539229Y-16674174D01*
X7539229Y-16674174D02*
X7548753Y-16636079D01*
X7548753Y-16636079D02*
X7558277Y-16617031D01*
X7558277Y-16617031D02*
X7567801Y-16607508D01*
X7567801Y-16607508D02*
X7586848Y-16597984D01*
X7720182Y-16597984D02*
X7853515Y-16597984D01*
X7853515Y-16597984D02*
X7767801Y-16797984D01*
X7967801Y-16597984D02*
X7986848Y-16597984D01*
X7986848Y-16597984D02*
X8005896Y-16607508D01*
X8005896Y-16607508D02*
X8015420Y-16617031D01*
X8015420Y-16617031D02*
X8024944Y-16636079D01*
X8024944Y-16636079D02*
X8034467Y-16674174D01*
X8034467Y-16674174D02*
X8034467Y-16721793D01*
X8034467Y-16721793D02*
X8024944Y-16759888D01*
X8024944Y-16759888D02*
X8015420Y-16778936D01*
X8015420Y-16778936D02*
X8005896Y-16788460D01*
X8005896Y-16788460D02*
X7986848Y-16797984D01*
X7986848Y-16797984D02*
X7967801Y-16797984D01*
X7967801Y-16797984D02*
X7948753Y-16788460D01*
X7948753Y-16788460D02*
X7939229Y-16778936D01*
X7939229Y-16778936D02*
X7929706Y-16759888D01*
X7929706Y-16759888D02*
X7920182Y-16721793D01*
X7920182Y-16721793D02*
X7920182Y-16674174D01*
X7920182Y-16674174D02*
X7929706Y-16636079D01*
X7929706Y-16636079D02*
X7939229Y-16617031D01*
X7939229Y-16617031D02*
X7948753Y-16607508D01*
X7948753Y-16607508D02*
X7967801Y-16597984D01*
X8224944Y-16797984D02*
X8110658Y-16797984D01*
X8167801Y-16797984D02*
X8167801Y-16597984D01*
X8167801Y-16597984D02*
X8148753Y-16626555D01*
X8148753Y-16626555D02*
X8129706Y-16645603D01*
X8129706Y-16645603D02*
X8110658Y-16655127D01*
X8301134Y-16597984D02*
X8301134Y-16636079D01*
X8377325Y-16597984D02*
X8377325Y-16636079D01*
X8672563Y-16874174D02*
X8663039Y-16864650D01*
X8663039Y-16864650D02*
X8643991Y-16836079D01*
X8643991Y-16836079D02*
X8634468Y-16817031D01*
X8634468Y-16817031D02*
X8624944Y-16788460D01*
X8624944Y-16788460D02*
X8615420Y-16740841D01*
X8615420Y-16740841D02*
X8615420Y-16702746D01*
X8615420Y-16702746D02*
X8624944Y-16655127D01*
X8624944Y-16655127D02*
X8634468Y-16626555D01*
X8634468Y-16626555D02*
X8643991Y-16607508D01*
X8643991Y-16607508D02*
X8663039Y-16578936D01*
X8663039Y-16578936D02*
X8672563Y-16569412D01*
X8853515Y-16797984D02*
X8739230Y-16797984D01*
X8796372Y-16797984D02*
X8796372Y-16597984D01*
X8796372Y-16597984D02*
X8777325Y-16626555D01*
X8777325Y-16626555D02*
X8758277Y-16645603D01*
X8758277Y-16645603D02*
X8739230Y-16655127D01*
X9024944Y-16597984D02*
X8986849Y-16597984D01*
X8986849Y-16597984D02*
X8967801Y-16607508D01*
X8967801Y-16607508D02*
X8958277Y-16617031D01*
X8958277Y-16617031D02*
X8939230Y-16645603D01*
X8939230Y-16645603D02*
X8929706Y-16683698D01*
X8929706Y-16683698D02*
X8929706Y-16759888D01*
X8929706Y-16759888D02*
X8939230Y-16778936D01*
X8939230Y-16778936D02*
X8948753Y-16788460D01*
X8948753Y-16788460D02*
X8967801Y-16797984D01*
X8967801Y-16797984D02*
X9005896Y-16797984D01*
X9005896Y-16797984D02*
X9024944Y-16788460D01*
X9024944Y-16788460D02*
X9034468Y-16778936D01*
X9034468Y-16778936D02*
X9043991Y-16759888D01*
X9043991Y-16759888D02*
X9043991Y-16712269D01*
X9043991Y-16712269D02*
X9034468Y-16693222D01*
X9034468Y-16693222D02*
X9024944Y-16683698D01*
X9024944Y-16683698D02*
X9005896Y-16674174D01*
X9005896Y-16674174D02*
X8967801Y-16674174D01*
X8967801Y-16674174D02*
X8948753Y-16683698D01*
X8948753Y-16683698D02*
X8939230Y-16693222D01*
X8939230Y-16693222D02*
X8929706Y-16712269D01*
X9282087Y-16797984D02*
X9282087Y-16597984D01*
X9367801Y-16797984D02*
X9367801Y-16693222D01*
X9367801Y-16693222D02*
X9358277Y-16674174D01*
X9358277Y-16674174D02*
X9339230Y-16664650D01*
X9339230Y-16664650D02*
X9310658Y-16664650D01*
X9310658Y-16664650D02*
X9291611Y-16674174D01*
X9291611Y-16674174D02*
X9282087Y-16683698D01*
X9491611Y-16797984D02*
X9472563Y-16788460D01*
X9472563Y-16788460D02*
X9463039Y-16778936D01*
X9463039Y-16778936D02*
X9453515Y-16759888D01*
X9453515Y-16759888D02*
X9453515Y-16702746D01*
X9453515Y-16702746D02*
X9463039Y-16683698D01*
X9463039Y-16683698D02*
X9472563Y-16674174D01*
X9472563Y-16674174D02*
X9491611Y-16664650D01*
X9491611Y-16664650D02*
X9520182Y-16664650D01*
X9520182Y-16664650D02*
X9539230Y-16674174D01*
X9539230Y-16674174D02*
X9548753Y-16683698D01*
X9548753Y-16683698D02*
X9558277Y-16702746D01*
X9558277Y-16702746D02*
X9558277Y-16759888D01*
X9558277Y-16759888D02*
X9548753Y-16778936D01*
X9548753Y-16778936D02*
X9539230Y-16788460D01*
X9539230Y-16788460D02*
X9520182Y-16797984D01*
X9520182Y-16797984D02*
X9491611Y-16797984D01*
X9672563Y-16797984D02*
X9653515Y-16788460D01*
X9653515Y-16788460D02*
X9643992Y-16769412D01*
X9643992Y-16769412D02*
X9643992Y-16597984D01*
X9824944Y-16788460D02*
X9805896Y-16797984D01*
X9805896Y-16797984D02*
X9767801Y-16797984D01*
X9767801Y-16797984D02*
X9748753Y-16788460D01*
X9748753Y-16788460D02*
X9739230Y-16769412D01*
X9739230Y-16769412D02*
X9739230Y-16693222D01*
X9739230Y-16693222D02*
X9748753Y-16674174D01*
X9748753Y-16674174D02*
X9767801Y-16664650D01*
X9767801Y-16664650D02*
X9805896Y-16664650D01*
X9805896Y-16664650D02*
X9824944Y-16674174D01*
X9824944Y-16674174D02*
X9834468Y-16693222D01*
X9834468Y-16693222D02*
X9834468Y-16712269D01*
X9834468Y-16712269D02*
X9739230Y-16731317D01*
X9910658Y-16788460D02*
X9929706Y-16797984D01*
X9929706Y-16797984D02*
X9967801Y-16797984D01*
X9967801Y-16797984D02*
X9986849Y-16788460D01*
X9986849Y-16788460D02*
X9996373Y-16769412D01*
X9996373Y-16769412D02*
X9996373Y-16759888D01*
X9996373Y-16759888D02*
X9986849Y-16740841D01*
X9986849Y-16740841D02*
X9967801Y-16731317D01*
X9967801Y-16731317D02*
X9939230Y-16731317D01*
X9939230Y-16731317D02*
X9920182Y-16721793D01*
X9920182Y-16721793D02*
X9910658Y-16702746D01*
X9910658Y-16702746D02*
X9910658Y-16693222D01*
X9910658Y-16693222D02*
X9920182Y-16674174D01*
X9920182Y-16674174D02*
X9939230Y-16664650D01*
X9939230Y-16664650D02*
X9967801Y-16664650D01*
X9967801Y-16664650D02*
X9986849Y-16674174D01*
X10063039Y-16874174D02*
X10072563Y-16864650D01*
X10072563Y-16864650D02*
X10091611Y-16836079D01*
X10091611Y-16836079D02*
X10101134Y-16817031D01*
X10101134Y-16817031D02*
X10110658Y-16788460D01*
X10110658Y-16788460D02*
X10120182Y-16740841D01*
X10120182Y-16740841D02*
X10120182Y-16702746D01*
X10120182Y-16702746D02*
X10110658Y-16655127D01*
X10110658Y-16655127D02*
X10101134Y-16626555D01*
X10101134Y-16626555D02*
X10091611Y-16607508D01*
X10091611Y-16607508D02*
X10072563Y-16578936D01*
X10072563Y-16578936D02*
X10063039Y-16569412D01*
D14*
X5007500Y-16914500D02*
X5007500Y-17094500D01*
X4917500Y-17004500D02*
X5097500Y-17004500D01*
D11*
X5463039Y-17095984D02*
X5348753Y-17095984D01*
X5405896Y-17095984D02*
X5405896Y-16895984D01*
X5405896Y-16895984D02*
X5386848Y-16924555D01*
X5386848Y-16924555D02*
X5367801Y-16943603D01*
X5367801Y-16943603D02*
X5348753Y-16953127D01*
X5548753Y-17076936D02*
X5558277Y-17086460D01*
X5558277Y-17086460D02*
X5548753Y-17095984D01*
X5548753Y-17095984D02*
X5539229Y-17086460D01*
X5539229Y-17086460D02*
X5548753Y-17076936D01*
X5548753Y-17076936D02*
X5548753Y-17095984D01*
X5672562Y-16981698D02*
X5653515Y-16972174D01*
X5653515Y-16972174D02*
X5643991Y-16962650D01*
X5643991Y-16962650D02*
X5634467Y-16943603D01*
X5634467Y-16943603D02*
X5634467Y-16934079D01*
X5634467Y-16934079D02*
X5643991Y-16915031D01*
X5643991Y-16915031D02*
X5653515Y-16905508D01*
X5653515Y-16905508D02*
X5672562Y-16895984D01*
X5672562Y-16895984D02*
X5710658Y-16895984D01*
X5710658Y-16895984D02*
X5729705Y-16905508D01*
X5729705Y-16905508D02*
X5739229Y-16915031D01*
X5739229Y-16915031D02*
X5748753Y-16934079D01*
X5748753Y-16934079D02*
X5748753Y-16943603D01*
X5748753Y-16943603D02*
X5739229Y-16962650D01*
X5739229Y-16962650D02*
X5729705Y-16972174D01*
X5729705Y-16972174D02*
X5710658Y-16981698D01*
X5710658Y-16981698D02*
X5672562Y-16981698D01*
X5672562Y-16981698D02*
X5653515Y-16991222D01*
X5653515Y-16991222D02*
X5643991Y-17000746D01*
X5643991Y-17000746D02*
X5634467Y-17019793D01*
X5634467Y-17019793D02*
X5634467Y-17057889D01*
X5634467Y-17057889D02*
X5643991Y-17076936D01*
X5643991Y-17076936D02*
X5653515Y-17086460D01*
X5653515Y-17086460D02*
X5672562Y-17095984D01*
X5672562Y-17095984D02*
X5710658Y-17095984D01*
X5710658Y-17095984D02*
X5729705Y-17086460D01*
X5729705Y-17086460D02*
X5739229Y-17076936D01*
X5739229Y-17076936D02*
X5748753Y-17057889D01*
X5748753Y-17057889D02*
X5748753Y-17019793D01*
X5748753Y-17019793D02*
X5739229Y-17000746D01*
X5739229Y-17000746D02*
X5729705Y-16991222D01*
X5729705Y-16991222D02*
X5710658Y-16981698D01*
X5872562Y-16895984D02*
X5891610Y-16895984D01*
X5891610Y-16895984D02*
X5910658Y-16905508D01*
X5910658Y-16905508D02*
X5920182Y-16915031D01*
X5920182Y-16915031D02*
X5929705Y-16934079D01*
X5929705Y-16934079D02*
X5939229Y-16972174D01*
X5939229Y-16972174D02*
X5939229Y-17019793D01*
X5939229Y-17019793D02*
X5929705Y-17057889D01*
X5929705Y-17057889D02*
X5920182Y-17076936D01*
X5920182Y-17076936D02*
X5910658Y-17086460D01*
X5910658Y-17086460D02*
X5891610Y-17095984D01*
X5891610Y-17095984D02*
X5872562Y-17095984D01*
X5872562Y-17095984D02*
X5853515Y-17086460D01*
X5853515Y-17086460D02*
X5843991Y-17076936D01*
X5843991Y-17076936D02*
X5834467Y-17057889D01*
X5834467Y-17057889D02*
X5824943Y-17019793D01*
X5824943Y-17019793D02*
X5824943Y-16972174D01*
X5824943Y-16972174D02*
X5834467Y-16934079D01*
X5834467Y-16934079D02*
X5843991Y-16915031D01*
X5843991Y-16915031D02*
X5853515Y-16905508D01*
X5853515Y-16905508D02*
X5872562Y-16895984D01*
X6063039Y-16895984D02*
X6082086Y-16895984D01*
X6082086Y-16895984D02*
X6101134Y-16905508D01*
X6101134Y-16905508D02*
X6110658Y-16915031D01*
X6110658Y-16915031D02*
X6120182Y-16934079D01*
X6120182Y-16934079D02*
X6129705Y-16972174D01*
X6129705Y-16972174D02*
X6129705Y-17019793D01*
X6129705Y-17019793D02*
X6120182Y-17057889D01*
X6120182Y-17057889D02*
X6110658Y-17076936D01*
X6110658Y-17076936D02*
X6101134Y-17086460D01*
X6101134Y-17086460D02*
X6082086Y-17095984D01*
X6082086Y-17095984D02*
X6063039Y-17095984D01*
X6063039Y-17095984D02*
X6043991Y-17086460D01*
X6043991Y-17086460D02*
X6034467Y-17076936D01*
X6034467Y-17076936D02*
X6024943Y-17057889D01*
X6024943Y-17057889D02*
X6015420Y-17019793D01*
X6015420Y-17019793D02*
X6015420Y-16972174D01*
X6015420Y-16972174D02*
X6024943Y-16934079D01*
X6024943Y-16934079D02*
X6034467Y-16915031D01*
X6034467Y-16915031D02*
X6043991Y-16905508D01*
X6043991Y-16905508D02*
X6063039Y-16895984D01*
X6215420Y-17095984D02*
X6215420Y-16962650D01*
X6215420Y-16981698D02*
X6224943Y-16972174D01*
X6224943Y-16972174D02*
X6243991Y-16962650D01*
X6243991Y-16962650D02*
X6272563Y-16962650D01*
X6272563Y-16962650D02*
X6291610Y-16972174D01*
X6291610Y-16972174D02*
X6301134Y-16991222D01*
X6301134Y-16991222D02*
X6301134Y-17095984D01*
X6301134Y-16991222D02*
X6310658Y-16972174D01*
X6310658Y-16972174D02*
X6329705Y-16962650D01*
X6329705Y-16962650D02*
X6358277Y-16962650D01*
X6358277Y-16962650D02*
X6377324Y-16972174D01*
X6377324Y-16972174D02*
X6386848Y-16991222D01*
X6386848Y-16991222D02*
X6386848Y-17095984D01*
X6482086Y-17095984D02*
X6482086Y-16962650D01*
X6482086Y-16981698D02*
X6491610Y-16972174D01*
X6491610Y-16972174D02*
X6510658Y-16962650D01*
X6510658Y-16962650D02*
X6539229Y-16962650D01*
X6539229Y-16962650D02*
X6558277Y-16972174D01*
X6558277Y-16972174D02*
X6567801Y-16991222D01*
X6567801Y-16991222D02*
X6567801Y-17095984D01*
X6567801Y-16991222D02*
X6577324Y-16972174D01*
X6577324Y-16972174D02*
X6596372Y-16962650D01*
X6596372Y-16962650D02*
X6624943Y-16962650D01*
X6624943Y-16962650D02*
X6643991Y-16972174D01*
X6643991Y-16972174D02*
X6653515Y-16991222D01*
X6653515Y-16991222D02*
X6653515Y-17095984D01*
X7043991Y-16886460D02*
X6872563Y-17143603D01*
X7301134Y-16895984D02*
X7320182Y-16895984D01*
X7320182Y-16895984D02*
X7339229Y-16905508D01*
X7339229Y-16905508D02*
X7348753Y-16915031D01*
X7348753Y-16915031D02*
X7358277Y-16934079D01*
X7358277Y-16934079D02*
X7367801Y-16972174D01*
X7367801Y-16972174D02*
X7367801Y-17019793D01*
X7367801Y-17019793D02*
X7358277Y-17057889D01*
X7358277Y-17057889D02*
X7348753Y-17076936D01*
X7348753Y-17076936D02*
X7339229Y-17086460D01*
X7339229Y-17086460D02*
X7320182Y-17095984D01*
X7320182Y-17095984D02*
X7301134Y-17095984D01*
X7301134Y-17095984D02*
X7282086Y-17086460D01*
X7282086Y-17086460D02*
X7272563Y-17076936D01*
X7272563Y-17076936D02*
X7263039Y-17057889D01*
X7263039Y-17057889D02*
X7253515Y-17019793D01*
X7253515Y-17019793D02*
X7253515Y-16972174D01*
X7253515Y-16972174D02*
X7263039Y-16934079D01*
X7263039Y-16934079D02*
X7272563Y-16915031D01*
X7272563Y-16915031D02*
X7282086Y-16905508D01*
X7282086Y-16905508D02*
X7301134Y-16895984D01*
X7453515Y-17076936D02*
X7463039Y-17086460D01*
X7463039Y-17086460D02*
X7453515Y-17095984D01*
X7453515Y-17095984D02*
X7443991Y-17086460D01*
X7443991Y-17086460D02*
X7453515Y-17076936D01*
X7453515Y-17076936D02*
X7453515Y-17095984D01*
X7586848Y-16895984D02*
X7605896Y-16895984D01*
X7605896Y-16895984D02*
X7624944Y-16905508D01*
X7624944Y-16905508D02*
X7634467Y-16915031D01*
X7634467Y-16915031D02*
X7643991Y-16934079D01*
X7643991Y-16934079D02*
X7653515Y-16972174D01*
X7653515Y-16972174D02*
X7653515Y-17019793D01*
X7653515Y-17019793D02*
X7643991Y-17057889D01*
X7643991Y-17057889D02*
X7634467Y-17076936D01*
X7634467Y-17076936D02*
X7624944Y-17086460D01*
X7624944Y-17086460D02*
X7605896Y-17095984D01*
X7605896Y-17095984D02*
X7586848Y-17095984D01*
X7586848Y-17095984D02*
X7567801Y-17086460D01*
X7567801Y-17086460D02*
X7558277Y-17076936D01*
X7558277Y-17076936D02*
X7548753Y-17057889D01*
X7548753Y-17057889D02*
X7539229Y-17019793D01*
X7539229Y-17019793D02*
X7539229Y-16972174D01*
X7539229Y-16972174D02*
X7548753Y-16934079D01*
X7548753Y-16934079D02*
X7558277Y-16915031D01*
X7558277Y-16915031D02*
X7567801Y-16905508D01*
X7567801Y-16905508D02*
X7586848Y-16895984D01*
X7720182Y-16895984D02*
X7853515Y-16895984D01*
X7853515Y-16895984D02*
X7767801Y-17095984D01*
X7967801Y-16895984D02*
X7986848Y-16895984D01*
X7986848Y-16895984D02*
X8005896Y-16905508D01*
X8005896Y-16905508D02*
X8015420Y-16915031D01*
X8015420Y-16915031D02*
X8024944Y-16934079D01*
X8024944Y-16934079D02*
X8034467Y-16972174D01*
X8034467Y-16972174D02*
X8034467Y-17019793D01*
X8034467Y-17019793D02*
X8024944Y-17057889D01*
X8024944Y-17057889D02*
X8015420Y-17076936D01*
X8015420Y-17076936D02*
X8005896Y-17086460D01*
X8005896Y-17086460D02*
X7986848Y-17095984D01*
X7986848Y-17095984D02*
X7967801Y-17095984D01*
X7967801Y-17095984D02*
X7948753Y-17086460D01*
X7948753Y-17086460D02*
X7939229Y-17076936D01*
X7939229Y-17076936D02*
X7929706Y-17057889D01*
X7929706Y-17057889D02*
X7920182Y-17019793D01*
X7920182Y-17019793D02*
X7920182Y-16972174D01*
X7920182Y-16972174D02*
X7929706Y-16934079D01*
X7929706Y-16934079D02*
X7939229Y-16915031D01*
X7939229Y-16915031D02*
X7948753Y-16905508D01*
X7948753Y-16905508D02*
X7967801Y-16895984D01*
X8129706Y-17095984D02*
X8167801Y-17095984D01*
X8167801Y-17095984D02*
X8186848Y-17086460D01*
X8186848Y-17086460D02*
X8196372Y-17076936D01*
X8196372Y-17076936D02*
X8215420Y-17048365D01*
X8215420Y-17048365D02*
X8224944Y-17010270D01*
X8224944Y-17010270D02*
X8224944Y-16934079D01*
X8224944Y-16934079D02*
X8215420Y-16915031D01*
X8215420Y-16915031D02*
X8205896Y-16905508D01*
X8205896Y-16905508D02*
X8186848Y-16895984D01*
X8186848Y-16895984D02*
X8148753Y-16895984D01*
X8148753Y-16895984D02*
X8129706Y-16905508D01*
X8129706Y-16905508D02*
X8120182Y-16915031D01*
X8120182Y-16915031D02*
X8110658Y-16934079D01*
X8110658Y-16934079D02*
X8110658Y-16981698D01*
X8110658Y-16981698D02*
X8120182Y-17000746D01*
X8120182Y-17000746D02*
X8129706Y-17010270D01*
X8129706Y-17010270D02*
X8148753Y-17019793D01*
X8148753Y-17019793D02*
X8186848Y-17019793D01*
X8186848Y-17019793D02*
X8205896Y-17010270D01*
X8205896Y-17010270D02*
X8215420Y-17000746D01*
X8215420Y-17000746D02*
X8224944Y-16981698D01*
X8301134Y-16895984D02*
X8301134Y-16934079D01*
X8377325Y-16895984D02*
X8377325Y-16934079D01*
X8672563Y-17172174D02*
X8663039Y-17162650D01*
X8663039Y-17162650D02*
X8643991Y-17134079D01*
X8643991Y-17134079D02*
X8634468Y-17115031D01*
X8634468Y-17115031D02*
X8624944Y-17086460D01*
X8624944Y-17086460D02*
X8615420Y-17038841D01*
X8615420Y-17038841D02*
X8615420Y-17000746D01*
X8615420Y-17000746D02*
X8624944Y-16953127D01*
X8624944Y-16953127D02*
X8634468Y-16924555D01*
X8634468Y-16924555D02*
X8643991Y-16905508D01*
X8643991Y-16905508D02*
X8663039Y-16876936D01*
X8663039Y-16876936D02*
X8672563Y-16867412D01*
X8853515Y-17095984D02*
X8739230Y-17095984D01*
X8796372Y-17095984D02*
X8796372Y-16895984D01*
X8796372Y-16895984D02*
X8777325Y-16924555D01*
X8777325Y-16924555D02*
X8758277Y-16943603D01*
X8758277Y-16943603D02*
X8739230Y-16953127D01*
X8920182Y-16895984D02*
X9043991Y-16895984D01*
X9043991Y-16895984D02*
X8977325Y-16972174D01*
X8977325Y-16972174D02*
X9005896Y-16972174D01*
X9005896Y-16972174D02*
X9024944Y-16981698D01*
X9024944Y-16981698D02*
X9034468Y-16991222D01*
X9034468Y-16991222D02*
X9043991Y-17010270D01*
X9043991Y-17010270D02*
X9043991Y-17057889D01*
X9043991Y-17057889D02*
X9034468Y-17076936D01*
X9034468Y-17076936D02*
X9024944Y-17086460D01*
X9024944Y-17086460D02*
X9005896Y-17095984D01*
X9005896Y-17095984D02*
X8948753Y-17095984D01*
X8948753Y-17095984D02*
X8929706Y-17086460D01*
X8929706Y-17086460D02*
X8920182Y-17076936D01*
X9110658Y-16895984D02*
X9234468Y-16895984D01*
X9234468Y-16895984D02*
X9167801Y-16972174D01*
X9167801Y-16972174D02*
X9196372Y-16972174D01*
X9196372Y-16972174D02*
X9215420Y-16981698D01*
X9215420Y-16981698D02*
X9224944Y-16991222D01*
X9224944Y-16991222D02*
X9234468Y-17010270D01*
X9234468Y-17010270D02*
X9234468Y-17057889D01*
X9234468Y-17057889D02*
X9224944Y-17076936D01*
X9224944Y-17076936D02*
X9215420Y-17086460D01*
X9215420Y-17086460D02*
X9196372Y-17095984D01*
X9196372Y-17095984D02*
X9139230Y-17095984D01*
X9139230Y-17095984D02*
X9120182Y-17086460D01*
X9120182Y-17086460D02*
X9110658Y-17076936D01*
X9472563Y-17095984D02*
X9472563Y-16895984D01*
X9558277Y-17095984D02*
X9558277Y-16991222D01*
X9558277Y-16991222D02*
X9548753Y-16972174D01*
X9548753Y-16972174D02*
X9529706Y-16962650D01*
X9529706Y-16962650D02*
X9501134Y-16962650D01*
X9501134Y-16962650D02*
X9482087Y-16972174D01*
X9482087Y-16972174D02*
X9472563Y-16981698D01*
X9682087Y-17095984D02*
X9663039Y-17086460D01*
X9663039Y-17086460D02*
X9653515Y-17076936D01*
X9653515Y-17076936D02*
X9643992Y-17057889D01*
X9643992Y-17057889D02*
X9643992Y-17000746D01*
X9643992Y-17000746D02*
X9653515Y-16981698D01*
X9653515Y-16981698D02*
X9663039Y-16972174D01*
X9663039Y-16972174D02*
X9682087Y-16962650D01*
X9682087Y-16962650D02*
X9710658Y-16962650D01*
X9710658Y-16962650D02*
X9729706Y-16972174D01*
X9729706Y-16972174D02*
X9739230Y-16981698D01*
X9739230Y-16981698D02*
X9748753Y-17000746D01*
X9748753Y-17000746D02*
X9748753Y-17057889D01*
X9748753Y-17057889D02*
X9739230Y-17076936D01*
X9739230Y-17076936D02*
X9729706Y-17086460D01*
X9729706Y-17086460D02*
X9710658Y-17095984D01*
X9710658Y-17095984D02*
X9682087Y-17095984D01*
X9863039Y-17095984D02*
X9843992Y-17086460D01*
X9843992Y-17086460D02*
X9834468Y-17067412D01*
X9834468Y-17067412D02*
X9834468Y-16895984D01*
X10015420Y-17086460D02*
X9996373Y-17095984D01*
X9996373Y-17095984D02*
X9958277Y-17095984D01*
X9958277Y-17095984D02*
X9939230Y-17086460D01*
X9939230Y-17086460D02*
X9929706Y-17067412D01*
X9929706Y-17067412D02*
X9929706Y-16991222D01*
X9929706Y-16991222D02*
X9939230Y-16972174D01*
X9939230Y-16972174D02*
X9958277Y-16962650D01*
X9958277Y-16962650D02*
X9996373Y-16962650D01*
X9996373Y-16962650D02*
X10015420Y-16972174D01*
X10015420Y-16972174D02*
X10024944Y-16991222D01*
X10024944Y-16991222D02*
X10024944Y-17010270D01*
X10024944Y-17010270D02*
X9929706Y-17029317D01*
X10101134Y-17086460D02*
X10120182Y-17095984D01*
X10120182Y-17095984D02*
X10158277Y-17095984D01*
X10158277Y-17095984D02*
X10177325Y-17086460D01*
X10177325Y-17086460D02*
X10186849Y-17067412D01*
X10186849Y-17067412D02*
X10186849Y-17057889D01*
X10186849Y-17057889D02*
X10177325Y-17038841D01*
X10177325Y-17038841D02*
X10158277Y-17029317D01*
X10158277Y-17029317D02*
X10129706Y-17029317D01*
X10129706Y-17029317D02*
X10110658Y-17019793D01*
X10110658Y-17019793D02*
X10101134Y-17000746D01*
X10101134Y-17000746D02*
X10101134Y-16991222D01*
X10101134Y-16991222D02*
X10110658Y-16972174D01*
X10110658Y-16972174D02*
X10129706Y-16962650D01*
X10129706Y-16962650D02*
X10158277Y-16962650D01*
X10158277Y-16962650D02*
X10177325Y-16972174D01*
X10253515Y-17172174D02*
X10263039Y-17162650D01*
X10263039Y-17162650D02*
X10282087Y-17134079D01*
X10282087Y-17134079D02*
X10291611Y-17115031D01*
X10291611Y-17115031D02*
X10301134Y-17086460D01*
X10301134Y-17086460D02*
X10310658Y-17038841D01*
X10310658Y-17038841D02*
X10310658Y-17000746D01*
X10310658Y-17000746D02*
X10301134Y-16953127D01*
X10301134Y-16953127D02*
X10291611Y-16924555D01*
X10291611Y-16924555D02*
X10282087Y-16905508D01*
X10282087Y-16905508D02*
X10263039Y-16876936D01*
X10263039Y-16876936D02*
X10253515Y-16867412D01*
X5068211Y-17375211D02*
X5068211Y-17233789D01*
X4926789Y-17233789D01*
X4926789Y-17375211D01*
X5068211Y-17375211D01*
X5443991Y-17262650D02*
X5443991Y-17395984D01*
X5396372Y-17186460D02*
X5348753Y-17329317D01*
X5348753Y-17329317D02*
X5472563Y-17329317D01*
X5548753Y-17376936D02*
X5558277Y-17386460D01*
X5558277Y-17386460D02*
X5548753Y-17395984D01*
X5548753Y-17395984D02*
X5539229Y-17386460D01*
X5539229Y-17386460D02*
X5548753Y-17376936D01*
X5548753Y-17376936D02*
X5548753Y-17395984D01*
X5634467Y-17215031D02*
X5643991Y-17205508D01*
X5643991Y-17205508D02*
X5663039Y-17195984D01*
X5663039Y-17195984D02*
X5710658Y-17195984D01*
X5710658Y-17195984D02*
X5729705Y-17205508D01*
X5729705Y-17205508D02*
X5739229Y-17215031D01*
X5739229Y-17215031D02*
X5748753Y-17234079D01*
X5748753Y-17234079D02*
X5748753Y-17253127D01*
X5748753Y-17253127D02*
X5739229Y-17281698D01*
X5739229Y-17281698D02*
X5624943Y-17395984D01*
X5624943Y-17395984D02*
X5748753Y-17395984D01*
X5929705Y-17195984D02*
X5834467Y-17195984D01*
X5834467Y-17195984D02*
X5824943Y-17291222D01*
X5824943Y-17291222D02*
X5834467Y-17281698D01*
X5834467Y-17281698D02*
X5853515Y-17272174D01*
X5853515Y-17272174D02*
X5901134Y-17272174D01*
X5901134Y-17272174D02*
X5920182Y-17281698D01*
X5920182Y-17281698D02*
X5929705Y-17291222D01*
X5929705Y-17291222D02*
X5939229Y-17310270D01*
X5939229Y-17310270D02*
X5939229Y-17357889D01*
X5939229Y-17357889D02*
X5929705Y-17376936D01*
X5929705Y-17376936D02*
X5920182Y-17386460D01*
X5920182Y-17386460D02*
X5901134Y-17395984D01*
X5901134Y-17395984D02*
X5853515Y-17395984D01*
X5853515Y-17395984D02*
X5834467Y-17386460D01*
X5834467Y-17386460D02*
X5824943Y-17376936D01*
X6063039Y-17195984D02*
X6082086Y-17195984D01*
X6082086Y-17195984D02*
X6101134Y-17205508D01*
X6101134Y-17205508D02*
X6110658Y-17215031D01*
X6110658Y-17215031D02*
X6120182Y-17234079D01*
X6120182Y-17234079D02*
X6129705Y-17272174D01*
X6129705Y-17272174D02*
X6129705Y-17319793D01*
X6129705Y-17319793D02*
X6120182Y-17357889D01*
X6120182Y-17357889D02*
X6110658Y-17376936D01*
X6110658Y-17376936D02*
X6101134Y-17386460D01*
X6101134Y-17386460D02*
X6082086Y-17395984D01*
X6082086Y-17395984D02*
X6063039Y-17395984D01*
X6063039Y-17395984D02*
X6043991Y-17386460D01*
X6043991Y-17386460D02*
X6034467Y-17376936D01*
X6034467Y-17376936D02*
X6024943Y-17357889D01*
X6024943Y-17357889D02*
X6015420Y-17319793D01*
X6015420Y-17319793D02*
X6015420Y-17272174D01*
X6015420Y-17272174D02*
X6024943Y-17234079D01*
X6024943Y-17234079D02*
X6034467Y-17215031D01*
X6034467Y-17215031D02*
X6043991Y-17205508D01*
X6043991Y-17205508D02*
X6063039Y-17195984D01*
X6215420Y-17395984D02*
X6215420Y-17262650D01*
X6215420Y-17281698D02*
X6224943Y-17272174D01*
X6224943Y-17272174D02*
X6243991Y-17262650D01*
X6243991Y-17262650D02*
X6272563Y-17262650D01*
X6272563Y-17262650D02*
X6291610Y-17272174D01*
X6291610Y-17272174D02*
X6301134Y-17291222D01*
X6301134Y-17291222D02*
X6301134Y-17395984D01*
X6301134Y-17291222D02*
X6310658Y-17272174D01*
X6310658Y-17272174D02*
X6329705Y-17262650D01*
X6329705Y-17262650D02*
X6358277Y-17262650D01*
X6358277Y-17262650D02*
X6377324Y-17272174D01*
X6377324Y-17272174D02*
X6386848Y-17291222D01*
X6386848Y-17291222D02*
X6386848Y-17395984D01*
X6482086Y-17395984D02*
X6482086Y-17262650D01*
X6482086Y-17281698D02*
X6491610Y-17272174D01*
X6491610Y-17272174D02*
X6510658Y-17262650D01*
X6510658Y-17262650D02*
X6539229Y-17262650D01*
X6539229Y-17262650D02*
X6558277Y-17272174D01*
X6558277Y-17272174D02*
X6567801Y-17291222D01*
X6567801Y-17291222D02*
X6567801Y-17395984D01*
X6567801Y-17291222D02*
X6577324Y-17272174D01*
X6577324Y-17272174D02*
X6596372Y-17262650D01*
X6596372Y-17262650D02*
X6624943Y-17262650D01*
X6624943Y-17262650D02*
X6643991Y-17272174D01*
X6643991Y-17272174D02*
X6653515Y-17291222D01*
X6653515Y-17291222D02*
X6653515Y-17395984D01*
X7043991Y-17186460D02*
X6872563Y-17443603D01*
X7301134Y-17195984D02*
X7320182Y-17195984D01*
X7320182Y-17195984D02*
X7339229Y-17205508D01*
X7339229Y-17205508D02*
X7348753Y-17215031D01*
X7348753Y-17215031D02*
X7358277Y-17234079D01*
X7358277Y-17234079D02*
X7367801Y-17272174D01*
X7367801Y-17272174D02*
X7367801Y-17319793D01*
X7367801Y-17319793D02*
X7358277Y-17357889D01*
X7358277Y-17357889D02*
X7348753Y-17376936D01*
X7348753Y-17376936D02*
X7339229Y-17386460D01*
X7339229Y-17386460D02*
X7320182Y-17395984D01*
X7320182Y-17395984D02*
X7301134Y-17395984D01*
X7301134Y-17395984D02*
X7282086Y-17386460D01*
X7282086Y-17386460D02*
X7272563Y-17376936D01*
X7272563Y-17376936D02*
X7263039Y-17357889D01*
X7263039Y-17357889D02*
X7253515Y-17319793D01*
X7253515Y-17319793D02*
X7253515Y-17272174D01*
X7253515Y-17272174D02*
X7263039Y-17234079D01*
X7263039Y-17234079D02*
X7272563Y-17215031D01*
X7272563Y-17215031D02*
X7282086Y-17205508D01*
X7282086Y-17205508D02*
X7301134Y-17195984D01*
X7453515Y-17376936D02*
X7463039Y-17386460D01*
X7463039Y-17386460D02*
X7453515Y-17395984D01*
X7453515Y-17395984D02*
X7443991Y-17386460D01*
X7443991Y-17386460D02*
X7453515Y-17376936D01*
X7453515Y-17376936D02*
X7453515Y-17395984D01*
X7653515Y-17395984D02*
X7539229Y-17395984D01*
X7596372Y-17395984D02*
X7596372Y-17195984D01*
X7596372Y-17195984D02*
X7577325Y-17224555D01*
X7577325Y-17224555D02*
X7558277Y-17243603D01*
X7558277Y-17243603D02*
X7539229Y-17253127D01*
X7824944Y-17195984D02*
X7786848Y-17195984D01*
X7786848Y-17195984D02*
X7767801Y-17205508D01*
X7767801Y-17205508D02*
X7758277Y-17215031D01*
X7758277Y-17215031D02*
X7739229Y-17243603D01*
X7739229Y-17243603D02*
X7729706Y-17281698D01*
X7729706Y-17281698D02*
X7729706Y-17357889D01*
X7729706Y-17357889D02*
X7739229Y-17376936D01*
X7739229Y-17376936D02*
X7748753Y-17386460D01*
X7748753Y-17386460D02*
X7767801Y-17395984D01*
X7767801Y-17395984D02*
X7805896Y-17395984D01*
X7805896Y-17395984D02*
X7824944Y-17386460D01*
X7824944Y-17386460D02*
X7834467Y-17376936D01*
X7834467Y-17376936D02*
X7843991Y-17357889D01*
X7843991Y-17357889D02*
X7843991Y-17310270D01*
X7843991Y-17310270D02*
X7834467Y-17291222D01*
X7834467Y-17291222D02*
X7824944Y-17281698D01*
X7824944Y-17281698D02*
X7805896Y-17272174D01*
X7805896Y-17272174D02*
X7767801Y-17272174D01*
X7767801Y-17272174D02*
X7748753Y-17281698D01*
X7748753Y-17281698D02*
X7739229Y-17291222D01*
X7739229Y-17291222D02*
X7729706Y-17310270D01*
X7910658Y-17195984D02*
X8043991Y-17195984D01*
X8043991Y-17195984D02*
X7958277Y-17395984D01*
X8101134Y-17195984D02*
X8224944Y-17195984D01*
X8224944Y-17195984D02*
X8158277Y-17272174D01*
X8158277Y-17272174D02*
X8186848Y-17272174D01*
X8186848Y-17272174D02*
X8205896Y-17281698D01*
X8205896Y-17281698D02*
X8215420Y-17291222D01*
X8215420Y-17291222D02*
X8224944Y-17310270D01*
X8224944Y-17310270D02*
X8224944Y-17357889D01*
X8224944Y-17357889D02*
X8215420Y-17376936D01*
X8215420Y-17376936D02*
X8205896Y-17386460D01*
X8205896Y-17386460D02*
X8186848Y-17395984D01*
X8186848Y-17395984D02*
X8129706Y-17395984D01*
X8129706Y-17395984D02*
X8110658Y-17386460D01*
X8110658Y-17386460D02*
X8101134Y-17376936D01*
X8301134Y-17195984D02*
X8301134Y-17234079D01*
X8377325Y-17195984D02*
X8377325Y-17234079D01*
X8672563Y-17472174D02*
X8663039Y-17462650D01*
X8663039Y-17462650D02*
X8643991Y-17434079D01*
X8643991Y-17434079D02*
X8634468Y-17415031D01*
X8634468Y-17415031D02*
X8624944Y-17386460D01*
X8624944Y-17386460D02*
X8615420Y-17338841D01*
X8615420Y-17338841D02*
X8615420Y-17300746D01*
X8615420Y-17300746D02*
X8624944Y-17253127D01*
X8624944Y-17253127D02*
X8634468Y-17224555D01*
X8634468Y-17224555D02*
X8643991Y-17205508D01*
X8643991Y-17205508D02*
X8663039Y-17176936D01*
X8663039Y-17176936D02*
X8672563Y-17167412D01*
X8777325Y-17281698D02*
X8758277Y-17272174D01*
X8758277Y-17272174D02*
X8748753Y-17262650D01*
X8748753Y-17262650D02*
X8739230Y-17243603D01*
X8739230Y-17243603D02*
X8739230Y-17234079D01*
X8739230Y-17234079D02*
X8748753Y-17215031D01*
X8748753Y-17215031D02*
X8758277Y-17205508D01*
X8758277Y-17205508D02*
X8777325Y-17195984D01*
X8777325Y-17195984D02*
X8815420Y-17195984D01*
X8815420Y-17195984D02*
X8834468Y-17205508D01*
X8834468Y-17205508D02*
X8843991Y-17215031D01*
X8843991Y-17215031D02*
X8853515Y-17234079D01*
X8853515Y-17234079D02*
X8853515Y-17243603D01*
X8853515Y-17243603D02*
X8843991Y-17262650D01*
X8843991Y-17262650D02*
X8834468Y-17272174D01*
X8834468Y-17272174D02*
X8815420Y-17281698D01*
X8815420Y-17281698D02*
X8777325Y-17281698D01*
X8777325Y-17281698D02*
X8758277Y-17291222D01*
X8758277Y-17291222D02*
X8748753Y-17300746D01*
X8748753Y-17300746D02*
X8739230Y-17319793D01*
X8739230Y-17319793D02*
X8739230Y-17357889D01*
X8739230Y-17357889D02*
X8748753Y-17376936D01*
X8748753Y-17376936D02*
X8758277Y-17386460D01*
X8758277Y-17386460D02*
X8777325Y-17395984D01*
X8777325Y-17395984D02*
X8815420Y-17395984D01*
X8815420Y-17395984D02*
X8834468Y-17386460D01*
X8834468Y-17386460D02*
X8843991Y-17376936D01*
X8843991Y-17376936D02*
X8853515Y-17357889D01*
X8853515Y-17357889D02*
X8853515Y-17319793D01*
X8853515Y-17319793D02*
X8843991Y-17300746D01*
X8843991Y-17300746D02*
X8834468Y-17291222D01*
X8834468Y-17291222D02*
X8815420Y-17281698D01*
X9091611Y-17395984D02*
X9091611Y-17195984D01*
X9177325Y-17395984D02*
X9177325Y-17291222D01*
X9177325Y-17291222D02*
X9167801Y-17272174D01*
X9167801Y-17272174D02*
X9148753Y-17262650D01*
X9148753Y-17262650D02*
X9120182Y-17262650D01*
X9120182Y-17262650D02*
X9101134Y-17272174D01*
X9101134Y-17272174D02*
X9091611Y-17281698D01*
X9301134Y-17395984D02*
X9282087Y-17386460D01*
X9282087Y-17386460D02*
X9272563Y-17376936D01*
X9272563Y-17376936D02*
X9263039Y-17357889D01*
X9263039Y-17357889D02*
X9263039Y-17300746D01*
X9263039Y-17300746D02*
X9272563Y-17281698D01*
X9272563Y-17281698D02*
X9282087Y-17272174D01*
X9282087Y-17272174D02*
X9301134Y-17262650D01*
X9301134Y-17262650D02*
X9329706Y-17262650D01*
X9329706Y-17262650D02*
X9348753Y-17272174D01*
X9348753Y-17272174D02*
X9358277Y-17281698D01*
X9358277Y-17281698D02*
X9367801Y-17300746D01*
X9367801Y-17300746D02*
X9367801Y-17357889D01*
X9367801Y-17357889D02*
X9358277Y-17376936D01*
X9358277Y-17376936D02*
X9348753Y-17386460D01*
X9348753Y-17386460D02*
X9329706Y-17395984D01*
X9329706Y-17395984D02*
X9301134Y-17395984D01*
X9482087Y-17395984D02*
X9463039Y-17386460D01*
X9463039Y-17386460D02*
X9453515Y-17367412D01*
X9453515Y-17367412D02*
X9453515Y-17195984D01*
X9634468Y-17386460D02*
X9615420Y-17395984D01*
X9615420Y-17395984D02*
X9577325Y-17395984D01*
X9577325Y-17395984D02*
X9558277Y-17386460D01*
X9558277Y-17386460D02*
X9548753Y-17367412D01*
X9548753Y-17367412D02*
X9548753Y-17291222D01*
X9548753Y-17291222D02*
X9558277Y-17272174D01*
X9558277Y-17272174D02*
X9577325Y-17262650D01*
X9577325Y-17262650D02*
X9615420Y-17262650D01*
X9615420Y-17262650D02*
X9634468Y-17272174D01*
X9634468Y-17272174D02*
X9643992Y-17291222D01*
X9643992Y-17291222D02*
X9643992Y-17310270D01*
X9643992Y-17310270D02*
X9548753Y-17329317D01*
X9720182Y-17386460D02*
X9739230Y-17395984D01*
X9739230Y-17395984D02*
X9777325Y-17395984D01*
X9777325Y-17395984D02*
X9796373Y-17386460D01*
X9796373Y-17386460D02*
X9805896Y-17367412D01*
X9805896Y-17367412D02*
X9805896Y-17357889D01*
X9805896Y-17357889D02*
X9796373Y-17338841D01*
X9796373Y-17338841D02*
X9777325Y-17329317D01*
X9777325Y-17329317D02*
X9748753Y-17329317D01*
X9748753Y-17329317D02*
X9729706Y-17319793D01*
X9729706Y-17319793D02*
X9720182Y-17300746D01*
X9720182Y-17300746D02*
X9720182Y-17291222D01*
X9720182Y-17291222D02*
X9729706Y-17272174D01*
X9729706Y-17272174D02*
X9748753Y-17262650D01*
X9748753Y-17262650D02*
X9777325Y-17262650D01*
X9777325Y-17262650D02*
X9796373Y-17272174D01*
X9872563Y-17472174D02*
X9882087Y-17462650D01*
X9882087Y-17462650D02*
X9901134Y-17434079D01*
X9901134Y-17434079D02*
X9910658Y-17415031D01*
X9910658Y-17415031D02*
X9920182Y-17386460D01*
X9920182Y-17386460D02*
X9929706Y-17338841D01*
X9929706Y-17338841D02*
X9929706Y-17300746D01*
X9929706Y-17300746D02*
X9920182Y-17253127D01*
X9920182Y-17253127D02*
X9910658Y-17224555D01*
X9910658Y-17224555D02*
X9901134Y-17205508D01*
X9901134Y-17205508D02*
X9882087Y-17176936D01*
X9882087Y-17176936D02*
X9872563Y-17167412D01*
M02*
