%TF.GenerationSoftware,KiCad,Pcbnew,8.0.6*%
%TF.CreationDate,2024-11-20T20:18:15-05:00*%
%TF.ProjectId,RailsidePDB,5261696c-7369-4646-9550-44422e6b6963,rev?*%
%TF.SameCoordinates,Original*%
%TF.FileFunction,Soldermask,Top*%
%TF.FilePolarity,Negative*%
%FSLAX46Y46*%
G04 Gerber Fmt 4.6, Leading zero omitted, Abs format (unit mm)*
G04 Created by KiCad (PCBNEW 8.0.6) date 2024-11-20 20:18:15*
%MOMM*%
%LPD*%
G01*
G04 APERTURE LIST*
G04 Aperture macros list*
%AMRoundRect*
0 Rectangle with rounded corners*
0 $1 Rounding radius*
0 $2 $3 $4 $5 $6 $7 $8 $9 X,Y pos of 4 corners*
0 Add a 4 corners polygon primitive as box body*
4,1,4,$2,$3,$4,$5,$6,$7,$8,$9,$2,$3,0*
0 Add four circle primitives for the rounded corners*
1,1,$1+$1,$2,$3*
1,1,$1+$1,$4,$5*
1,1,$1+$1,$6,$7*
1,1,$1+$1,$8,$9*
0 Add four rect primitives between the rounded corners*
20,1,$1+$1,$2,$3,$4,$5,0*
20,1,$1+$1,$4,$5,$6,$7,0*
20,1,$1+$1,$6,$7,$8,$9,0*
20,1,$1+$1,$8,$9,$2,$3,0*%
G04 Aperture macros list end*
%ADD10C,3.000000*%
%ADD11O,6.000000X6.000000*%
%ADD12RoundRect,0.750000X0.750000X-0.750000X0.750000X0.750000X-0.750000X0.750000X-0.750000X-0.750000X0*%
%ADD13O,1.500000X4.000000*%
%ADD14C,2.780000*%
G04 APERTURE END LIST*
D10*
%TO.C,*%
X91000000Y-135000000D03*
%TD*%
%TO.C,*%
X109000000Y-135000000D03*
%TD*%
%TO.C,*%
X113000000Y-135000000D03*
%TD*%
%TO.C,*%
X55000000Y-135000000D03*
%TD*%
%TO.C,*%
X107000000Y-135000000D03*
%TD*%
%TO.C,*%
X111000000Y-135000000D03*
%TD*%
%TO.C,*%
X101000000Y-135000000D03*
%TD*%
%TO.C,*%
X85000000Y-135000000D03*
%TD*%
%TO.C,*%
X99000000Y-135000000D03*
%TD*%
%TO.C,*%
X77000000Y-135000000D03*
%TD*%
%TO.C,*%
X53000000Y-135000000D03*
%TD*%
%TO.C,*%
X63000000Y-135000000D03*
%TD*%
%TO.C,*%
X69000000Y-135000000D03*
%TD*%
%TO.C,*%
X59000000Y-135000000D03*
%TD*%
%TO.C,*%
X79000000Y-135000000D03*
%TD*%
%TO.C,*%
X83000000Y-135000000D03*
%TD*%
%TO.C,*%
X67000000Y-135000000D03*
%TD*%
%TO.C,*%
X61000000Y-135000000D03*
%TD*%
%TO.C,*%
X103000000Y-135000000D03*
%TD*%
%TO.C,*%
X105000000Y-135000000D03*
%TD*%
%TO.C,*%
X87000000Y-135000000D03*
%TD*%
%TO.C,*%
X93000000Y-135000000D03*
%TD*%
%TO.C,*%
X97000000Y-135000000D03*
%TD*%
%TO.C,*%
X81000000Y-135000000D03*
%TD*%
%TO.C,*%
X89000000Y-135000000D03*
%TD*%
%TO.C,*%
X95000000Y-135000000D03*
%TD*%
%TO.C,*%
X75000000Y-135000000D03*
%TD*%
%TO.C,*%
X65000000Y-135000000D03*
%TD*%
%TO.C,*%
X57000000Y-135000000D03*
%TD*%
%TO.C,*%
X71000000Y-135000000D03*
%TD*%
%TO.C,*%
X73000000Y-135000000D03*
%TD*%
%TO.C,*%
X59000000Y-110000000D03*
%TD*%
%TO.C,*%
X61000000Y-110000000D03*
%TD*%
%TO.C,*%
X83000000Y-110000000D03*
%TD*%
%TO.C,*%
X87000000Y-110000000D03*
%TD*%
%TO.C,*%
X93000000Y-110000000D03*
%TD*%
%TO.C,*%
X81000000Y-110000000D03*
%TD*%
%TO.C,*%
X73000000Y-110000000D03*
%TD*%
%TO.C,*%
X67000000Y-110000000D03*
%TD*%
%TO.C,*%
X71000000Y-110000000D03*
%TD*%
%TO.C,*%
X65000000Y-110000000D03*
%TD*%
%TO.C,*%
X89000000Y-110000000D03*
%TD*%
%TO.C,*%
X95000000Y-110000000D03*
%TD*%
%TO.C,*%
X99000000Y-110000000D03*
%TD*%
%TO.C,*%
X79000000Y-110000000D03*
%TD*%
%TO.C,*%
X57000000Y-110000000D03*
%TD*%
%TO.C,*%
X91000000Y-110000000D03*
%TD*%
%TO.C,*%
X103000000Y-110000000D03*
%TD*%
%TO.C,*%
X107000000Y-110000000D03*
%TD*%
%TO.C,*%
X113000000Y-110000000D03*
%TD*%
%TO.C,*%
X85000000Y-110000000D03*
%TD*%
%TO.C,*%
X109000000Y-110000000D03*
%TD*%
%TO.C,*%
X101000000Y-110000000D03*
%TD*%
%TO.C,*%
X77000000Y-110000000D03*
%TD*%
%TO.C,*%
X111000000Y-110000000D03*
%TD*%
%TO.C,*%
X55000000Y-110000000D03*
%TD*%
%TO.C,*%
X97000000Y-110000000D03*
%TD*%
%TO.C,*%
X53000000Y-110000000D03*
%TD*%
%TO.C,*%
X105000000Y-110000000D03*
%TD*%
%TO.C,*%
X75000000Y-110000000D03*
%TD*%
%TO.C,*%
X63000000Y-110000000D03*
%TD*%
%TO.C,*%
X69000000Y-110000000D03*
%TD*%
D11*
%TO.C,*%
X55840000Y-146300000D03*
%TD*%
D12*
%TO.C,BT4*%
X109000000Y-149410000D03*
D10*
X109000000Y-144410000D03*
%TD*%
D12*
%TO.C,BT1*%
X84340000Y-149300000D03*
D10*
X84340000Y-144300000D03*
%TD*%
D12*
%TO.C,BT5*%
X63615000Y-149075000D03*
D10*
X63615000Y-144075000D03*
%TD*%
D12*
%TO.C,BT2*%
X77440000Y-149250000D03*
D10*
X77440000Y-144250000D03*
%TD*%
D13*
%TO.C,SW1*%
X95220000Y-140300000D03*
X102840000Y-140300000D03*
%TD*%
D12*
%TO.C,BT3*%
X70415000Y-149075000D03*
D10*
X70415000Y-144075000D03*
%TD*%
D14*
%TO.C,Fuse*%
X91880000Y-146600000D03*
X91880000Y-150000000D03*
X101800000Y-146600000D03*
X101800000Y-150000000D03*
%TD*%
D11*
%TO.C,*%
X98145000Y-140300000D03*
%TD*%
%TO.C,*%
X55000000Y-122100000D03*
%TD*%
D12*
%TO.C,BT4*%
X108160000Y-125210000D03*
D10*
X108160000Y-120210000D03*
%TD*%
D12*
%TO.C,BT1*%
X83500000Y-125100000D03*
D10*
X83500000Y-120100000D03*
%TD*%
D12*
%TO.C,BT5*%
X62775000Y-124875000D03*
D10*
X62775000Y-119875000D03*
%TD*%
D12*
%TO.C,BT2*%
X76600000Y-125050000D03*
D10*
X76600000Y-120050000D03*
%TD*%
D13*
%TO.C,SW1*%
X94380000Y-116100000D03*
X102000000Y-116100000D03*
%TD*%
D12*
%TO.C,BT3*%
X69575000Y-124875000D03*
D10*
X69575000Y-119875000D03*
%TD*%
D14*
%TO.C,Fuse*%
X91040000Y-122400000D03*
X91040000Y-125800000D03*
X100960000Y-122400000D03*
X100960000Y-125800000D03*
%TD*%
D11*
%TO.C,*%
X97305000Y-116100000D03*
%TD*%
%TO.C,*%
X55840000Y-97260000D03*
%TD*%
D12*
%TO.C,BT4*%
X109000000Y-100370000D03*
D10*
X109000000Y-95370000D03*
%TD*%
D12*
%TO.C,BT1*%
X84340000Y-100260000D03*
D10*
X84340000Y-95260000D03*
%TD*%
D12*
%TO.C,BT5*%
X63615000Y-100035000D03*
D10*
X63615000Y-95035000D03*
%TD*%
D12*
%TO.C,BT2*%
X77440000Y-100210000D03*
D10*
X77440000Y-95210000D03*
%TD*%
D13*
%TO.C,SW1*%
X95220000Y-91260000D03*
X102840000Y-91260000D03*
%TD*%
D12*
%TO.C,BT3*%
X70415000Y-100035000D03*
D10*
X70415000Y-95035000D03*
%TD*%
D14*
%TO.C,Fuse*%
X91880000Y-97560000D03*
X91880000Y-100960000D03*
X101800000Y-97560000D03*
X101800000Y-100960000D03*
%TD*%
D11*
%TO.C,*%
X98145000Y-91260000D03*
%TD*%
%TO.C,*%
X56000000Y-73000000D03*
%TD*%
%TO.C,*%
X98305000Y-67000000D03*
%TD*%
D14*
%TO.C,Fuse*%
X101960000Y-76700000D03*
X101960000Y-73300000D03*
X92040000Y-76700000D03*
X92040000Y-73300000D03*
%TD*%
D10*
%TO.C,BT5*%
X63775000Y-70775000D03*
D12*
X63775000Y-75775000D03*
%TD*%
D10*
%TO.C,BT4*%
X109160000Y-71110000D03*
D12*
X109160000Y-76110000D03*
%TD*%
D10*
%TO.C,BT3*%
X70575000Y-70775000D03*
D12*
X70575000Y-75775000D03*
%TD*%
D10*
%TO.C,BT2*%
X77600000Y-70950000D03*
D12*
X77600000Y-75950000D03*
%TD*%
D10*
%TO.C,BT1*%
X84500000Y-71000000D03*
D12*
X84500000Y-76000000D03*
%TD*%
D13*
%TO.C,SW1*%
X103000000Y-67000000D03*
X95380000Y-67000000D03*
%TD*%
D10*
%TO.C,*%
X65000000Y-86000000D03*
%TD*%
%TO.C,*%
X83000000Y-86000000D03*
%TD*%
%TO.C,*%
X73000000Y-86000000D03*
%TD*%
%TO.C,*%
X59000000Y-86000000D03*
%TD*%
%TO.C,*%
X61000000Y-86000000D03*
%TD*%
%TO.C,*%
X69000000Y-86000000D03*
%TD*%
%TO.C,*%
X87000000Y-86000000D03*
%TD*%
%TO.C,*%
X93000000Y-86000000D03*
%TD*%
%TO.C,*%
X81000000Y-86000000D03*
%TD*%
%TO.C,*%
X67000000Y-86000000D03*
%TD*%
%TO.C,*%
X71000000Y-86000000D03*
%TD*%
%TO.C,*%
X89000000Y-86000000D03*
%TD*%
%TO.C,*%
X95000000Y-86000000D03*
%TD*%
%TO.C,*%
X63000000Y-86000000D03*
%TD*%
%TO.C,*%
X99000000Y-86000000D03*
%TD*%
%TO.C,*%
X79000000Y-86000000D03*
%TD*%
%TO.C,*%
X57000000Y-86000000D03*
%TD*%
%TO.C,*%
X91000000Y-86000000D03*
%TD*%
%TO.C,*%
X103000000Y-86000000D03*
%TD*%
%TO.C,*%
X107000000Y-86000000D03*
%TD*%
%TO.C,*%
X101000000Y-86000000D03*
%TD*%
%TO.C,*%
X77000000Y-86000000D03*
%TD*%
%TO.C,*%
X113000000Y-86000000D03*
%TD*%
%TO.C,*%
X85000000Y-86000000D03*
%TD*%
%TO.C,*%
X109000000Y-86000000D03*
%TD*%
%TO.C,*%
X111000000Y-86000000D03*
%TD*%
%TO.C,*%
X55000000Y-86000000D03*
%TD*%
%TO.C,*%
X97000000Y-86000000D03*
%TD*%
%TO.C,*%
X53000000Y-86000000D03*
%TD*%
%TO.C,*%
X105000000Y-86000000D03*
%TD*%
%TO.C,*%
X75000000Y-86000000D03*
%TD*%
M02*
