M48
; DRILL file {KiCad 8.0.6} date 2024-11-20T20:18:20-0500
; FORMAT={-:-/ absolute / inch / decimal}
; #@! TF.CreationDate,2024-11-20T20:18:20-05:00
; #@! TF.GenerationSoftware,Kicad,Pcbnew,8.0.6
; #@! TF.FileFunction,Plated,1,2,PTH
FMAT,2
INCH
; #@! TA.AperFunction,Plated,PTH,ComponentDrill
T1C0.0315
; #@! TA.AperFunction,Plated,PTH,ComponentDrill
T2C0.0701
; #@! TA.AperFunction,Plated,PTH,ComponentDrill
T3C0.0709
; #@! TA.AperFunction,Plated,PTH,ComponentDrill
T4C0.1673
%
G90
G05
T1
X3.7157Y-4.5709
X3.7488Y-3.5929
X3.7488Y-5.5236
X3.7551Y-2.6378
X4.0157Y-4.5709
X4.0488Y-3.5929
X4.0488Y-5.5236
X4.0551Y-2.6378
T2
X3.5843Y-4.8189
X3.5843Y-4.9528
X3.6173Y-3.8409
X3.6173Y-3.9748
X3.6173Y-5.7717
X3.6173Y-5.9055
X3.6236Y-2.8858
X3.6236Y-3.0197
X3.9748Y-4.8189
X3.9748Y-4.9528
X4.0079Y-3.8409
X4.0079Y-3.9748
X4.0079Y-5.7717
X4.0079Y-5.9055
X4.0142Y-2.8858
X4.0142Y-3.0197
T3
X2.0866Y-3.3858
X2.0866Y-4.3307
X2.0866Y-5.315
X2.1654Y-3.3858
X2.1654Y-4.3307
X2.1654Y-5.315
X2.2441Y-3.3858
X2.2441Y-4.3307
X2.2441Y-5.315
X2.3228Y-3.3858
X2.3228Y-4.3307
X2.3228Y-5.315
X2.4016Y-3.3858
X2.4016Y-4.3307
X2.4016Y-5.315
X2.4715Y-4.7195
X2.4715Y-4.9163
X2.4803Y-3.3858
X2.4803Y-4.3307
X2.4803Y-5.315
X2.5045Y-3.7415
X2.5045Y-3.9384
X2.5045Y-5.6722
X2.5045Y-5.8691
X2.5108Y-2.7864
X2.5108Y-2.9833
X2.5591Y-3.3858
X2.5591Y-4.3307
X2.5591Y-5.315
X2.6378Y-3.3858
X2.6378Y-4.3307
X2.6378Y-5.315
X2.7165Y-3.3858
X2.7165Y-4.3307
X2.7165Y-5.315
X2.7392Y-4.7195
X2.7392Y-4.9163
X2.7722Y-3.7415
X2.7722Y-3.9384
X2.7722Y-5.6722
X2.7722Y-5.8691
X2.7785Y-2.7864
X2.7785Y-2.9833
X2.7953Y-3.3858
X2.7953Y-4.3307
X2.7953Y-5.315
X2.874Y-3.3858
X2.874Y-4.3307
X2.874Y-5.315
X2.9528Y-3.3858
X2.9528Y-4.3307
X2.9528Y-5.315
X3.0157Y-4.7264
X3.0157Y-4.9232
X3.0315Y-3.3858
X3.0315Y-4.3307
X3.0315Y-5.315
X3.0488Y-3.7484
X3.0488Y-3.9453
X3.0488Y-5.6791
X3.0488Y-5.876
X3.0551Y-2.7933
X3.0551Y-2.9902
X3.1102Y-3.3858
X3.1102Y-4.3307
X3.1102Y-5.315
X3.189Y-3.3858
X3.189Y-4.3307
X3.189Y-5.315
X3.2677Y-3.3858
X3.2677Y-4.3307
X3.2677Y-5.315
X3.2874Y-4.7283
X3.2874Y-4.9252
X3.3205Y-3.7504
X3.3205Y-3.9472
X3.3205Y-5.6811
X3.3205Y-5.878
X3.3268Y-2.7953
X3.3268Y-2.9921
X3.3465Y-3.3858
X3.3465Y-4.3307
X3.3465Y-5.315
X3.4252Y-3.3858
X3.4252Y-4.3307
X3.4252Y-5.315
X3.5039Y-3.3858
X3.5039Y-4.3307
X3.5039Y-5.315
X3.5827Y-3.3858
X3.5827Y-4.3307
X3.5827Y-5.315
X3.6614Y-3.3858
X3.6614Y-4.3307
X3.6614Y-5.315
X3.7402Y-3.3858
X3.7402Y-4.3307
X3.7402Y-5.315
X3.8189Y-3.3858
X3.8189Y-4.3307
X3.8189Y-5.315
X3.8976Y-3.3858
X3.8976Y-4.3307
X3.8976Y-5.315
X3.9764Y-3.3858
X3.9764Y-4.3307
X3.9764Y-5.315
X4.0551Y-3.3858
X4.0551Y-4.3307
X4.0551Y-5.315
X4.1339Y-3.3858
X4.1339Y-4.3307
X4.1339Y-5.315
X4.2126Y-3.3858
X4.2126Y-4.3307
X4.2126Y-5.315
X4.2583Y-4.7327
X4.2583Y-4.9295
X4.2913Y-3.3858
X4.2913Y-3.7547
X4.2913Y-3.9516
X4.2913Y-4.3307
X4.2913Y-5.315
X4.2913Y-5.6854
X4.2913Y-5.8823
X4.2976Y-2.7996
X4.2976Y-2.9965
X4.3701Y-3.3858
X4.3701Y-4.3307
X4.3701Y-5.315
X4.4488Y-3.3858
X4.4488Y-4.3307
X4.4488Y-5.315
T4
X2.1654Y-4.8071
X2.1984Y-3.8291
X2.1984Y-5.7598
X2.2047Y-2.874
X3.8309Y-4.5709
X3.864Y-3.5929
X3.864Y-5.5236
X3.8703Y-2.6378
M30
