%TF.GenerationSoftware,KiCad,Pcbnew,8.0.6*%
%TF.CreationDate,2024-11-20T20:18:15-05:00*%
%TF.ProjectId,RailsidePDB,5261696c-7369-4646-9550-44422e6b6963,rev?*%
%TF.SameCoordinates,Original*%
%TF.FileFunction,Legend,Top*%
%TF.FilePolarity,Positive*%
%FSLAX46Y46*%
G04 Gerber Fmt 4.6, Leading zero omitted, Abs format (unit mm)*
G04 Created by KiCad (PCBNEW 8.0.6) date 2024-11-20 20:18:15*
%MOMM*%
%LPD*%
G01*
G04 APERTURE LIST*
%ADD10C,0.300000*%
%ADD11C,0.150000*%
%ADD12C,0.120000*%
G04 APERTURE END LIST*
D10*
X63251653Y-153685912D02*
X62751653Y-152971626D01*
X62394510Y-153685912D02*
X62394510Y-152185912D01*
X62394510Y-152185912D02*
X62965939Y-152185912D01*
X62965939Y-152185912D02*
X63108796Y-152257341D01*
X63108796Y-152257341D02*
X63180225Y-152328769D01*
X63180225Y-152328769D02*
X63251653Y-152471626D01*
X63251653Y-152471626D02*
X63251653Y-152685912D01*
X63251653Y-152685912D02*
X63180225Y-152828769D01*
X63180225Y-152828769D02*
X63108796Y-152900198D01*
X63108796Y-152900198D02*
X62965939Y-152971626D01*
X62965939Y-152971626D02*
X62394510Y-152971626D01*
X64537368Y-153685912D02*
X64537368Y-152900198D01*
X64537368Y-152900198D02*
X64465939Y-152757341D01*
X64465939Y-152757341D02*
X64323082Y-152685912D01*
X64323082Y-152685912D02*
X64037368Y-152685912D01*
X64037368Y-152685912D02*
X63894510Y-152757341D01*
X64537368Y-153614484D02*
X64394510Y-153685912D01*
X64394510Y-153685912D02*
X64037368Y-153685912D01*
X64037368Y-153685912D02*
X63894510Y-153614484D01*
X63894510Y-153614484D02*
X63823082Y-153471626D01*
X63823082Y-153471626D02*
X63823082Y-153328769D01*
X63823082Y-153328769D02*
X63894510Y-153185912D01*
X63894510Y-153185912D02*
X64037368Y-153114484D01*
X64037368Y-153114484D02*
X64394510Y-153114484D01*
X64394510Y-153114484D02*
X64537368Y-153043055D01*
X65251653Y-153685912D02*
X65251653Y-152685912D01*
X65251653Y-152185912D02*
X65180225Y-152257341D01*
X65180225Y-152257341D02*
X65251653Y-152328769D01*
X65251653Y-152328769D02*
X65323082Y-152257341D01*
X65323082Y-152257341D02*
X65251653Y-152185912D01*
X65251653Y-152185912D02*
X65251653Y-152328769D01*
X66180225Y-153685912D02*
X66037368Y-153614484D01*
X66037368Y-153614484D02*
X65965939Y-153471626D01*
X65965939Y-153471626D02*
X65965939Y-152185912D01*
X66680225Y-153614484D02*
X66823082Y-153685912D01*
X66823082Y-153685912D02*
X67108796Y-153685912D01*
X67108796Y-153685912D02*
X67251653Y-153614484D01*
X67251653Y-153614484D02*
X67323082Y-153471626D01*
X67323082Y-153471626D02*
X67323082Y-153400198D01*
X67323082Y-153400198D02*
X67251653Y-153257341D01*
X67251653Y-153257341D02*
X67108796Y-153185912D01*
X67108796Y-153185912D02*
X66894511Y-153185912D01*
X66894511Y-153185912D02*
X66751653Y-153114484D01*
X66751653Y-153114484D02*
X66680225Y-152971626D01*
X66680225Y-152971626D02*
X66680225Y-152900198D01*
X66680225Y-152900198D02*
X66751653Y-152757341D01*
X66751653Y-152757341D02*
X66894511Y-152685912D01*
X66894511Y-152685912D02*
X67108796Y-152685912D01*
X67108796Y-152685912D02*
X67251653Y-152757341D01*
X67965939Y-153685912D02*
X67965939Y-152685912D01*
X67965939Y-152185912D02*
X67894511Y-152257341D01*
X67894511Y-152257341D02*
X67965939Y-152328769D01*
X67965939Y-152328769D02*
X68037368Y-152257341D01*
X68037368Y-152257341D02*
X67965939Y-152185912D01*
X67965939Y-152185912D02*
X67965939Y-152328769D01*
X69323083Y-153685912D02*
X69323083Y-152185912D01*
X69323083Y-153614484D02*
X69180225Y-153685912D01*
X69180225Y-153685912D02*
X68894511Y-153685912D01*
X68894511Y-153685912D02*
X68751654Y-153614484D01*
X68751654Y-153614484D02*
X68680225Y-153543055D01*
X68680225Y-153543055D02*
X68608797Y-153400198D01*
X68608797Y-153400198D02*
X68608797Y-152971626D01*
X68608797Y-152971626D02*
X68680225Y-152828769D01*
X68680225Y-152828769D02*
X68751654Y-152757341D01*
X68751654Y-152757341D02*
X68894511Y-152685912D01*
X68894511Y-152685912D02*
X69180225Y-152685912D01*
X69180225Y-152685912D02*
X69323083Y-152757341D01*
X70608797Y-153614484D02*
X70465940Y-153685912D01*
X70465940Y-153685912D02*
X70180226Y-153685912D01*
X70180226Y-153685912D02*
X70037368Y-153614484D01*
X70037368Y-153614484D02*
X69965940Y-153471626D01*
X69965940Y-153471626D02*
X69965940Y-152900198D01*
X69965940Y-152900198D02*
X70037368Y-152757341D01*
X70037368Y-152757341D02*
X70180226Y-152685912D01*
X70180226Y-152685912D02*
X70465940Y-152685912D01*
X70465940Y-152685912D02*
X70608797Y-152757341D01*
X70608797Y-152757341D02*
X70680226Y-152900198D01*
X70680226Y-152900198D02*
X70680226Y-153043055D01*
X70680226Y-153043055D02*
X69965940Y-153185912D01*
X73323082Y-153685912D02*
X72823082Y-152971626D01*
X72465939Y-153685912D02*
X72465939Y-152185912D01*
X72465939Y-152185912D02*
X73037368Y-152185912D01*
X73037368Y-152185912D02*
X73180225Y-152257341D01*
X73180225Y-152257341D02*
X73251654Y-152328769D01*
X73251654Y-152328769D02*
X73323082Y-152471626D01*
X73323082Y-152471626D02*
X73323082Y-152685912D01*
X73323082Y-152685912D02*
X73251654Y-152828769D01*
X73251654Y-152828769D02*
X73180225Y-152900198D01*
X73180225Y-152900198D02*
X73037368Y-152971626D01*
X73037368Y-152971626D02*
X72465939Y-152971626D01*
X74180225Y-153685912D02*
X74037368Y-153614484D01*
X74037368Y-153614484D02*
X73965939Y-153543055D01*
X73965939Y-153543055D02*
X73894511Y-153400198D01*
X73894511Y-153400198D02*
X73894511Y-152971626D01*
X73894511Y-152971626D02*
X73965939Y-152828769D01*
X73965939Y-152828769D02*
X74037368Y-152757341D01*
X74037368Y-152757341D02*
X74180225Y-152685912D01*
X74180225Y-152685912D02*
X74394511Y-152685912D01*
X74394511Y-152685912D02*
X74537368Y-152757341D01*
X74537368Y-152757341D02*
X74608797Y-152828769D01*
X74608797Y-152828769D02*
X74680225Y-152971626D01*
X74680225Y-152971626D02*
X74680225Y-153400198D01*
X74680225Y-153400198D02*
X74608797Y-153543055D01*
X74608797Y-153543055D02*
X74537368Y-153614484D01*
X74537368Y-153614484D02*
X74394511Y-153685912D01*
X74394511Y-153685912D02*
X74180225Y-153685912D01*
X75323082Y-153685912D02*
X75323082Y-152185912D01*
X75323082Y-152757341D02*
X75465940Y-152685912D01*
X75465940Y-152685912D02*
X75751654Y-152685912D01*
X75751654Y-152685912D02*
X75894511Y-152757341D01*
X75894511Y-152757341D02*
X75965940Y-152828769D01*
X75965940Y-152828769D02*
X76037368Y-152971626D01*
X76037368Y-152971626D02*
X76037368Y-153400198D01*
X76037368Y-153400198D02*
X75965940Y-153543055D01*
X75965940Y-153543055D02*
X75894511Y-153614484D01*
X75894511Y-153614484D02*
X75751654Y-153685912D01*
X75751654Y-153685912D02*
X75465940Y-153685912D01*
X75465940Y-153685912D02*
X75323082Y-153614484D01*
X76894511Y-153685912D02*
X76751654Y-153614484D01*
X76751654Y-153614484D02*
X76680225Y-153543055D01*
X76680225Y-153543055D02*
X76608797Y-153400198D01*
X76608797Y-153400198D02*
X76608797Y-152971626D01*
X76608797Y-152971626D02*
X76680225Y-152828769D01*
X76680225Y-152828769D02*
X76751654Y-152757341D01*
X76751654Y-152757341D02*
X76894511Y-152685912D01*
X76894511Y-152685912D02*
X77108797Y-152685912D01*
X77108797Y-152685912D02*
X77251654Y-152757341D01*
X77251654Y-152757341D02*
X77323083Y-152828769D01*
X77323083Y-152828769D02*
X77394511Y-152971626D01*
X77394511Y-152971626D02*
X77394511Y-153400198D01*
X77394511Y-153400198D02*
X77323083Y-153543055D01*
X77323083Y-153543055D02*
X77251654Y-153614484D01*
X77251654Y-153614484D02*
X77108797Y-153685912D01*
X77108797Y-153685912D02*
X76894511Y-153685912D01*
X77823083Y-152685912D02*
X78394511Y-152685912D01*
X78037368Y-152185912D02*
X78037368Y-153471626D01*
X78037368Y-153471626D02*
X78108797Y-153614484D01*
X78108797Y-153614484D02*
X78251654Y-153685912D01*
X78251654Y-153685912D02*
X78394511Y-153685912D01*
X78894511Y-153685912D02*
X78894511Y-152685912D01*
X78894511Y-152185912D02*
X78823083Y-152257341D01*
X78823083Y-152257341D02*
X78894511Y-152328769D01*
X78894511Y-152328769D02*
X78965940Y-152257341D01*
X78965940Y-152257341D02*
X78894511Y-152185912D01*
X78894511Y-152185912D02*
X78894511Y-152328769D01*
X80251655Y-153614484D02*
X80108797Y-153685912D01*
X80108797Y-153685912D02*
X79823083Y-153685912D01*
X79823083Y-153685912D02*
X79680226Y-153614484D01*
X79680226Y-153614484D02*
X79608797Y-153543055D01*
X79608797Y-153543055D02*
X79537369Y-153400198D01*
X79537369Y-153400198D02*
X79537369Y-152971626D01*
X79537369Y-152971626D02*
X79608797Y-152828769D01*
X79608797Y-152828769D02*
X79680226Y-152757341D01*
X79680226Y-152757341D02*
X79823083Y-152685912D01*
X79823083Y-152685912D02*
X80108797Y-152685912D01*
X80108797Y-152685912D02*
X80251655Y-152757341D01*
X80823083Y-153614484D02*
X80965940Y-153685912D01*
X80965940Y-153685912D02*
X81251654Y-153685912D01*
X81251654Y-153685912D02*
X81394511Y-153614484D01*
X81394511Y-153614484D02*
X81465940Y-153471626D01*
X81465940Y-153471626D02*
X81465940Y-153400198D01*
X81465940Y-153400198D02*
X81394511Y-153257341D01*
X81394511Y-153257341D02*
X81251654Y-153185912D01*
X81251654Y-153185912D02*
X81037369Y-153185912D01*
X81037369Y-153185912D02*
X80894511Y-153114484D01*
X80894511Y-153114484D02*
X80823083Y-152971626D01*
X80823083Y-152971626D02*
X80823083Y-152900198D01*
X80823083Y-152900198D02*
X80894511Y-152757341D01*
X80894511Y-152757341D02*
X81037369Y-152685912D01*
X81037369Y-152685912D02*
X81251654Y-152685912D01*
X81251654Y-152685912D02*
X81394511Y-152757341D01*
X62394510Y-156100828D02*
X62394510Y-154600828D01*
X62394510Y-154600828D02*
X62965939Y-154600828D01*
X62965939Y-154600828D02*
X63108796Y-154672257D01*
X63108796Y-154672257D02*
X63180225Y-154743685D01*
X63180225Y-154743685D02*
X63251653Y-154886542D01*
X63251653Y-154886542D02*
X63251653Y-155100828D01*
X63251653Y-155100828D02*
X63180225Y-155243685D01*
X63180225Y-155243685D02*
X63108796Y-155315114D01*
X63108796Y-155315114D02*
X62965939Y-155386542D01*
X62965939Y-155386542D02*
X62394510Y-155386542D01*
X63894510Y-156100828D02*
X63894510Y-154600828D01*
X63894510Y-154600828D02*
X64251653Y-154600828D01*
X64251653Y-154600828D02*
X64465939Y-154672257D01*
X64465939Y-154672257D02*
X64608796Y-154815114D01*
X64608796Y-154815114D02*
X64680225Y-154957971D01*
X64680225Y-154957971D02*
X64751653Y-155243685D01*
X64751653Y-155243685D02*
X64751653Y-155457971D01*
X64751653Y-155457971D02*
X64680225Y-155743685D01*
X64680225Y-155743685D02*
X64608796Y-155886542D01*
X64608796Y-155886542D02*
X64465939Y-156029400D01*
X64465939Y-156029400D02*
X64251653Y-156100828D01*
X64251653Y-156100828D02*
X63894510Y-156100828D01*
X67323082Y-156100828D02*
X66465939Y-156100828D01*
X66894510Y-156100828D02*
X66894510Y-154600828D01*
X66894510Y-154600828D02*
X66751653Y-154815114D01*
X66751653Y-154815114D02*
X66608796Y-154957971D01*
X66608796Y-154957971D02*
X66465939Y-155029400D01*
X67965938Y-155957971D02*
X68037367Y-156029400D01*
X68037367Y-156029400D02*
X67965938Y-156100828D01*
X67965938Y-156100828D02*
X67894510Y-156029400D01*
X67894510Y-156029400D02*
X67965938Y-155957971D01*
X67965938Y-155957971D02*
X67965938Y-156100828D01*
X69465939Y-156100828D02*
X68608796Y-156100828D01*
X69037367Y-156100828D02*
X69037367Y-154600828D01*
X69037367Y-154600828D02*
X68894510Y-154815114D01*
X68894510Y-154815114D02*
X68751653Y-154957971D01*
X68751653Y-154957971D02*
X68608796Y-155029400D01*
X62411653Y-129485912D02*
X61911653Y-128771626D01*
X61554510Y-129485912D02*
X61554510Y-127985912D01*
X61554510Y-127985912D02*
X62125939Y-127985912D01*
X62125939Y-127985912D02*
X62268796Y-128057341D01*
X62268796Y-128057341D02*
X62340225Y-128128769D01*
X62340225Y-128128769D02*
X62411653Y-128271626D01*
X62411653Y-128271626D02*
X62411653Y-128485912D01*
X62411653Y-128485912D02*
X62340225Y-128628769D01*
X62340225Y-128628769D02*
X62268796Y-128700198D01*
X62268796Y-128700198D02*
X62125939Y-128771626D01*
X62125939Y-128771626D02*
X61554510Y-128771626D01*
X63697368Y-129485912D02*
X63697368Y-128700198D01*
X63697368Y-128700198D02*
X63625939Y-128557341D01*
X63625939Y-128557341D02*
X63483082Y-128485912D01*
X63483082Y-128485912D02*
X63197368Y-128485912D01*
X63197368Y-128485912D02*
X63054510Y-128557341D01*
X63697368Y-129414484D02*
X63554510Y-129485912D01*
X63554510Y-129485912D02*
X63197368Y-129485912D01*
X63197368Y-129485912D02*
X63054510Y-129414484D01*
X63054510Y-129414484D02*
X62983082Y-129271626D01*
X62983082Y-129271626D02*
X62983082Y-129128769D01*
X62983082Y-129128769D02*
X63054510Y-128985912D01*
X63054510Y-128985912D02*
X63197368Y-128914484D01*
X63197368Y-128914484D02*
X63554510Y-128914484D01*
X63554510Y-128914484D02*
X63697368Y-128843055D01*
X64411653Y-129485912D02*
X64411653Y-128485912D01*
X64411653Y-127985912D02*
X64340225Y-128057341D01*
X64340225Y-128057341D02*
X64411653Y-128128769D01*
X64411653Y-128128769D02*
X64483082Y-128057341D01*
X64483082Y-128057341D02*
X64411653Y-127985912D01*
X64411653Y-127985912D02*
X64411653Y-128128769D01*
X65340225Y-129485912D02*
X65197368Y-129414484D01*
X65197368Y-129414484D02*
X65125939Y-129271626D01*
X65125939Y-129271626D02*
X65125939Y-127985912D01*
X65840225Y-129414484D02*
X65983082Y-129485912D01*
X65983082Y-129485912D02*
X66268796Y-129485912D01*
X66268796Y-129485912D02*
X66411653Y-129414484D01*
X66411653Y-129414484D02*
X66483082Y-129271626D01*
X66483082Y-129271626D02*
X66483082Y-129200198D01*
X66483082Y-129200198D02*
X66411653Y-129057341D01*
X66411653Y-129057341D02*
X66268796Y-128985912D01*
X66268796Y-128985912D02*
X66054511Y-128985912D01*
X66054511Y-128985912D02*
X65911653Y-128914484D01*
X65911653Y-128914484D02*
X65840225Y-128771626D01*
X65840225Y-128771626D02*
X65840225Y-128700198D01*
X65840225Y-128700198D02*
X65911653Y-128557341D01*
X65911653Y-128557341D02*
X66054511Y-128485912D01*
X66054511Y-128485912D02*
X66268796Y-128485912D01*
X66268796Y-128485912D02*
X66411653Y-128557341D01*
X67125939Y-129485912D02*
X67125939Y-128485912D01*
X67125939Y-127985912D02*
X67054511Y-128057341D01*
X67054511Y-128057341D02*
X67125939Y-128128769D01*
X67125939Y-128128769D02*
X67197368Y-128057341D01*
X67197368Y-128057341D02*
X67125939Y-127985912D01*
X67125939Y-127985912D02*
X67125939Y-128128769D01*
X68483083Y-129485912D02*
X68483083Y-127985912D01*
X68483083Y-129414484D02*
X68340225Y-129485912D01*
X68340225Y-129485912D02*
X68054511Y-129485912D01*
X68054511Y-129485912D02*
X67911654Y-129414484D01*
X67911654Y-129414484D02*
X67840225Y-129343055D01*
X67840225Y-129343055D02*
X67768797Y-129200198D01*
X67768797Y-129200198D02*
X67768797Y-128771626D01*
X67768797Y-128771626D02*
X67840225Y-128628769D01*
X67840225Y-128628769D02*
X67911654Y-128557341D01*
X67911654Y-128557341D02*
X68054511Y-128485912D01*
X68054511Y-128485912D02*
X68340225Y-128485912D01*
X68340225Y-128485912D02*
X68483083Y-128557341D01*
X69768797Y-129414484D02*
X69625940Y-129485912D01*
X69625940Y-129485912D02*
X69340226Y-129485912D01*
X69340226Y-129485912D02*
X69197368Y-129414484D01*
X69197368Y-129414484D02*
X69125940Y-129271626D01*
X69125940Y-129271626D02*
X69125940Y-128700198D01*
X69125940Y-128700198D02*
X69197368Y-128557341D01*
X69197368Y-128557341D02*
X69340226Y-128485912D01*
X69340226Y-128485912D02*
X69625940Y-128485912D01*
X69625940Y-128485912D02*
X69768797Y-128557341D01*
X69768797Y-128557341D02*
X69840226Y-128700198D01*
X69840226Y-128700198D02*
X69840226Y-128843055D01*
X69840226Y-128843055D02*
X69125940Y-128985912D01*
X72483082Y-129485912D02*
X71983082Y-128771626D01*
X71625939Y-129485912D02*
X71625939Y-127985912D01*
X71625939Y-127985912D02*
X72197368Y-127985912D01*
X72197368Y-127985912D02*
X72340225Y-128057341D01*
X72340225Y-128057341D02*
X72411654Y-128128769D01*
X72411654Y-128128769D02*
X72483082Y-128271626D01*
X72483082Y-128271626D02*
X72483082Y-128485912D01*
X72483082Y-128485912D02*
X72411654Y-128628769D01*
X72411654Y-128628769D02*
X72340225Y-128700198D01*
X72340225Y-128700198D02*
X72197368Y-128771626D01*
X72197368Y-128771626D02*
X71625939Y-128771626D01*
X73340225Y-129485912D02*
X73197368Y-129414484D01*
X73197368Y-129414484D02*
X73125939Y-129343055D01*
X73125939Y-129343055D02*
X73054511Y-129200198D01*
X73054511Y-129200198D02*
X73054511Y-128771626D01*
X73054511Y-128771626D02*
X73125939Y-128628769D01*
X73125939Y-128628769D02*
X73197368Y-128557341D01*
X73197368Y-128557341D02*
X73340225Y-128485912D01*
X73340225Y-128485912D02*
X73554511Y-128485912D01*
X73554511Y-128485912D02*
X73697368Y-128557341D01*
X73697368Y-128557341D02*
X73768797Y-128628769D01*
X73768797Y-128628769D02*
X73840225Y-128771626D01*
X73840225Y-128771626D02*
X73840225Y-129200198D01*
X73840225Y-129200198D02*
X73768797Y-129343055D01*
X73768797Y-129343055D02*
X73697368Y-129414484D01*
X73697368Y-129414484D02*
X73554511Y-129485912D01*
X73554511Y-129485912D02*
X73340225Y-129485912D01*
X74483082Y-129485912D02*
X74483082Y-127985912D01*
X74483082Y-128557341D02*
X74625940Y-128485912D01*
X74625940Y-128485912D02*
X74911654Y-128485912D01*
X74911654Y-128485912D02*
X75054511Y-128557341D01*
X75054511Y-128557341D02*
X75125940Y-128628769D01*
X75125940Y-128628769D02*
X75197368Y-128771626D01*
X75197368Y-128771626D02*
X75197368Y-129200198D01*
X75197368Y-129200198D02*
X75125940Y-129343055D01*
X75125940Y-129343055D02*
X75054511Y-129414484D01*
X75054511Y-129414484D02*
X74911654Y-129485912D01*
X74911654Y-129485912D02*
X74625940Y-129485912D01*
X74625940Y-129485912D02*
X74483082Y-129414484D01*
X76054511Y-129485912D02*
X75911654Y-129414484D01*
X75911654Y-129414484D02*
X75840225Y-129343055D01*
X75840225Y-129343055D02*
X75768797Y-129200198D01*
X75768797Y-129200198D02*
X75768797Y-128771626D01*
X75768797Y-128771626D02*
X75840225Y-128628769D01*
X75840225Y-128628769D02*
X75911654Y-128557341D01*
X75911654Y-128557341D02*
X76054511Y-128485912D01*
X76054511Y-128485912D02*
X76268797Y-128485912D01*
X76268797Y-128485912D02*
X76411654Y-128557341D01*
X76411654Y-128557341D02*
X76483083Y-128628769D01*
X76483083Y-128628769D02*
X76554511Y-128771626D01*
X76554511Y-128771626D02*
X76554511Y-129200198D01*
X76554511Y-129200198D02*
X76483083Y-129343055D01*
X76483083Y-129343055D02*
X76411654Y-129414484D01*
X76411654Y-129414484D02*
X76268797Y-129485912D01*
X76268797Y-129485912D02*
X76054511Y-129485912D01*
X76983083Y-128485912D02*
X77554511Y-128485912D01*
X77197368Y-127985912D02*
X77197368Y-129271626D01*
X77197368Y-129271626D02*
X77268797Y-129414484D01*
X77268797Y-129414484D02*
X77411654Y-129485912D01*
X77411654Y-129485912D02*
X77554511Y-129485912D01*
X78054511Y-129485912D02*
X78054511Y-128485912D01*
X78054511Y-127985912D02*
X77983083Y-128057341D01*
X77983083Y-128057341D02*
X78054511Y-128128769D01*
X78054511Y-128128769D02*
X78125940Y-128057341D01*
X78125940Y-128057341D02*
X78054511Y-127985912D01*
X78054511Y-127985912D02*
X78054511Y-128128769D01*
X79411655Y-129414484D02*
X79268797Y-129485912D01*
X79268797Y-129485912D02*
X78983083Y-129485912D01*
X78983083Y-129485912D02*
X78840226Y-129414484D01*
X78840226Y-129414484D02*
X78768797Y-129343055D01*
X78768797Y-129343055D02*
X78697369Y-129200198D01*
X78697369Y-129200198D02*
X78697369Y-128771626D01*
X78697369Y-128771626D02*
X78768797Y-128628769D01*
X78768797Y-128628769D02*
X78840226Y-128557341D01*
X78840226Y-128557341D02*
X78983083Y-128485912D01*
X78983083Y-128485912D02*
X79268797Y-128485912D01*
X79268797Y-128485912D02*
X79411655Y-128557341D01*
X79983083Y-129414484D02*
X80125940Y-129485912D01*
X80125940Y-129485912D02*
X80411654Y-129485912D01*
X80411654Y-129485912D02*
X80554511Y-129414484D01*
X80554511Y-129414484D02*
X80625940Y-129271626D01*
X80625940Y-129271626D02*
X80625940Y-129200198D01*
X80625940Y-129200198D02*
X80554511Y-129057341D01*
X80554511Y-129057341D02*
X80411654Y-128985912D01*
X80411654Y-128985912D02*
X80197369Y-128985912D01*
X80197369Y-128985912D02*
X80054511Y-128914484D01*
X80054511Y-128914484D02*
X79983083Y-128771626D01*
X79983083Y-128771626D02*
X79983083Y-128700198D01*
X79983083Y-128700198D02*
X80054511Y-128557341D01*
X80054511Y-128557341D02*
X80197369Y-128485912D01*
X80197369Y-128485912D02*
X80411654Y-128485912D01*
X80411654Y-128485912D02*
X80554511Y-128557341D01*
X61554510Y-131900828D02*
X61554510Y-130400828D01*
X61554510Y-130400828D02*
X62125939Y-130400828D01*
X62125939Y-130400828D02*
X62268796Y-130472257D01*
X62268796Y-130472257D02*
X62340225Y-130543685D01*
X62340225Y-130543685D02*
X62411653Y-130686542D01*
X62411653Y-130686542D02*
X62411653Y-130900828D01*
X62411653Y-130900828D02*
X62340225Y-131043685D01*
X62340225Y-131043685D02*
X62268796Y-131115114D01*
X62268796Y-131115114D02*
X62125939Y-131186542D01*
X62125939Y-131186542D02*
X61554510Y-131186542D01*
X63054510Y-131900828D02*
X63054510Y-130400828D01*
X63054510Y-130400828D02*
X63411653Y-130400828D01*
X63411653Y-130400828D02*
X63625939Y-130472257D01*
X63625939Y-130472257D02*
X63768796Y-130615114D01*
X63768796Y-130615114D02*
X63840225Y-130757971D01*
X63840225Y-130757971D02*
X63911653Y-131043685D01*
X63911653Y-131043685D02*
X63911653Y-131257971D01*
X63911653Y-131257971D02*
X63840225Y-131543685D01*
X63840225Y-131543685D02*
X63768796Y-131686542D01*
X63768796Y-131686542D02*
X63625939Y-131829400D01*
X63625939Y-131829400D02*
X63411653Y-131900828D01*
X63411653Y-131900828D02*
X63054510Y-131900828D01*
X66483082Y-131900828D02*
X65625939Y-131900828D01*
X66054510Y-131900828D02*
X66054510Y-130400828D01*
X66054510Y-130400828D02*
X65911653Y-130615114D01*
X65911653Y-130615114D02*
X65768796Y-130757971D01*
X65768796Y-130757971D02*
X65625939Y-130829400D01*
X67125938Y-131757971D02*
X67197367Y-131829400D01*
X67197367Y-131829400D02*
X67125938Y-131900828D01*
X67125938Y-131900828D02*
X67054510Y-131829400D01*
X67054510Y-131829400D02*
X67125938Y-131757971D01*
X67125938Y-131757971D02*
X67125938Y-131900828D01*
X68625939Y-131900828D02*
X67768796Y-131900828D01*
X68197367Y-131900828D02*
X68197367Y-130400828D01*
X68197367Y-130400828D02*
X68054510Y-130615114D01*
X68054510Y-130615114D02*
X67911653Y-130757971D01*
X67911653Y-130757971D02*
X67768796Y-130829400D01*
X63251653Y-104645912D02*
X62751653Y-103931626D01*
X62394510Y-104645912D02*
X62394510Y-103145912D01*
X62394510Y-103145912D02*
X62965939Y-103145912D01*
X62965939Y-103145912D02*
X63108796Y-103217341D01*
X63108796Y-103217341D02*
X63180225Y-103288769D01*
X63180225Y-103288769D02*
X63251653Y-103431626D01*
X63251653Y-103431626D02*
X63251653Y-103645912D01*
X63251653Y-103645912D02*
X63180225Y-103788769D01*
X63180225Y-103788769D02*
X63108796Y-103860198D01*
X63108796Y-103860198D02*
X62965939Y-103931626D01*
X62965939Y-103931626D02*
X62394510Y-103931626D01*
X64537368Y-104645912D02*
X64537368Y-103860198D01*
X64537368Y-103860198D02*
X64465939Y-103717341D01*
X64465939Y-103717341D02*
X64323082Y-103645912D01*
X64323082Y-103645912D02*
X64037368Y-103645912D01*
X64037368Y-103645912D02*
X63894510Y-103717341D01*
X64537368Y-104574484D02*
X64394510Y-104645912D01*
X64394510Y-104645912D02*
X64037368Y-104645912D01*
X64037368Y-104645912D02*
X63894510Y-104574484D01*
X63894510Y-104574484D02*
X63823082Y-104431626D01*
X63823082Y-104431626D02*
X63823082Y-104288769D01*
X63823082Y-104288769D02*
X63894510Y-104145912D01*
X63894510Y-104145912D02*
X64037368Y-104074484D01*
X64037368Y-104074484D02*
X64394510Y-104074484D01*
X64394510Y-104074484D02*
X64537368Y-104003055D01*
X65251653Y-104645912D02*
X65251653Y-103645912D01*
X65251653Y-103145912D02*
X65180225Y-103217341D01*
X65180225Y-103217341D02*
X65251653Y-103288769D01*
X65251653Y-103288769D02*
X65323082Y-103217341D01*
X65323082Y-103217341D02*
X65251653Y-103145912D01*
X65251653Y-103145912D02*
X65251653Y-103288769D01*
X66180225Y-104645912D02*
X66037368Y-104574484D01*
X66037368Y-104574484D02*
X65965939Y-104431626D01*
X65965939Y-104431626D02*
X65965939Y-103145912D01*
X66680225Y-104574484D02*
X66823082Y-104645912D01*
X66823082Y-104645912D02*
X67108796Y-104645912D01*
X67108796Y-104645912D02*
X67251653Y-104574484D01*
X67251653Y-104574484D02*
X67323082Y-104431626D01*
X67323082Y-104431626D02*
X67323082Y-104360198D01*
X67323082Y-104360198D02*
X67251653Y-104217341D01*
X67251653Y-104217341D02*
X67108796Y-104145912D01*
X67108796Y-104145912D02*
X66894511Y-104145912D01*
X66894511Y-104145912D02*
X66751653Y-104074484D01*
X66751653Y-104074484D02*
X66680225Y-103931626D01*
X66680225Y-103931626D02*
X66680225Y-103860198D01*
X66680225Y-103860198D02*
X66751653Y-103717341D01*
X66751653Y-103717341D02*
X66894511Y-103645912D01*
X66894511Y-103645912D02*
X67108796Y-103645912D01*
X67108796Y-103645912D02*
X67251653Y-103717341D01*
X67965939Y-104645912D02*
X67965939Y-103645912D01*
X67965939Y-103145912D02*
X67894511Y-103217341D01*
X67894511Y-103217341D02*
X67965939Y-103288769D01*
X67965939Y-103288769D02*
X68037368Y-103217341D01*
X68037368Y-103217341D02*
X67965939Y-103145912D01*
X67965939Y-103145912D02*
X67965939Y-103288769D01*
X69323083Y-104645912D02*
X69323083Y-103145912D01*
X69323083Y-104574484D02*
X69180225Y-104645912D01*
X69180225Y-104645912D02*
X68894511Y-104645912D01*
X68894511Y-104645912D02*
X68751654Y-104574484D01*
X68751654Y-104574484D02*
X68680225Y-104503055D01*
X68680225Y-104503055D02*
X68608797Y-104360198D01*
X68608797Y-104360198D02*
X68608797Y-103931626D01*
X68608797Y-103931626D02*
X68680225Y-103788769D01*
X68680225Y-103788769D02*
X68751654Y-103717341D01*
X68751654Y-103717341D02*
X68894511Y-103645912D01*
X68894511Y-103645912D02*
X69180225Y-103645912D01*
X69180225Y-103645912D02*
X69323083Y-103717341D01*
X70608797Y-104574484D02*
X70465940Y-104645912D01*
X70465940Y-104645912D02*
X70180226Y-104645912D01*
X70180226Y-104645912D02*
X70037368Y-104574484D01*
X70037368Y-104574484D02*
X69965940Y-104431626D01*
X69965940Y-104431626D02*
X69965940Y-103860198D01*
X69965940Y-103860198D02*
X70037368Y-103717341D01*
X70037368Y-103717341D02*
X70180226Y-103645912D01*
X70180226Y-103645912D02*
X70465940Y-103645912D01*
X70465940Y-103645912D02*
X70608797Y-103717341D01*
X70608797Y-103717341D02*
X70680226Y-103860198D01*
X70680226Y-103860198D02*
X70680226Y-104003055D01*
X70680226Y-104003055D02*
X69965940Y-104145912D01*
X73323082Y-104645912D02*
X72823082Y-103931626D01*
X72465939Y-104645912D02*
X72465939Y-103145912D01*
X72465939Y-103145912D02*
X73037368Y-103145912D01*
X73037368Y-103145912D02*
X73180225Y-103217341D01*
X73180225Y-103217341D02*
X73251654Y-103288769D01*
X73251654Y-103288769D02*
X73323082Y-103431626D01*
X73323082Y-103431626D02*
X73323082Y-103645912D01*
X73323082Y-103645912D02*
X73251654Y-103788769D01*
X73251654Y-103788769D02*
X73180225Y-103860198D01*
X73180225Y-103860198D02*
X73037368Y-103931626D01*
X73037368Y-103931626D02*
X72465939Y-103931626D01*
X74180225Y-104645912D02*
X74037368Y-104574484D01*
X74037368Y-104574484D02*
X73965939Y-104503055D01*
X73965939Y-104503055D02*
X73894511Y-104360198D01*
X73894511Y-104360198D02*
X73894511Y-103931626D01*
X73894511Y-103931626D02*
X73965939Y-103788769D01*
X73965939Y-103788769D02*
X74037368Y-103717341D01*
X74037368Y-103717341D02*
X74180225Y-103645912D01*
X74180225Y-103645912D02*
X74394511Y-103645912D01*
X74394511Y-103645912D02*
X74537368Y-103717341D01*
X74537368Y-103717341D02*
X74608797Y-103788769D01*
X74608797Y-103788769D02*
X74680225Y-103931626D01*
X74680225Y-103931626D02*
X74680225Y-104360198D01*
X74680225Y-104360198D02*
X74608797Y-104503055D01*
X74608797Y-104503055D02*
X74537368Y-104574484D01*
X74537368Y-104574484D02*
X74394511Y-104645912D01*
X74394511Y-104645912D02*
X74180225Y-104645912D01*
X75323082Y-104645912D02*
X75323082Y-103145912D01*
X75323082Y-103717341D02*
X75465940Y-103645912D01*
X75465940Y-103645912D02*
X75751654Y-103645912D01*
X75751654Y-103645912D02*
X75894511Y-103717341D01*
X75894511Y-103717341D02*
X75965940Y-103788769D01*
X75965940Y-103788769D02*
X76037368Y-103931626D01*
X76037368Y-103931626D02*
X76037368Y-104360198D01*
X76037368Y-104360198D02*
X75965940Y-104503055D01*
X75965940Y-104503055D02*
X75894511Y-104574484D01*
X75894511Y-104574484D02*
X75751654Y-104645912D01*
X75751654Y-104645912D02*
X75465940Y-104645912D01*
X75465940Y-104645912D02*
X75323082Y-104574484D01*
X76894511Y-104645912D02*
X76751654Y-104574484D01*
X76751654Y-104574484D02*
X76680225Y-104503055D01*
X76680225Y-104503055D02*
X76608797Y-104360198D01*
X76608797Y-104360198D02*
X76608797Y-103931626D01*
X76608797Y-103931626D02*
X76680225Y-103788769D01*
X76680225Y-103788769D02*
X76751654Y-103717341D01*
X76751654Y-103717341D02*
X76894511Y-103645912D01*
X76894511Y-103645912D02*
X77108797Y-103645912D01*
X77108797Y-103645912D02*
X77251654Y-103717341D01*
X77251654Y-103717341D02*
X77323083Y-103788769D01*
X77323083Y-103788769D02*
X77394511Y-103931626D01*
X77394511Y-103931626D02*
X77394511Y-104360198D01*
X77394511Y-104360198D02*
X77323083Y-104503055D01*
X77323083Y-104503055D02*
X77251654Y-104574484D01*
X77251654Y-104574484D02*
X77108797Y-104645912D01*
X77108797Y-104645912D02*
X76894511Y-104645912D01*
X77823083Y-103645912D02*
X78394511Y-103645912D01*
X78037368Y-103145912D02*
X78037368Y-104431626D01*
X78037368Y-104431626D02*
X78108797Y-104574484D01*
X78108797Y-104574484D02*
X78251654Y-104645912D01*
X78251654Y-104645912D02*
X78394511Y-104645912D01*
X78894511Y-104645912D02*
X78894511Y-103645912D01*
X78894511Y-103145912D02*
X78823083Y-103217341D01*
X78823083Y-103217341D02*
X78894511Y-103288769D01*
X78894511Y-103288769D02*
X78965940Y-103217341D01*
X78965940Y-103217341D02*
X78894511Y-103145912D01*
X78894511Y-103145912D02*
X78894511Y-103288769D01*
X80251655Y-104574484D02*
X80108797Y-104645912D01*
X80108797Y-104645912D02*
X79823083Y-104645912D01*
X79823083Y-104645912D02*
X79680226Y-104574484D01*
X79680226Y-104574484D02*
X79608797Y-104503055D01*
X79608797Y-104503055D02*
X79537369Y-104360198D01*
X79537369Y-104360198D02*
X79537369Y-103931626D01*
X79537369Y-103931626D02*
X79608797Y-103788769D01*
X79608797Y-103788769D02*
X79680226Y-103717341D01*
X79680226Y-103717341D02*
X79823083Y-103645912D01*
X79823083Y-103645912D02*
X80108797Y-103645912D01*
X80108797Y-103645912D02*
X80251655Y-103717341D01*
X80823083Y-104574484D02*
X80965940Y-104645912D01*
X80965940Y-104645912D02*
X81251654Y-104645912D01*
X81251654Y-104645912D02*
X81394511Y-104574484D01*
X81394511Y-104574484D02*
X81465940Y-104431626D01*
X81465940Y-104431626D02*
X81465940Y-104360198D01*
X81465940Y-104360198D02*
X81394511Y-104217341D01*
X81394511Y-104217341D02*
X81251654Y-104145912D01*
X81251654Y-104145912D02*
X81037369Y-104145912D01*
X81037369Y-104145912D02*
X80894511Y-104074484D01*
X80894511Y-104074484D02*
X80823083Y-103931626D01*
X80823083Y-103931626D02*
X80823083Y-103860198D01*
X80823083Y-103860198D02*
X80894511Y-103717341D01*
X80894511Y-103717341D02*
X81037369Y-103645912D01*
X81037369Y-103645912D02*
X81251654Y-103645912D01*
X81251654Y-103645912D02*
X81394511Y-103717341D01*
X62394510Y-107060828D02*
X62394510Y-105560828D01*
X62394510Y-105560828D02*
X62965939Y-105560828D01*
X62965939Y-105560828D02*
X63108796Y-105632257D01*
X63108796Y-105632257D02*
X63180225Y-105703685D01*
X63180225Y-105703685D02*
X63251653Y-105846542D01*
X63251653Y-105846542D02*
X63251653Y-106060828D01*
X63251653Y-106060828D02*
X63180225Y-106203685D01*
X63180225Y-106203685D02*
X63108796Y-106275114D01*
X63108796Y-106275114D02*
X62965939Y-106346542D01*
X62965939Y-106346542D02*
X62394510Y-106346542D01*
X63894510Y-107060828D02*
X63894510Y-105560828D01*
X63894510Y-105560828D02*
X64251653Y-105560828D01*
X64251653Y-105560828D02*
X64465939Y-105632257D01*
X64465939Y-105632257D02*
X64608796Y-105775114D01*
X64608796Y-105775114D02*
X64680225Y-105917971D01*
X64680225Y-105917971D02*
X64751653Y-106203685D01*
X64751653Y-106203685D02*
X64751653Y-106417971D01*
X64751653Y-106417971D02*
X64680225Y-106703685D01*
X64680225Y-106703685D02*
X64608796Y-106846542D01*
X64608796Y-106846542D02*
X64465939Y-106989400D01*
X64465939Y-106989400D02*
X64251653Y-107060828D01*
X64251653Y-107060828D02*
X63894510Y-107060828D01*
X67323082Y-107060828D02*
X66465939Y-107060828D01*
X66894510Y-107060828D02*
X66894510Y-105560828D01*
X66894510Y-105560828D02*
X66751653Y-105775114D01*
X66751653Y-105775114D02*
X66608796Y-105917971D01*
X66608796Y-105917971D02*
X66465939Y-105989400D01*
X67965938Y-106917971D02*
X68037367Y-106989400D01*
X68037367Y-106989400D02*
X67965938Y-107060828D01*
X67965938Y-107060828D02*
X67894510Y-106989400D01*
X67894510Y-106989400D02*
X67965938Y-106917971D01*
X67965938Y-106917971D02*
X67965938Y-107060828D01*
X69465939Y-107060828D02*
X68608796Y-107060828D01*
X69037367Y-107060828D02*
X69037367Y-105560828D01*
X69037367Y-105560828D02*
X68894510Y-105775114D01*
X68894510Y-105775114D02*
X68751653Y-105917971D01*
X68751653Y-105917971D02*
X68608796Y-105989400D01*
X63411653Y-80385912D02*
X62911653Y-79671626D01*
X62554510Y-80385912D02*
X62554510Y-78885912D01*
X62554510Y-78885912D02*
X63125939Y-78885912D01*
X63125939Y-78885912D02*
X63268796Y-78957341D01*
X63268796Y-78957341D02*
X63340225Y-79028769D01*
X63340225Y-79028769D02*
X63411653Y-79171626D01*
X63411653Y-79171626D02*
X63411653Y-79385912D01*
X63411653Y-79385912D02*
X63340225Y-79528769D01*
X63340225Y-79528769D02*
X63268796Y-79600198D01*
X63268796Y-79600198D02*
X63125939Y-79671626D01*
X63125939Y-79671626D02*
X62554510Y-79671626D01*
X64697368Y-80385912D02*
X64697368Y-79600198D01*
X64697368Y-79600198D02*
X64625939Y-79457341D01*
X64625939Y-79457341D02*
X64483082Y-79385912D01*
X64483082Y-79385912D02*
X64197368Y-79385912D01*
X64197368Y-79385912D02*
X64054510Y-79457341D01*
X64697368Y-80314484D02*
X64554510Y-80385912D01*
X64554510Y-80385912D02*
X64197368Y-80385912D01*
X64197368Y-80385912D02*
X64054510Y-80314484D01*
X64054510Y-80314484D02*
X63983082Y-80171626D01*
X63983082Y-80171626D02*
X63983082Y-80028769D01*
X63983082Y-80028769D02*
X64054510Y-79885912D01*
X64054510Y-79885912D02*
X64197368Y-79814484D01*
X64197368Y-79814484D02*
X64554510Y-79814484D01*
X64554510Y-79814484D02*
X64697368Y-79743055D01*
X65411653Y-80385912D02*
X65411653Y-79385912D01*
X65411653Y-78885912D02*
X65340225Y-78957341D01*
X65340225Y-78957341D02*
X65411653Y-79028769D01*
X65411653Y-79028769D02*
X65483082Y-78957341D01*
X65483082Y-78957341D02*
X65411653Y-78885912D01*
X65411653Y-78885912D02*
X65411653Y-79028769D01*
X66340225Y-80385912D02*
X66197368Y-80314484D01*
X66197368Y-80314484D02*
X66125939Y-80171626D01*
X66125939Y-80171626D02*
X66125939Y-78885912D01*
X66840225Y-80314484D02*
X66983082Y-80385912D01*
X66983082Y-80385912D02*
X67268796Y-80385912D01*
X67268796Y-80385912D02*
X67411653Y-80314484D01*
X67411653Y-80314484D02*
X67483082Y-80171626D01*
X67483082Y-80171626D02*
X67483082Y-80100198D01*
X67483082Y-80100198D02*
X67411653Y-79957341D01*
X67411653Y-79957341D02*
X67268796Y-79885912D01*
X67268796Y-79885912D02*
X67054511Y-79885912D01*
X67054511Y-79885912D02*
X66911653Y-79814484D01*
X66911653Y-79814484D02*
X66840225Y-79671626D01*
X66840225Y-79671626D02*
X66840225Y-79600198D01*
X66840225Y-79600198D02*
X66911653Y-79457341D01*
X66911653Y-79457341D02*
X67054511Y-79385912D01*
X67054511Y-79385912D02*
X67268796Y-79385912D01*
X67268796Y-79385912D02*
X67411653Y-79457341D01*
X68125939Y-80385912D02*
X68125939Y-79385912D01*
X68125939Y-78885912D02*
X68054511Y-78957341D01*
X68054511Y-78957341D02*
X68125939Y-79028769D01*
X68125939Y-79028769D02*
X68197368Y-78957341D01*
X68197368Y-78957341D02*
X68125939Y-78885912D01*
X68125939Y-78885912D02*
X68125939Y-79028769D01*
X69483083Y-80385912D02*
X69483083Y-78885912D01*
X69483083Y-80314484D02*
X69340225Y-80385912D01*
X69340225Y-80385912D02*
X69054511Y-80385912D01*
X69054511Y-80385912D02*
X68911654Y-80314484D01*
X68911654Y-80314484D02*
X68840225Y-80243055D01*
X68840225Y-80243055D02*
X68768797Y-80100198D01*
X68768797Y-80100198D02*
X68768797Y-79671626D01*
X68768797Y-79671626D02*
X68840225Y-79528769D01*
X68840225Y-79528769D02*
X68911654Y-79457341D01*
X68911654Y-79457341D02*
X69054511Y-79385912D01*
X69054511Y-79385912D02*
X69340225Y-79385912D01*
X69340225Y-79385912D02*
X69483083Y-79457341D01*
X70768797Y-80314484D02*
X70625940Y-80385912D01*
X70625940Y-80385912D02*
X70340226Y-80385912D01*
X70340226Y-80385912D02*
X70197368Y-80314484D01*
X70197368Y-80314484D02*
X70125940Y-80171626D01*
X70125940Y-80171626D02*
X70125940Y-79600198D01*
X70125940Y-79600198D02*
X70197368Y-79457341D01*
X70197368Y-79457341D02*
X70340226Y-79385912D01*
X70340226Y-79385912D02*
X70625940Y-79385912D01*
X70625940Y-79385912D02*
X70768797Y-79457341D01*
X70768797Y-79457341D02*
X70840226Y-79600198D01*
X70840226Y-79600198D02*
X70840226Y-79743055D01*
X70840226Y-79743055D02*
X70125940Y-79885912D01*
X73483082Y-80385912D02*
X72983082Y-79671626D01*
X72625939Y-80385912D02*
X72625939Y-78885912D01*
X72625939Y-78885912D02*
X73197368Y-78885912D01*
X73197368Y-78885912D02*
X73340225Y-78957341D01*
X73340225Y-78957341D02*
X73411654Y-79028769D01*
X73411654Y-79028769D02*
X73483082Y-79171626D01*
X73483082Y-79171626D02*
X73483082Y-79385912D01*
X73483082Y-79385912D02*
X73411654Y-79528769D01*
X73411654Y-79528769D02*
X73340225Y-79600198D01*
X73340225Y-79600198D02*
X73197368Y-79671626D01*
X73197368Y-79671626D02*
X72625939Y-79671626D01*
X74340225Y-80385912D02*
X74197368Y-80314484D01*
X74197368Y-80314484D02*
X74125939Y-80243055D01*
X74125939Y-80243055D02*
X74054511Y-80100198D01*
X74054511Y-80100198D02*
X74054511Y-79671626D01*
X74054511Y-79671626D02*
X74125939Y-79528769D01*
X74125939Y-79528769D02*
X74197368Y-79457341D01*
X74197368Y-79457341D02*
X74340225Y-79385912D01*
X74340225Y-79385912D02*
X74554511Y-79385912D01*
X74554511Y-79385912D02*
X74697368Y-79457341D01*
X74697368Y-79457341D02*
X74768797Y-79528769D01*
X74768797Y-79528769D02*
X74840225Y-79671626D01*
X74840225Y-79671626D02*
X74840225Y-80100198D01*
X74840225Y-80100198D02*
X74768797Y-80243055D01*
X74768797Y-80243055D02*
X74697368Y-80314484D01*
X74697368Y-80314484D02*
X74554511Y-80385912D01*
X74554511Y-80385912D02*
X74340225Y-80385912D01*
X75483082Y-80385912D02*
X75483082Y-78885912D01*
X75483082Y-79457341D02*
X75625940Y-79385912D01*
X75625940Y-79385912D02*
X75911654Y-79385912D01*
X75911654Y-79385912D02*
X76054511Y-79457341D01*
X76054511Y-79457341D02*
X76125940Y-79528769D01*
X76125940Y-79528769D02*
X76197368Y-79671626D01*
X76197368Y-79671626D02*
X76197368Y-80100198D01*
X76197368Y-80100198D02*
X76125940Y-80243055D01*
X76125940Y-80243055D02*
X76054511Y-80314484D01*
X76054511Y-80314484D02*
X75911654Y-80385912D01*
X75911654Y-80385912D02*
X75625940Y-80385912D01*
X75625940Y-80385912D02*
X75483082Y-80314484D01*
X77054511Y-80385912D02*
X76911654Y-80314484D01*
X76911654Y-80314484D02*
X76840225Y-80243055D01*
X76840225Y-80243055D02*
X76768797Y-80100198D01*
X76768797Y-80100198D02*
X76768797Y-79671626D01*
X76768797Y-79671626D02*
X76840225Y-79528769D01*
X76840225Y-79528769D02*
X76911654Y-79457341D01*
X76911654Y-79457341D02*
X77054511Y-79385912D01*
X77054511Y-79385912D02*
X77268797Y-79385912D01*
X77268797Y-79385912D02*
X77411654Y-79457341D01*
X77411654Y-79457341D02*
X77483083Y-79528769D01*
X77483083Y-79528769D02*
X77554511Y-79671626D01*
X77554511Y-79671626D02*
X77554511Y-80100198D01*
X77554511Y-80100198D02*
X77483083Y-80243055D01*
X77483083Y-80243055D02*
X77411654Y-80314484D01*
X77411654Y-80314484D02*
X77268797Y-80385912D01*
X77268797Y-80385912D02*
X77054511Y-80385912D01*
X77983083Y-79385912D02*
X78554511Y-79385912D01*
X78197368Y-78885912D02*
X78197368Y-80171626D01*
X78197368Y-80171626D02*
X78268797Y-80314484D01*
X78268797Y-80314484D02*
X78411654Y-80385912D01*
X78411654Y-80385912D02*
X78554511Y-80385912D01*
X79054511Y-80385912D02*
X79054511Y-79385912D01*
X79054511Y-78885912D02*
X78983083Y-78957341D01*
X78983083Y-78957341D02*
X79054511Y-79028769D01*
X79054511Y-79028769D02*
X79125940Y-78957341D01*
X79125940Y-78957341D02*
X79054511Y-78885912D01*
X79054511Y-78885912D02*
X79054511Y-79028769D01*
X80411655Y-80314484D02*
X80268797Y-80385912D01*
X80268797Y-80385912D02*
X79983083Y-80385912D01*
X79983083Y-80385912D02*
X79840226Y-80314484D01*
X79840226Y-80314484D02*
X79768797Y-80243055D01*
X79768797Y-80243055D02*
X79697369Y-80100198D01*
X79697369Y-80100198D02*
X79697369Y-79671626D01*
X79697369Y-79671626D02*
X79768797Y-79528769D01*
X79768797Y-79528769D02*
X79840226Y-79457341D01*
X79840226Y-79457341D02*
X79983083Y-79385912D01*
X79983083Y-79385912D02*
X80268797Y-79385912D01*
X80268797Y-79385912D02*
X80411655Y-79457341D01*
X80983083Y-80314484D02*
X81125940Y-80385912D01*
X81125940Y-80385912D02*
X81411654Y-80385912D01*
X81411654Y-80385912D02*
X81554511Y-80314484D01*
X81554511Y-80314484D02*
X81625940Y-80171626D01*
X81625940Y-80171626D02*
X81625940Y-80100198D01*
X81625940Y-80100198D02*
X81554511Y-79957341D01*
X81554511Y-79957341D02*
X81411654Y-79885912D01*
X81411654Y-79885912D02*
X81197369Y-79885912D01*
X81197369Y-79885912D02*
X81054511Y-79814484D01*
X81054511Y-79814484D02*
X80983083Y-79671626D01*
X80983083Y-79671626D02*
X80983083Y-79600198D01*
X80983083Y-79600198D02*
X81054511Y-79457341D01*
X81054511Y-79457341D02*
X81197369Y-79385912D01*
X81197369Y-79385912D02*
X81411654Y-79385912D01*
X81411654Y-79385912D02*
X81554511Y-79457341D01*
X62554510Y-82800828D02*
X62554510Y-81300828D01*
X62554510Y-81300828D02*
X63125939Y-81300828D01*
X63125939Y-81300828D02*
X63268796Y-81372257D01*
X63268796Y-81372257D02*
X63340225Y-81443685D01*
X63340225Y-81443685D02*
X63411653Y-81586542D01*
X63411653Y-81586542D02*
X63411653Y-81800828D01*
X63411653Y-81800828D02*
X63340225Y-81943685D01*
X63340225Y-81943685D02*
X63268796Y-82015114D01*
X63268796Y-82015114D02*
X63125939Y-82086542D01*
X63125939Y-82086542D02*
X62554510Y-82086542D01*
X64054510Y-82800828D02*
X64054510Y-81300828D01*
X64054510Y-81300828D02*
X64411653Y-81300828D01*
X64411653Y-81300828D02*
X64625939Y-81372257D01*
X64625939Y-81372257D02*
X64768796Y-81515114D01*
X64768796Y-81515114D02*
X64840225Y-81657971D01*
X64840225Y-81657971D02*
X64911653Y-81943685D01*
X64911653Y-81943685D02*
X64911653Y-82157971D01*
X64911653Y-82157971D02*
X64840225Y-82443685D01*
X64840225Y-82443685D02*
X64768796Y-82586542D01*
X64768796Y-82586542D02*
X64625939Y-82729400D01*
X64625939Y-82729400D02*
X64411653Y-82800828D01*
X64411653Y-82800828D02*
X64054510Y-82800828D01*
X67483082Y-82800828D02*
X66625939Y-82800828D01*
X67054510Y-82800828D02*
X67054510Y-81300828D01*
X67054510Y-81300828D02*
X66911653Y-81515114D01*
X66911653Y-81515114D02*
X66768796Y-81657971D01*
X66768796Y-81657971D02*
X66625939Y-81729400D01*
X68125938Y-82657971D02*
X68197367Y-82729400D01*
X68197367Y-82729400D02*
X68125938Y-82800828D01*
X68125938Y-82800828D02*
X68054510Y-82729400D01*
X68054510Y-82729400D02*
X68125938Y-82657971D01*
X68125938Y-82657971D02*
X68125938Y-82800828D01*
X69625939Y-82800828D02*
X68768796Y-82800828D01*
X69197367Y-82800828D02*
X69197367Y-81300828D01*
X69197367Y-81300828D02*
X69054510Y-81515114D01*
X69054510Y-81515114D02*
X68911653Y-81657971D01*
X68911653Y-81657971D02*
X68768796Y-81729400D01*
D11*
X84454700Y-140871428D02*
X84454700Y-139728571D01*
X85026128Y-140299999D02*
X83883271Y-140299999D01*
X63729700Y-140646428D02*
X63729700Y-139503571D01*
X64301128Y-140074999D02*
X63158271Y-140074999D01*
X77554700Y-140821428D02*
X77554700Y-139678571D01*
X78126128Y-140249999D02*
X76983271Y-140249999D01*
X70529700Y-140646428D02*
X70529700Y-139503571D01*
X71101128Y-140074999D02*
X69958271Y-140074999D01*
X95697142Y-148231009D02*
X95363809Y-148231009D01*
X95363809Y-148754819D02*
X95363809Y-147754819D01*
X95363809Y-147754819D02*
X95839999Y-147754819D01*
X96649523Y-148088152D02*
X96649523Y-148754819D01*
X96220952Y-148088152D02*
X96220952Y-148611961D01*
X96220952Y-148611961D02*
X96268571Y-148707200D01*
X96268571Y-148707200D02*
X96363809Y-148754819D01*
X96363809Y-148754819D02*
X96506666Y-148754819D01*
X96506666Y-148754819D02*
X96601904Y-148707200D01*
X96601904Y-148707200D02*
X96649523Y-148659580D01*
X97078095Y-148707200D02*
X97173333Y-148754819D01*
X97173333Y-148754819D02*
X97363809Y-148754819D01*
X97363809Y-148754819D02*
X97459047Y-148707200D01*
X97459047Y-148707200D02*
X97506666Y-148611961D01*
X97506666Y-148611961D02*
X97506666Y-148564342D01*
X97506666Y-148564342D02*
X97459047Y-148469104D01*
X97459047Y-148469104D02*
X97363809Y-148421485D01*
X97363809Y-148421485D02*
X97220952Y-148421485D01*
X97220952Y-148421485D02*
X97125714Y-148373866D01*
X97125714Y-148373866D02*
X97078095Y-148278628D01*
X97078095Y-148278628D02*
X97078095Y-148231009D01*
X97078095Y-148231009D02*
X97125714Y-148135771D01*
X97125714Y-148135771D02*
X97220952Y-148088152D01*
X97220952Y-148088152D02*
X97363809Y-148088152D01*
X97363809Y-148088152D02*
X97459047Y-148135771D01*
X98316190Y-148707200D02*
X98220952Y-148754819D01*
X98220952Y-148754819D02*
X98030476Y-148754819D01*
X98030476Y-148754819D02*
X97935238Y-148707200D01*
X97935238Y-148707200D02*
X97887619Y-148611961D01*
X97887619Y-148611961D02*
X97887619Y-148231009D01*
X97887619Y-148231009D02*
X97935238Y-148135771D01*
X97935238Y-148135771D02*
X98030476Y-148088152D01*
X98030476Y-148088152D02*
X98220952Y-148088152D01*
X98220952Y-148088152D02*
X98316190Y-148135771D01*
X98316190Y-148135771D02*
X98363809Y-148231009D01*
X98363809Y-148231009D02*
X98363809Y-148326247D01*
X98363809Y-148326247D02*
X97887619Y-148421485D01*
X83614700Y-116671428D02*
X83614700Y-115528571D01*
X84186128Y-116099999D02*
X83043271Y-116099999D01*
X62889700Y-116446428D02*
X62889700Y-115303571D01*
X63461128Y-115874999D02*
X62318271Y-115874999D01*
X76714700Y-116621428D02*
X76714700Y-115478571D01*
X77286128Y-116049999D02*
X76143271Y-116049999D01*
X69689700Y-116446428D02*
X69689700Y-115303571D01*
X70261128Y-115874999D02*
X69118271Y-115874999D01*
X94857142Y-124031009D02*
X94523809Y-124031009D01*
X94523809Y-124554819D02*
X94523809Y-123554819D01*
X94523809Y-123554819D02*
X94999999Y-123554819D01*
X95809523Y-123888152D02*
X95809523Y-124554819D01*
X95380952Y-123888152D02*
X95380952Y-124411961D01*
X95380952Y-124411961D02*
X95428571Y-124507200D01*
X95428571Y-124507200D02*
X95523809Y-124554819D01*
X95523809Y-124554819D02*
X95666666Y-124554819D01*
X95666666Y-124554819D02*
X95761904Y-124507200D01*
X95761904Y-124507200D02*
X95809523Y-124459580D01*
X96238095Y-124507200D02*
X96333333Y-124554819D01*
X96333333Y-124554819D02*
X96523809Y-124554819D01*
X96523809Y-124554819D02*
X96619047Y-124507200D01*
X96619047Y-124507200D02*
X96666666Y-124411961D01*
X96666666Y-124411961D02*
X96666666Y-124364342D01*
X96666666Y-124364342D02*
X96619047Y-124269104D01*
X96619047Y-124269104D02*
X96523809Y-124221485D01*
X96523809Y-124221485D02*
X96380952Y-124221485D01*
X96380952Y-124221485D02*
X96285714Y-124173866D01*
X96285714Y-124173866D02*
X96238095Y-124078628D01*
X96238095Y-124078628D02*
X96238095Y-124031009D01*
X96238095Y-124031009D02*
X96285714Y-123935771D01*
X96285714Y-123935771D02*
X96380952Y-123888152D01*
X96380952Y-123888152D02*
X96523809Y-123888152D01*
X96523809Y-123888152D02*
X96619047Y-123935771D01*
X97476190Y-124507200D02*
X97380952Y-124554819D01*
X97380952Y-124554819D02*
X97190476Y-124554819D01*
X97190476Y-124554819D02*
X97095238Y-124507200D01*
X97095238Y-124507200D02*
X97047619Y-124411961D01*
X97047619Y-124411961D02*
X97047619Y-124031009D01*
X97047619Y-124031009D02*
X97095238Y-123935771D01*
X97095238Y-123935771D02*
X97190476Y-123888152D01*
X97190476Y-123888152D02*
X97380952Y-123888152D01*
X97380952Y-123888152D02*
X97476190Y-123935771D01*
X97476190Y-123935771D02*
X97523809Y-124031009D01*
X97523809Y-124031009D02*
X97523809Y-124126247D01*
X97523809Y-124126247D02*
X97047619Y-124221485D01*
X84454700Y-91831428D02*
X84454700Y-90688571D01*
X85026128Y-91259999D02*
X83883271Y-91259999D01*
X63729700Y-91606428D02*
X63729700Y-90463571D01*
X64301128Y-91034999D02*
X63158271Y-91034999D01*
X77554700Y-91781428D02*
X77554700Y-90638571D01*
X78126128Y-91209999D02*
X76983271Y-91209999D01*
X70529700Y-91606428D02*
X70529700Y-90463571D01*
X71101128Y-91034999D02*
X69958271Y-91034999D01*
X95697142Y-99191009D02*
X95363809Y-99191009D01*
X95363809Y-99714819D02*
X95363809Y-98714819D01*
X95363809Y-98714819D02*
X95839999Y-98714819D01*
X96649523Y-99048152D02*
X96649523Y-99714819D01*
X96220952Y-99048152D02*
X96220952Y-99571961D01*
X96220952Y-99571961D02*
X96268571Y-99667200D01*
X96268571Y-99667200D02*
X96363809Y-99714819D01*
X96363809Y-99714819D02*
X96506666Y-99714819D01*
X96506666Y-99714819D02*
X96601904Y-99667200D01*
X96601904Y-99667200D02*
X96649523Y-99619580D01*
X97078095Y-99667200D02*
X97173333Y-99714819D01*
X97173333Y-99714819D02*
X97363809Y-99714819D01*
X97363809Y-99714819D02*
X97459047Y-99667200D01*
X97459047Y-99667200D02*
X97506666Y-99571961D01*
X97506666Y-99571961D02*
X97506666Y-99524342D01*
X97506666Y-99524342D02*
X97459047Y-99429104D01*
X97459047Y-99429104D02*
X97363809Y-99381485D01*
X97363809Y-99381485D02*
X97220952Y-99381485D01*
X97220952Y-99381485D02*
X97125714Y-99333866D01*
X97125714Y-99333866D02*
X97078095Y-99238628D01*
X97078095Y-99238628D02*
X97078095Y-99191009D01*
X97078095Y-99191009D02*
X97125714Y-99095771D01*
X97125714Y-99095771D02*
X97220952Y-99048152D01*
X97220952Y-99048152D02*
X97363809Y-99048152D01*
X97363809Y-99048152D02*
X97459047Y-99095771D01*
X98316190Y-99667200D02*
X98220952Y-99714819D01*
X98220952Y-99714819D02*
X98030476Y-99714819D01*
X98030476Y-99714819D02*
X97935238Y-99667200D01*
X97935238Y-99667200D02*
X97887619Y-99571961D01*
X97887619Y-99571961D02*
X97887619Y-99191009D01*
X97887619Y-99191009D02*
X97935238Y-99095771D01*
X97935238Y-99095771D02*
X98030476Y-99048152D01*
X98030476Y-99048152D02*
X98220952Y-99048152D01*
X98220952Y-99048152D02*
X98316190Y-99095771D01*
X98316190Y-99095771D02*
X98363809Y-99191009D01*
X98363809Y-99191009D02*
X98363809Y-99286247D01*
X98363809Y-99286247D02*
X97887619Y-99381485D01*
X95857142Y-74931009D02*
X95523809Y-74931009D01*
X95523809Y-75454819D02*
X95523809Y-74454819D01*
X95523809Y-74454819D02*
X95999999Y-74454819D01*
X96809523Y-74788152D02*
X96809523Y-75454819D01*
X96380952Y-74788152D02*
X96380952Y-75311961D01*
X96380952Y-75311961D02*
X96428571Y-75407200D01*
X96428571Y-75407200D02*
X96523809Y-75454819D01*
X96523809Y-75454819D02*
X96666666Y-75454819D01*
X96666666Y-75454819D02*
X96761904Y-75407200D01*
X96761904Y-75407200D02*
X96809523Y-75359580D01*
X97238095Y-75407200D02*
X97333333Y-75454819D01*
X97333333Y-75454819D02*
X97523809Y-75454819D01*
X97523809Y-75454819D02*
X97619047Y-75407200D01*
X97619047Y-75407200D02*
X97666666Y-75311961D01*
X97666666Y-75311961D02*
X97666666Y-75264342D01*
X97666666Y-75264342D02*
X97619047Y-75169104D01*
X97619047Y-75169104D02*
X97523809Y-75121485D01*
X97523809Y-75121485D02*
X97380952Y-75121485D01*
X97380952Y-75121485D02*
X97285714Y-75073866D01*
X97285714Y-75073866D02*
X97238095Y-74978628D01*
X97238095Y-74978628D02*
X97238095Y-74931009D01*
X97238095Y-74931009D02*
X97285714Y-74835771D01*
X97285714Y-74835771D02*
X97380952Y-74788152D01*
X97380952Y-74788152D02*
X97523809Y-74788152D01*
X97523809Y-74788152D02*
X97619047Y-74835771D01*
X98476190Y-75407200D02*
X98380952Y-75454819D01*
X98380952Y-75454819D02*
X98190476Y-75454819D01*
X98190476Y-75454819D02*
X98095238Y-75407200D01*
X98095238Y-75407200D02*
X98047619Y-75311961D01*
X98047619Y-75311961D02*
X98047619Y-74931009D01*
X98047619Y-74931009D02*
X98095238Y-74835771D01*
X98095238Y-74835771D02*
X98190476Y-74788152D01*
X98190476Y-74788152D02*
X98380952Y-74788152D01*
X98380952Y-74788152D02*
X98476190Y-74835771D01*
X98476190Y-74835771D02*
X98523809Y-74931009D01*
X98523809Y-74931009D02*
X98523809Y-75026247D01*
X98523809Y-75026247D02*
X98047619Y-75121485D01*
X63889700Y-67346428D02*
X63889700Y-66203571D01*
X64461128Y-66774999D02*
X63318271Y-66774999D01*
X70689700Y-67346428D02*
X70689700Y-66203571D01*
X71261128Y-66774999D02*
X70118271Y-66774999D01*
X77714700Y-67521428D02*
X77714700Y-66378571D01*
X78286128Y-66949999D02*
X77143271Y-66949999D01*
X84614700Y-67571428D02*
X84614700Y-66428571D01*
X85186128Y-66999999D02*
X84043271Y-66999999D01*
D12*
%TO.C,BT4*%
X106290000Y-141700000D02*
X111710000Y-141700000D01*
X106290000Y-150420000D02*
X106290000Y-141700000D01*
X107590000Y-152120000D02*
X106290000Y-150420000D01*
X107590000Y-152120000D02*
X110410000Y-152120000D01*
X110410000Y-152120000D02*
X111710000Y-150420000D01*
X111710000Y-150420000D02*
X111710000Y-141700000D01*
%TO.C,BT1*%
X81630000Y-141590000D02*
X87050000Y-141590000D01*
X81630000Y-150310000D02*
X81630000Y-141590000D01*
X82930000Y-152010000D02*
X81630000Y-150310000D01*
X82930000Y-152010000D02*
X85750000Y-152010000D01*
X85750000Y-152010000D02*
X87050000Y-150310000D01*
X87050000Y-150310000D02*
X87050000Y-141590000D01*
%TO.C,BT5*%
X60905000Y-141365000D02*
X66325000Y-141365000D01*
X60905000Y-150085000D02*
X60905000Y-141365000D01*
X62205000Y-151785000D02*
X60905000Y-150085000D01*
X62205000Y-151785000D02*
X65025000Y-151785000D01*
X65025000Y-151785000D02*
X66325000Y-150085000D01*
X66325000Y-150085000D02*
X66325000Y-141365000D01*
%TO.C,BT2*%
X74730000Y-141540000D02*
X80150000Y-141540000D01*
X74730000Y-150260000D02*
X74730000Y-141540000D01*
X76030000Y-151960000D02*
X74730000Y-150260000D01*
X76030000Y-151960000D02*
X78850000Y-151960000D01*
X78850000Y-151960000D02*
X80150000Y-150260000D01*
X80150000Y-150260000D02*
X80150000Y-141540000D01*
%TO.C,SW1*%
X91710000Y-139490000D02*
X91710000Y-141110000D01*
X91710000Y-139490000D02*
X93570000Y-139490000D01*
X91710000Y-141110000D02*
X93570000Y-141110000D01*
X93330000Y-137950000D02*
X93330000Y-139333000D01*
X93330000Y-137950000D02*
X94713000Y-137950000D01*
X93570000Y-138190000D02*
X93570000Y-142410000D01*
X93570000Y-138190000D02*
X104490000Y-138190000D01*
X93570000Y-139490000D02*
X93570000Y-141110000D01*
X93570000Y-142410000D02*
X104490000Y-142410000D01*
X104490000Y-138190000D02*
X104490000Y-142410000D01*
%TO.C,BT3*%
X67705000Y-141365000D02*
X73125000Y-141365000D01*
X67705000Y-150085000D02*
X67705000Y-141365000D01*
X69005000Y-151785000D02*
X67705000Y-150085000D01*
X69005000Y-151785000D02*
X71825000Y-151785000D01*
X71825000Y-151785000D02*
X73125000Y-150085000D01*
X73125000Y-150085000D02*
X73125000Y-141365000D01*
%TO.C,Fuse*%
X88740000Y-144830000D02*
X88740000Y-151770000D01*
X88740000Y-151770000D02*
X104940000Y-151770000D01*
X95240000Y-146300000D02*
X98440000Y-146300000D01*
X96090000Y-148300000D02*
X97590000Y-148300000D01*
X98440000Y-150300000D02*
X95240000Y-150300000D01*
X104940000Y-144830000D02*
X88740000Y-144830000D01*
X104940000Y-151770000D02*
X104940000Y-144830000D01*
%TO.C,BT4*%
X105450000Y-117500000D02*
X110870000Y-117500000D01*
X105450000Y-126220000D02*
X105450000Y-117500000D01*
X106750000Y-127920000D02*
X105450000Y-126220000D01*
X106750000Y-127920000D02*
X109570000Y-127920000D01*
X109570000Y-127920000D02*
X110870000Y-126220000D01*
X110870000Y-126220000D02*
X110870000Y-117500000D01*
%TO.C,BT1*%
X80790000Y-117390000D02*
X86210000Y-117390000D01*
X80790000Y-126110000D02*
X80790000Y-117390000D01*
X82090000Y-127810000D02*
X80790000Y-126110000D01*
X82090000Y-127810000D02*
X84910000Y-127810000D01*
X84910000Y-127810000D02*
X86210000Y-126110000D01*
X86210000Y-126110000D02*
X86210000Y-117390000D01*
%TO.C,BT5*%
X60065000Y-117165000D02*
X65485000Y-117165000D01*
X60065000Y-125885000D02*
X60065000Y-117165000D01*
X61365000Y-127585000D02*
X60065000Y-125885000D01*
X61365000Y-127585000D02*
X64185000Y-127585000D01*
X64185000Y-127585000D02*
X65485000Y-125885000D01*
X65485000Y-125885000D02*
X65485000Y-117165000D01*
%TO.C,BT2*%
X73890000Y-117340000D02*
X79310000Y-117340000D01*
X73890000Y-126060000D02*
X73890000Y-117340000D01*
X75190000Y-127760000D02*
X73890000Y-126060000D01*
X75190000Y-127760000D02*
X78010000Y-127760000D01*
X78010000Y-127760000D02*
X79310000Y-126060000D01*
X79310000Y-126060000D02*
X79310000Y-117340000D01*
%TO.C,SW1*%
X90870000Y-115290000D02*
X90870000Y-116910000D01*
X90870000Y-115290000D02*
X92730000Y-115290000D01*
X90870000Y-116910000D02*
X92730000Y-116910000D01*
X92490000Y-113750000D02*
X92490000Y-115133000D01*
X92490000Y-113750000D02*
X93873000Y-113750000D01*
X92730000Y-113990000D02*
X92730000Y-118210000D01*
X92730000Y-113990000D02*
X103650000Y-113990000D01*
X92730000Y-115290000D02*
X92730000Y-116910000D01*
X92730000Y-118210000D02*
X103650000Y-118210000D01*
X103650000Y-113990000D02*
X103650000Y-118210000D01*
%TO.C,BT3*%
X66865000Y-117165000D02*
X72285000Y-117165000D01*
X66865000Y-125885000D02*
X66865000Y-117165000D01*
X68165000Y-127585000D02*
X66865000Y-125885000D01*
X68165000Y-127585000D02*
X70985000Y-127585000D01*
X70985000Y-127585000D02*
X72285000Y-125885000D01*
X72285000Y-125885000D02*
X72285000Y-117165000D01*
%TO.C,Fuse*%
X87900000Y-120630000D02*
X87900000Y-127570000D01*
X87900000Y-127570000D02*
X104100000Y-127570000D01*
X94400000Y-122100000D02*
X97600000Y-122100000D01*
X95250000Y-124100000D02*
X96750000Y-124100000D01*
X97600000Y-126100000D02*
X94400000Y-126100000D01*
X104100000Y-120630000D02*
X87900000Y-120630000D01*
X104100000Y-127570000D02*
X104100000Y-120630000D01*
%TO.C,BT4*%
X106290000Y-92660000D02*
X111710000Y-92660000D01*
X106290000Y-101380000D02*
X106290000Y-92660000D01*
X107590000Y-103080000D02*
X106290000Y-101380000D01*
X107590000Y-103080000D02*
X110410000Y-103080000D01*
X110410000Y-103080000D02*
X111710000Y-101380000D01*
X111710000Y-101380000D02*
X111710000Y-92660000D01*
%TO.C,BT1*%
X81630000Y-92550000D02*
X87050000Y-92550000D01*
X81630000Y-101270000D02*
X81630000Y-92550000D01*
X82930000Y-102970000D02*
X81630000Y-101270000D01*
X82930000Y-102970000D02*
X85750000Y-102970000D01*
X85750000Y-102970000D02*
X87050000Y-101270000D01*
X87050000Y-101270000D02*
X87050000Y-92550000D01*
%TO.C,BT5*%
X60905000Y-92325000D02*
X66325000Y-92325000D01*
X60905000Y-101045000D02*
X60905000Y-92325000D01*
X62205000Y-102745000D02*
X60905000Y-101045000D01*
X62205000Y-102745000D02*
X65025000Y-102745000D01*
X65025000Y-102745000D02*
X66325000Y-101045000D01*
X66325000Y-101045000D02*
X66325000Y-92325000D01*
%TO.C,BT2*%
X74730000Y-92500000D02*
X80150000Y-92500000D01*
X74730000Y-101220000D02*
X74730000Y-92500000D01*
X76030000Y-102920000D02*
X74730000Y-101220000D01*
X76030000Y-102920000D02*
X78850000Y-102920000D01*
X78850000Y-102920000D02*
X80150000Y-101220000D01*
X80150000Y-101220000D02*
X80150000Y-92500000D01*
%TO.C,SW1*%
X91710000Y-90450000D02*
X91710000Y-92070000D01*
X91710000Y-90450000D02*
X93570000Y-90450000D01*
X91710000Y-92070000D02*
X93570000Y-92070000D01*
X93330000Y-88910000D02*
X93330000Y-90293000D01*
X93330000Y-88910000D02*
X94713000Y-88910000D01*
X93570000Y-89150000D02*
X93570000Y-93370000D01*
X93570000Y-89150000D02*
X104490000Y-89150000D01*
X93570000Y-90450000D02*
X93570000Y-92070000D01*
X93570000Y-93370000D02*
X104490000Y-93370000D01*
X104490000Y-89150000D02*
X104490000Y-93370000D01*
%TO.C,BT3*%
X67705000Y-92325000D02*
X73125000Y-92325000D01*
X67705000Y-101045000D02*
X67705000Y-92325000D01*
X69005000Y-102745000D02*
X67705000Y-101045000D01*
X69005000Y-102745000D02*
X71825000Y-102745000D01*
X71825000Y-102745000D02*
X73125000Y-101045000D01*
X73125000Y-101045000D02*
X73125000Y-92325000D01*
%TO.C,Fuse*%
X88740000Y-95790000D02*
X88740000Y-102730000D01*
X88740000Y-102730000D02*
X104940000Y-102730000D01*
X95240000Y-97260000D02*
X98440000Y-97260000D01*
X96090000Y-99260000D02*
X97590000Y-99260000D01*
X98440000Y-101260000D02*
X95240000Y-101260000D01*
X104940000Y-95790000D02*
X88740000Y-95790000D01*
X104940000Y-102730000D02*
X104940000Y-95790000D01*
X105100000Y-78470000D02*
X105100000Y-71530000D01*
X105100000Y-71530000D02*
X88900000Y-71530000D01*
X98600000Y-77000000D02*
X95400000Y-77000000D01*
X96250000Y-75000000D02*
X97750000Y-75000000D01*
X95400000Y-73000000D02*
X98600000Y-73000000D01*
X88900000Y-78470000D02*
X105100000Y-78470000D01*
X88900000Y-71530000D02*
X88900000Y-78470000D01*
%TO.C,BT5*%
X61065000Y-68065000D02*
X66485000Y-68065000D01*
X66485000Y-76785000D02*
X66485000Y-68065000D01*
X61065000Y-76785000D02*
X61065000Y-68065000D01*
X65185000Y-78485000D02*
X66485000Y-76785000D01*
X62365000Y-78485000D02*
X61065000Y-76785000D01*
X62365000Y-78485000D02*
X65185000Y-78485000D01*
%TO.C,BT4*%
X106450000Y-68400000D02*
X111870000Y-68400000D01*
X111870000Y-77120000D02*
X111870000Y-68400000D01*
X106450000Y-77120000D02*
X106450000Y-68400000D01*
X110570000Y-78820000D02*
X111870000Y-77120000D01*
X107750000Y-78820000D02*
X106450000Y-77120000D01*
X107750000Y-78820000D02*
X110570000Y-78820000D01*
%TO.C,BT3*%
X67865000Y-68065000D02*
X73285000Y-68065000D01*
X73285000Y-76785000D02*
X73285000Y-68065000D01*
X67865000Y-76785000D02*
X67865000Y-68065000D01*
X71985000Y-78485000D02*
X73285000Y-76785000D01*
X69165000Y-78485000D02*
X67865000Y-76785000D01*
X69165000Y-78485000D02*
X71985000Y-78485000D01*
%TO.C,BT2*%
X74890000Y-68240000D02*
X80310000Y-68240000D01*
X80310000Y-76960000D02*
X80310000Y-68240000D01*
X74890000Y-76960000D02*
X74890000Y-68240000D01*
X79010000Y-78660000D02*
X80310000Y-76960000D01*
X76190000Y-78660000D02*
X74890000Y-76960000D01*
X76190000Y-78660000D02*
X79010000Y-78660000D01*
%TO.C,BT1*%
X81790000Y-68290000D02*
X87210000Y-68290000D01*
X87210000Y-77010000D02*
X87210000Y-68290000D01*
X81790000Y-77010000D02*
X81790000Y-68290000D01*
X85910000Y-78710000D02*
X87210000Y-77010000D01*
X83090000Y-78710000D02*
X81790000Y-77010000D01*
X83090000Y-78710000D02*
X85910000Y-78710000D01*
%TO.C,SW1*%
X104650000Y-64890000D02*
X104650000Y-69110000D01*
X93730000Y-69110000D02*
X104650000Y-69110000D01*
X93730000Y-66190000D02*
X93730000Y-67810000D01*
X93730000Y-64890000D02*
X104650000Y-64890000D01*
X93730000Y-64890000D02*
X93730000Y-69110000D01*
X93490000Y-64650000D02*
X94873000Y-64650000D01*
X93490000Y-64650000D02*
X93490000Y-66033000D01*
X91870000Y-67810000D02*
X93730000Y-67810000D01*
X91870000Y-66190000D02*
X93730000Y-66190000D01*
X91870000Y-66190000D02*
X91870000Y-67810000D01*
%TD*%
M02*
