%TF.GenerationSoftware,KiCad,Pcbnew,8.0.6*%
%TF.CreationDate,2024-11-20T20:18:15-05:00*%
%TF.ProjectId,RailsidePDB,5261696c-7369-4646-9550-44422e6b6963,rev?*%
%TF.SameCoordinates,Original*%
%TF.FileFunction,Copper,L2,Bot*%
%TF.FilePolarity,Positive*%
%FSLAX46Y46*%
G04 Gerber Fmt 4.6, Leading zero omitted, Abs format (unit mm)*
G04 Created by KiCad (PCBNEW 8.0.6) date 2024-11-20 20:18:15*
%MOMM*%
%LPD*%
G01*
G04 APERTURE LIST*
G04 Aperture macros list*
%AMRoundRect*
0 Rectangle with rounded corners*
0 $1 Rounding radius*
0 $2 $3 $4 $5 $6 $7 $8 $9 X,Y pos of 4 corners*
0 Add a 4 corners polygon primitive as box body*
4,1,4,$2,$3,$4,$5,$6,$7,$8,$9,$2,$3,0*
0 Add four circle primitives for the rounded corners*
1,1,$1+$1,$2,$3*
1,1,$1+$1,$4,$5*
1,1,$1+$1,$6,$7*
1,1,$1+$1,$8,$9*
0 Add four rect primitives between the rounded corners*
20,1,$1+$1,$2,$3,$4,$5,0*
20,1,$1+$1,$4,$5,$6,$7,0*
20,1,$1+$1,$6,$7,$8,$9,0*
20,1,$1+$1,$8,$9,$2,$3,0*%
G04 Aperture macros list end*
%TA.AperFunction,ComponentPad*%
%ADD10C,3.000000*%
%TD*%
%TA.AperFunction,ComponentPad*%
%ADD11O,6.000000X6.000000*%
%TD*%
%TA.AperFunction,ComponentPad*%
%ADD12RoundRect,0.750000X0.750000X-0.750000X0.750000X0.750000X-0.750000X0.750000X-0.750000X-0.750000X0*%
%TD*%
%TA.AperFunction,ComponentPad*%
%ADD13O,1.500000X4.000000*%
%TD*%
%TA.AperFunction,ComponentPad*%
%ADD14C,2.780000*%
%TD*%
%TA.AperFunction,Conductor*%
%ADD15C,3.000000*%
%TD*%
%TA.AperFunction,Conductor*%
%ADD16C,1.500000*%
%TD*%
G04 APERTURE END LIST*
D10*
%TO.P,,2,-*%
%TO.N,Net-(BT4--)*%
X91000000Y-135000000D03*
%TD*%
%TO.P,,2,-*%
%TO.N,Net-(BT4--)*%
X109000000Y-135000000D03*
%TD*%
%TO.P,,2,-*%
%TO.N,Net-(BT4--)*%
X113000000Y-135000000D03*
%TD*%
%TO.P,,2,-*%
%TO.N,Net-(BT4--)*%
X55000000Y-135000000D03*
%TD*%
%TO.P,,2,-*%
%TO.N,Net-(BT4--)*%
X107000000Y-135000000D03*
%TD*%
%TO.P,,2,-*%
%TO.N,Net-(BT4--)*%
X111000000Y-135000000D03*
%TD*%
%TO.P,,2,-*%
%TO.N,Net-(BT4--)*%
X101000000Y-135000000D03*
%TD*%
%TO.P,,2,-*%
%TO.N,Net-(BT4--)*%
X85000000Y-135000000D03*
%TD*%
%TO.P,,2,-*%
%TO.N,Net-(BT4--)*%
X99000000Y-135000000D03*
%TD*%
%TO.P,,2,-*%
%TO.N,Net-(BT4--)*%
X77000000Y-135000000D03*
%TD*%
%TO.P,,2,-*%
%TO.N,Net-(BT4--)*%
X53000000Y-135000000D03*
%TD*%
%TO.P,,2,-*%
%TO.N,Net-(BT4--)*%
X63000000Y-135000000D03*
%TD*%
%TO.P,,2,-*%
%TO.N,Net-(BT4--)*%
X69000000Y-135000000D03*
%TD*%
%TO.P,,2,-*%
%TO.N,Net-(BT4--)*%
X59000000Y-135000000D03*
%TD*%
%TO.P,,2,-*%
%TO.N,Net-(BT4--)*%
X79000000Y-135000000D03*
%TD*%
%TO.P,,2,-*%
%TO.N,Net-(BT4--)*%
X83000000Y-135000000D03*
%TD*%
%TO.P,,2,-*%
%TO.N,Net-(BT4--)*%
X67000000Y-135000000D03*
%TD*%
%TO.P,,2,-*%
%TO.N,Net-(BT4--)*%
X61000000Y-135000000D03*
%TD*%
%TO.P,,2,-*%
%TO.N,Net-(BT4--)*%
X103000000Y-135000000D03*
%TD*%
%TO.P,,2,-*%
%TO.N,Net-(BT4--)*%
X105000000Y-135000000D03*
%TD*%
%TO.P,,2,-*%
%TO.N,Net-(BT4--)*%
X87000000Y-135000000D03*
%TD*%
%TO.P,,2,-*%
%TO.N,Net-(BT4--)*%
X93000000Y-135000000D03*
%TD*%
%TO.P,,2,-*%
%TO.N,Net-(BT4--)*%
X97000000Y-135000000D03*
%TD*%
%TO.P,,2,-*%
%TO.N,Net-(BT4--)*%
X81000000Y-135000000D03*
%TD*%
%TO.P,,2,-*%
%TO.N,Net-(BT4--)*%
X89000000Y-135000000D03*
%TD*%
%TO.P,,2,-*%
%TO.N,Net-(BT4--)*%
X95000000Y-135000000D03*
%TD*%
%TO.P,,2,-*%
%TO.N,Net-(BT4--)*%
X75000000Y-135000000D03*
%TD*%
%TO.P,,2,-*%
%TO.N,Net-(BT4--)*%
X65000000Y-135000000D03*
%TD*%
%TO.P,,2,-*%
%TO.N,Net-(BT4--)*%
X57000000Y-135000000D03*
%TD*%
%TO.P,,2,-*%
%TO.N,Net-(BT4--)*%
X71000000Y-135000000D03*
%TD*%
%TO.P,,2,-*%
%TO.N,Net-(BT4--)*%
X73000000Y-135000000D03*
%TD*%
%TO.P,,2,-*%
%TO.N,Net-(BT4--)*%
X59000000Y-110000000D03*
%TD*%
%TO.P,,2,-*%
%TO.N,Net-(BT4--)*%
X61000000Y-110000000D03*
%TD*%
%TO.P,,2,-*%
%TO.N,Net-(BT4--)*%
X83000000Y-110000000D03*
%TD*%
%TO.P,,2,-*%
%TO.N,Net-(BT4--)*%
X87000000Y-110000000D03*
%TD*%
%TO.P,,2,-*%
%TO.N,Net-(BT4--)*%
X93000000Y-110000000D03*
%TD*%
%TO.P,,2,-*%
%TO.N,Net-(BT4--)*%
X81000000Y-110000000D03*
%TD*%
%TO.P,,2,-*%
%TO.N,Net-(BT4--)*%
X73000000Y-110000000D03*
%TD*%
%TO.P,,2,-*%
%TO.N,Net-(BT4--)*%
X67000000Y-110000000D03*
%TD*%
%TO.P,,2,-*%
%TO.N,Net-(BT4--)*%
X71000000Y-110000000D03*
%TD*%
%TO.P,,2,-*%
%TO.N,Net-(BT4--)*%
X65000000Y-110000000D03*
%TD*%
%TO.P,,2,-*%
%TO.N,Net-(BT4--)*%
X89000000Y-110000000D03*
%TD*%
%TO.P,,2,-*%
%TO.N,Net-(BT4--)*%
X95000000Y-110000000D03*
%TD*%
%TO.P,,2,-*%
%TO.N,Net-(BT4--)*%
X99000000Y-110000000D03*
%TD*%
%TO.P,,2,-*%
%TO.N,Net-(BT4--)*%
X79000000Y-110000000D03*
%TD*%
%TO.P,,2,-*%
%TO.N,Net-(BT4--)*%
X57000000Y-110000000D03*
%TD*%
%TO.P,,2,-*%
%TO.N,Net-(BT4--)*%
X91000000Y-110000000D03*
%TD*%
%TO.P,,2,-*%
%TO.N,Net-(BT4--)*%
X103000000Y-110000000D03*
%TD*%
%TO.P,,2,-*%
%TO.N,Net-(BT4--)*%
X107000000Y-110000000D03*
%TD*%
%TO.P,,2,-*%
%TO.N,Net-(BT4--)*%
X113000000Y-110000000D03*
%TD*%
%TO.P,,2,-*%
%TO.N,Net-(BT4--)*%
X85000000Y-110000000D03*
%TD*%
%TO.P,,2,-*%
%TO.N,Net-(BT4--)*%
X109000000Y-110000000D03*
%TD*%
%TO.P,,2,-*%
%TO.N,Net-(BT4--)*%
X101000000Y-110000000D03*
%TD*%
%TO.P,,2,-*%
%TO.N,Net-(BT4--)*%
X77000000Y-110000000D03*
%TD*%
%TO.P,,2,-*%
%TO.N,Net-(BT4--)*%
X111000000Y-110000000D03*
%TD*%
%TO.P,,2,-*%
%TO.N,Net-(BT4--)*%
X55000000Y-110000000D03*
%TD*%
%TO.P,,2,-*%
%TO.N,Net-(BT4--)*%
X97000000Y-110000000D03*
%TD*%
%TO.P,,2,-*%
%TO.N,Net-(BT4--)*%
X53000000Y-110000000D03*
%TD*%
%TO.P,,2,-*%
%TO.N,Net-(BT4--)*%
X105000000Y-110000000D03*
%TD*%
%TO.P,,2,-*%
%TO.N,Net-(BT4--)*%
X75000000Y-110000000D03*
%TD*%
%TO.P,,2,-*%
%TO.N,Net-(BT4--)*%
X63000000Y-110000000D03*
%TD*%
%TO.P,,2,-*%
%TO.N,Net-(BT4--)*%
X69000000Y-110000000D03*
%TD*%
D11*
%TO.P,,2,B*%
%TO.N,N/C*%
X55840000Y-146300000D03*
%TD*%
D12*
%TO.P,BT4,1,+*%
%TO.N,Net-(BT1-+)*%
X109000000Y-149410000D03*
D10*
%TO.P,BT4,2,-*%
%TO.N,Net-(BT4--)*%
X109000000Y-144410000D03*
%TD*%
D12*
%TO.P,BT1,1,+*%
%TO.N,Net-(BT1-+)*%
X84340000Y-149300000D03*
D10*
%TO.P,BT1,2,-*%
%TO.N,Net-(BT1--)*%
X84340000Y-144300000D03*
%TD*%
D12*
%TO.P,BT5,1,+*%
%TO.N,Net-(BT1-+)*%
X63615000Y-149075000D03*
D10*
%TO.P,BT5,2,-*%
%TO.N,Net-(BT1--)*%
X63615000Y-144075000D03*
%TD*%
D12*
%TO.P,BT2,1,+*%
%TO.N,Net-(BT1-+)*%
X77440000Y-149250000D03*
D10*
%TO.P,BT2,2,-*%
%TO.N,Net-(BT1--)*%
X77440000Y-144250000D03*
%TD*%
D13*
%TO.P,SW1,1,A*%
%TO.N,Net-(SW1-A)*%
X95220000Y-140300000D03*
%TO.P,SW1,2,B*%
%TO.N,Net-(BT4--)*%
X102840000Y-140300000D03*
%TD*%
D12*
%TO.P,BT3,1,+*%
%TO.N,Net-(BT1-+)*%
X70415000Y-149075000D03*
D10*
%TO.P,BT3,2,-*%
%TO.N,Net-(BT1--)*%
X70415000Y-144075000D03*
%TD*%
D14*
%TO.P,Fuse,1*%
%TO.N,Net-(BT1--)*%
X91880000Y-146600000D03*
X91880000Y-150000000D03*
%TO.P,Fuse,2*%
%TO.N,Net-(SW1-A)*%
X101800000Y-146600000D03*
X101800000Y-150000000D03*
%TD*%
D11*
%TO.P,,2,B*%
%TO.N,N/C*%
X98145000Y-140300000D03*
%TD*%
%TO.P,,2,B*%
%TO.N,N/C*%
X55000000Y-122100000D03*
%TD*%
D12*
%TO.P,BT4,1,+*%
%TO.N,Net-(BT1-+)*%
X108160000Y-125210000D03*
D10*
%TO.P,BT4,2,-*%
%TO.N,Net-(BT4--)*%
X108160000Y-120210000D03*
%TD*%
D12*
%TO.P,BT1,1,+*%
%TO.N,Net-(BT1-+)*%
X83500000Y-125100000D03*
D10*
%TO.P,BT1,2,-*%
%TO.N,Net-(BT1--)*%
X83500000Y-120100000D03*
%TD*%
D12*
%TO.P,BT5,1,+*%
%TO.N,Net-(BT1-+)*%
X62775000Y-124875000D03*
D10*
%TO.P,BT5,2,-*%
%TO.N,Net-(BT1--)*%
X62775000Y-119875000D03*
%TD*%
D12*
%TO.P,BT2,1,+*%
%TO.N,Net-(BT1-+)*%
X76600000Y-125050000D03*
D10*
%TO.P,BT2,2,-*%
%TO.N,Net-(BT1--)*%
X76600000Y-120050000D03*
%TD*%
D13*
%TO.P,SW1,1,A*%
%TO.N,Net-(SW1-A)*%
X94380000Y-116100000D03*
%TO.P,SW1,2,B*%
%TO.N,Net-(BT4--)*%
X102000000Y-116100000D03*
%TD*%
D12*
%TO.P,BT3,1,+*%
%TO.N,Net-(BT1-+)*%
X69575000Y-124875000D03*
D10*
%TO.P,BT3,2,-*%
%TO.N,Net-(BT1--)*%
X69575000Y-119875000D03*
%TD*%
D14*
%TO.P,Fuse,1*%
%TO.N,Net-(BT1--)*%
X91040000Y-122400000D03*
X91040000Y-125800000D03*
%TO.P,Fuse,2*%
%TO.N,Net-(SW1-A)*%
X100960000Y-122400000D03*
X100960000Y-125800000D03*
%TD*%
D11*
%TO.P,,2,B*%
%TO.N,N/C*%
X97305000Y-116100000D03*
%TD*%
%TO.P,,2,B*%
%TO.N,N/C*%
X55840000Y-97260000D03*
%TD*%
D12*
%TO.P,BT4,1,+*%
%TO.N,Net-(BT1-+)*%
X109000000Y-100370000D03*
D10*
%TO.P,BT4,2,-*%
%TO.N,Net-(BT4--)*%
X109000000Y-95370000D03*
%TD*%
D12*
%TO.P,BT1,1,+*%
%TO.N,Net-(BT1-+)*%
X84340000Y-100260000D03*
D10*
%TO.P,BT1,2,-*%
%TO.N,Net-(BT1--)*%
X84340000Y-95260000D03*
%TD*%
D12*
%TO.P,BT5,1,+*%
%TO.N,Net-(BT1-+)*%
X63615000Y-100035000D03*
D10*
%TO.P,BT5,2,-*%
%TO.N,Net-(BT1--)*%
X63615000Y-95035000D03*
%TD*%
D12*
%TO.P,BT2,1,+*%
%TO.N,Net-(BT1-+)*%
X77440000Y-100210000D03*
D10*
%TO.P,BT2,2,-*%
%TO.N,Net-(BT1--)*%
X77440000Y-95210000D03*
%TD*%
D13*
%TO.P,SW1,1,A*%
%TO.N,Net-(SW1-A)*%
X95220000Y-91260000D03*
%TO.P,SW1,2,B*%
%TO.N,Net-(BT4--)*%
X102840000Y-91260000D03*
%TD*%
D12*
%TO.P,BT3,1,+*%
%TO.N,Net-(BT1-+)*%
X70415000Y-100035000D03*
D10*
%TO.P,BT3,2,-*%
%TO.N,Net-(BT1--)*%
X70415000Y-95035000D03*
%TD*%
D14*
%TO.P,Fuse,1*%
%TO.N,Net-(BT1--)*%
X91880000Y-97560000D03*
X91880000Y-100960000D03*
%TO.P,Fuse,2*%
%TO.N,Net-(SW1-A)*%
X101800000Y-97560000D03*
X101800000Y-100960000D03*
%TD*%
D11*
%TO.P,,2,B*%
%TO.N,N/C*%
X98145000Y-91260000D03*
%TD*%
%TO.P,,2,B*%
%TO.N,N/C*%
X56000000Y-73000000D03*
%TD*%
%TO.P,,2,B*%
%TO.N,N/C*%
X98305000Y-67000000D03*
%TD*%
D14*
%TO.P,Fuse,2*%
%TO.N,Net-(SW1-A)*%
X101960000Y-76700000D03*
X101960000Y-73300000D03*
%TO.P,Fuse,1*%
%TO.N,Net-(BT1--)*%
X92040000Y-76700000D03*
X92040000Y-73300000D03*
%TD*%
D10*
%TO.P,BT5,2,-*%
%TO.N,Net-(BT1--)*%
X63775000Y-70775000D03*
D12*
%TO.P,BT5,1,+*%
%TO.N,Net-(BT1-+)*%
X63775000Y-75775000D03*
%TD*%
D10*
%TO.P,BT4,2,-*%
%TO.N,Net-(BT4--)*%
X109160000Y-71110000D03*
D12*
%TO.P,BT4,1,+*%
%TO.N,Net-(BT1-+)*%
X109160000Y-76110000D03*
%TD*%
D10*
%TO.P,BT3,2,-*%
%TO.N,Net-(BT1--)*%
X70575000Y-70775000D03*
D12*
%TO.P,BT3,1,+*%
%TO.N,Net-(BT1-+)*%
X70575000Y-75775000D03*
%TD*%
D10*
%TO.P,BT2,2,-*%
%TO.N,Net-(BT1--)*%
X77600000Y-70950000D03*
D12*
%TO.P,BT2,1,+*%
%TO.N,Net-(BT1-+)*%
X77600000Y-75950000D03*
%TD*%
D10*
%TO.P,BT1,2,-*%
%TO.N,Net-(BT1--)*%
X84500000Y-71000000D03*
D12*
%TO.P,BT1,1,+*%
%TO.N,Net-(BT1-+)*%
X84500000Y-76000000D03*
%TD*%
D13*
%TO.P,SW1,2,B*%
%TO.N,Net-(BT4--)*%
X103000000Y-67000000D03*
%TO.P,SW1,1,A*%
%TO.N,Net-(SW1-A)*%
X95380000Y-67000000D03*
%TD*%
D10*
%TO.P,,2,-*%
%TO.N,Net-(BT4--)*%
X65000000Y-86000000D03*
%TD*%
%TO.P,,2,-*%
%TO.N,Net-(BT4--)*%
X83000000Y-86000000D03*
%TD*%
%TO.P,,2,-*%
%TO.N,Net-(BT4--)*%
X73000000Y-86000000D03*
%TD*%
%TO.P,,2,-*%
%TO.N,Net-(BT4--)*%
X59000000Y-86000000D03*
%TD*%
%TO.P,,2,-*%
%TO.N,Net-(BT4--)*%
X61000000Y-86000000D03*
%TD*%
%TO.P,,2,-*%
%TO.N,Net-(BT4--)*%
X69000000Y-86000000D03*
%TD*%
%TO.P,,2,-*%
%TO.N,Net-(BT4--)*%
X87000000Y-86000000D03*
%TD*%
%TO.P,,2,-*%
%TO.N,Net-(BT4--)*%
X93000000Y-86000000D03*
%TD*%
%TO.P,,2,-*%
%TO.N,Net-(BT4--)*%
X81000000Y-86000000D03*
%TD*%
%TO.P,,2,-*%
%TO.N,Net-(BT4--)*%
X67000000Y-86000000D03*
%TD*%
%TO.P,,2,-*%
%TO.N,Net-(BT4--)*%
X71000000Y-86000000D03*
%TD*%
%TO.P,,2,-*%
%TO.N,Net-(BT4--)*%
X89000000Y-86000000D03*
%TD*%
%TO.P,,2,-*%
%TO.N,Net-(BT4--)*%
X95000000Y-86000000D03*
%TD*%
%TO.P,,2,-*%
%TO.N,Net-(BT4--)*%
X63000000Y-86000000D03*
%TD*%
%TO.P,,2,-*%
%TO.N,Net-(BT4--)*%
X99000000Y-86000000D03*
%TD*%
%TO.P,,2,-*%
%TO.N,Net-(BT4--)*%
X79000000Y-86000000D03*
%TD*%
%TO.P,,2,-*%
%TO.N,Net-(BT4--)*%
X57000000Y-86000000D03*
%TD*%
%TO.P,,2,-*%
%TO.N,Net-(BT4--)*%
X91000000Y-86000000D03*
%TD*%
%TO.P,,2,-*%
%TO.N,Net-(BT4--)*%
X103000000Y-86000000D03*
%TD*%
%TO.P,,2,-*%
%TO.N,Net-(BT4--)*%
X107000000Y-86000000D03*
%TD*%
%TO.P,,2,-*%
%TO.N,Net-(BT4--)*%
X101000000Y-86000000D03*
%TD*%
%TO.P,,2,-*%
%TO.N,Net-(BT4--)*%
X77000000Y-86000000D03*
%TD*%
%TO.P,,2,-*%
%TO.N,Net-(BT4--)*%
X113000000Y-86000000D03*
%TD*%
%TO.P,,2,-*%
%TO.N,Net-(BT4--)*%
X85000000Y-86000000D03*
%TD*%
%TO.P,,2,-*%
%TO.N,Net-(BT4--)*%
X109000000Y-86000000D03*
%TD*%
%TO.P,,2,-*%
%TO.N,Net-(BT4--)*%
X111000000Y-86000000D03*
%TD*%
%TO.P,,2,-*%
%TO.N,Net-(BT4--)*%
X55000000Y-86000000D03*
%TD*%
%TO.P,,2,-*%
%TO.N,Net-(BT4--)*%
X97000000Y-86000000D03*
%TD*%
%TO.P,,2,-*%
%TO.N,Net-(BT4--)*%
X53000000Y-86000000D03*
%TD*%
%TO.P,,2,-*%
%TO.N,Net-(BT4--)*%
X105000000Y-86000000D03*
%TD*%
%TO.P,,2,-*%
%TO.N,Net-(BT4--)*%
X75000000Y-86000000D03*
%TD*%
D15*
%TO.N,Net-(BT1-+)*%
X77440000Y-149250000D02*
X70590000Y-149250000D01*
X84340000Y-150800000D02*
X84340000Y-149300000D01*
X106840000Y-154200000D02*
X87740000Y-154200000D01*
X87740000Y-154200000D02*
X84340000Y-150800000D01*
%TO.N,Net-(BT1--)*%
X63615000Y-144075000D02*
X70415000Y-144075000D01*
%TO.N,Net-(BT1-+)*%
X77490000Y-149300000D02*
X77440000Y-149250000D01*
D16*
%TO.N,Net-(BT1--)*%
X70640000Y-144300000D02*
X70415000Y-144075000D01*
D15*
%TO.N,Net-(BT1-+)*%
X109000000Y-149410000D02*
X109000000Y-152040000D01*
%TO.N,Net-(BT1--)*%
X84340000Y-144300000D02*
X70640000Y-144300000D01*
%TO.N,Net-(BT1-+)*%
X70415000Y-149075000D02*
X63615000Y-149075000D01*
D16*
%TO.N,Net-(BT1--)*%
X77490000Y-144300000D02*
X77440000Y-144250000D01*
D15*
X88840000Y-144300000D02*
X84340000Y-144300000D01*
%TO.N,Net-(BT1-+)*%
X70590000Y-149250000D02*
X70415000Y-149075000D01*
X109000000Y-152040000D02*
X106840000Y-154200000D01*
%TO.N,Net-(SW1-A)*%
X95220000Y-141020000D02*
X101800000Y-147600000D01*
%TO.N,Net-(BT1-+)*%
X84340000Y-149300000D02*
X77490000Y-149300000D01*
%TO.N,Net-(SW1-A)*%
X101800000Y-146600000D02*
X101800000Y-150000000D01*
%TO.N,Net-(BT1--)*%
X91880000Y-147600000D02*
X88840000Y-144560000D01*
X88840000Y-144560000D02*
X88840000Y-144300000D01*
X91880000Y-146600000D02*
X91880000Y-150000000D01*
%TO.N,Net-(SW1-A)*%
X95220000Y-140300000D02*
X95220000Y-141020000D01*
%TO.N,Net-(BT1-+)*%
X76600000Y-125050000D02*
X69750000Y-125050000D01*
X83500000Y-126600000D02*
X83500000Y-125100000D01*
X106000000Y-130000000D02*
X86900000Y-130000000D01*
X86900000Y-130000000D02*
X83500000Y-126600000D01*
%TO.N,Net-(BT1--)*%
X62775000Y-119875000D02*
X69575000Y-119875000D01*
%TO.N,Net-(BT1-+)*%
X76650000Y-125100000D02*
X76600000Y-125050000D01*
D16*
%TO.N,Net-(BT1--)*%
X69800000Y-120100000D02*
X69575000Y-119875000D01*
D15*
%TO.N,Net-(BT1-+)*%
X108160000Y-125210000D02*
X108160000Y-127840000D01*
%TO.N,Net-(BT1--)*%
X83500000Y-120100000D02*
X69800000Y-120100000D01*
%TO.N,Net-(BT1-+)*%
X69575000Y-124875000D02*
X62775000Y-124875000D01*
D16*
%TO.N,Net-(BT1--)*%
X76650000Y-120100000D02*
X76600000Y-120050000D01*
D15*
X88000000Y-120100000D02*
X83500000Y-120100000D01*
%TO.N,Net-(BT1-+)*%
X69750000Y-125050000D02*
X69575000Y-124875000D01*
X108160000Y-127840000D02*
X106000000Y-130000000D01*
%TO.N,Net-(SW1-A)*%
X94380000Y-116820000D02*
X100960000Y-123400000D01*
%TO.N,Net-(BT1-+)*%
X83500000Y-125100000D02*
X76650000Y-125100000D01*
%TO.N,Net-(SW1-A)*%
X100960000Y-122400000D02*
X100960000Y-125800000D01*
%TO.N,Net-(BT1--)*%
X91040000Y-123400000D02*
X88000000Y-120360000D01*
X88000000Y-120360000D02*
X88000000Y-120100000D01*
X91040000Y-122400000D02*
X91040000Y-125800000D01*
%TO.N,Net-(SW1-A)*%
X94380000Y-116100000D02*
X94380000Y-116820000D01*
%TO.N,Net-(BT1-+)*%
X77440000Y-100210000D02*
X70590000Y-100210000D01*
X84340000Y-101760000D02*
X84340000Y-100260000D01*
X106840000Y-105160000D02*
X87740000Y-105160000D01*
X87740000Y-105160000D02*
X84340000Y-101760000D01*
%TO.N,Net-(BT1--)*%
X63615000Y-95035000D02*
X70415000Y-95035000D01*
%TO.N,Net-(BT1-+)*%
X77490000Y-100260000D02*
X77440000Y-100210000D01*
D16*
%TO.N,Net-(BT1--)*%
X70640000Y-95260000D02*
X70415000Y-95035000D01*
D15*
%TO.N,Net-(BT1-+)*%
X109000000Y-100370000D02*
X109000000Y-103000000D01*
%TO.N,Net-(BT1--)*%
X84340000Y-95260000D02*
X70640000Y-95260000D01*
%TO.N,Net-(BT1-+)*%
X70415000Y-100035000D02*
X63615000Y-100035000D01*
D16*
%TO.N,Net-(BT1--)*%
X77490000Y-95260000D02*
X77440000Y-95210000D01*
D15*
X88840000Y-95260000D02*
X84340000Y-95260000D01*
%TO.N,Net-(BT1-+)*%
X70590000Y-100210000D02*
X70415000Y-100035000D01*
X109000000Y-103000000D02*
X106840000Y-105160000D01*
%TO.N,Net-(SW1-A)*%
X95220000Y-91980000D02*
X101800000Y-98560000D01*
%TO.N,Net-(BT1-+)*%
X84340000Y-100260000D02*
X77490000Y-100260000D01*
%TO.N,Net-(SW1-A)*%
X101800000Y-97560000D02*
X101800000Y-100960000D01*
%TO.N,Net-(BT1--)*%
X91880000Y-98560000D02*
X88840000Y-95520000D01*
X88840000Y-95520000D02*
X88840000Y-95260000D01*
X91880000Y-97560000D02*
X91880000Y-100960000D01*
%TO.N,Net-(SW1-A)*%
X95220000Y-91260000D02*
X95220000Y-91980000D01*
X101960000Y-73300000D02*
X101960000Y-76700000D01*
%TO.N,Net-(BT1--)*%
X92040000Y-73300000D02*
X92040000Y-76700000D01*
%TO.N,Net-(BT1-+)*%
X87900000Y-80900000D02*
X84500000Y-77500000D01*
X84500000Y-77500000D02*
X84500000Y-76000000D01*
X109160000Y-78740000D02*
X107000000Y-80900000D01*
X109160000Y-76110000D02*
X109160000Y-78740000D01*
X107000000Y-80900000D02*
X87900000Y-80900000D01*
D16*
%TO.N,Net-(BT1--)*%
X70800000Y-71000000D02*
X70575000Y-70775000D01*
D15*
X84500000Y-71000000D02*
X70800000Y-71000000D01*
X63775000Y-70775000D02*
X70575000Y-70775000D01*
D16*
X77650000Y-71000000D02*
X77600000Y-70950000D01*
D15*
%TO.N,Net-(BT1-+)*%
X70575000Y-75775000D02*
X63775000Y-75775000D01*
X70750000Y-75950000D02*
X70575000Y-75775000D01*
X77600000Y-75950000D02*
X70750000Y-75950000D01*
X77650000Y-76000000D02*
X77600000Y-75950000D01*
X84500000Y-76000000D02*
X77650000Y-76000000D01*
%TO.N,Net-(BT1--)*%
X89000000Y-71000000D02*
X84500000Y-71000000D01*
X89000000Y-71260000D02*
X89000000Y-71000000D01*
X92040000Y-74300000D02*
X89000000Y-71260000D01*
%TO.N,Net-(SW1-A)*%
X95380000Y-67720000D02*
X101960000Y-74300000D01*
X95380000Y-67000000D02*
X95380000Y-67720000D01*
%TD*%
M02*
