%TF.GenerationSoftware,KiCad,Pcbnew,8.0.5*%
%TF.CreationDate,2024-12-08T15:38:18-05:00*%
%TF.ProjectId,Cribbage,43726962-6261-4676-952e-6b696361645f,rev?*%
%TF.SameCoordinates,Original*%
%TF.FileFunction,Soldermask,Top*%
%TF.FilePolarity,Negative*%
%FSLAX46Y46*%
G04 Gerber Fmt 4.6, Leading zero omitted, Abs format (unit mm)*
G04 Created by KiCad (PCBNEW 8.0.5) date 2024-12-08 15:38:18*
%MOMM*%
%LPD*%
G01*
G04 APERTURE LIST*
G04 Aperture macros list*
%AMOutline5P*
0 Free polygon, 5 corners , with rotation*
0 The origin of the aperture is its center*
0 number of corners: always 5*
0 $1 to $10 corner X, Y*
0 $11 Rotation angle, in degrees counterclockwise*
0 create outline with 5 corners*
4,1,5,$1,$2,$3,$4,$5,$6,$7,$8,$9,$10,$1,$2,$11*%
%AMOutline6P*
0 Free polygon, 6 corners , with rotation*
0 The origin of the aperture is its center*
0 number of corners: always 6*
0 $1 to $12 corner X, Y*
0 $13 Rotation angle, in degrees counterclockwise*
0 create outline with 6 corners*
4,1,6,$1,$2,$3,$4,$5,$6,$7,$8,$9,$10,$11,$12,$1,$2,$13*%
%AMOutline7P*
0 Free polygon, 7 corners , with rotation*
0 The origin of the aperture is its center*
0 number of corners: always 7*
0 $1 to $14 corner X, Y*
0 $15 Rotation angle, in degrees counterclockwise*
0 create outline with 7 corners*
4,1,7,$1,$2,$3,$4,$5,$6,$7,$8,$9,$10,$11,$12,$13,$14,$1,$2,$15*%
%AMOutline8P*
0 Free polygon, 8 corners , with rotation*
0 The origin of the aperture is its center*
0 number of corners: always 8*
0 $1 to $16 corner X, Y*
0 $17 Rotation angle, in degrees counterclockwise*
0 create outline with 8 corners*
4,1,8,$1,$2,$3,$4,$5,$6,$7,$8,$9,$10,$11,$12,$13,$14,$15,$16,$1,$2,$17*%
G04 Aperture macros list end*
%ADD10O,4.500000X4.500000*%
%ADD11R,4.500000X4.500000*%
%ADD12Outline8P,-2.250000X1.350000X-1.350000X2.250000X1.350000X2.250000X2.250000X1.350000X2.250000X-1.350000X1.350000X-2.250000X-1.350000X-2.250000X-2.250000X-1.350000X270.000000*%
%ADD13Outline8P,-2.250000X1.350000X-1.350000X2.250000X1.350000X2.250000X2.250000X1.350000X2.250000X-1.350000X1.350000X-2.250000X-1.350000X-2.250000X-2.250000X-1.350000X90.000000*%
%ADD14Outline8P,-2.250000X1.350000X-1.350000X2.250000X1.350000X2.250000X2.250000X1.350000X2.250000X-1.350000X1.350000X-2.250000X-1.350000X-2.250000X-2.250000X-1.350000X0.000000*%
%ADD15Outline8P,-2.250000X1.350000X-1.350000X2.250000X1.350000X2.250000X2.250000X1.350000X2.250000X-1.350000X1.350000X-2.250000X-1.350000X-2.250000X-2.250000X-1.350000X180.000000*%
G04 APERTURE END LIST*
D10*
%TO.C,*%
X240000000Y-60000000D03*
%TD*%
D11*
%TO.C,Q1*%
X215000000Y-54550000D03*
D10*
X215000000Y-60000000D03*
D12*
X215000000Y-65450000D03*
%TD*%
D11*
%TO.C,Q1*%
X210000000Y-54550000D03*
D10*
X210000000Y-60000000D03*
D12*
X210000000Y-65450000D03*
%TD*%
D11*
%TO.C,Q1*%
X225000000Y-54550000D03*
D10*
X225000000Y-60000000D03*
D12*
X225000000Y-65450000D03*
%TD*%
D11*
%TO.C,Q1*%
X205000000Y-54550000D03*
D10*
X205000000Y-60000000D03*
D12*
X205000000Y-65450000D03*
%TD*%
D11*
%TO.C,Q1*%
X220000000Y-54550000D03*
D10*
X220000000Y-60000000D03*
D12*
X220000000Y-65450000D03*
%TD*%
D11*
%TO.C,Q1*%
X185000000Y-54550000D03*
D10*
X185000000Y-60000000D03*
D12*
X185000000Y-65450000D03*
%TD*%
D11*
%TO.C,Q1*%
X180000000Y-54550000D03*
D10*
X180000000Y-60000000D03*
D12*
X180000000Y-65450000D03*
%TD*%
D11*
%TO.C,Q1*%
X195000000Y-54550000D03*
D10*
X195000000Y-60000000D03*
D12*
X195000000Y-65450000D03*
%TD*%
D11*
%TO.C,Q1*%
X175000000Y-54550000D03*
D10*
X175000000Y-60000000D03*
D12*
X175000000Y-65450000D03*
%TD*%
D11*
%TO.C,Q1*%
X190000000Y-54550000D03*
D10*
X190000000Y-60000000D03*
D12*
X190000000Y-65450000D03*
%TD*%
D11*
%TO.C,Q1*%
X250000000Y-105000000D03*
D10*
X250000000Y-99550000D03*
D13*
X250000000Y-94100000D03*
%TD*%
D11*
%TO.C,Q1*%
X235000000Y-105000000D03*
D10*
X235000000Y-99550000D03*
D13*
X235000000Y-94100000D03*
%TD*%
D11*
%TO.C,Q1*%
X245000000Y-105000000D03*
D10*
X245000000Y-99550000D03*
D13*
X245000000Y-94100000D03*
%TD*%
D11*
%TO.C,Q1*%
X255000000Y-105000000D03*
D10*
X255000000Y-99550000D03*
D13*
X255000000Y-94100000D03*
%TD*%
D11*
%TO.C,Q1*%
X240000000Y-105000000D03*
D10*
X240000000Y-99550000D03*
D13*
X240000000Y-94100000D03*
%TD*%
D11*
%TO.C,Q1*%
X220000000Y-105000000D03*
D10*
X220000000Y-99550000D03*
D13*
X220000000Y-94100000D03*
%TD*%
D11*
%TO.C,Q1*%
X205000000Y-105000000D03*
D10*
X205000000Y-99550000D03*
D13*
X205000000Y-94100000D03*
%TD*%
D11*
%TO.C,Q1*%
X215000000Y-105000000D03*
D10*
X215000000Y-99550000D03*
D13*
X215000000Y-94100000D03*
%TD*%
D11*
%TO.C,Q1*%
X225000000Y-105000000D03*
D10*
X225000000Y-99550000D03*
D13*
X225000000Y-94100000D03*
%TD*%
D11*
%TO.C,Q1*%
X210000000Y-105000000D03*
D10*
X210000000Y-99550000D03*
D13*
X210000000Y-94100000D03*
%TD*%
D11*
%TO.C,Q1*%
X255000000Y-24550000D03*
D10*
X255000000Y-30000000D03*
D12*
X255000000Y-35450000D03*
%TD*%
D11*
%TO.C,Q1*%
X245000000Y-24550000D03*
D10*
X245000000Y-30000000D03*
D12*
X245000000Y-35450000D03*
%TD*%
D11*
%TO.C,Q1*%
X235000000Y-24550000D03*
D10*
X235000000Y-30000000D03*
D12*
X235000000Y-35450000D03*
%TD*%
D11*
%TO.C,Q1*%
X240000000Y-24550000D03*
D10*
X240000000Y-30000000D03*
D12*
X240000000Y-35450000D03*
%TD*%
D11*
%TO.C,Q1*%
X250000000Y-24550000D03*
D10*
X250000000Y-30000000D03*
D12*
X250000000Y-35450000D03*
%TD*%
D11*
%TO.C,Q1*%
X225000000Y-24550000D03*
D10*
X225000000Y-30000000D03*
D12*
X225000000Y-35450000D03*
%TD*%
D11*
%TO.C,Q1*%
X210000000Y-24550000D03*
D10*
X210000000Y-30000000D03*
D12*
X210000000Y-35450000D03*
%TD*%
D11*
%TO.C,Q1*%
X205000000Y-24550000D03*
D10*
X205000000Y-30000000D03*
D12*
X205000000Y-35450000D03*
%TD*%
D11*
%TO.C,Q1*%
X220000000Y-24550000D03*
D10*
X220000000Y-30000000D03*
D12*
X220000000Y-35450000D03*
%TD*%
D11*
%TO.C,Q1*%
X215000000Y-24550000D03*
D10*
X215000000Y-30000000D03*
D12*
X215000000Y-35450000D03*
%TD*%
D11*
%TO.C,Q1*%
X160000000Y-54550000D03*
D10*
X160000000Y-60000000D03*
D12*
X160000000Y-65450000D03*
%TD*%
D11*
%TO.C,Q1*%
X150000000Y-54550000D03*
D10*
X150000000Y-60000000D03*
D12*
X150000000Y-65450000D03*
%TD*%
D11*
%TO.C,Q1*%
X145000000Y-54550000D03*
D10*
X145000000Y-60000000D03*
D12*
X145000000Y-65450000D03*
%TD*%
D11*
%TO.C,Q1*%
X155000000Y-54550000D03*
D10*
X155000000Y-60000000D03*
D12*
X155000000Y-65450000D03*
%TD*%
D11*
%TO.C,Q1*%
X165000000Y-54550000D03*
D10*
X165000000Y-60000000D03*
D12*
X165000000Y-65450000D03*
%TD*%
D11*
%TO.C,Q1*%
X130000000Y-54550000D03*
D10*
X130000000Y-60000000D03*
D12*
X130000000Y-65450000D03*
%TD*%
D11*
%TO.C,Q1*%
X120000000Y-54550000D03*
D10*
X120000000Y-60000000D03*
D12*
X120000000Y-65450000D03*
%TD*%
D11*
%TO.C,Q1*%
X115000000Y-54550000D03*
D10*
X115000000Y-60000000D03*
D12*
X115000000Y-65450000D03*
%TD*%
D11*
%TO.C,Q1*%
X125000000Y-54550000D03*
D10*
X125000000Y-60000000D03*
D12*
X125000000Y-65450000D03*
%TD*%
D11*
%TO.C,Q1*%
X135000000Y-54550000D03*
D10*
X135000000Y-60000000D03*
D12*
X135000000Y-65450000D03*
%TD*%
D11*
%TO.C,Q1*%
X85000000Y-54550000D03*
D10*
X85000000Y-60000000D03*
D12*
X85000000Y-65450000D03*
%TD*%
D11*
%TO.C,Q1*%
X95000000Y-54550000D03*
D10*
X95000000Y-60000000D03*
D12*
X95000000Y-65450000D03*
%TD*%
D11*
%TO.C,Q1*%
X100000000Y-54550000D03*
D10*
X100000000Y-60000000D03*
D12*
X100000000Y-65450000D03*
%TD*%
D11*
%TO.C,Q1*%
X105000000Y-54550000D03*
D10*
X105000000Y-60000000D03*
D12*
X105000000Y-65450000D03*
%TD*%
D11*
%TO.C,Q1*%
X90000000Y-54550000D03*
D10*
X90000000Y-60000000D03*
D12*
X90000000Y-65450000D03*
%TD*%
D11*
%TO.C,Q1*%
X55000000Y-54550000D03*
D10*
X55000000Y-60000000D03*
D12*
X55000000Y-65450000D03*
%TD*%
D11*
%TO.C,Q1*%
X65000000Y-54550000D03*
D10*
X65000000Y-60000000D03*
D12*
X65000000Y-65450000D03*
%TD*%
D11*
%TO.C,Q1*%
X70000000Y-54550000D03*
D10*
X70000000Y-60000000D03*
D12*
X70000000Y-65450000D03*
%TD*%
D11*
%TO.C,Q1*%
X75000000Y-54550000D03*
D10*
X75000000Y-60000000D03*
D12*
X75000000Y-65450000D03*
%TD*%
D11*
%TO.C,Q1*%
X60000000Y-54550000D03*
D10*
X60000000Y-60000000D03*
D12*
X60000000Y-65450000D03*
%TD*%
D11*
%TO.C,Q1*%
X39550000Y-69550000D03*
D10*
X45000000Y-69550000D03*
D14*
X50450000Y-69550000D03*
%TD*%
D11*
%TO.C,Q1*%
X39550000Y-89550000D03*
D10*
X45000000Y-89550000D03*
D14*
X50450000Y-89550000D03*
%TD*%
D11*
%TO.C,Q1*%
X39550000Y-84550000D03*
D10*
X45000000Y-84550000D03*
D14*
X50450000Y-84550000D03*
%TD*%
D11*
%TO.C,Q1*%
X39550000Y-74550000D03*
D10*
X45000000Y-74550000D03*
D14*
X50450000Y-74550000D03*
%TD*%
D11*
%TO.C,Q1*%
X39550000Y-79550000D03*
D10*
X45000000Y-79550000D03*
D14*
X50450000Y-79550000D03*
%TD*%
D11*
%TO.C,Q1*%
X65000000Y-105000000D03*
D10*
X65000000Y-99550000D03*
D13*
X65000000Y-94100000D03*
%TD*%
D11*
%TO.C,Q1*%
X70000000Y-105000000D03*
D10*
X70000000Y-99550000D03*
D13*
X70000000Y-94100000D03*
%TD*%
D11*
%TO.C,Q1*%
X55000000Y-105000000D03*
D10*
X55000000Y-99550000D03*
D13*
X55000000Y-94100000D03*
%TD*%
D11*
%TO.C,Q1*%
X75000000Y-105000000D03*
D10*
X75000000Y-99550000D03*
D13*
X75000000Y-94100000D03*
%TD*%
D11*
%TO.C,Q1*%
X60000000Y-105000000D03*
D10*
X60000000Y-99550000D03*
D13*
X60000000Y-94100000D03*
%TD*%
D11*
%TO.C,Q1*%
X95000000Y-105000000D03*
D10*
X95000000Y-99550000D03*
D13*
X95000000Y-94100000D03*
%TD*%
D11*
%TO.C,Q1*%
X100000000Y-105000000D03*
D10*
X100000000Y-99550000D03*
D13*
X100000000Y-94100000D03*
%TD*%
D11*
%TO.C,Q1*%
X85000000Y-105000000D03*
D10*
X85000000Y-99550000D03*
D13*
X85000000Y-94100000D03*
%TD*%
D11*
%TO.C,Q1*%
X105000000Y-105000000D03*
D10*
X105000000Y-99550000D03*
D13*
X105000000Y-94100000D03*
%TD*%
D11*
%TO.C,Q1*%
X90000000Y-105000000D03*
D10*
X90000000Y-99550000D03*
D13*
X90000000Y-94100000D03*
%TD*%
D11*
%TO.C,Q1*%
X125000000Y-105000000D03*
D10*
X125000000Y-99550000D03*
D13*
X125000000Y-94100000D03*
%TD*%
D11*
%TO.C,Q1*%
X130000000Y-105000000D03*
D10*
X130000000Y-99550000D03*
D13*
X130000000Y-94100000D03*
%TD*%
D11*
%TO.C,Q1*%
X115000000Y-105000000D03*
D10*
X115000000Y-99550000D03*
D13*
X115000000Y-94100000D03*
%TD*%
D11*
%TO.C,Q1*%
X135000000Y-105000000D03*
D10*
X135000000Y-99550000D03*
D13*
X135000000Y-94100000D03*
%TD*%
D11*
%TO.C,Q1*%
X120000000Y-105000000D03*
D10*
X120000000Y-99550000D03*
D13*
X120000000Y-94100000D03*
%TD*%
D11*
%TO.C,Q1*%
X155000000Y-105000000D03*
D10*
X155000000Y-99550000D03*
D13*
X155000000Y-94100000D03*
%TD*%
D11*
%TO.C,Q1*%
X160000000Y-105000000D03*
D10*
X160000000Y-99550000D03*
D13*
X160000000Y-94100000D03*
%TD*%
D11*
%TO.C,Q1*%
X145000000Y-105000000D03*
D10*
X145000000Y-99550000D03*
D13*
X145000000Y-94100000D03*
%TD*%
D11*
%TO.C,Q1*%
X165000000Y-105000000D03*
D10*
X165000000Y-99550000D03*
D13*
X165000000Y-94100000D03*
%TD*%
D11*
%TO.C,Q1*%
X150000000Y-105000000D03*
D10*
X150000000Y-99550000D03*
D13*
X150000000Y-94100000D03*
%TD*%
D11*
%TO.C,Q1*%
X270450000Y-84550000D03*
D10*
X265000000Y-84550000D03*
D15*
X259550000Y-84550000D03*
%TD*%
D11*
%TO.C,Q1*%
X270450000Y-89550000D03*
D10*
X265000000Y-89550000D03*
D15*
X259550000Y-89550000D03*
%TD*%
D11*
%TO.C,Q1*%
X270450000Y-79550000D03*
D10*
X265000000Y-79550000D03*
D15*
X259550000Y-79550000D03*
%TD*%
D11*
%TO.C,Q1*%
X270450000Y-74550000D03*
D10*
X265000000Y-74550000D03*
D15*
X259550000Y-74550000D03*
%TD*%
D11*
%TO.C,Q1*%
X270450000Y-69550000D03*
D10*
X265000000Y-69550000D03*
D15*
X259550000Y-69550000D03*
%TD*%
D11*
%TO.C,Q1*%
X270450000Y-59550000D03*
D10*
X265000000Y-59550000D03*
D15*
X259550000Y-59550000D03*
%TD*%
D11*
%TO.C,Q1*%
X270450000Y-39550000D03*
D10*
X265000000Y-39550000D03*
D15*
X259550000Y-39550000D03*
%TD*%
D11*
%TO.C,Q1*%
X270450000Y-49550000D03*
D10*
X265000000Y-49550000D03*
D15*
X259550000Y-49550000D03*
%TD*%
D11*
%TO.C,Q1*%
X270450000Y-44550000D03*
D10*
X265000000Y-44550000D03*
D15*
X259550000Y-44550000D03*
%TD*%
D11*
%TO.C,Q1*%
X270450000Y-54550000D03*
D10*
X265000000Y-54550000D03*
D15*
X259550000Y-54550000D03*
%TD*%
D11*
%TO.C,Q1*%
X185000000Y-24550000D03*
D10*
X185000000Y-30000000D03*
D12*
X185000000Y-35450000D03*
%TD*%
D11*
%TO.C,Q1*%
X195000000Y-24550000D03*
D10*
X195000000Y-30000000D03*
D12*
X195000000Y-35450000D03*
%TD*%
D11*
%TO.C,Q1*%
X190000000Y-24550000D03*
D10*
X190000000Y-30000000D03*
D12*
X190000000Y-35450000D03*
%TD*%
D11*
%TO.C,Q1*%
X175000000Y-24550000D03*
D10*
X175000000Y-30000000D03*
D12*
X175000000Y-35450000D03*
%TD*%
D11*
%TO.C,Q1*%
X180000000Y-24550000D03*
D10*
X180000000Y-30000000D03*
D12*
X180000000Y-35450000D03*
%TD*%
D11*
%TO.C,Q1*%
X155000000Y-24550000D03*
D10*
X155000000Y-30000000D03*
D12*
X155000000Y-35450000D03*
%TD*%
D11*
%TO.C,Q1*%
X165000000Y-24550000D03*
D10*
X165000000Y-30000000D03*
D12*
X165000000Y-35450000D03*
%TD*%
D11*
%TO.C,Q1*%
X160000000Y-24550000D03*
D10*
X160000000Y-30000000D03*
D12*
X160000000Y-35450000D03*
%TD*%
D11*
%TO.C,Q1*%
X145000000Y-24550000D03*
D10*
X145000000Y-30000000D03*
D12*
X145000000Y-35450000D03*
%TD*%
D11*
%TO.C,Q1*%
X150000000Y-24550000D03*
D10*
X150000000Y-30000000D03*
D12*
X150000000Y-35450000D03*
%TD*%
D11*
%TO.C,Q1*%
X125000000Y-24550000D03*
D10*
X125000000Y-30000000D03*
D12*
X125000000Y-35450000D03*
%TD*%
D11*
%TO.C,Q1*%
X135000000Y-24550000D03*
D10*
X135000000Y-30000000D03*
D12*
X135000000Y-35450000D03*
%TD*%
D11*
%TO.C,Q1*%
X130000000Y-24550000D03*
D10*
X130000000Y-30000000D03*
D12*
X130000000Y-35450000D03*
%TD*%
D11*
%TO.C,Q1*%
X115000000Y-24550000D03*
D10*
X115000000Y-30000000D03*
D12*
X115000000Y-35450000D03*
%TD*%
D11*
%TO.C,Q1*%
X120000000Y-24550000D03*
D10*
X120000000Y-30000000D03*
D12*
X120000000Y-35450000D03*
%TD*%
D11*
%TO.C,Q1*%
X95000000Y-24550000D03*
D10*
X95000000Y-30000000D03*
D12*
X95000000Y-35450000D03*
%TD*%
D11*
%TO.C,Q1*%
X105000000Y-24550000D03*
D10*
X105000000Y-30000000D03*
D12*
X105000000Y-35450000D03*
%TD*%
D11*
%TO.C,Q1*%
X100000000Y-24550000D03*
D10*
X100000000Y-30000000D03*
D12*
X100000000Y-35450000D03*
%TD*%
D11*
%TO.C,Q1*%
X85000000Y-24550000D03*
D10*
X85000000Y-30000000D03*
D12*
X85000000Y-35450000D03*
%TD*%
D11*
%TO.C,Q1*%
X90000000Y-24550000D03*
D10*
X90000000Y-30000000D03*
D12*
X90000000Y-35450000D03*
%TD*%
D11*
%TO.C,Q1*%
X65000000Y-24550000D03*
D10*
X65000000Y-30000000D03*
D12*
X65000000Y-35450000D03*
%TD*%
D11*
%TO.C,Q1*%
X75000000Y-24550000D03*
D10*
X75000000Y-30000000D03*
D12*
X75000000Y-35450000D03*
%TD*%
D11*
%TO.C,Q1*%
X70000000Y-24550000D03*
D10*
X70000000Y-30000000D03*
D12*
X70000000Y-35450000D03*
%TD*%
D11*
%TO.C,Q1*%
X55000000Y-24550000D03*
D10*
X55000000Y-30000000D03*
D12*
X55000000Y-35450000D03*
%TD*%
D11*
%TO.C,Q1*%
X60000000Y-24550000D03*
D10*
X60000000Y-30000000D03*
D12*
X60000000Y-35450000D03*
%TD*%
D11*
%TO.C,Q1*%
X40000000Y-24550000D03*
D10*
X40000000Y-30000000D03*
D12*
X40000000Y-35450000D03*
%TD*%
D11*
%TO.C,Q1*%
X30000000Y-24550000D03*
D10*
X30000000Y-30000000D03*
D12*
X30000000Y-35450000D03*
%TD*%
D11*
%TO.C,Q1*%
X25000000Y-24550000D03*
D10*
X25000000Y-30000000D03*
D12*
X25000000Y-35450000D03*
%TD*%
D11*
%TO.C,Q1*%
X35000000Y-24550000D03*
D10*
X35000000Y-30000000D03*
D12*
X35000000Y-35450000D03*
%TD*%
D11*
%TO.C,Q1*%
X45000000Y-24550000D03*
D10*
X45000000Y-30000000D03*
D12*
X45000000Y-35450000D03*
%TD*%
D11*
%TO.C,Q1*%
X195000000Y-105000000D03*
D10*
X195000000Y-99550000D03*
D13*
X195000000Y-94100000D03*
%TD*%
D11*
%TO.C,Q1*%
X175000000Y-105000000D03*
D10*
X175000000Y-99550000D03*
D13*
X175000000Y-94100000D03*
%TD*%
D11*
%TO.C,Q1*%
X180000000Y-105000000D03*
D10*
X180000000Y-99550000D03*
D13*
X180000000Y-94100000D03*
%TD*%
D11*
%TO.C,Q1*%
X185000000Y-105000000D03*
D10*
X185000000Y-99550000D03*
D13*
X185000000Y-94100000D03*
%TD*%
D11*
%TO.C,Q1*%
X190000000Y-105000000D03*
D10*
X190000000Y-99550000D03*
D13*
X190000000Y-94100000D03*
%TD*%
M02*
