%TF.GenerationSoftware,KiCad,Pcbnew,8.0.5*%
%TF.CreationDate,2024-12-08T15:38:28-05:00*%
%TF.ProjectId,Cribbage,43726962-6261-4676-952e-6b696361645f,rev?*%
%TF.SameCoordinates,Original*%
%TF.FileFunction,Drillmap*%
%TF.FilePolarity,Positive*%
%FSLAX45Y45*%
G04 Gerber Fmt 4.5, Leading zero omitted, Abs format (unit mm)*
G04 Created by KiCad (PCBNEW 8.0.5) date 2024-12-08 15:38:28*
%MOMM*%
%LPD*%
G01*
G04 APERTURE LIST*
%ADD10C,0.050000*%
%ADD11C,0.200000*%
G04 APERTURE END LIST*
D10*
X2000000Y-1955000D02*
X27750000Y-1955000D01*
X27750000Y-11455000D01*
X2000000Y-11455000D01*
X2000000Y-1955000D01*
D11*
X2400000Y-2355000D02*
X2600000Y-2555000D01*
X2600000Y-2355000D02*
X2400000Y-2555000D01*
X2400000Y-2900000D02*
X2600000Y-3100000D01*
X2600000Y-2900000D02*
X2400000Y-3100000D01*
X2400000Y-3445000D02*
X2600000Y-3645000D01*
X2600000Y-3445000D02*
X2400000Y-3645000D01*
X2900000Y-2355000D02*
X3100000Y-2555000D01*
X3100000Y-2355000D02*
X2900000Y-2555000D01*
X2900000Y-2900000D02*
X3100000Y-3100000D01*
X3100000Y-2900000D02*
X2900000Y-3100000D01*
X2900000Y-3445000D02*
X3100000Y-3645000D01*
X3100000Y-3445000D02*
X2900000Y-3645000D01*
X3400000Y-2355000D02*
X3600000Y-2555000D01*
X3600000Y-2355000D02*
X3400000Y-2555000D01*
X3400000Y-2900000D02*
X3600000Y-3100000D01*
X3600000Y-2900000D02*
X3400000Y-3100000D01*
X3400000Y-3445000D02*
X3600000Y-3645000D01*
X3600000Y-3445000D02*
X3400000Y-3645000D01*
X3855000Y-6855000D02*
X4055000Y-7055000D01*
X4055000Y-6855000D02*
X3855000Y-7055000D01*
X3855000Y-7355000D02*
X4055000Y-7555000D01*
X4055000Y-7355000D02*
X3855000Y-7555000D01*
X3855000Y-7855000D02*
X4055000Y-8055000D01*
X4055000Y-7855000D02*
X3855000Y-8055000D01*
X3855000Y-8355000D02*
X4055000Y-8555000D01*
X4055000Y-8355000D02*
X3855000Y-8555000D01*
X3855000Y-8855000D02*
X4055000Y-9055000D01*
X4055000Y-8855000D02*
X3855000Y-9055000D01*
X3900000Y-2355000D02*
X4100000Y-2555000D01*
X4100000Y-2355000D02*
X3900000Y-2555000D01*
X3900000Y-2900000D02*
X4100000Y-3100000D01*
X4100000Y-2900000D02*
X3900000Y-3100000D01*
X3900000Y-3445000D02*
X4100000Y-3645000D01*
X4100000Y-3445000D02*
X3900000Y-3645000D01*
X4400000Y-2355000D02*
X4600000Y-2555000D01*
X4600000Y-2355000D02*
X4400000Y-2555000D01*
X4400000Y-2900000D02*
X4600000Y-3100000D01*
X4600000Y-2900000D02*
X4400000Y-3100000D01*
X4400000Y-3445000D02*
X4600000Y-3645000D01*
X4600000Y-3445000D02*
X4400000Y-3645000D01*
X4400000Y-6855000D02*
X4600000Y-7055000D01*
X4600000Y-6855000D02*
X4400000Y-7055000D01*
X4400000Y-7355000D02*
X4600000Y-7555000D01*
X4600000Y-7355000D02*
X4400000Y-7555000D01*
X4400000Y-7855000D02*
X4600000Y-8055000D01*
X4600000Y-7855000D02*
X4400000Y-8055000D01*
X4400000Y-8355000D02*
X4600000Y-8555000D01*
X4600000Y-8355000D02*
X4400000Y-8555000D01*
X4400000Y-8855000D02*
X4600000Y-9055000D01*
X4600000Y-8855000D02*
X4400000Y-9055000D01*
X4945000Y-6855000D02*
X5145000Y-7055000D01*
X5145000Y-6855000D02*
X4945000Y-7055000D01*
X4945000Y-7355000D02*
X5145000Y-7555000D01*
X5145000Y-7355000D02*
X4945000Y-7555000D01*
X4945000Y-7855000D02*
X5145000Y-8055000D01*
X5145000Y-7855000D02*
X4945000Y-8055000D01*
X4945000Y-8355000D02*
X5145000Y-8555000D01*
X5145000Y-8355000D02*
X4945000Y-8555000D01*
X4945000Y-8855000D02*
X5145000Y-9055000D01*
X5145000Y-8855000D02*
X4945000Y-9055000D01*
X5400000Y-2355000D02*
X5600000Y-2555000D01*
X5600000Y-2355000D02*
X5400000Y-2555000D01*
X5400000Y-2900000D02*
X5600000Y-3100000D01*
X5600000Y-2900000D02*
X5400000Y-3100000D01*
X5400000Y-3445000D02*
X5600000Y-3645000D01*
X5600000Y-3445000D02*
X5400000Y-3645000D01*
X5400000Y-5355000D02*
X5600000Y-5555000D01*
X5600000Y-5355000D02*
X5400000Y-5555000D01*
X5400000Y-5900000D02*
X5600000Y-6100000D01*
X5600000Y-5900000D02*
X5400000Y-6100000D01*
X5400000Y-6445000D02*
X5600000Y-6645000D01*
X5600000Y-6445000D02*
X5400000Y-6645000D01*
X5400000Y-9310000D02*
X5600000Y-9510000D01*
X5600000Y-9310000D02*
X5400000Y-9510000D01*
X5400000Y-9855000D02*
X5600000Y-10055000D01*
X5600000Y-9855000D02*
X5400000Y-10055000D01*
X5400000Y-10400000D02*
X5600000Y-10600000D01*
X5600000Y-10400000D02*
X5400000Y-10600000D01*
X5900000Y-2355000D02*
X6100000Y-2555000D01*
X6100000Y-2355000D02*
X5900000Y-2555000D01*
X5900000Y-2900000D02*
X6100000Y-3100000D01*
X6100000Y-2900000D02*
X5900000Y-3100000D01*
X5900000Y-3445000D02*
X6100000Y-3645000D01*
X6100000Y-3445000D02*
X5900000Y-3645000D01*
X5900000Y-5355000D02*
X6100000Y-5555000D01*
X6100000Y-5355000D02*
X5900000Y-5555000D01*
X5900000Y-5900000D02*
X6100000Y-6100000D01*
X6100000Y-5900000D02*
X5900000Y-6100000D01*
X5900000Y-6445000D02*
X6100000Y-6645000D01*
X6100000Y-6445000D02*
X5900000Y-6645000D01*
X5900000Y-9310000D02*
X6100000Y-9510000D01*
X6100000Y-9310000D02*
X5900000Y-9510000D01*
X5900000Y-9855000D02*
X6100000Y-10055000D01*
X6100000Y-9855000D02*
X5900000Y-10055000D01*
X5900000Y-10400000D02*
X6100000Y-10600000D01*
X6100000Y-10400000D02*
X5900000Y-10600000D01*
X6400000Y-2355000D02*
X6600000Y-2555000D01*
X6600000Y-2355000D02*
X6400000Y-2555000D01*
X6400000Y-2900000D02*
X6600000Y-3100000D01*
X6600000Y-2900000D02*
X6400000Y-3100000D01*
X6400000Y-3445000D02*
X6600000Y-3645000D01*
X6600000Y-3445000D02*
X6400000Y-3645000D01*
X6400000Y-5355000D02*
X6600000Y-5555000D01*
X6600000Y-5355000D02*
X6400000Y-5555000D01*
X6400000Y-5900000D02*
X6600000Y-6100000D01*
X6600000Y-5900000D02*
X6400000Y-6100000D01*
X6400000Y-6445000D02*
X6600000Y-6645000D01*
X6600000Y-6445000D02*
X6400000Y-6645000D01*
X6400000Y-9310000D02*
X6600000Y-9510000D01*
X6600000Y-9310000D02*
X6400000Y-9510000D01*
X6400000Y-9855000D02*
X6600000Y-10055000D01*
X6600000Y-9855000D02*
X6400000Y-10055000D01*
X6400000Y-10400000D02*
X6600000Y-10600000D01*
X6600000Y-10400000D02*
X6400000Y-10600000D01*
X6900000Y-2355000D02*
X7100000Y-2555000D01*
X7100000Y-2355000D02*
X6900000Y-2555000D01*
X6900000Y-2900000D02*
X7100000Y-3100000D01*
X7100000Y-2900000D02*
X6900000Y-3100000D01*
X6900000Y-3445000D02*
X7100000Y-3645000D01*
X7100000Y-3445000D02*
X6900000Y-3645000D01*
X6900000Y-5355000D02*
X7100000Y-5555000D01*
X7100000Y-5355000D02*
X6900000Y-5555000D01*
X6900000Y-5900000D02*
X7100000Y-6100000D01*
X7100000Y-5900000D02*
X6900000Y-6100000D01*
X6900000Y-6445000D02*
X7100000Y-6645000D01*
X7100000Y-6445000D02*
X6900000Y-6645000D01*
X6900000Y-9310000D02*
X7100000Y-9510000D01*
X7100000Y-9310000D02*
X6900000Y-9510000D01*
X6900000Y-9855000D02*
X7100000Y-10055000D01*
X7100000Y-9855000D02*
X6900000Y-10055000D01*
X6900000Y-10400000D02*
X7100000Y-10600000D01*
X7100000Y-10400000D02*
X6900000Y-10600000D01*
X7400000Y-2355000D02*
X7600000Y-2555000D01*
X7600000Y-2355000D02*
X7400000Y-2555000D01*
X7400000Y-2900000D02*
X7600000Y-3100000D01*
X7600000Y-2900000D02*
X7400000Y-3100000D01*
X7400000Y-3445000D02*
X7600000Y-3645000D01*
X7600000Y-3445000D02*
X7400000Y-3645000D01*
X7400000Y-5355000D02*
X7600000Y-5555000D01*
X7600000Y-5355000D02*
X7400000Y-5555000D01*
X7400000Y-5900000D02*
X7600000Y-6100000D01*
X7600000Y-5900000D02*
X7400000Y-6100000D01*
X7400000Y-6445000D02*
X7600000Y-6645000D01*
X7600000Y-6445000D02*
X7400000Y-6645000D01*
X7400000Y-9310000D02*
X7600000Y-9510000D01*
X7600000Y-9310000D02*
X7400000Y-9510000D01*
X7400000Y-9855000D02*
X7600000Y-10055000D01*
X7600000Y-9855000D02*
X7400000Y-10055000D01*
X7400000Y-10400000D02*
X7600000Y-10600000D01*
X7600000Y-10400000D02*
X7400000Y-10600000D01*
X8400000Y-2355000D02*
X8600000Y-2555000D01*
X8600000Y-2355000D02*
X8400000Y-2555000D01*
X8400000Y-2900000D02*
X8600000Y-3100000D01*
X8600000Y-2900000D02*
X8400000Y-3100000D01*
X8400000Y-3445000D02*
X8600000Y-3645000D01*
X8600000Y-3445000D02*
X8400000Y-3645000D01*
X8400000Y-5355000D02*
X8600000Y-5555000D01*
X8600000Y-5355000D02*
X8400000Y-5555000D01*
X8400000Y-5900000D02*
X8600000Y-6100000D01*
X8600000Y-5900000D02*
X8400000Y-6100000D01*
X8400000Y-6445000D02*
X8600000Y-6645000D01*
X8600000Y-6445000D02*
X8400000Y-6645000D01*
X8400000Y-9310000D02*
X8600000Y-9510000D01*
X8600000Y-9310000D02*
X8400000Y-9510000D01*
X8400000Y-9855000D02*
X8600000Y-10055000D01*
X8600000Y-9855000D02*
X8400000Y-10055000D01*
X8400000Y-10400000D02*
X8600000Y-10600000D01*
X8600000Y-10400000D02*
X8400000Y-10600000D01*
X8900000Y-2355000D02*
X9100000Y-2555000D01*
X9100000Y-2355000D02*
X8900000Y-2555000D01*
X8900000Y-2900000D02*
X9100000Y-3100000D01*
X9100000Y-2900000D02*
X8900000Y-3100000D01*
X8900000Y-3445000D02*
X9100000Y-3645000D01*
X9100000Y-3445000D02*
X8900000Y-3645000D01*
X8900000Y-5355000D02*
X9100000Y-5555000D01*
X9100000Y-5355000D02*
X8900000Y-5555000D01*
X8900000Y-5900000D02*
X9100000Y-6100000D01*
X9100000Y-5900000D02*
X8900000Y-6100000D01*
X8900000Y-6445000D02*
X9100000Y-6645000D01*
X9100000Y-6445000D02*
X8900000Y-6645000D01*
X8900000Y-9310000D02*
X9100000Y-9510000D01*
X9100000Y-9310000D02*
X8900000Y-9510000D01*
X8900000Y-9855000D02*
X9100000Y-10055000D01*
X9100000Y-9855000D02*
X8900000Y-10055000D01*
X8900000Y-10400000D02*
X9100000Y-10600000D01*
X9100000Y-10400000D02*
X8900000Y-10600000D01*
X9400000Y-2355000D02*
X9600000Y-2555000D01*
X9600000Y-2355000D02*
X9400000Y-2555000D01*
X9400000Y-2900000D02*
X9600000Y-3100000D01*
X9600000Y-2900000D02*
X9400000Y-3100000D01*
X9400000Y-3445000D02*
X9600000Y-3645000D01*
X9600000Y-3445000D02*
X9400000Y-3645000D01*
X9400000Y-5355000D02*
X9600000Y-5555000D01*
X9600000Y-5355000D02*
X9400000Y-5555000D01*
X9400000Y-5900000D02*
X9600000Y-6100000D01*
X9600000Y-5900000D02*
X9400000Y-6100000D01*
X9400000Y-6445000D02*
X9600000Y-6645000D01*
X9600000Y-6445000D02*
X9400000Y-6645000D01*
X9400000Y-9310000D02*
X9600000Y-9510000D01*
X9600000Y-9310000D02*
X9400000Y-9510000D01*
X9400000Y-9855000D02*
X9600000Y-10055000D01*
X9600000Y-9855000D02*
X9400000Y-10055000D01*
X9400000Y-10400000D02*
X9600000Y-10600000D01*
X9600000Y-10400000D02*
X9400000Y-10600000D01*
X9900000Y-2355000D02*
X10100000Y-2555000D01*
X10100000Y-2355000D02*
X9900000Y-2555000D01*
X9900000Y-2900000D02*
X10100000Y-3100000D01*
X10100000Y-2900000D02*
X9900000Y-3100000D01*
X9900000Y-3445000D02*
X10100000Y-3645000D01*
X10100000Y-3445000D02*
X9900000Y-3645000D01*
X9900000Y-5355000D02*
X10100000Y-5555000D01*
X10100000Y-5355000D02*
X9900000Y-5555000D01*
X9900000Y-5900000D02*
X10100000Y-6100000D01*
X10100000Y-5900000D02*
X9900000Y-6100000D01*
X9900000Y-6445000D02*
X10100000Y-6645000D01*
X10100000Y-6445000D02*
X9900000Y-6645000D01*
X9900000Y-9310000D02*
X10100000Y-9510000D01*
X10100000Y-9310000D02*
X9900000Y-9510000D01*
X9900000Y-9855000D02*
X10100000Y-10055000D01*
X10100000Y-9855000D02*
X9900000Y-10055000D01*
X9900000Y-10400000D02*
X10100000Y-10600000D01*
X10100000Y-10400000D02*
X9900000Y-10600000D01*
X10400000Y-2355000D02*
X10600000Y-2555000D01*
X10600000Y-2355000D02*
X10400000Y-2555000D01*
X10400000Y-2900000D02*
X10600000Y-3100000D01*
X10600000Y-2900000D02*
X10400000Y-3100000D01*
X10400000Y-3445000D02*
X10600000Y-3645000D01*
X10600000Y-3445000D02*
X10400000Y-3645000D01*
X10400000Y-5355000D02*
X10600000Y-5555000D01*
X10600000Y-5355000D02*
X10400000Y-5555000D01*
X10400000Y-5900000D02*
X10600000Y-6100000D01*
X10600000Y-5900000D02*
X10400000Y-6100000D01*
X10400000Y-6445000D02*
X10600000Y-6645000D01*
X10600000Y-6445000D02*
X10400000Y-6645000D01*
X10400000Y-9310000D02*
X10600000Y-9510000D01*
X10600000Y-9310000D02*
X10400000Y-9510000D01*
X10400000Y-9855000D02*
X10600000Y-10055000D01*
X10600000Y-9855000D02*
X10400000Y-10055000D01*
X10400000Y-10400000D02*
X10600000Y-10600000D01*
X10600000Y-10400000D02*
X10400000Y-10600000D01*
X11400000Y-2355000D02*
X11600000Y-2555000D01*
X11600000Y-2355000D02*
X11400000Y-2555000D01*
X11400000Y-2900000D02*
X11600000Y-3100000D01*
X11600000Y-2900000D02*
X11400000Y-3100000D01*
X11400000Y-3445000D02*
X11600000Y-3645000D01*
X11600000Y-3445000D02*
X11400000Y-3645000D01*
X11400000Y-5355000D02*
X11600000Y-5555000D01*
X11600000Y-5355000D02*
X11400000Y-5555000D01*
X11400000Y-5900000D02*
X11600000Y-6100000D01*
X11600000Y-5900000D02*
X11400000Y-6100000D01*
X11400000Y-6445000D02*
X11600000Y-6645000D01*
X11600000Y-6445000D02*
X11400000Y-6645000D01*
X11400000Y-9310000D02*
X11600000Y-9510000D01*
X11600000Y-9310000D02*
X11400000Y-9510000D01*
X11400000Y-9855000D02*
X11600000Y-10055000D01*
X11600000Y-9855000D02*
X11400000Y-10055000D01*
X11400000Y-10400000D02*
X11600000Y-10600000D01*
X11600000Y-10400000D02*
X11400000Y-10600000D01*
X11900000Y-2355000D02*
X12100000Y-2555000D01*
X12100000Y-2355000D02*
X11900000Y-2555000D01*
X11900000Y-2900000D02*
X12100000Y-3100000D01*
X12100000Y-2900000D02*
X11900000Y-3100000D01*
X11900000Y-3445000D02*
X12100000Y-3645000D01*
X12100000Y-3445000D02*
X11900000Y-3645000D01*
X11900000Y-5355000D02*
X12100000Y-5555000D01*
X12100000Y-5355000D02*
X11900000Y-5555000D01*
X11900000Y-5900000D02*
X12100000Y-6100000D01*
X12100000Y-5900000D02*
X11900000Y-6100000D01*
X11900000Y-6445000D02*
X12100000Y-6645000D01*
X12100000Y-6445000D02*
X11900000Y-6645000D01*
X11900000Y-9310000D02*
X12100000Y-9510000D01*
X12100000Y-9310000D02*
X11900000Y-9510000D01*
X11900000Y-9855000D02*
X12100000Y-10055000D01*
X12100000Y-9855000D02*
X11900000Y-10055000D01*
X11900000Y-10400000D02*
X12100000Y-10600000D01*
X12100000Y-10400000D02*
X11900000Y-10600000D01*
X12400000Y-2355000D02*
X12600000Y-2555000D01*
X12600000Y-2355000D02*
X12400000Y-2555000D01*
X12400000Y-2900000D02*
X12600000Y-3100000D01*
X12600000Y-2900000D02*
X12400000Y-3100000D01*
X12400000Y-3445000D02*
X12600000Y-3645000D01*
X12600000Y-3445000D02*
X12400000Y-3645000D01*
X12400000Y-5355000D02*
X12600000Y-5555000D01*
X12600000Y-5355000D02*
X12400000Y-5555000D01*
X12400000Y-5900000D02*
X12600000Y-6100000D01*
X12600000Y-5900000D02*
X12400000Y-6100000D01*
X12400000Y-6445000D02*
X12600000Y-6645000D01*
X12600000Y-6445000D02*
X12400000Y-6645000D01*
X12400000Y-9310000D02*
X12600000Y-9510000D01*
X12600000Y-9310000D02*
X12400000Y-9510000D01*
X12400000Y-9855000D02*
X12600000Y-10055000D01*
X12600000Y-9855000D02*
X12400000Y-10055000D01*
X12400000Y-10400000D02*
X12600000Y-10600000D01*
X12600000Y-10400000D02*
X12400000Y-10600000D01*
X12900000Y-2355000D02*
X13100000Y-2555000D01*
X13100000Y-2355000D02*
X12900000Y-2555000D01*
X12900000Y-2900000D02*
X13100000Y-3100000D01*
X13100000Y-2900000D02*
X12900000Y-3100000D01*
X12900000Y-3445000D02*
X13100000Y-3645000D01*
X13100000Y-3445000D02*
X12900000Y-3645000D01*
X12900000Y-5355000D02*
X13100000Y-5555000D01*
X13100000Y-5355000D02*
X12900000Y-5555000D01*
X12900000Y-5900000D02*
X13100000Y-6100000D01*
X13100000Y-5900000D02*
X12900000Y-6100000D01*
X12900000Y-6445000D02*
X13100000Y-6645000D01*
X13100000Y-6445000D02*
X12900000Y-6645000D01*
X12900000Y-9310000D02*
X13100000Y-9510000D01*
X13100000Y-9310000D02*
X12900000Y-9510000D01*
X12900000Y-9855000D02*
X13100000Y-10055000D01*
X13100000Y-9855000D02*
X12900000Y-10055000D01*
X12900000Y-10400000D02*
X13100000Y-10600000D01*
X13100000Y-10400000D02*
X12900000Y-10600000D01*
X13400000Y-2355000D02*
X13600000Y-2555000D01*
X13600000Y-2355000D02*
X13400000Y-2555000D01*
X13400000Y-2900000D02*
X13600000Y-3100000D01*
X13600000Y-2900000D02*
X13400000Y-3100000D01*
X13400000Y-3445000D02*
X13600000Y-3645000D01*
X13600000Y-3445000D02*
X13400000Y-3645000D01*
X13400000Y-5355000D02*
X13600000Y-5555000D01*
X13600000Y-5355000D02*
X13400000Y-5555000D01*
X13400000Y-5900000D02*
X13600000Y-6100000D01*
X13600000Y-5900000D02*
X13400000Y-6100000D01*
X13400000Y-6445000D02*
X13600000Y-6645000D01*
X13600000Y-6445000D02*
X13400000Y-6645000D01*
X13400000Y-9310000D02*
X13600000Y-9510000D01*
X13600000Y-9310000D02*
X13400000Y-9510000D01*
X13400000Y-9855000D02*
X13600000Y-10055000D01*
X13600000Y-9855000D02*
X13400000Y-10055000D01*
X13400000Y-10400000D02*
X13600000Y-10600000D01*
X13600000Y-10400000D02*
X13400000Y-10600000D01*
X14400000Y-2355000D02*
X14600000Y-2555000D01*
X14600000Y-2355000D02*
X14400000Y-2555000D01*
X14400000Y-2900000D02*
X14600000Y-3100000D01*
X14600000Y-2900000D02*
X14400000Y-3100000D01*
X14400000Y-3445000D02*
X14600000Y-3645000D01*
X14600000Y-3445000D02*
X14400000Y-3645000D01*
X14400000Y-5355000D02*
X14600000Y-5555000D01*
X14600000Y-5355000D02*
X14400000Y-5555000D01*
X14400000Y-5900000D02*
X14600000Y-6100000D01*
X14600000Y-5900000D02*
X14400000Y-6100000D01*
X14400000Y-6445000D02*
X14600000Y-6645000D01*
X14600000Y-6445000D02*
X14400000Y-6645000D01*
X14400000Y-9310000D02*
X14600000Y-9510000D01*
X14600000Y-9310000D02*
X14400000Y-9510000D01*
X14400000Y-9855000D02*
X14600000Y-10055000D01*
X14600000Y-9855000D02*
X14400000Y-10055000D01*
X14400000Y-10400000D02*
X14600000Y-10600000D01*
X14600000Y-10400000D02*
X14400000Y-10600000D01*
X14900000Y-2355000D02*
X15100000Y-2555000D01*
X15100000Y-2355000D02*
X14900000Y-2555000D01*
X14900000Y-2900000D02*
X15100000Y-3100000D01*
X15100000Y-2900000D02*
X14900000Y-3100000D01*
X14900000Y-3445000D02*
X15100000Y-3645000D01*
X15100000Y-3445000D02*
X14900000Y-3645000D01*
X14900000Y-5355000D02*
X15100000Y-5555000D01*
X15100000Y-5355000D02*
X14900000Y-5555000D01*
X14900000Y-5900000D02*
X15100000Y-6100000D01*
X15100000Y-5900000D02*
X14900000Y-6100000D01*
X14900000Y-6445000D02*
X15100000Y-6645000D01*
X15100000Y-6445000D02*
X14900000Y-6645000D01*
X14900000Y-9310000D02*
X15100000Y-9510000D01*
X15100000Y-9310000D02*
X14900000Y-9510000D01*
X14900000Y-9855000D02*
X15100000Y-10055000D01*
X15100000Y-9855000D02*
X14900000Y-10055000D01*
X14900000Y-10400000D02*
X15100000Y-10600000D01*
X15100000Y-10400000D02*
X14900000Y-10600000D01*
X15400000Y-2355000D02*
X15600000Y-2555000D01*
X15600000Y-2355000D02*
X15400000Y-2555000D01*
X15400000Y-2900000D02*
X15600000Y-3100000D01*
X15600000Y-2900000D02*
X15400000Y-3100000D01*
X15400000Y-3445000D02*
X15600000Y-3645000D01*
X15600000Y-3445000D02*
X15400000Y-3645000D01*
X15400000Y-5355000D02*
X15600000Y-5555000D01*
X15600000Y-5355000D02*
X15400000Y-5555000D01*
X15400000Y-5900000D02*
X15600000Y-6100000D01*
X15600000Y-5900000D02*
X15400000Y-6100000D01*
X15400000Y-6445000D02*
X15600000Y-6645000D01*
X15600000Y-6445000D02*
X15400000Y-6645000D01*
X15400000Y-9310000D02*
X15600000Y-9510000D01*
X15600000Y-9310000D02*
X15400000Y-9510000D01*
X15400000Y-9855000D02*
X15600000Y-10055000D01*
X15600000Y-9855000D02*
X15400000Y-10055000D01*
X15400000Y-10400000D02*
X15600000Y-10600000D01*
X15600000Y-10400000D02*
X15400000Y-10600000D01*
X15900000Y-2355000D02*
X16100000Y-2555000D01*
X16100000Y-2355000D02*
X15900000Y-2555000D01*
X15900000Y-2900000D02*
X16100000Y-3100000D01*
X16100000Y-2900000D02*
X15900000Y-3100000D01*
X15900000Y-3445000D02*
X16100000Y-3645000D01*
X16100000Y-3445000D02*
X15900000Y-3645000D01*
X15900000Y-5355000D02*
X16100000Y-5555000D01*
X16100000Y-5355000D02*
X15900000Y-5555000D01*
X15900000Y-5900000D02*
X16100000Y-6100000D01*
X16100000Y-5900000D02*
X15900000Y-6100000D01*
X15900000Y-6445000D02*
X16100000Y-6645000D01*
X16100000Y-6445000D02*
X15900000Y-6645000D01*
X15900000Y-9310000D02*
X16100000Y-9510000D01*
X16100000Y-9310000D02*
X15900000Y-9510000D01*
X15900000Y-9855000D02*
X16100000Y-10055000D01*
X16100000Y-9855000D02*
X15900000Y-10055000D01*
X15900000Y-10400000D02*
X16100000Y-10600000D01*
X16100000Y-10400000D02*
X15900000Y-10600000D01*
X16400000Y-2355000D02*
X16600000Y-2555000D01*
X16600000Y-2355000D02*
X16400000Y-2555000D01*
X16400000Y-2900000D02*
X16600000Y-3100000D01*
X16600000Y-2900000D02*
X16400000Y-3100000D01*
X16400000Y-3445000D02*
X16600000Y-3645000D01*
X16600000Y-3445000D02*
X16400000Y-3645000D01*
X16400000Y-5355000D02*
X16600000Y-5555000D01*
X16600000Y-5355000D02*
X16400000Y-5555000D01*
X16400000Y-5900000D02*
X16600000Y-6100000D01*
X16600000Y-5900000D02*
X16400000Y-6100000D01*
X16400000Y-6445000D02*
X16600000Y-6645000D01*
X16600000Y-6445000D02*
X16400000Y-6645000D01*
X16400000Y-9310000D02*
X16600000Y-9510000D01*
X16600000Y-9310000D02*
X16400000Y-9510000D01*
X16400000Y-9855000D02*
X16600000Y-10055000D01*
X16600000Y-9855000D02*
X16400000Y-10055000D01*
X16400000Y-10400000D02*
X16600000Y-10600000D01*
X16600000Y-10400000D02*
X16400000Y-10600000D01*
X17400000Y-2355000D02*
X17600000Y-2555000D01*
X17600000Y-2355000D02*
X17400000Y-2555000D01*
X17400000Y-2900000D02*
X17600000Y-3100000D01*
X17600000Y-2900000D02*
X17400000Y-3100000D01*
X17400000Y-3445000D02*
X17600000Y-3645000D01*
X17600000Y-3445000D02*
X17400000Y-3645000D01*
X17400000Y-5355000D02*
X17600000Y-5555000D01*
X17600000Y-5355000D02*
X17400000Y-5555000D01*
X17400000Y-5900000D02*
X17600000Y-6100000D01*
X17600000Y-5900000D02*
X17400000Y-6100000D01*
X17400000Y-6445000D02*
X17600000Y-6645000D01*
X17600000Y-6445000D02*
X17400000Y-6645000D01*
X17400000Y-9310000D02*
X17600000Y-9510000D01*
X17600000Y-9310000D02*
X17400000Y-9510000D01*
X17400000Y-9855000D02*
X17600000Y-10055000D01*
X17600000Y-9855000D02*
X17400000Y-10055000D01*
X17400000Y-10400000D02*
X17600000Y-10600000D01*
X17600000Y-10400000D02*
X17400000Y-10600000D01*
X17900000Y-2355000D02*
X18100000Y-2555000D01*
X18100000Y-2355000D02*
X17900000Y-2555000D01*
X17900000Y-2900000D02*
X18100000Y-3100000D01*
X18100000Y-2900000D02*
X17900000Y-3100000D01*
X17900000Y-3445000D02*
X18100000Y-3645000D01*
X18100000Y-3445000D02*
X17900000Y-3645000D01*
X17900000Y-5355000D02*
X18100000Y-5555000D01*
X18100000Y-5355000D02*
X17900000Y-5555000D01*
X17900000Y-5900000D02*
X18100000Y-6100000D01*
X18100000Y-5900000D02*
X17900000Y-6100000D01*
X17900000Y-6445000D02*
X18100000Y-6645000D01*
X18100000Y-6445000D02*
X17900000Y-6645000D01*
X17900000Y-9310000D02*
X18100000Y-9510000D01*
X18100000Y-9310000D02*
X17900000Y-9510000D01*
X17900000Y-9855000D02*
X18100000Y-10055000D01*
X18100000Y-9855000D02*
X17900000Y-10055000D01*
X17900000Y-10400000D02*
X18100000Y-10600000D01*
X18100000Y-10400000D02*
X17900000Y-10600000D01*
X18400000Y-2355000D02*
X18600000Y-2555000D01*
X18600000Y-2355000D02*
X18400000Y-2555000D01*
X18400000Y-2900000D02*
X18600000Y-3100000D01*
X18600000Y-2900000D02*
X18400000Y-3100000D01*
X18400000Y-3445000D02*
X18600000Y-3645000D01*
X18600000Y-3445000D02*
X18400000Y-3645000D01*
X18400000Y-5355000D02*
X18600000Y-5555000D01*
X18600000Y-5355000D02*
X18400000Y-5555000D01*
X18400000Y-5900000D02*
X18600000Y-6100000D01*
X18600000Y-5900000D02*
X18400000Y-6100000D01*
X18400000Y-6445000D02*
X18600000Y-6645000D01*
X18600000Y-6445000D02*
X18400000Y-6645000D01*
X18400000Y-9310000D02*
X18600000Y-9510000D01*
X18600000Y-9310000D02*
X18400000Y-9510000D01*
X18400000Y-9855000D02*
X18600000Y-10055000D01*
X18600000Y-9855000D02*
X18400000Y-10055000D01*
X18400000Y-10400000D02*
X18600000Y-10600000D01*
X18600000Y-10400000D02*
X18400000Y-10600000D01*
X18900000Y-2355000D02*
X19100000Y-2555000D01*
X19100000Y-2355000D02*
X18900000Y-2555000D01*
X18900000Y-2900000D02*
X19100000Y-3100000D01*
X19100000Y-2900000D02*
X18900000Y-3100000D01*
X18900000Y-3445000D02*
X19100000Y-3645000D01*
X19100000Y-3445000D02*
X18900000Y-3645000D01*
X18900000Y-5355000D02*
X19100000Y-5555000D01*
X19100000Y-5355000D02*
X18900000Y-5555000D01*
X18900000Y-5900000D02*
X19100000Y-6100000D01*
X19100000Y-5900000D02*
X18900000Y-6100000D01*
X18900000Y-6445000D02*
X19100000Y-6645000D01*
X19100000Y-6445000D02*
X18900000Y-6645000D01*
X18900000Y-9310000D02*
X19100000Y-9510000D01*
X19100000Y-9310000D02*
X18900000Y-9510000D01*
X18900000Y-9855000D02*
X19100000Y-10055000D01*
X19100000Y-9855000D02*
X18900000Y-10055000D01*
X18900000Y-10400000D02*
X19100000Y-10600000D01*
X19100000Y-10400000D02*
X18900000Y-10600000D01*
X19400000Y-2355000D02*
X19600000Y-2555000D01*
X19600000Y-2355000D02*
X19400000Y-2555000D01*
X19400000Y-2900000D02*
X19600000Y-3100000D01*
X19600000Y-2900000D02*
X19400000Y-3100000D01*
X19400000Y-3445000D02*
X19600000Y-3645000D01*
X19600000Y-3445000D02*
X19400000Y-3645000D01*
X19400000Y-5355000D02*
X19600000Y-5555000D01*
X19600000Y-5355000D02*
X19400000Y-5555000D01*
X19400000Y-5900000D02*
X19600000Y-6100000D01*
X19600000Y-5900000D02*
X19400000Y-6100000D01*
X19400000Y-6445000D02*
X19600000Y-6645000D01*
X19600000Y-6445000D02*
X19400000Y-6645000D01*
X19400000Y-9310000D02*
X19600000Y-9510000D01*
X19600000Y-9310000D02*
X19400000Y-9510000D01*
X19400000Y-9855000D02*
X19600000Y-10055000D01*
X19600000Y-9855000D02*
X19400000Y-10055000D01*
X19400000Y-10400000D02*
X19600000Y-10600000D01*
X19600000Y-10400000D02*
X19400000Y-10600000D01*
X20400000Y-2355000D02*
X20600000Y-2555000D01*
X20600000Y-2355000D02*
X20400000Y-2555000D01*
X20400000Y-2900000D02*
X20600000Y-3100000D01*
X20600000Y-2900000D02*
X20400000Y-3100000D01*
X20400000Y-3445000D02*
X20600000Y-3645000D01*
X20600000Y-3445000D02*
X20400000Y-3645000D01*
X20400000Y-5355000D02*
X20600000Y-5555000D01*
X20600000Y-5355000D02*
X20400000Y-5555000D01*
X20400000Y-5900000D02*
X20600000Y-6100000D01*
X20600000Y-5900000D02*
X20400000Y-6100000D01*
X20400000Y-6445000D02*
X20600000Y-6645000D01*
X20600000Y-6445000D02*
X20400000Y-6645000D01*
X20400000Y-9310000D02*
X20600000Y-9510000D01*
X20600000Y-9310000D02*
X20400000Y-9510000D01*
X20400000Y-9855000D02*
X20600000Y-10055000D01*
X20600000Y-9855000D02*
X20400000Y-10055000D01*
X20400000Y-10400000D02*
X20600000Y-10600000D01*
X20600000Y-10400000D02*
X20400000Y-10600000D01*
X20900000Y-2355000D02*
X21100000Y-2555000D01*
X21100000Y-2355000D02*
X20900000Y-2555000D01*
X20900000Y-2900000D02*
X21100000Y-3100000D01*
X21100000Y-2900000D02*
X20900000Y-3100000D01*
X20900000Y-3445000D02*
X21100000Y-3645000D01*
X21100000Y-3445000D02*
X20900000Y-3645000D01*
X20900000Y-5355000D02*
X21100000Y-5555000D01*
X21100000Y-5355000D02*
X20900000Y-5555000D01*
X20900000Y-5900000D02*
X21100000Y-6100000D01*
X21100000Y-5900000D02*
X20900000Y-6100000D01*
X20900000Y-6445000D02*
X21100000Y-6645000D01*
X21100000Y-6445000D02*
X20900000Y-6645000D01*
X20900000Y-9310000D02*
X21100000Y-9510000D01*
X21100000Y-9310000D02*
X20900000Y-9510000D01*
X20900000Y-9855000D02*
X21100000Y-10055000D01*
X21100000Y-9855000D02*
X20900000Y-10055000D01*
X20900000Y-10400000D02*
X21100000Y-10600000D01*
X21100000Y-10400000D02*
X20900000Y-10600000D01*
X21400000Y-2355000D02*
X21600000Y-2555000D01*
X21600000Y-2355000D02*
X21400000Y-2555000D01*
X21400000Y-2900000D02*
X21600000Y-3100000D01*
X21600000Y-2900000D02*
X21400000Y-3100000D01*
X21400000Y-3445000D02*
X21600000Y-3645000D01*
X21600000Y-3445000D02*
X21400000Y-3645000D01*
X21400000Y-5355000D02*
X21600000Y-5555000D01*
X21600000Y-5355000D02*
X21400000Y-5555000D01*
X21400000Y-5900000D02*
X21600000Y-6100000D01*
X21600000Y-5900000D02*
X21400000Y-6100000D01*
X21400000Y-6445000D02*
X21600000Y-6645000D01*
X21600000Y-6445000D02*
X21400000Y-6645000D01*
X21400000Y-9310000D02*
X21600000Y-9510000D01*
X21600000Y-9310000D02*
X21400000Y-9510000D01*
X21400000Y-9855000D02*
X21600000Y-10055000D01*
X21600000Y-9855000D02*
X21400000Y-10055000D01*
X21400000Y-10400000D02*
X21600000Y-10600000D01*
X21600000Y-10400000D02*
X21400000Y-10600000D01*
X21900000Y-2355000D02*
X22100000Y-2555000D01*
X22100000Y-2355000D02*
X21900000Y-2555000D01*
X21900000Y-2900000D02*
X22100000Y-3100000D01*
X22100000Y-2900000D02*
X21900000Y-3100000D01*
X21900000Y-3445000D02*
X22100000Y-3645000D01*
X22100000Y-3445000D02*
X21900000Y-3645000D01*
X21900000Y-5355000D02*
X22100000Y-5555000D01*
X22100000Y-5355000D02*
X21900000Y-5555000D01*
X21900000Y-5900000D02*
X22100000Y-6100000D01*
X22100000Y-5900000D02*
X21900000Y-6100000D01*
X21900000Y-6445000D02*
X22100000Y-6645000D01*
X22100000Y-6445000D02*
X21900000Y-6645000D01*
X21900000Y-9310000D02*
X22100000Y-9510000D01*
X22100000Y-9310000D02*
X21900000Y-9510000D01*
X21900000Y-9855000D02*
X22100000Y-10055000D01*
X22100000Y-9855000D02*
X21900000Y-10055000D01*
X21900000Y-10400000D02*
X22100000Y-10600000D01*
X22100000Y-10400000D02*
X21900000Y-10600000D01*
X22400000Y-2355000D02*
X22600000Y-2555000D01*
X22600000Y-2355000D02*
X22400000Y-2555000D01*
X22400000Y-2900000D02*
X22600000Y-3100000D01*
X22600000Y-2900000D02*
X22400000Y-3100000D01*
X22400000Y-3445000D02*
X22600000Y-3645000D01*
X22600000Y-3445000D02*
X22400000Y-3645000D01*
X22400000Y-5355000D02*
X22600000Y-5555000D01*
X22600000Y-5355000D02*
X22400000Y-5555000D01*
X22400000Y-5900000D02*
X22600000Y-6100000D01*
X22600000Y-5900000D02*
X22400000Y-6100000D01*
X22400000Y-6445000D02*
X22600000Y-6645000D01*
X22600000Y-6445000D02*
X22400000Y-6645000D01*
X22400000Y-9310000D02*
X22600000Y-9510000D01*
X22600000Y-9310000D02*
X22400000Y-9510000D01*
X22400000Y-9855000D02*
X22600000Y-10055000D01*
X22600000Y-9855000D02*
X22400000Y-10055000D01*
X22400000Y-10400000D02*
X22600000Y-10600000D01*
X22600000Y-10400000D02*
X22400000Y-10600000D01*
X23400000Y-2355000D02*
X23600000Y-2555000D01*
X23600000Y-2355000D02*
X23400000Y-2555000D01*
X23400000Y-2900000D02*
X23600000Y-3100000D01*
X23600000Y-2900000D02*
X23400000Y-3100000D01*
X23400000Y-3445000D02*
X23600000Y-3645000D01*
X23600000Y-3445000D02*
X23400000Y-3645000D01*
X23400000Y-9310000D02*
X23600000Y-9510000D01*
X23600000Y-9310000D02*
X23400000Y-9510000D01*
X23400000Y-9855000D02*
X23600000Y-10055000D01*
X23600000Y-9855000D02*
X23400000Y-10055000D01*
X23400000Y-10400000D02*
X23600000Y-10600000D01*
X23600000Y-10400000D02*
X23400000Y-10600000D01*
X23900000Y-2355000D02*
X24100000Y-2555000D01*
X24100000Y-2355000D02*
X23900000Y-2555000D01*
X23900000Y-2900000D02*
X24100000Y-3100000D01*
X24100000Y-2900000D02*
X23900000Y-3100000D01*
X23900000Y-3445000D02*
X24100000Y-3645000D01*
X24100000Y-3445000D02*
X23900000Y-3645000D01*
X23900000Y-5900000D02*
X24100000Y-6100000D01*
X24100000Y-5900000D02*
X23900000Y-6100000D01*
X23900000Y-9310000D02*
X24100000Y-9510000D01*
X24100000Y-9310000D02*
X23900000Y-9510000D01*
X23900000Y-9855000D02*
X24100000Y-10055000D01*
X24100000Y-9855000D02*
X23900000Y-10055000D01*
X23900000Y-10400000D02*
X24100000Y-10600000D01*
X24100000Y-10400000D02*
X23900000Y-10600000D01*
X24400000Y-2355000D02*
X24600000Y-2555000D01*
X24600000Y-2355000D02*
X24400000Y-2555000D01*
X24400000Y-2900000D02*
X24600000Y-3100000D01*
X24600000Y-2900000D02*
X24400000Y-3100000D01*
X24400000Y-3445000D02*
X24600000Y-3645000D01*
X24600000Y-3445000D02*
X24400000Y-3645000D01*
X24400000Y-9310000D02*
X24600000Y-9510000D01*
X24600000Y-9310000D02*
X24400000Y-9510000D01*
X24400000Y-9855000D02*
X24600000Y-10055000D01*
X24600000Y-9855000D02*
X24400000Y-10055000D01*
X24400000Y-10400000D02*
X24600000Y-10600000D01*
X24600000Y-10400000D02*
X24400000Y-10600000D01*
X24900000Y-2355000D02*
X25100000Y-2555000D01*
X25100000Y-2355000D02*
X24900000Y-2555000D01*
X24900000Y-2900000D02*
X25100000Y-3100000D01*
X25100000Y-2900000D02*
X24900000Y-3100000D01*
X24900000Y-3445000D02*
X25100000Y-3645000D01*
X25100000Y-3445000D02*
X24900000Y-3645000D01*
X24900000Y-9310000D02*
X25100000Y-9510000D01*
X25100000Y-9310000D02*
X24900000Y-9510000D01*
X24900000Y-9855000D02*
X25100000Y-10055000D01*
X25100000Y-9855000D02*
X24900000Y-10055000D01*
X24900000Y-10400000D02*
X25100000Y-10600000D01*
X25100000Y-10400000D02*
X24900000Y-10600000D01*
X25400000Y-2355000D02*
X25600000Y-2555000D01*
X25600000Y-2355000D02*
X25400000Y-2555000D01*
X25400000Y-2900000D02*
X25600000Y-3100000D01*
X25600000Y-2900000D02*
X25400000Y-3100000D01*
X25400000Y-3445000D02*
X25600000Y-3645000D01*
X25600000Y-3445000D02*
X25400000Y-3645000D01*
X25400000Y-9310000D02*
X25600000Y-9510000D01*
X25600000Y-9310000D02*
X25400000Y-9510000D01*
X25400000Y-9855000D02*
X25600000Y-10055000D01*
X25600000Y-9855000D02*
X25400000Y-10055000D01*
X25400000Y-10400000D02*
X25600000Y-10600000D01*
X25600000Y-10400000D02*
X25400000Y-10600000D01*
X25855000Y-3855000D02*
X26055000Y-4055000D01*
X26055000Y-3855000D02*
X25855000Y-4055000D01*
X25855000Y-4355000D02*
X26055000Y-4555000D01*
X26055000Y-4355000D02*
X25855000Y-4555000D01*
X25855000Y-4855000D02*
X26055000Y-5055000D01*
X26055000Y-4855000D02*
X25855000Y-5055000D01*
X25855000Y-5355000D02*
X26055000Y-5555000D01*
X26055000Y-5355000D02*
X25855000Y-5555000D01*
X25855000Y-5855000D02*
X26055000Y-6055000D01*
X26055000Y-5855000D02*
X25855000Y-6055000D01*
X25855000Y-6855000D02*
X26055000Y-7055000D01*
X26055000Y-6855000D02*
X25855000Y-7055000D01*
X25855000Y-7355000D02*
X26055000Y-7555000D01*
X26055000Y-7355000D02*
X25855000Y-7555000D01*
X25855000Y-7855000D02*
X26055000Y-8055000D01*
X26055000Y-7855000D02*
X25855000Y-8055000D01*
X25855000Y-8355000D02*
X26055000Y-8555000D01*
X26055000Y-8355000D02*
X25855000Y-8555000D01*
X25855000Y-8855000D02*
X26055000Y-9055000D01*
X26055000Y-8855000D02*
X25855000Y-9055000D01*
X26400000Y-3855000D02*
X26600000Y-4055000D01*
X26600000Y-3855000D02*
X26400000Y-4055000D01*
X26400000Y-4355000D02*
X26600000Y-4555000D01*
X26600000Y-4355000D02*
X26400000Y-4555000D01*
X26400000Y-4855000D02*
X26600000Y-5055000D01*
X26600000Y-4855000D02*
X26400000Y-5055000D01*
X26400000Y-5355000D02*
X26600000Y-5555000D01*
X26600000Y-5355000D02*
X26400000Y-5555000D01*
X26400000Y-5855000D02*
X26600000Y-6055000D01*
X26600000Y-5855000D02*
X26400000Y-6055000D01*
X26400000Y-6855000D02*
X26600000Y-7055000D01*
X26600000Y-6855000D02*
X26400000Y-7055000D01*
X26400000Y-7355000D02*
X26600000Y-7555000D01*
X26600000Y-7355000D02*
X26400000Y-7555000D01*
X26400000Y-7855000D02*
X26600000Y-8055000D01*
X26600000Y-7855000D02*
X26400000Y-8055000D01*
X26400000Y-8355000D02*
X26600000Y-8555000D01*
X26600000Y-8355000D02*
X26400000Y-8555000D01*
X26400000Y-8855000D02*
X26600000Y-9055000D01*
X26600000Y-8855000D02*
X26400000Y-9055000D01*
X26945000Y-3855000D02*
X27145000Y-4055000D01*
X27145000Y-3855000D02*
X26945000Y-4055000D01*
X26945000Y-4355000D02*
X27145000Y-4555000D01*
X27145000Y-4355000D02*
X26945000Y-4555000D01*
X26945000Y-4855000D02*
X27145000Y-5055000D01*
X27145000Y-4855000D02*
X26945000Y-5055000D01*
X26945000Y-5355000D02*
X27145000Y-5555000D01*
X27145000Y-5355000D02*
X26945000Y-5555000D01*
X26945000Y-5855000D02*
X27145000Y-6055000D01*
X27145000Y-5855000D02*
X26945000Y-6055000D01*
X26945000Y-6855000D02*
X27145000Y-7055000D01*
X27145000Y-6855000D02*
X26945000Y-7055000D01*
X26945000Y-7355000D02*
X27145000Y-7555000D01*
X27145000Y-7355000D02*
X26945000Y-7555000D01*
X26945000Y-7855000D02*
X27145000Y-8055000D01*
X27145000Y-7855000D02*
X26945000Y-8055000D01*
X26945000Y-8355000D02*
X27145000Y-8555000D01*
X27145000Y-8355000D02*
X26945000Y-8555000D01*
X26945000Y-8855000D02*
X27145000Y-9055000D01*
X27145000Y-8855000D02*
X26945000Y-9055000D01*
X2258277Y-11768984D02*
X2258277Y-11568984D01*
X2258277Y-11568984D02*
X2305896Y-11568984D01*
X2305896Y-11568984D02*
X2334467Y-11578508D01*
X2334467Y-11578508D02*
X2353515Y-11597555D01*
X2353515Y-11597555D02*
X2363039Y-11616603D01*
X2363039Y-11616603D02*
X2372563Y-11654698D01*
X2372563Y-11654698D02*
X2372563Y-11683269D01*
X2372563Y-11683269D02*
X2363039Y-11721365D01*
X2363039Y-11721365D02*
X2353515Y-11740412D01*
X2353515Y-11740412D02*
X2334467Y-11759460D01*
X2334467Y-11759460D02*
X2305896Y-11768984D01*
X2305896Y-11768984D02*
X2258277Y-11768984D01*
X2458277Y-11768984D02*
X2458277Y-11635650D01*
X2458277Y-11673746D02*
X2467801Y-11654698D01*
X2467801Y-11654698D02*
X2477324Y-11645174D01*
X2477324Y-11645174D02*
X2496372Y-11635650D01*
X2496372Y-11635650D02*
X2515420Y-11635650D01*
X2582086Y-11768984D02*
X2582086Y-11635650D01*
X2582086Y-11568984D02*
X2572563Y-11578508D01*
X2572563Y-11578508D02*
X2582086Y-11588031D01*
X2582086Y-11588031D02*
X2591610Y-11578508D01*
X2591610Y-11578508D02*
X2582086Y-11568984D01*
X2582086Y-11568984D02*
X2582086Y-11588031D01*
X2705896Y-11768984D02*
X2686848Y-11759460D01*
X2686848Y-11759460D02*
X2677324Y-11740412D01*
X2677324Y-11740412D02*
X2677324Y-11568984D01*
X2810658Y-11768984D02*
X2791610Y-11759460D01*
X2791610Y-11759460D02*
X2782086Y-11740412D01*
X2782086Y-11740412D02*
X2782086Y-11568984D01*
X3039229Y-11768984D02*
X3039229Y-11568984D01*
X3039229Y-11568984D02*
X3105896Y-11711841D01*
X3105896Y-11711841D02*
X3172562Y-11568984D01*
X3172562Y-11568984D02*
X3172562Y-11768984D01*
X3353515Y-11768984D02*
X3353515Y-11664222D01*
X3353515Y-11664222D02*
X3343991Y-11645174D01*
X3343991Y-11645174D02*
X3324943Y-11635650D01*
X3324943Y-11635650D02*
X3286848Y-11635650D01*
X3286848Y-11635650D02*
X3267801Y-11645174D01*
X3353515Y-11759460D02*
X3334467Y-11768984D01*
X3334467Y-11768984D02*
X3286848Y-11768984D01*
X3286848Y-11768984D02*
X3267801Y-11759460D01*
X3267801Y-11759460D02*
X3258277Y-11740412D01*
X3258277Y-11740412D02*
X3258277Y-11721365D01*
X3258277Y-11721365D02*
X3267801Y-11702317D01*
X3267801Y-11702317D02*
X3286848Y-11692793D01*
X3286848Y-11692793D02*
X3334467Y-11692793D01*
X3334467Y-11692793D02*
X3353515Y-11683269D01*
X3448753Y-11635650D02*
X3448753Y-11835650D01*
X3448753Y-11645174D02*
X3467801Y-11635650D01*
X3467801Y-11635650D02*
X3505896Y-11635650D01*
X3505896Y-11635650D02*
X3524943Y-11645174D01*
X3524943Y-11645174D02*
X3534467Y-11654698D01*
X3534467Y-11654698D02*
X3543991Y-11673746D01*
X3543991Y-11673746D02*
X3543991Y-11730888D01*
X3543991Y-11730888D02*
X3534467Y-11749936D01*
X3534467Y-11749936D02*
X3524943Y-11759460D01*
X3524943Y-11759460D02*
X3505896Y-11768984D01*
X3505896Y-11768984D02*
X3467801Y-11768984D01*
X3467801Y-11768984D02*
X3448753Y-11759460D01*
X3629705Y-11749936D02*
X3639229Y-11759460D01*
X3639229Y-11759460D02*
X3629705Y-11768984D01*
X3629705Y-11768984D02*
X3620182Y-11759460D01*
X3620182Y-11759460D02*
X3629705Y-11749936D01*
X3629705Y-11749936D02*
X3629705Y-11768984D01*
X3629705Y-11645174D02*
X3639229Y-11654698D01*
X3639229Y-11654698D02*
X3629705Y-11664222D01*
X3629705Y-11664222D02*
X3620182Y-11654698D01*
X3620182Y-11654698D02*
X3629705Y-11645174D01*
X3629705Y-11645174D02*
X3629705Y-11664222D01*
X1797500Y-11997500D02*
X1997500Y-12197500D01*
X1997500Y-11997500D02*
X1797500Y-12197500D01*
X2248753Y-12008031D02*
X2258277Y-11998508D01*
X2258277Y-11998508D02*
X2277324Y-11988984D01*
X2277324Y-11988984D02*
X2324944Y-11988984D01*
X2324944Y-11988984D02*
X2343991Y-11998508D01*
X2343991Y-11998508D02*
X2353515Y-12008031D01*
X2353515Y-12008031D02*
X2363039Y-12027079D01*
X2363039Y-12027079D02*
X2363039Y-12046127D01*
X2363039Y-12046127D02*
X2353515Y-12074698D01*
X2353515Y-12074698D02*
X2239229Y-12188984D01*
X2239229Y-12188984D02*
X2363039Y-12188984D01*
X2448753Y-12169936D02*
X2458277Y-12179460D01*
X2458277Y-12179460D02*
X2448753Y-12188984D01*
X2448753Y-12188984D02*
X2439229Y-12179460D01*
X2439229Y-12179460D02*
X2448753Y-12169936D01*
X2448753Y-12169936D02*
X2448753Y-12188984D01*
X2582086Y-11988984D02*
X2601134Y-11988984D01*
X2601134Y-11988984D02*
X2620182Y-11998508D01*
X2620182Y-11998508D02*
X2629705Y-12008031D01*
X2629705Y-12008031D02*
X2639229Y-12027079D01*
X2639229Y-12027079D02*
X2648753Y-12065174D01*
X2648753Y-12065174D02*
X2648753Y-12112793D01*
X2648753Y-12112793D02*
X2639229Y-12150888D01*
X2639229Y-12150888D02*
X2629705Y-12169936D01*
X2629705Y-12169936D02*
X2620182Y-12179460D01*
X2620182Y-12179460D02*
X2601134Y-12188984D01*
X2601134Y-12188984D02*
X2582086Y-12188984D01*
X2582086Y-12188984D02*
X2563039Y-12179460D01*
X2563039Y-12179460D02*
X2553515Y-12169936D01*
X2553515Y-12169936D02*
X2543991Y-12150888D01*
X2543991Y-12150888D02*
X2534467Y-12112793D01*
X2534467Y-12112793D02*
X2534467Y-12065174D01*
X2534467Y-12065174D02*
X2543991Y-12027079D01*
X2543991Y-12027079D02*
X2553515Y-12008031D01*
X2553515Y-12008031D02*
X2563039Y-11998508D01*
X2563039Y-11998508D02*
X2582086Y-11988984D01*
X2772563Y-11988984D02*
X2791610Y-11988984D01*
X2791610Y-11988984D02*
X2810658Y-11998508D01*
X2810658Y-11998508D02*
X2820182Y-12008031D01*
X2820182Y-12008031D02*
X2829705Y-12027079D01*
X2829705Y-12027079D02*
X2839229Y-12065174D01*
X2839229Y-12065174D02*
X2839229Y-12112793D01*
X2839229Y-12112793D02*
X2829705Y-12150888D01*
X2829705Y-12150888D02*
X2820182Y-12169936D01*
X2820182Y-12169936D02*
X2810658Y-12179460D01*
X2810658Y-12179460D02*
X2791610Y-12188984D01*
X2791610Y-12188984D02*
X2772563Y-12188984D01*
X2772563Y-12188984D02*
X2753515Y-12179460D01*
X2753515Y-12179460D02*
X2743991Y-12169936D01*
X2743991Y-12169936D02*
X2734467Y-12150888D01*
X2734467Y-12150888D02*
X2724944Y-12112793D01*
X2724944Y-12112793D02*
X2724944Y-12065174D01*
X2724944Y-12065174D02*
X2734467Y-12027079D01*
X2734467Y-12027079D02*
X2743991Y-12008031D01*
X2743991Y-12008031D02*
X2753515Y-11998508D01*
X2753515Y-11998508D02*
X2772563Y-11988984D01*
X2963039Y-11988984D02*
X2982086Y-11988984D01*
X2982086Y-11988984D02*
X3001134Y-11998508D01*
X3001134Y-11998508D02*
X3010658Y-12008031D01*
X3010658Y-12008031D02*
X3020182Y-12027079D01*
X3020182Y-12027079D02*
X3029705Y-12065174D01*
X3029705Y-12065174D02*
X3029705Y-12112793D01*
X3029705Y-12112793D02*
X3020182Y-12150888D01*
X3020182Y-12150888D02*
X3010658Y-12169936D01*
X3010658Y-12169936D02*
X3001134Y-12179460D01*
X3001134Y-12179460D02*
X2982086Y-12188984D01*
X2982086Y-12188984D02*
X2963039Y-12188984D01*
X2963039Y-12188984D02*
X2943991Y-12179460D01*
X2943991Y-12179460D02*
X2934467Y-12169936D01*
X2934467Y-12169936D02*
X2924943Y-12150888D01*
X2924943Y-12150888D02*
X2915420Y-12112793D01*
X2915420Y-12112793D02*
X2915420Y-12065174D01*
X2915420Y-12065174D02*
X2924943Y-12027079D01*
X2924943Y-12027079D02*
X2934467Y-12008031D01*
X2934467Y-12008031D02*
X2943991Y-11998508D01*
X2943991Y-11998508D02*
X2963039Y-11988984D01*
X3115420Y-12188984D02*
X3115420Y-12055650D01*
X3115420Y-12074698D02*
X3124943Y-12065174D01*
X3124943Y-12065174D02*
X3143991Y-12055650D01*
X3143991Y-12055650D02*
X3172563Y-12055650D01*
X3172563Y-12055650D02*
X3191610Y-12065174D01*
X3191610Y-12065174D02*
X3201134Y-12084222D01*
X3201134Y-12084222D02*
X3201134Y-12188984D01*
X3201134Y-12084222D02*
X3210658Y-12065174D01*
X3210658Y-12065174D02*
X3229705Y-12055650D01*
X3229705Y-12055650D02*
X3258277Y-12055650D01*
X3258277Y-12055650D02*
X3277324Y-12065174D01*
X3277324Y-12065174D02*
X3286848Y-12084222D01*
X3286848Y-12084222D02*
X3286848Y-12188984D01*
X3382086Y-12188984D02*
X3382086Y-12055650D01*
X3382086Y-12074698D02*
X3391610Y-12065174D01*
X3391610Y-12065174D02*
X3410658Y-12055650D01*
X3410658Y-12055650D02*
X3439229Y-12055650D01*
X3439229Y-12055650D02*
X3458277Y-12065174D01*
X3458277Y-12065174D02*
X3467801Y-12084222D01*
X3467801Y-12084222D02*
X3467801Y-12188984D01*
X3467801Y-12084222D02*
X3477324Y-12065174D01*
X3477324Y-12065174D02*
X3496372Y-12055650D01*
X3496372Y-12055650D02*
X3524943Y-12055650D01*
X3524943Y-12055650D02*
X3543991Y-12065174D01*
X3543991Y-12065174D02*
X3553515Y-12084222D01*
X3553515Y-12084222D02*
X3553515Y-12188984D01*
X3943991Y-11979460D02*
X3772563Y-12236603D01*
X4201134Y-11988984D02*
X4220182Y-11988984D01*
X4220182Y-11988984D02*
X4239229Y-11998508D01*
X4239229Y-11998508D02*
X4248753Y-12008031D01*
X4248753Y-12008031D02*
X4258277Y-12027079D01*
X4258277Y-12027079D02*
X4267801Y-12065174D01*
X4267801Y-12065174D02*
X4267801Y-12112793D01*
X4267801Y-12112793D02*
X4258277Y-12150888D01*
X4258277Y-12150888D02*
X4248753Y-12169936D01*
X4248753Y-12169936D02*
X4239229Y-12179460D01*
X4239229Y-12179460D02*
X4220182Y-12188984D01*
X4220182Y-12188984D02*
X4201134Y-12188984D01*
X4201134Y-12188984D02*
X4182086Y-12179460D01*
X4182086Y-12179460D02*
X4172563Y-12169936D01*
X4172563Y-12169936D02*
X4163039Y-12150888D01*
X4163039Y-12150888D02*
X4153515Y-12112793D01*
X4153515Y-12112793D02*
X4153515Y-12065174D01*
X4153515Y-12065174D02*
X4163039Y-12027079D01*
X4163039Y-12027079D02*
X4172563Y-12008031D01*
X4172563Y-12008031D02*
X4182086Y-11998508D01*
X4182086Y-11998508D02*
X4201134Y-11988984D01*
X4353515Y-12169936D02*
X4363039Y-12179460D01*
X4363039Y-12179460D02*
X4353515Y-12188984D01*
X4353515Y-12188984D02*
X4343991Y-12179460D01*
X4343991Y-12179460D02*
X4353515Y-12169936D01*
X4353515Y-12169936D02*
X4353515Y-12188984D01*
X4486848Y-11988984D02*
X4505896Y-11988984D01*
X4505896Y-11988984D02*
X4524944Y-11998508D01*
X4524944Y-11998508D02*
X4534468Y-12008031D01*
X4534468Y-12008031D02*
X4543991Y-12027079D01*
X4543991Y-12027079D02*
X4553515Y-12065174D01*
X4553515Y-12065174D02*
X4553515Y-12112793D01*
X4553515Y-12112793D02*
X4543991Y-12150888D01*
X4543991Y-12150888D02*
X4534468Y-12169936D01*
X4534468Y-12169936D02*
X4524944Y-12179460D01*
X4524944Y-12179460D02*
X4505896Y-12188984D01*
X4505896Y-12188984D02*
X4486848Y-12188984D01*
X4486848Y-12188984D02*
X4467801Y-12179460D01*
X4467801Y-12179460D02*
X4458277Y-12169936D01*
X4458277Y-12169936D02*
X4448753Y-12150888D01*
X4448753Y-12150888D02*
X4439229Y-12112793D01*
X4439229Y-12112793D02*
X4439229Y-12065174D01*
X4439229Y-12065174D02*
X4448753Y-12027079D01*
X4448753Y-12027079D02*
X4458277Y-12008031D01*
X4458277Y-12008031D02*
X4467801Y-11998508D01*
X4467801Y-11998508D02*
X4486848Y-11988984D01*
X4620182Y-11988984D02*
X4753515Y-11988984D01*
X4753515Y-11988984D02*
X4667801Y-12188984D01*
X4858277Y-12074698D02*
X4839229Y-12065174D01*
X4839229Y-12065174D02*
X4829706Y-12055650D01*
X4829706Y-12055650D02*
X4820182Y-12036603D01*
X4820182Y-12036603D02*
X4820182Y-12027079D01*
X4820182Y-12027079D02*
X4829706Y-12008031D01*
X4829706Y-12008031D02*
X4839229Y-11998508D01*
X4839229Y-11998508D02*
X4858277Y-11988984D01*
X4858277Y-11988984D02*
X4896372Y-11988984D01*
X4896372Y-11988984D02*
X4915420Y-11998508D01*
X4915420Y-11998508D02*
X4924944Y-12008031D01*
X4924944Y-12008031D02*
X4934468Y-12027079D01*
X4934468Y-12027079D02*
X4934468Y-12036603D01*
X4934468Y-12036603D02*
X4924944Y-12055650D01*
X4924944Y-12055650D02*
X4915420Y-12065174D01*
X4915420Y-12065174D02*
X4896372Y-12074698D01*
X4896372Y-12074698D02*
X4858277Y-12074698D01*
X4858277Y-12074698D02*
X4839229Y-12084222D01*
X4839229Y-12084222D02*
X4829706Y-12093746D01*
X4829706Y-12093746D02*
X4820182Y-12112793D01*
X4820182Y-12112793D02*
X4820182Y-12150888D01*
X4820182Y-12150888D02*
X4829706Y-12169936D01*
X4829706Y-12169936D02*
X4839229Y-12179460D01*
X4839229Y-12179460D02*
X4858277Y-12188984D01*
X4858277Y-12188984D02*
X4896372Y-12188984D01*
X4896372Y-12188984D02*
X4915420Y-12179460D01*
X4915420Y-12179460D02*
X4924944Y-12169936D01*
X4924944Y-12169936D02*
X4934468Y-12150888D01*
X4934468Y-12150888D02*
X4934468Y-12112793D01*
X4934468Y-12112793D02*
X4924944Y-12093746D01*
X4924944Y-12093746D02*
X4915420Y-12084222D01*
X4915420Y-12084222D02*
X4896372Y-12074698D01*
X5001134Y-11988984D02*
X5134468Y-11988984D01*
X5134468Y-11988984D02*
X5048753Y-12188984D01*
X5201134Y-11988984D02*
X5201134Y-12027079D01*
X5277325Y-11988984D02*
X5277325Y-12027079D01*
X5572563Y-12265174D02*
X5563039Y-12255650D01*
X5563039Y-12255650D02*
X5543991Y-12227079D01*
X5543991Y-12227079D02*
X5534468Y-12208031D01*
X5534468Y-12208031D02*
X5524944Y-12179460D01*
X5524944Y-12179460D02*
X5515420Y-12131841D01*
X5515420Y-12131841D02*
X5515420Y-12093746D01*
X5515420Y-12093746D02*
X5524944Y-12046127D01*
X5524944Y-12046127D02*
X5534468Y-12017555D01*
X5534468Y-12017555D02*
X5543991Y-11998508D01*
X5543991Y-11998508D02*
X5563039Y-11969936D01*
X5563039Y-11969936D02*
X5572563Y-11960412D01*
X5629706Y-11988984D02*
X5753515Y-11988984D01*
X5753515Y-11988984D02*
X5686848Y-12065174D01*
X5686848Y-12065174D02*
X5715420Y-12065174D01*
X5715420Y-12065174D02*
X5734468Y-12074698D01*
X5734468Y-12074698D02*
X5743991Y-12084222D01*
X5743991Y-12084222D02*
X5753515Y-12103269D01*
X5753515Y-12103269D02*
X5753515Y-12150888D01*
X5753515Y-12150888D02*
X5743991Y-12169936D01*
X5743991Y-12169936D02*
X5734468Y-12179460D01*
X5734468Y-12179460D02*
X5715420Y-12188984D01*
X5715420Y-12188984D02*
X5658277Y-12188984D01*
X5658277Y-12188984D02*
X5639229Y-12179460D01*
X5639229Y-12179460D02*
X5629706Y-12169936D01*
X5924944Y-11988984D02*
X5886848Y-11988984D01*
X5886848Y-11988984D02*
X5867801Y-11998508D01*
X5867801Y-11998508D02*
X5858277Y-12008031D01*
X5858277Y-12008031D02*
X5839229Y-12036603D01*
X5839229Y-12036603D02*
X5829706Y-12074698D01*
X5829706Y-12074698D02*
X5829706Y-12150888D01*
X5829706Y-12150888D02*
X5839229Y-12169936D01*
X5839229Y-12169936D02*
X5848753Y-12179460D01*
X5848753Y-12179460D02*
X5867801Y-12188984D01*
X5867801Y-12188984D02*
X5905896Y-12188984D01*
X5905896Y-12188984D02*
X5924944Y-12179460D01*
X5924944Y-12179460D02*
X5934468Y-12169936D01*
X5934468Y-12169936D02*
X5943991Y-12150888D01*
X5943991Y-12150888D02*
X5943991Y-12103269D01*
X5943991Y-12103269D02*
X5934468Y-12084222D01*
X5934468Y-12084222D02*
X5924944Y-12074698D01*
X5924944Y-12074698D02*
X5905896Y-12065174D01*
X5905896Y-12065174D02*
X5867801Y-12065174D01*
X5867801Y-12065174D02*
X5848753Y-12074698D01*
X5848753Y-12074698D02*
X5839229Y-12084222D01*
X5839229Y-12084222D02*
X5829706Y-12103269D01*
X6134468Y-12188984D02*
X6020182Y-12188984D01*
X6077325Y-12188984D02*
X6077325Y-11988984D01*
X6077325Y-11988984D02*
X6058277Y-12017555D01*
X6058277Y-12017555D02*
X6039229Y-12036603D01*
X6039229Y-12036603D02*
X6020182Y-12046127D01*
X6372563Y-12188984D02*
X6372563Y-11988984D01*
X6458277Y-12188984D02*
X6458277Y-12084222D01*
X6458277Y-12084222D02*
X6448753Y-12065174D01*
X6448753Y-12065174D02*
X6429706Y-12055650D01*
X6429706Y-12055650D02*
X6401134Y-12055650D01*
X6401134Y-12055650D02*
X6382087Y-12065174D01*
X6382087Y-12065174D02*
X6372563Y-12074698D01*
X6582087Y-12188984D02*
X6563039Y-12179460D01*
X6563039Y-12179460D02*
X6553515Y-12169936D01*
X6553515Y-12169936D02*
X6543991Y-12150888D01*
X6543991Y-12150888D02*
X6543991Y-12093746D01*
X6543991Y-12093746D02*
X6553515Y-12074698D01*
X6553515Y-12074698D02*
X6563039Y-12065174D01*
X6563039Y-12065174D02*
X6582087Y-12055650D01*
X6582087Y-12055650D02*
X6610658Y-12055650D01*
X6610658Y-12055650D02*
X6629706Y-12065174D01*
X6629706Y-12065174D02*
X6639230Y-12074698D01*
X6639230Y-12074698D02*
X6648753Y-12093746D01*
X6648753Y-12093746D02*
X6648753Y-12150888D01*
X6648753Y-12150888D02*
X6639230Y-12169936D01*
X6639230Y-12169936D02*
X6629706Y-12179460D01*
X6629706Y-12179460D02*
X6610658Y-12188984D01*
X6610658Y-12188984D02*
X6582087Y-12188984D01*
X6763039Y-12188984D02*
X6743991Y-12179460D01*
X6743991Y-12179460D02*
X6734468Y-12160412D01*
X6734468Y-12160412D02*
X6734468Y-11988984D01*
X6915420Y-12179460D02*
X6896372Y-12188984D01*
X6896372Y-12188984D02*
X6858277Y-12188984D01*
X6858277Y-12188984D02*
X6839230Y-12179460D01*
X6839230Y-12179460D02*
X6829706Y-12160412D01*
X6829706Y-12160412D02*
X6829706Y-12084222D01*
X6829706Y-12084222D02*
X6839230Y-12065174D01*
X6839230Y-12065174D02*
X6858277Y-12055650D01*
X6858277Y-12055650D02*
X6896372Y-12055650D01*
X6896372Y-12055650D02*
X6915420Y-12065174D01*
X6915420Y-12065174D02*
X6924944Y-12084222D01*
X6924944Y-12084222D02*
X6924944Y-12103269D01*
X6924944Y-12103269D02*
X6829706Y-12122317D01*
X7001134Y-12179460D02*
X7020182Y-12188984D01*
X7020182Y-12188984D02*
X7058277Y-12188984D01*
X7058277Y-12188984D02*
X7077325Y-12179460D01*
X7077325Y-12179460D02*
X7086849Y-12160412D01*
X7086849Y-12160412D02*
X7086849Y-12150888D01*
X7086849Y-12150888D02*
X7077325Y-12131841D01*
X7077325Y-12131841D02*
X7058277Y-12122317D01*
X7058277Y-12122317D02*
X7029706Y-12122317D01*
X7029706Y-12122317D02*
X7010658Y-12112793D01*
X7010658Y-12112793D02*
X7001134Y-12093746D01*
X7001134Y-12093746D02*
X7001134Y-12084222D01*
X7001134Y-12084222D02*
X7010658Y-12065174D01*
X7010658Y-12065174D02*
X7029706Y-12055650D01*
X7029706Y-12055650D02*
X7058277Y-12055650D01*
X7058277Y-12055650D02*
X7077325Y-12065174D01*
X7153515Y-12265174D02*
X7163039Y-12255650D01*
X7163039Y-12255650D02*
X7182087Y-12227079D01*
X7182087Y-12227079D02*
X7191611Y-12208031D01*
X7191611Y-12208031D02*
X7201134Y-12179460D01*
X7201134Y-12179460D02*
X7210658Y-12131841D01*
X7210658Y-12131841D02*
X7210658Y-12093746D01*
X7210658Y-12093746D02*
X7201134Y-12046127D01*
X7201134Y-12046127D02*
X7191611Y-12017555D01*
X7191611Y-12017555D02*
X7182087Y-11998508D01*
X7182087Y-11998508D02*
X7163039Y-11969936D01*
X7163039Y-11969936D02*
X7153515Y-11960412D01*
M02*
