M48
; DRILL file {KiCad 8.0.5} date 2024-12-08T15:38:21-0500
; FORMAT={-:-/ absolute / inch / decimal}
; #@! TF.CreationDate,2024-12-08T15:38:21-05:00
; #@! TF.GenerationSoftware,Kicad,Pcbnew,8.0.5
; #@! TF.FileFunction,Plated,1,2,PTH
FMAT,2
INCH
; #@! TA.AperFunction,Plated,PTH,ComponentDrill
T1C0.0787
%
G90
G05
T1
X0.9843Y-0.9665
X0.9843Y-1.1811
X0.9843Y-1.3957
X1.1811Y-0.9665
X1.1811Y-1.1811
X1.1811Y-1.3957
X1.378Y-0.9665
X1.378Y-1.1811
X1.378Y-1.3957
X1.5571Y-2.7382
X1.5571Y-2.935
X1.5571Y-3.1319
X1.5571Y-3.3287
X1.5571Y-3.5256
X1.5748Y-0.9665
X1.5748Y-1.1811
X1.5748Y-1.3957
X1.7717Y-0.9665
X1.7717Y-1.1811
X1.7717Y-1.3957
X1.7717Y-2.7382
X1.7717Y-2.935
X1.7717Y-3.1319
X1.7717Y-3.3287
X1.7717Y-3.5256
X1.9862Y-2.7382
X1.9862Y-2.935
X1.9862Y-3.1319
X1.9862Y-3.3287
X1.9862Y-3.5256
X2.1654Y-0.9665
X2.1654Y-1.1811
X2.1654Y-1.3957
X2.1654Y-2.1476
X2.1654Y-2.3622
X2.1654Y-2.5768
X2.1654Y-3.7047
X2.1654Y-3.9193
X2.1654Y-4.1339
X2.3622Y-0.9665
X2.3622Y-1.1811
X2.3622Y-1.3957
X2.3622Y-2.1476
X2.3622Y-2.3622
X2.3622Y-2.5768
X2.3622Y-3.7047
X2.3622Y-3.9193
X2.3622Y-4.1339
X2.5591Y-0.9665
X2.5591Y-1.1811
X2.5591Y-1.3957
X2.5591Y-2.1476
X2.5591Y-2.3622
X2.5591Y-2.5768
X2.5591Y-3.7047
X2.5591Y-3.9193
X2.5591Y-4.1339
X2.7559Y-0.9665
X2.7559Y-1.1811
X2.7559Y-1.3957
X2.7559Y-2.1476
X2.7559Y-2.3622
X2.7559Y-2.5768
X2.7559Y-3.7047
X2.7559Y-3.9193
X2.7559Y-4.1339
X2.9528Y-0.9665
X2.9528Y-1.1811
X2.9528Y-1.3957
X2.9528Y-2.1476
X2.9528Y-2.3622
X2.9528Y-2.5768
X2.9528Y-3.7047
X2.9528Y-3.9193
X2.9528Y-4.1339
X3.3465Y-0.9665
X3.3465Y-1.1811
X3.3465Y-1.3957
X3.3465Y-2.1476
X3.3465Y-2.3622
X3.3465Y-2.5768
X3.3465Y-3.7047
X3.3465Y-3.9193
X3.3465Y-4.1339
X3.5433Y-0.9665
X3.5433Y-1.1811
X3.5433Y-1.3957
X3.5433Y-2.1476
X3.5433Y-2.3622
X3.5433Y-2.5768
X3.5433Y-3.7047
X3.5433Y-3.9193
X3.5433Y-4.1339
X3.7402Y-0.9665
X3.7402Y-1.1811
X3.7402Y-1.3957
X3.7402Y-2.1476
X3.7402Y-2.3622
X3.7402Y-2.5768
X3.7402Y-3.7047
X3.7402Y-3.9193
X3.7402Y-4.1339
X3.937Y-0.9665
X3.937Y-1.1811
X3.937Y-1.3957
X3.937Y-2.1476
X3.937Y-2.3622
X3.937Y-2.5768
X3.937Y-3.7047
X3.937Y-3.9193
X3.937Y-4.1339
X4.1339Y-0.9665
X4.1339Y-1.1811
X4.1339Y-1.3957
X4.1339Y-2.1476
X4.1339Y-2.3622
X4.1339Y-2.5768
X4.1339Y-3.7047
X4.1339Y-3.9193
X4.1339Y-4.1339
X4.5276Y-0.9665
X4.5276Y-1.1811
X4.5276Y-1.3957
X4.5276Y-2.1476
X4.5276Y-2.3622
X4.5276Y-2.5768
X4.5276Y-3.7047
X4.5276Y-3.9193
X4.5276Y-4.1339
X4.7244Y-0.9665
X4.7244Y-1.1811
X4.7244Y-1.3957
X4.7244Y-2.1476
X4.7244Y-2.3622
X4.7244Y-2.5768
X4.7244Y-3.7047
X4.7244Y-3.9193
X4.7244Y-4.1339
X4.9213Y-0.9665
X4.9213Y-1.1811
X4.9213Y-1.3957
X4.9213Y-2.1476
X4.9213Y-2.3622
X4.9213Y-2.5768
X4.9213Y-3.7047
X4.9213Y-3.9193
X4.9213Y-4.1339
X5.1181Y-0.9665
X5.1181Y-1.1811
X5.1181Y-1.3957
X5.1181Y-2.1476
X5.1181Y-2.3622
X5.1181Y-2.5768
X5.1181Y-3.7047
X5.1181Y-3.9193
X5.1181Y-4.1339
X5.315Y-0.9665
X5.315Y-1.1811
X5.315Y-1.3957
X5.315Y-2.1476
X5.315Y-2.3622
X5.315Y-2.5768
X5.315Y-3.7047
X5.315Y-3.9193
X5.315Y-4.1339
X5.7087Y-0.9665
X5.7087Y-1.1811
X5.7087Y-1.3957
X5.7087Y-2.1476
X5.7087Y-2.3622
X5.7087Y-2.5768
X5.7087Y-3.7047
X5.7087Y-3.9193
X5.7087Y-4.1339
X5.9055Y-0.9665
X5.9055Y-1.1811
X5.9055Y-1.3957
X5.9055Y-2.1476
X5.9055Y-2.3622
X5.9055Y-2.5768
X5.9055Y-3.7047
X5.9055Y-3.9193
X5.9055Y-4.1339
X6.1024Y-0.9665
X6.1024Y-1.1811
X6.1024Y-1.3957
X6.1024Y-2.1476
X6.1024Y-2.3622
X6.1024Y-2.5768
X6.1024Y-3.7047
X6.1024Y-3.9193
X6.1024Y-4.1339
X6.2992Y-0.9665
X6.2992Y-1.1811
X6.2992Y-1.3957
X6.2992Y-2.1476
X6.2992Y-2.3622
X6.2992Y-2.5768
X6.2992Y-3.7047
X6.2992Y-3.9193
X6.2992Y-4.1339
X6.4961Y-0.9665
X6.4961Y-1.1811
X6.4961Y-1.3957
X6.4961Y-2.1476
X6.4961Y-2.3622
X6.4961Y-2.5768
X6.4961Y-3.7047
X6.4961Y-3.9193
X6.4961Y-4.1339
X6.8898Y-0.9665
X6.8898Y-1.1811
X6.8898Y-1.3957
X6.8898Y-2.1476
X6.8898Y-2.3622
X6.8898Y-2.5768
X6.8898Y-3.7047
X6.8898Y-3.9193
X6.8898Y-4.1339
X7.0866Y-0.9665
X7.0866Y-1.1811
X7.0866Y-1.3957
X7.0866Y-2.1476
X7.0866Y-2.3622
X7.0866Y-2.5768
X7.0866Y-3.7047
X7.0866Y-3.9193
X7.0866Y-4.1339
X7.2835Y-0.9665
X7.2835Y-1.1811
X7.2835Y-1.3957
X7.2835Y-2.1476
X7.2835Y-2.3622
X7.2835Y-2.5768
X7.2835Y-3.7047
X7.2835Y-3.9193
X7.2835Y-4.1339
X7.4803Y-0.9665
X7.4803Y-1.1811
X7.4803Y-1.3957
X7.4803Y-2.1476
X7.4803Y-2.3622
X7.4803Y-2.5768
X7.4803Y-3.7047
X7.4803Y-3.9193
X7.4803Y-4.1339
X7.6772Y-0.9665
X7.6772Y-1.1811
X7.6772Y-1.3957
X7.6772Y-2.1476
X7.6772Y-2.3622
X7.6772Y-2.5768
X7.6772Y-3.7047
X7.6772Y-3.9193
X7.6772Y-4.1339
X8.0709Y-0.9665
X8.0709Y-1.1811
X8.0709Y-1.3957
X8.0709Y-2.1476
X8.0709Y-2.3622
X8.0709Y-2.5768
X8.0709Y-3.7047
X8.0709Y-3.9193
X8.0709Y-4.1339
X8.2677Y-0.9665
X8.2677Y-1.1811
X8.2677Y-1.3957
X8.2677Y-2.1476
X8.2677Y-2.3622
X8.2677Y-2.5768
X8.2677Y-3.7047
X8.2677Y-3.9193
X8.2677Y-4.1339
X8.4646Y-0.9665
X8.4646Y-1.1811
X8.4646Y-1.3957
X8.4646Y-2.1476
X8.4646Y-2.3622
X8.4646Y-2.5768
X8.4646Y-3.7047
X8.4646Y-3.9193
X8.4646Y-4.1339
X8.6614Y-0.9665
X8.6614Y-1.1811
X8.6614Y-1.3957
X8.6614Y-2.1476
X8.6614Y-2.3622
X8.6614Y-2.5768
X8.6614Y-3.7047
X8.6614Y-3.9193
X8.6614Y-4.1339
X8.8583Y-0.9665
X8.8583Y-1.1811
X8.8583Y-1.3957
X8.8583Y-2.1476
X8.8583Y-2.3622
X8.8583Y-2.5768
X8.8583Y-3.7047
X8.8583Y-3.9193
X8.8583Y-4.1339
X9.252Y-0.9665
X9.252Y-1.1811
X9.252Y-1.3957
X9.252Y-3.7047
X9.252Y-3.9193
X9.252Y-4.1339
X9.4488Y-0.9665
X9.4488Y-1.1811
X9.4488Y-1.3957
X9.4488Y-2.3622
X9.4488Y-3.7047
X9.4488Y-3.9193
X9.4488Y-4.1339
X9.6457Y-0.9665
X9.6457Y-1.1811
X9.6457Y-1.3957
X9.6457Y-3.7047
X9.6457Y-3.9193
X9.6457Y-4.1339
X9.8425Y-0.9665
X9.8425Y-1.1811
X9.8425Y-1.3957
X9.8425Y-3.7047
X9.8425Y-3.9193
X9.8425Y-4.1339
X10.0394Y-0.9665
X10.0394Y-1.1811
X10.0394Y-1.3957
X10.0394Y-3.7047
X10.0394Y-3.9193
X10.0394Y-4.1339
X10.2185Y-1.5571
X10.2185Y-1.7539
X10.2185Y-1.9508
X10.2185Y-2.1476
X10.2185Y-2.3445
X10.2185Y-2.7382
X10.2185Y-2.935
X10.2185Y-3.1319
X10.2185Y-3.3287
X10.2185Y-3.5256
X10.4331Y-1.5571
X10.4331Y-1.7539
X10.4331Y-1.9508
X10.4331Y-2.1476
X10.4331Y-2.3445
X10.4331Y-2.7382
X10.4331Y-2.935
X10.4331Y-3.1319
X10.4331Y-3.3287
X10.4331Y-3.5256
X10.6476Y-1.5571
X10.6476Y-1.7539
X10.6476Y-1.9508
X10.6476Y-2.1476
X10.6476Y-2.3445
X10.6476Y-2.7382
X10.6476Y-2.935
X10.6476Y-3.1319
X10.6476Y-3.3287
X10.6476Y-3.5256
M30
