%TF.GenerationSoftware,KiCad,Pcbnew,8.0.6*%
%TF.CreationDate,2024-11-20T17:21:20-05:00*%
%TF.ProjectId,RailsidePDB,5261696c-7369-4646-9550-44422e6b6963,rev?*%
%TF.SameCoordinates,Original*%
%TF.FileFunction,Copper,L2,Bot*%
%TF.FilePolarity,Positive*%
%FSLAX46Y46*%
G04 Gerber Fmt 4.6, Leading zero omitted, Abs format (unit mm)*
G04 Created by KiCad (PCBNEW 8.0.6) date 2024-11-20 17:21:20*
%MOMM*%
%LPD*%
G01*
G04 APERTURE LIST*
G04 Aperture macros list*
%AMRoundRect*
0 Rectangle with rounded corners*
0 $1 Rounding radius*
0 $2 $3 $4 $5 $6 $7 $8 $9 X,Y pos of 4 corners*
0 Add a 4 corners polygon primitive as box body*
4,1,4,$2,$3,$4,$5,$6,$7,$8,$9,$2,$3,0*
0 Add four circle primitives for the rounded corners*
1,1,$1+$1,$2,$3*
1,1,$1+$1,$4,$5*
1,1,$1+$1,$6,$7*
1,1,$1+$1,$8,$9*
0 Add four rect primitives between the rounded corners*
20,1,$1+$1,$2,$3,$4,$5,0*
20,1,$1+$1,$4,$5,$6,$7,0*
20,1,$1+$1,$6,$7,$8,$9,0*
20,1,$1+$1,$8,$9,$2,$3,0*%
G04 Aperture macros list end*
%TA.AperFunction,ComponentPad*%
%ADD10C,3.000000*%
%TD*%
%TA.AperFunction,ComponentPad*%
%ADD11RoundRect,0.750000X0.750000X-0.750000X0.750000X0.750000X-0.750000X0.750000X-0.750000X-0.750000X0*%
%TD*%
%TA.AperFunction,ComponentPad*%
%ADD12C,2.780000*%
%TD*%
%TA.AperFunction,ComponentPad*%
%ADD13O,6.000000X6.000000*%
%TD*%
%TA.AperFunction,ComponentPad*%
%ADD14O,4.000000X1.500000*%
%TD*%
%TA.AperFunction,Conductor*%
%ADD15C,1.500000*%
%TD*%
G04 APERTURE END LIST*
D10*
%TO.P,,2,-*%
%TO.N,Net-(BT4--)*%
X66000000Y-134000000D03*
%TD*%
%TO.P,,2,-*%
%TO.N,Net-(BT4--)*%
X84000000Y-134000000D03*
%TD*%
%TO.P,,2,-*%
%TO.N,Net-(BT4--)*%
X74000000Y-134000000D03*
%TD*%
%TO.P,,2,-*%
%TO.N,Net-(BT4--)*%
X60000000Y-134000000D03*
%TD*%
%TO.P,,2,-*%
%TO.N,Net-(BT4--)*%
X62000000Y-134000000D03*
%TD*%
%TO.P,,2,-*%
%TO.N,Net-(BT4--)*%
X94000000Y-134000000D03*
%TD*%
%TO.P,,2,-*%
%TO.N,Net-(BT4--)*%
X82000000Y-134000000D03*
%TD*%
%TO.P,,2,-*%
%TO.N,Net-(BT4--)*%
X88000000Y-134000000D03*
%TD*%
%TO.P,,2,-*%
%TO.N,Net-(BT4--)*%
X68000000Y-134000000D03*
%TD*%
%TO.P,,2,-*%
%TO.N,Net-(BT4--)*%
X72000000Y-134000000D03*
%TD*%
%TO.P,,2,-*%
%TO.N,Net-(BT4--)*%
X90000000Y-134000000D03*
%TD*%
%TO.P,,2,-*%
%TO.N,Net-(BT4--)*%
X96000000Y-134000000D03*
%TD*%
%TO.P,,2,-*%
%TO.N,Net-(BT4--)*%
X64000000Y-134000000D03*
%TD*%
%TO.P,,2,-*%
%TO.N,Net-(BT4--)*%
X70000000Y-134000000D03*
%TD*%
%TO.P,,2,-*%
%TO.N,Net-(BT4--)*%
X80000000Y-134000000D03*
%TD*%
%TO.P,,2,-*%
%TO.N,Net-(BT4--)*%
X58000000Y-134000000D03*
%TD*%
%TO.P,,2,-*%
%TO.N,Net-(BT4--)*%
X92000000Y-134000000D03*
%TD*%
%TO.P,,2,-*%
%TO.N,Net-(BT4--)*%
X122000000Y-134000000D03*
%TD*%
%TO.P,,2,-*%
%TO.N,Net-(BT4--)*%
X104000000Y-134000000D03*
%TD*%
%TO.P,,2,-*%
%TO.N,Net-(BT4--)*%
X108000000Y-134000000D03*
%TD*%
%TO.P,,2,-*%
%TO.N,Net-(BT4--)*%
X116000000Y-134000000D03*
%TD*%
%TO.P,,2,-*%
%TO.N,Net-(BT4--)*%
X128000000Y-134000000D03*
%TD*%
%TO.P,,2,-*%
%TO.N,Net-(BT4--)*%
X118000000Y-134000000D03*
%TD*%
%TO.P,,2,-*%
%TO.N,Net-(BT4--)*%
X102000000Y-134000000D03*
%TD*%
%TO.P,,2,-*%
%TO.N,Net-(BT4--)*%
X78000000Y-134000000D03*
%TD*%
%TO.P,,2,-*%
%TO.N,Net-(BT4--)*%
X126000000Y-134000000D03*
%TD*%
%TO.P,,2,-*%
%TO.N,Net-(BT4--)*%
X120000000Y-134000000D03*
%TD*%
%TO.P,,2,-*%
%TO.N,Net-(BT4--)*%
X114000000Y-134000000D03*
%TD*%
%TO.P,,2,-*%
%TO.N,Net-(BT4--)*%
X100000000Y-134000000D03*
%TD*%
%TO.P,,2,-*%
%TO.N,Net-(BT4--)*%
X86000000Y-134000000D03*
%TD*%
%TO.P,,2,-*%
%TO.N,Net-(BT4--)*%
X110000000Y-134000000D03*
%TD*%
%TO.P,,2,-*%
%TO.N,Net-(BT4--)*%
X112000000Y-134000000D03*
%TD*%
%TO.P,,2,-*%
%TO.N,Net-(BT4--)*%
X56000000Y-134000000D03*
%TD*%
%TO.P,,2,-*%
%TO.N,Net-(BT4--)*%
X98000000Y-134000000D03*
%TD*%
%TO.P,,2,-*%
%TO.N,Net-(BT4--)*%
X54000000Y-134000000D03*
%TD*%
%TO.P,,2,-*%
%TO.N,Net-(BT4--)*%
X106000000Y-134000000D03*
%TD*%
%TO.P,,2,-*%
%TO.N,Net-(BT4--)*%
X76000000Y-134000000D03*
%TD*%
%TO.P,,2,-*%
%TO.N,Net-(BT4--)*%
X124000000Y-134000000D03*
%TD*%
%TO.P,,2,-*%
%TO.N,Net-(BT4--)*%
X130000000Y-134000000D03*
%TD*%
%TO.P,,2,-*%
%TO.N,Net-(BT4--)*%
X52000000Y-134000000D03*
%TD*%
%TO.P,,2,-*%
%TO.N,Net-(BT4--)*%
X66000000Y-109000000D03*
%TD*%
%TO.P,,2,-*%
%TO.N,Net-(BT4--)*%
X84000000Y-109000000D03*
%TD*%
%TO.P,,2,-*%
%TO.N,Net-(BT4--)*%
X74000000Y-109000000D03*
%TD*%
%TO.P,,2,-*%
%TO.N,Net-(BT4--)*%
X60000000Y-109000000D03*
%TD*%
%TO.P,,2,-*%
%TO.N,Net-(BT4--)*%
X62000000Y-109000000D03*
%TD*%
%TO.P,,2,-*%
%TO.N,Net-(BT4--)*%
X94000000Y-109000000D03*
%TD*%
%TO.P,,2,-*%
%TO.N,Net-(BT4--)*%
X82000000Y-109000000D03*
%TD*%
%TO.P,,2,-*%
%TO.N,Net-(BT4--)*%
X88000000Y-109000000D03*
%TD*%
%TO.P,,2,-*%
%TO.N,Net-(BT4--)*%
X68000000Y-109000000D03*
%TD*%
%TO.P,,2,-*%
%TO.N,Net-(BT4--)*%
X72000000Y-109000000D03*
%TD*%
%TO.P,,2,-*%
%TO.N,Net-(BT4--)*%
X90000000Y-109000000D03*
%TD*%
%TO.P,,2,-*%
%TO.N,Net-(BT4--)*%
X96000000Y-109000000D03*
%TD*%
%TO.P,,2,-*%
%TO.N,Net-(BT4--)*%
X64000000Y-109000000D03*
%TD*%
%TO.P,,2,-*%
%TO.N,Net-(BT4--)*%
X70000000Y-109000000D03*
%TD*%
%TO.P,,2,-*%
%TO.N,Net-(BT4--)*%
X80000000Y-109000000D03*
%TD*%
%TO.P,,2,-*%
%TO.N,Net-(BT4--)*%
X58000000Y-109000000D03*
%TD*%
%TO.P,,2,-*%
%TO.N,Net-(BT4--)*%
X92000000Y-109000000D03*
%TD*%
%TO.P,,2,-*%
%TO.N,Net-(BT4--)*%
X122000000Y-109000000D03*
%TD*%
%TO.P,,2,-*%
%TO.N,Net-(BT4--)*%
X104000000Y-109000000D03*
%TD*%
%TO.P,,2,-*%
%TO.N,Net-(BT4--)*%
X108000000Y-109000000D03*
%TD*%
%TO.P,,2,-*%
%TO.N,Net-(BT4--)*%
X116000000Y-109000000D03*
%TD*%
%TO.P,,2,-*%
%TO.N,Net-(BT4--)*%
X128000000Y-109000000D03*
%TD*%
%TO.P,,2,-*%
%TO.N,Net-(BT4--)*%
X118000000Y-109000000D03*
%TD*%
%TO.P,,2,-*%
%TO.N,Net-(BT4--)*%
X102000000Y-109000000D03*
%TD*%
%TO.P,,2,-*%
%TO.N,Net-(BT4--)*%
X78000000Y-109000000D03*
%TD*%
%TO.P,,2,-*%
%TO.N,Net-(BT4--)*%
X126000000Y-109000000D03*
%TD*%
%TO.P,,2,-*%
%TO.N,Net-(BT4--)*%
X120000000Y-109000000D03*
%TD*%
%TO.P,,2,-*%
%TO.N,Net-(BT4--)*%
X114000000Y-109000000D03*
%TD*%
%TO.P,,2,-*%
%TO.N,Net-(BT4--)*%
X100000000Y-109000000D03*
%TD*%
%TO.P,,2,-*%
%TO.N,Net-(BT4--)*%
X86000000Y-109000000D03*
%TD*%
%TO.P,,2,-*%
%TO.N,Net-(BT4--)*%
X110000000Y-109000000D03*
%TD*%
%TO.P,,2,-*%
%TO.N,Net-(BT4--)*%
X112000000Y-109000000D03*
%TD*%
%TO.P,,2,-*%
%TO.N,Net-(BT4--)*%
X56000000Y-109000000D03*
%TD*%
%TO.P,,2,-*%
%TO.N,Net-(BT4--)*%
X98000000Y-109000000D03*
%TD*%
%TO.P,,2,-*%
%TO.N,Net-(BT4--)*%
X54000000Y-109000000D03*
%TD*%
%TO.P,,2,-*%
%TO.N,Net-(BT4--)*%
X106000000Y-109000000D03*
%TD*%
%TO.P,,2,-*%
%TO.N,Net-(BT4--)*%
X76000000Y-109000000D03*
%TD*%
%TO.P,,2,-*%
%TO.N,Net-(BT4--)*%
X124000000Y-109000000D03*
%TD*%
%TO.P,,2,-*%
%TO.N,Net-(BT4--)*%
X130000000Y-109000000D03*
%TD*%
%TO.P,,2,-*%
%TO.N,Net-(BT4--)*%
X52000000Y-109000000D03*
%TD*%
%TO.P,,2,-*%
%TO.N,Net-(BT4--)*%
X52000000Y-86000000D03*
%TD*%
%TO.P,,2,-*%
%TO.N,Net-(BT4--)*%
X130000000Y-86000000D03*
%TD*%
%TO.P,,2,-*%
%TO.N,Net-(BT4--)*%
X54000000Y-86000000D03*
%TD*%
%TO.P,,2,-*%
%TO.N,Net-(BT4--)*%
X56000000Y-86000000D03*
%TD*%
%TO.P,,2,-*%
%TO.N,Net-(BT4--)*%
X58000000Y-86000000D03*
%TD*%
%TO.P,,2,-*%
%TO.N,Net-(BT4--)*%
X60000000Y-86000000D03*
%TD*%
%TO.P,,2,-*%
%TO.N,Net-(BT4--)*%
X62000000Y-86000000D03*
%TD*%
%TO.P,,2,-*%
%TO.N,Net-(BT4--)*%
X64000000Y-86000000D03*
%TD*%
%TO.P,,2,-*%
%TO.N,Net-(BT4--)*%
X66000000Y-86000000D03*
%TD*%
%TO.P,,2,-*%
%TO.N,Net-(BT4--)*%
X68000000Y-86000000D03*
%TD*%
%TO.P,,2,-*%
%TO.N,Net-(BT4--)*%
X70000000Y-86000000D03*
%TD*%
%TO.P,,2,-*%
%TO.N,Net-(BT4--)*%
X72000000Y-86000000D03*
%TD*%
%TO.P,,2,-*%
%TO.N,Net-(BT4--)*%
X74000000Y-86000000D03*
%TD*%
%TO.P,,2,-*%
%TO.N,Net-(BT4--)*%
X76000000Y-86000000D03*
%TD*%
%TO.P,,2,-*%
%TO.N,Net-(BT4--)*%
X78000000Y-86000000D03*
%TD*%
%TO.P,,2,-*%
%TO.N,Net-(BT4--)*%
X80000000Y-86000000D03*
%TD*%
%TO.P,,2,-*%
%TO.N,Net-(BT4--)*%
X82000000Y-86000000D03*
%TD*%
%TO.P,,2,-*%
%TO.N,Net-(BT4--)*%
X84000000Y-86000000D03*
%TD*%
%TO.P,,2,-*%
%TO.N,Net-(BT4--)*%
X86000000Y-86000000D03*
%TD*%
%TO.P,,2,-*%
%TO.N,Net-(BT4--)*%
X88000000Y-86000000D03*
%TD*%
%TO.P,,2,-*%
%TO.N,Net-(BT4--)*%
X90000000Y-86000000D03*
%TD*%
%TO.P,,2,-*%
%TO.N,Net-(BT4--)*%
X92000000Y-86000000D03*
%TD*%
%TO.P,,2,-*%
%TO.N,Net-(BT4--)*%
X94000000Y-86000000D03*
%TD*%
%TO.P,,2,-*%
%TO.N,Net-(BT4--)*%
X96000000Y-86000000D03*
%TD*%
%TO.P,,2,-*%
%TO.N,Net-(BT4--)*%
X98000000Y-86000000D03*
%TD*%
%TO.P,,2,-*%
%TO.N,Net-(BT4--)*%
X100000000Y-86000000D03*
%TD*%
%TO.P,,2,-*%
%TO.N,Net-(BT4--)*%
X128000000Y-86000000D03*
%TD*%
%TO.P,,2,-*%
%TO.N,Net-(BT4--)*%
X126000000Y-86000000D03*
%TD*%
%TO.P,,2,-*%
%TO.N,Net-(BT4--)*%
X124000000Y-86000000D03*
%TD*%
%TO.P,,2,-*%
%TO.N,Net-(BT4--)*%
X122000000Y-86000000D03*
%TD*%
%TO.P,,2,-*%
%TO.N,Net-(BT4--)*%
X120000000Y-86000000D03*
%TD*%
%TO.P,,2,-*%
%TO.N,Net-(BT4--)*%
X118000000Y-86000000D03*
%TD*%
%TO.P,,2,-*%
%TO.N,Net-(BT4--)*%
X116000000Y-86000000D03*
%TD*%
%TO.P,,2,-*%
%TO.N,Net-(BT4--)*%
X114000000Y-86000000D03*
%TD*%
%TO.P,,2,-*%
%TO.N,Net-(BT4--)*%
X112000000Y-86000000D03*
%TD*%
%TO.P,,2,-*%
%TO.N,Net-(BT4--)*%
X110000000Y-86000000D03*
%TD*%
%TO.P,,2,-*%
%TO.N,Net-(BT4--)*%
X108000000Y-86000000D03*
%TD*%
%TO.P,,2,-*%
%TO.N,Net-(BT4--)*%
X106000000Y-86000000D03*
%TD*%
%TO.P,,2,-*%
%TO.N,Net-(BT4--)*%
X104000000Y-86000000D03*
%TD*%
%TO.P,,2,-*%
%TO.N,Net-(BT4--)*%
X102000000Y-86000000D03*
%TD*%
D11*
%TO.P,BT4,1,+*%
%TO.N,Net-(BT1-+)*%
X121750000Y-147920000D03*
D10*
%TO.P,BT4,2,-*%
%TO.N,Net-(BT4--)*%
X121750000Y-142920000D03*
%TD*%
D11*
%TO.P,BT2,1,+*%
%TO.N,Net-(BT1-+)*%
X79350000Y-147870000D03*
D10*
%TO.P,BT2,2,-*%
%TO.N,Net-(BT1--)*%
X79350000Y-142870000D03*
%TD*%
D12*
%TO.P,F1,1*%
%TO.N,Net-(BT1--)*%
X97350000Y-149920000D03*
X100750000Y-149920000D03*
%TO.P,F1,2*%
%TO.N,Net-(SW1-A)*%
X97350000Y-140000000D03*
X100750000Y-140000000D03*
%TD*%
D11*
%TO.P,BT1,1,+*%
%TO.N,Net-(BT1-+)*%
X86250000Y-147920000D03*
D10*
%TO.P,BT1,2,-*%
%TO.N,Net-(BT1--)*%
X86250000Y-142920000D03*
%TD*%
D11*
%TO.P,BT5,1,+*%
%TO.N,Net-(BT1-+)*%
X65525000Y-147695000D03*
D10*
%TO.P,BT5,2,-*%
%TO.N,Net-(BT1--)*%
X65525000Y-142695000D03*
%TD*%
D13*
%TO.P,,2,B*%
%TO.N,N/C*%
X56190000Y-145060000D03*
%TD*%
%TO.P,,2,B*%
%TO.N,N/C*%
X110750000Y-144920000D03*
%TD*%
D11*
%TO.P,BT3,1,+*%
%TO.N,Net-(BT1-+)*%
X72325000Y-147695000D03*
D10*
%TO.P,BT3,2,-*%
%TO.N,Net-(BT1--)*%
X72325000Y-142695000D03*
%TD*%
D14*
%TO.P,SW1,1,A*%
%TO.N,Net-(SW1-A)*%
X110750000Y-141420000D03*
%TO.P,SW1,2,B*%
%TO.N,Net-(BT4--)*%
X110750000Y-149040000D03*
%TD*%
D11*
%TO.P,BT4,1,+*%
%TO.N,Net-(BT1-+)*%
X121875000Y-123000000D03*
D10*
%TO.P,BT4,2,-*%
%TO.N,Net-(BT4--)*%
X121875000Y-118000000D03*
%TD*%
D11*
%TO.P,BT2,1,+*%
%TO.N,Net-(BT1-+)*%
X79475000Y-122950000D03*
D10*
%TO.P,BT2,2,-*%
%TO.N,Net-(BT1--)*%
X79475000Y-117950000D03*
%TD*%
D12*
%TO.P,F1,1*%
%TO.N,Net-(BT1--)*%
X97475000Y-125000000D03*
X100875000Y-125000000D03*
%TO.P,F1,2*%
%TO.N,Net-(SW1-A)*%
X97475000Y-115080000D03*
X100875000Y-115080000D03*
%TD*%
D11*
%TO.P,BT1,1,+*%
%TO.N,Net-(BT1-+)*%
X86375000Y-123000000D03*
D10*
%TO.P,BT1,2,-*%
%TO.N,Net-(BT1--)*%
X86375000Y-118000000D03*
%TD*%
D11*
%TO.P,BT5,1,+*%
%TO.N,Net-(BT1-+)*%
X65650000Y-122775000D03*
D10*
%TO.P,BT5,2,-*%
%TO.N,Net-(BT1--)*%
X65650000Y-117775000D03*
%TD*%
D13*
%TO.P,,2,B*%
%TO.N,N/C*%
X56315000Y-120140000D03*
%TD*%
%TO.P,,2,B*%
%TO.N,N/C*%
X110875000Y-120000000D03*
%TD*%
D11*
%TO.P,BT3,1,+*%
%TO.N,Net-(BT1-+)*%
X72450000Y-122775000D03*
D10*
%TO.P,BT3,2,-*%
%TO.N,Net-(BT1--)*%
X72450000Y-117775000D03*
%TD*%
D14*
%TO.P,SW1,1,A*%
%TO.N,Net-(SW1-A)*%
X110875000Y-116500000D03*
%TO.P,SW1,2,B*%
%TO.N,Net-(BT4--)*%
X110875000Y-124120000D03*
%TD*%
D11*
%TO.P,BT4,1,+*%
%TO.N,Net-(BT1-+)*%
X122225000Y-99225000D03*
D10*
%TO.P,BT4,2,-*%
%TO.N,Net-(BT4--)*%
X122225000Y-94225000D03*
%TD*%
D11*
%TO.P,BT2,1,+*%
%TO.N,Net-(BT1-+)*%
X79825000Y-99175000D03*
D10*
%TO.P,BT2,2,-*%
%TO.N,Net-(BT1--)*%
X79825000Y-94175000D03*
%TD*%
D12*
%TO.P,F1,1*%
%TO.N,Net-(BT1--)*%
X97825000Y-101225000D03*
X101225000Y-101225000D03*
%TO.P,F1,2*%
%TO.N,Net-(SW1-A)*%
X97825000Y-91305000D03*
X101225000Y-91305000D03*
%TD*%
D11*
%TO.P,BT1,1,+*%
%TO.N,Net-(BT1-+)*%
X86725000Y-99225000D03*
D10*
%TO.P,BT1,2,-*%
%TO.N,Net-(BT1--)*%
X86725000Y-94225000D03*
%TD*%
D11*
%TO.P,BT5,1,+*%
%TO.N,Net-(BT1-+)*%
X66000000Y-99000000D03*
D10*
%TO.P,BT5,2,-*%
%TO.N,Net-(BT1--)*%
X66000000Y-94000000D03*
%TD*%
D13*
%TO.P,,2,B*%
%TO.N,N/C*%
X56665000Y-96365000D03*
%TD*%
%TO.P,,2,B*%
%TO.N,N/C*%
X111225000Y-96225000D03*
%TD*%
D11*
%TO.P,BT3,1,+*%
%TO.N,Net-(BT1-+)*%
X72800000Y-99000000D03*
D10*
%TO.P,BT3,2,-*%
%TO.N,Net-(BT1--)*%
X72800000Y-94000000D03*
%TD*%
D14*
%TO.P,SW1,1,A*%
%TO.N,Net-(SW1-A)*%
X111225000Y-92725000D03*
%TO.P,SW1,2,B*%
%TO.N,Net-(BT4--)*%
X111225000Y-100345000D03*
%TD*%
D13*
%TO.P,,2,B*%
%TO.N,N/C*%
X56600000Y-73250000D03*
%TD*%
D14*
%TO.P,SW1,2,B*%
%TO.N,Net-(BT4--)*%
X111160000Y-77230000D03*
%TO.P,SW1,1,A*%
%TO.N,Net-(SW1-A)*%
X111160000Y-69610000D03*
%TD*%
D13*
%TO.P,,2,B*%
%TO.N,N/C*%
X111160000Y-73110000D03*
%TD*%
D12*
%TO.P,F1,1*%
%TO.N,Net-(BT1--)*%
X97760000Y-78110000D03*
X101160000Y-78110000D03*
%TO.P,F1,2*%
%TO.N,Net-(SW1-A)*%
X97760000Y-68190000D03*
X101160000Y-68190000D03*
%TD*%
D10*
%TO.P,BT5,2,-*%
%TO.N,Net-(BT1--)*%
X65935000Y-70885000D03*
D11*
%TO.P,BT5,1,+*%
%TO.N,Net-(BT1-+)*%
X65935000Y-75885000D03*
%TD*%
D10*
%TO.P,BT4,2,-*%
%TO.N,Net-(BT4--)*%
X122160000Y-71110000D03*
D11*
%TO.P,BT4,1,+*%
%TO.N,Net-(BT1-+)*%
X122160000Y-76110000D03*
%TD*%
D10*
%TO.P,BT3,2,-*%
%TO.N,Net-(BT1--)*%
X72735000Y-70885000D03*
D11*
%TO.P,BT3,1,+*%
%TO.N,Net-(BT1-+)*%
X72735000Y-75885000D03*
%TD*%
D10*
%TO.P,BT2,2,-*%
%TO.N,Net-(BT1--)*%
X79760000Y-71060000D03*
D11*
%TO.P,BT2,1,+*%
%TO.N,Net-(BT1-+)*%
X79760000Y-76060000D03*
%TD*%
D10*
%TO.P,BT1,2,-*%
%TO.N,Net-(BT1--)*%
X86660000Y-71110000D03*
D11*
%TO.P,BT1,1,+*%
%TO.N,Net-(BT1-+)*%
X86660000Y-76110000D03*
%TD*%
D15*
%TO.N,Net-(SW1-A)*%
X100750000Y-140000000D02*
X111405000Y-140000000D01*
%TO.N,Net-(BT1-+)*%
X116250000Y-153420000D02*
X118250000Y-153420000D01*
X118250000Y-153420000D02*
X91750000Y-153420000D01*
X121750000Y-147920000D02*
X116250000Y-153420000D01*
X85750000Y-149920000D02*
X83750000Y-147920000D01*
X92940000Y-154610000D02*
X90940000Y-154610000D01*
%TO.N,Net-(BT1--)*%
X93250000Y-149920000D02*
X86250000Y-142920000D01*
X100750000Y-149920000D02*
X93250000Y-149920000D01*
%TO.N,Net-(BT1-+)*%
X86250000Y-147920000D02*
X65750000Y-147920000D01*
%TO.N,Net-(BT1--)*%
X89975000Y-144895000D02*
X93800000Y-148720000D01*
X86150000Y-141245000D02*
X89800000Y-144895000D01*
X93800000Y-148720000D02*
X99775000Y-148720000D01*
X65525000Y-142695000D02*
X86025000Y-142695000D01*
X66700000Y-141520000D02*
X85875000Y-141520000D01*
%TO.N,Net-(BT1-+)*%
X85400000Y-149070000D02*
X66900000Y-149070000D01*
X83750000Y-147920000D02*
X86250000Y-147920000D01*
%TO.N,Net-(SW1-A)*%
X102170000Y-141420000D02*
X97650000Y-141420000D01*
%TO.N,Net-(BT1--)*%
X97050000Y-148170000D02*
X100325000Y-148170000D01*
%TO.N,Net-(SW1-A)*%
X97350000Y-140000000D02*
X100750000Y-140000000D01*
%TO.N,Net-(BT1--)*%
X97700000Y-149045000D02*
X99275000Y-149045000D01*
%TO.N,Net-(BT1-+)*%
X121750000Y-149920000D02*
X118250000Y-153420000D01*
%TO.N,Net-(SW1-A)*%
X110750000Y-141420000D02*
X102170000Y-141420000D01*
%TO.N,Net-(BT1--)*%
X99775000Y-148720000D02*
X100325000Y-148170000D01*
X100325000Y-148170000D02*
X100750000Y-148595000D01*
%TO.N,Net-(BT1-+)*%
X90940000Y-154610000D02*
X86250000Y-149920000D01*
X118250000Y-153420000D02*
X117060000Y-154610000D01*
X92940000Y-154610000D02*
X86250000Y-147920000D01*
X117060000Y-154610000D02*
X92940000Y-154610000D01*
%TO.N,Net-(SW1-A)*%
X100875000Y-115080000D02*
X111530000Y-115080000D01*
%TO.N,Net-(BT1-+)*%
X116375000Y-128500000D02*
X118375000Y-128500000D01*
X118375000Y-128500000D02*
X91875000Y-128500000D01*
X121875000Y-123000000D02*
X116375000Y-128500000D01*
X85875000Y-125000000D02*
X83875000Y-123000000D01*
X93065000Y-129690000D02*
X91065000Y-129690000D01*
%TO.N,Net-(BT1--)*%
X93375000Y-125000000D02*
X86375000Y-118000000D01*
X100875000Y-125000000D02*
X93375000Y-125000000D01*
%TO.N,Net-(BT1-+)*%
X86375000Y-123000000D02*
X65875000Y-123000000D01*
%TO.N,Net-(BT1--)*%
X90100000Y-119975000D02*
X93925000Y-123800000D01*
X86275000Y-116325000D02*
X89925000Y-119975000D01*
X93925000Y-123800000D02*
X99900000Y-123800000D01*
X65650000Y-117775000D02*
X86150000Y-117775000D01*
X66825000Y-116600000D02*
X86000000Y-116600000D01*
%TO.N,Net-(BT1-+)*%
X85525000Y-124150000D02*
X67025000Y-124150000D01*
X83875000Y-123000000D02*
X86375000Y-123000000D01*
%TO.N,Net-(SW1-A)*%
X102295000Y-116500000D02*
X97775000Y-116500000D01*
%TO.N,Net-(BT1--)*%
X97175000Y-123250000D02*
X100450000Y-123250000D01*
%TO.N,Net-(SW1-A)*%
X97475000Y-115080000D02*
X100875000Y-115080000D01*
%TO.N,Net-(BT1--)*%
X97825000Y-124125000D02*
X99400000Y-124125000D01*
%TO.N,Net-(BT1-+)*%
X121875000Y-125000000D02*
X118375000Y-128500000D01*
%TO.N,Net-(SW1-A)*%
X110875000Y-116500000D02*
X102295000Y-116500000D01*
%TO.N,Net-(BT1--)*%
X99900000Y-123800000D02*
X100450000Y-123250000D01*
X100450000Y-123250000D02*
X100875000Y-123675000D01*
%TO.N,Net-(BT1-+)*%
X91065000Y-129690000D02*
X86375000Y-125000000D01*
X118375000Y-128500000D02*
X117185000Y-129690000D01*
X93065000Y-129690000D02*
X86375000Y-123000000D01*
X117185000Y-129690000D02*
X93065000Y-129690000D01*
%TO.N,Net-(SW1-A)*%
X101225000Y-91305000D02*
X111880000Y-91305000D01*
%TO.N,Net-(BT1-+)*%
X116725000Y-104725000D02*
X118725000Y-104725000D01*
X118725000Y-104725000D02*
X92225000Y-104725000D01*
X122225000Y-99225000D02*
X116725000Y-104725000D01*
X86225000Y-101225000D02*
X84225000Y-99225000D01*
X93415000Y-105915000D02*
X91415000Y-105915000D01*
%TO.N,Net-(BT1--)*%
X93725000Y-101225000D02*
X86725000Y-94225000D01*
X101225000Y-101225000D02*
X93725000Y-101225000D01*
%TO.N,Net-(BT1-+)*%
X86725000Y-99225000D02*
X66225000Y-99225000D01*
%TO.N,Net-(BT1--)*%
X90450000Y-96200000D02*
X94275000Y-100025000D01*
X86625000Y-92550000D02*
X90275000Y-96200000D01*
X94275000Y-100025000D02*
X100250000Y-100025000D01*
X66000000Y-94000000D02*
X86500000Y-94000000D01*
X67175000Y-92825000D02*
X86350000Y-92825000D01*
%TO.N,Net-(BT1-+)*%
X85875000Y-100375000D02*
X67375000Y-100375000D01*
X84225000Y-99225000D02*
X86725000Y-99225000D01*
%TO.N,Net-(SW1-A)*%
X102645000Y-92725000D02*
X98125000Y-92725000D01*
%TO.N,Net-(BT1--)*%
X97525000Y-99475000D02*
X100800000Y-99475000D01*
%TO.N,Net-(SW1-A)*%
X97825000Y-91305000D02*
X101225000Y-91305000D01*
%TO.N,Net-(BT1--)*%
X98175000Y-100350000D02*
X99750000Y-100350000D01*
%TO.N,Net-(BT1-+)*%
X122225000Y-101225000D02*
X118725000Y-104725000D01*
%TO.N,Net-(SW1-A)*%
X111225000Y-92725000D02*
X102645000Y-92725000D01*
%TO.N,Net-(BT1--)*%
X100250000Y-100025000D02*
X100800000Y-99475000D01*
X100800000Y-99475000D02*
X101225000Y-99900000D01*
%TO.N,Net-(BT1-+)*%
X91415000Y-105915000D02*
X86725000Y-101225000D01*
X118725000Y-104725000D02*
X117535000Y-105915000D01*
X93415000Y-105915000D02*
X86725000Y-99225000D01*
X117535000Y-105915000D02*
X93415000Y-105915000D01*
%TO.N,Net-(SW1-A)*%
X97760000Y-68190000D02*
X101160000Y-68190000D01*
%TO.N,Net-(BT1-+)*%
X118660000Y-81610000D02*
X92160000Y-81610000D01*
X91350000Y-82800000D02*
X86660000Y-78110000D01*
X93350000Y-82800000D02*
X91350000Y-82800000D01*
X122160000Y-76110000D02*
X116660000Y-81610000D01*
X116660000Y-81610000D02*
X118660000Y-81610000D01*
X117470000Y-82800000D02*
X93350000Y-82800000D01*
X118660000Y-81610000D02*
X117470000Y-82800000D01*
X93350000Y-82800000D02*
X86660000Y-76110000D01*
X85810000Y-77260000D02*
X67310000Y-77260000D01*
X86660000Y-76110000D02*
X66160000Y-76110000D01*
%TO.N,Net-(BT1--)*%
X65935000Y-70885000D02*
X86435000Y-70885000D01*
X100185000Y-76910000D02*
X100735000Y-76360000D01*
X90385000Y-73085000D02*
X94210000Y-76910000D01*
X86560000Y-69435000D02*
X90210000Y-73085000D01*
X67110000Y-69710000D02*
X86285000Y-69710000D01*
X94210000Y-76910000D02*
X100185000Y-76910000D01*
X93660000Y-78110000D02*
X86660000Y-71110000D01*
X101160000Y-78110000D02*
X93660000Y-78110000D01*
X98110000Y-77235000D02*
X99685000Y-77235000D01*
X100735000Y-76360000D02*
X101160000Y-76785000D01*
X97460000Y-76360000D02*
X100735000Y-76360000D01*
%TO.N,Net-(SW1-A)*%
X102580000Y-69610000D02*
X98060000Y-69610000D01*
X101160000Y-68190000D02*
X111815000Y-68190000D01*
%TO.N,Net-(BT1-+)*%
X86160000Y-78110000D02*
X84160000Y-76110000D01*
X122160000Y-78110000D02*
X118660000Y-81610000D01*
X84160000Y-76110000D02*
X86660000Y-76110000D01*
%TO.N,Net-(SW1-A)*%
X111160000Y-69610000D02*
X102580000Y-69610000D01*
%TD*%
M02*
