%TF.GenerationSoftware,KiCad,Pcbnew,8.0.6*%
%TF.CreationDate,2024-11-20T17:21:28-05:00*%
%TF.ProjectId,RailsidePDB,5261696c-7369-4646-9550-44422e6b6963,rev?*%
%TF.SameCoordinates,Original*%
%TF.FileFunction,Drillmap*%
%TF.FilePolarity,Positive*%
%FSLAX45Y45*%
G04 Gerber Fmt 4.5, Leading zero omitted, Abs format (unit mm)*
G04 Created by KiCad (PCBNEW 8.0.6) date 2024-11-20 17:21:28*
%MOMM*%
%LPD*%
G01*
G04 APERTURE LIST*
%ADD10C,0.050000*%
%ADD11C,0.200000*%
G04 APERTURE END LIST*
D10*
X5100000Y-6350000D02*
X13100000Y-6350000D01*
X13100000Y-15800000D01*
X5100000Y-15800000D01*
X5100000Y-6350000D01*
D11*
X5358277Y-16113984D02*
X5358277Y-15913984D01*
X5358277Y-15913984D02*
X5405896Y-15913984D01*
X5405896Y-15913984D02*
X5434467Y-15923508D01*
X5434467Y-15923508D02*
X5453515Y-15942555D01*
X5453515Y-15942555D02*
X5463039Y-15961603D01*
X5463039Y-15961603D02*
X5472563Y-15999698D01*
X5472563Y-15999698D02*
X5472563Y-16028269D01*
X5472563Y-16028269D02*
X5463039Y-16066365D01*
X5463039Y-16066365D02*
X5453515Y-16085412D01*
X5453515Y-16085412D02*
X5434467Y-16104460D01*
X5434467Y-16104460D02*
X5405896Y-16113984D01*
X5405896Y-16113984D02*
X5358277Y-16113984D01*
X5558277Y-16113984D02*
X5558277Y-15980650D01*
X5558277Y-16018746D02*
X5567801Y-15999698D01*
X5567801Y-15999698D02*
X5577324Y-15990174D01*
X5577324Y-15990174D02*
X5596372Y-15980650D01*
X5596372Y-15980650D02*
X5615420Y-15980650D01*
X5682086Y-16113984D02*
X5682086Y-15980650D01*
X5682086Y-15913984D02*
X5672562Y-15923508D01*
X5672562Y-15923508D02*
X5682086Y-15933031D01*
X5682086Y-15933031D02*
X5691610Y-15923508D01*
X5691610Y-15923508D02*
X5682086Y-15913984D01*
X5682086Y-15913984D02*
X5682086Y-15933031D01*
X5805896Y-16113984D02*
X5786848Y-16104460D01*
X5786848Y-16104460D02*
X5777324Y-16085412D01*
X5777324Y-16085412D02*
X5777324Y-15913984D01*
X5910658Y-16113984D02*
X5891610Y-16104460D01*
X5891610Y-16104460D02*
X5882086Y-16085412D01*
X5882086Y-16085412D02*
X5882086Y-15913984D01*
X6139229Y-16113984D02*
X6139229Y-15913984D01*
X6139229Y-15913984D02*
X6205896Y-16056841D01*
X6205896Y-16056841D02*
X6272562Y-15913984D01*
X6272562Y-15913984D02*
X6272562Y-16113984D01*
X6453515Y-16113984D02*
X6453515Y-16009222D01*
X6453515Y-16009222D02*
X6443991Y-15990174D01*
X6443991Y-15990174D02*
X6424943Y-15980650D01*
X6424943Y-15980650D02*
X6386848Y-15980650D01*
X6386848Y-15980650D02*
X6367801Y-15990174D01*
X6453515Y-16104460D02*
X6434467Y-16113984D01*
X6434467Y-16113984D02*
X6386848Y-16113984D01*
X6386848Y-16113984D02*
X6367801Y-16104460D01*
X6367801Y-16104460D02*
X6358277Y-16085412D01*
X6358277Y-16085412D02*
X6358277Y-16066365D01*
X6358277Y-16066365D02*
X6367801Y-16047317D01*
X6367801Y-16047317D02*
X6386848Y-16037793D01*
X6386848Y-16037793D02*
X6434467Y-16037793D01*
X6434467Y-16037793D02*
X6453515Y-16028269D01*
X6548753Y-15980650D02*
X6548753Y-16180650D01*
X6548753Y-15990174D02*
X6567801Y-15980650D01*
X6567801Y-15980650D02*
X6605896Y-15980650D01*
X6605896Y-15980650D02*
X6624943Y-15990174D01*
X6624943Y-15990174D02*
X6634467Y-15999698D01*
X6634467Y-15999698D02*
X6643991Y-16018746D01*
X6643991Y-16018746D02*
X6643991Y-16075888D01*
X6643991Y-16075888D02*
X6634467Y-16094936D01*
X6634467Y-16094936D02*
X6624943Y-16104460D01*
X6624943Y-16104460D02*
X6605896Y-16113984D01*
X6605896Y-16113984D02*
X6567801Y-16113984D01*
X6567801Y-16113984D02*
X6548753Y-16104460D01*
X6729705Y-16094936D02*
X6739229Y-16104460D01*
X6739229Y-16104460D02*
X6729705Y-16113984D01*
X6729705Y-16113984D02*
X6720182Y-16104460D01*
X6720182Y-16104460D02*
X6729705Y-16094936D01*
X6729705Y-16094936D02*
X6729705Y-16113984D01*
X6729705Y-15990174D02*
X6739229Y-15999698D01*
X6739229Y-15999698D02*
X6729705Y-16009222D01*
X6729705Y-16009222D02*
X6720182Y-15999698D01*
X6720182Y-15999698D02*
X6729705Y-15990174D01*
X6729705Y-15990174D02*
X6729705Y-16009222D01*
M02*
