%TF.GenerationSoftware,KiCad,Pcbnew,8.0.6*%
%TF.CreationDate,2024-11-20T17:21:20-05:00*%
%TF.ProjectId,RailsidePDB,5261696c-7369-4646-9550-44422e6b6963,rev?*%
%TF.SameCoordinates,Original*%
%TF.FileFunction,Copper,L1,Top*%
%TF.FilePolarity,Positive*%
%FSLAX46Y46*%
G04 Gerber Fmt 4.6, Leading zero omitted, Abs format (unit mm)*
G04 Created by KiCad (PCBNEW 8.0.6) date 2024-11-20 17:21:20*
%MOMM*%
%LPD*%
G01*
G04 APERTURE LIST*
G04 Aperture macros list*
%AMRoundRect*
0 Rectangle with rounded corners*
0 $1 Rounding radius*
0 $2 $3 $4 $5 $6 $7 $8 $9 X,Y pos of 4 corners*
0 Add a 4 corners polygon primitive as box body*
4,1,4,$2,$3,$4,$5,$6,$7,$8,$9,$2,$3,0*
0 Add four circle primitives for the rounded corners*
1,1,$1+$1,$2,$3*
1,1,$1+$1,$4,$5*
1,1,$1+$1,$6,$7*
1,1,$1+$1,$8,$9*
0 Add four rect primitives between the rounded corners*
20,1,$1+$1,$2,$3,$4,$5,0*
20,1,$1+$1,$4,$5,$6,$7,0*
20,1,$1+$1,$6,$7,$8,$9,0*
20,1,$1+$1,$8,$9,$2,$3,0*%
G04 Aperture macros list end*
%ADD10C,0.300000*%
%TA.AperFunction,NonConductor*%
%ADD11C,0.300000*%
%TD*%
%TA.AperFunction,ComponentPad*%
%ADD12C,3.000000*%
%TD*%
%TA.AperFunction,ComponentPad*%
%ADD13RoundRect,0.750000X0.750000X-0.750000X0.750000X0.750000X-0.750000X0.750000X-0.750000X-0.750000X0*%
%TD*%
%TA.AperFunction,ComponentPad*%
%ADD14C,2.780000*%
%TD*%
%TA.AperFunction,ComponentPad*%
%ADD15O,6.000000X6.000000*%
%TD*%
%TA.AperFunction,ComponentPad*%
%ADD16O,4.000000X1.500000*%
%TD*%
%TA.AperFunction,Conductor*%
%ADD17C,1.500000*%
%TD*%
G04 APERTURE END LIST*
D10*
D11*
X67001653Y-153195912D02*
X66501653Y-152481626D01*
X66144510Y-153195912D02*
X66144510Y-151695912D01*
X66144510Y-151695912D02*
X66715939Y-151695912D01*
X66715939Y-151695912D02*
X66858796Y-151767341D01*
X66858796Y-151767341D02*
X66930225Y-151838769D01*
X66930225Y-151838769D02*
X67001653Y-151981626D01*
X67001653Y-151981626D02*
X67001653Y-152195912D01*
X67001653Y-152195912D02*
X66930225Y-152338769D01*
X66930225Y-152338769D02*
X66858796Y-152410198D01*
X66858796Y-152410198D02*
X66715939Y-152481626D01*
X66715939Y-152481626D02*
X66144510Y-152481626D01*
X68287368Y-153195912D02*
X68287368Y-152410198D01*
X68287368Y-152410198D02*
X68215939Y-152267341D01*
X68215939Y-152267341D02*
X68073082Y-152195912D01*
X68073082Y-152195912D02*
X67787368Y-152195912D01*
X67787368Y-152195912D02*
X67644510Y-152267341D01*
X68287368Y-153124484D02*
X68144510Y-153195912D01*
X68144510Y-153195912D02*
X67787368Y-153195912D01*
X67787368Y-153195912D02*
X67644510Y-153124484D01*
X67644510Y-153124484D02*
X67573082Y-152981626D01*
X67573082Y-152981626D02*
X67573082Y-152838769D01*
X67573082Y-152838769D02*
X67644510Y-152695912D01*
X67644510Y-152695912D02*
X67787368Y-152624484D01*
X67787368Y-152624484D02*
X68144510Y-152624484D01*
X68144510Y-152624484D02*
X68287368Y-152553055D01*
X69001653Y-153195912D02*
X69001653Y-152195912D01*
X69001653Y-151695912D02*
X68930225Y-151767341D01*
X68930225Y-151767341D02*
X69001653Y-151838769D01*
X69001653Y-151838769D02*
X69073082Y-151767341D01*
X69073082Y-151767341D02*
X69001653Y-151695912D01*
X69001653Y-151695912D02*
X69001653Y-151838769D01*
X69930225Y-153195912D02*
X69787368Y-153124484D01*
X69787368Y-153124484D02*
X69715939Y-152981626D01*
X69715939Y-152981626D02*
X69715939Y-151695912D01*
X70430225Y-153124484D02*
X70573082Y-153195912D01*
X70573082Y-153195912D02*
X70858796Y-153195912D01*
X70858796Y-153195912D02*
X71001653Y-153124484D01*
X71001653Y-153124484D02*
X71073082Y-152981626D01*
X71073082Y-152981626D02*
X71073082Y-152910198D01*
X71073082Y-152910198D02*
X71001653Y-152767341D01*
X71001653Y-152767341D02*
X70858796Y-152695912D01*
X70858796Y-152695912D02*
X70644511Y-152695912D01*
X70644511Y-152695912D02*
X70501653Y-152624484D01*
X70501653Y-152624484D02*
X70430225Y-152481626D01*
X70430225Y-152481626D02*
X70430225Y-152410198D01*
X70430225Y-152410198D02*
X70501653Y-152267341D01*
X70501653Y-152267341D02*
X70644511Y-152195912D01*
X70644511Y-152195912D02*
X70858796Y-152195912D01*
X70858796Y-152195912D02*
X71001653Y-152267341D01*
X71715939Y-153195912D02*
X71715939Y-152195912D01*
X71715939Y-151695912D02*
X71644511Y-151767341D01*
X71644511Y-151767341D02*
X71715939Y-151838769D01*
X71715939Y-151838769D02*
X71787368Y-151767341D01*
X71787368Y-151767341D02*
X71715939Y-151695912D01*
X71715939Y-151695912D02*
X71715939Y-151838769D01*
X73073083Y-153195912D02*
X73073083Y-151695912D01*
X73073083Y-153124484D02*
X72930225Y-153195912D01*
X72930225Y-153195912D02*
X72644511Y-153195912D01*
X72644511Y-153195912D02*
X72501654Y-153124484D01*
X72501654Y-153124484D02*
X72430225Y-153053055D01*
X72430225Y-153053055D02*
X72358797Y-152910198D01*
X72358797Y-152910198D02*
X72358797Y-152481626D01*
X72358797Y-152481626D02*
X72430225Y-152338769D01*
X72430225Y-152338769D02*
X72501654Y-152267341D01*
X72501654Y-152267341D02*
X72644511Y-152195912D01*
X72644511Y-152195912D02*
X72930225Y-152195912D01*
X72930225Y-152195912D02*
X73073083Y-152267341D01*
X74358797Y-153124484D02*
X74215940Y-153195912D01*
X74215940Y-153195912D02*
X73930226Y-153195912D01*
X73930226Y-153195912D02*
X73787368Y-153124484D01*
X73787368Y-153124484D02*
X73715940Y-152981626D01*
X73715940Y-152981626D02*
X73715940Y-152410198D01*
X73715940Y-152410198D02*
X73787368Y-152267341D01*
X73787368Y-152267341D02*
X73930226Y-152195912D01*
X73930226Y-152195912D02*
X74215940Y-152195912D01*
X74215940Y-152195912D02*
X74358797Y-152267341D01*
X74358797Y-152267341D02*
X74430226Y-152410198D01*
X74430226Y-152410198D02*
X74430226Y-152553055D01*
X74430226Y-152553055D02*
X73715940Y-152695912D01*
X77073082Y-153195912D02*
X76573082Y-152481626D01*
X76215939Y-153195912D02*
X76215939Y-151695912D01*
X76215939Y-151695912D02*
X76787368Y-151695912D01*
X76787368Y-151695912D02*
X76930225Y-151767341D01*
X76930225Y-151767341D02*
X77001654Y-151838769D01*
X77001654Y-151838769D02*
X77073082Y-151981626D01*
X77073082Y-151981626D02*
X77073082Y-152195912D01*
X77073082Y-152195912D02*
X77001654Y-152338769D01*
X77001654Y-152338769D02*
X76930225Y-152410198D01*
X76930225Y-152410198D02*
X76787368Y-152481626D01*
X76787368Y-152481626D02*
X76215939Y-152481626D01*
X77930225Y-153195912D02*
X77787368Y-153124484D01*
X77787368Y-153124484D02*
X77715939Y-153053055D01*
X77715939Y-153053055D02*
X77644511Y-152910198D01*
X77644511Y-152910198D02*
X77644511Y-152481626D01*
X77644511Y-152481626D02*
X77715939Y-152338769D01*
X77715939Y-152338769D02*
X77787368Y-152267341D01*
X77787368Y-152267341D02*
X77930225Y-152195912D01*
X77930225Y-152195912D02*
X78144511Y-152195912D01*
X78144511Y-152195912D02*
X78287368Y-152267341D01*
X78287368Y-152267341D02*
X78358797Y-152338769D01*
X78358797Y-152338769D02*
X78430225Y-152481626D01*
X78430225Y-152481626D02*
X78430225Y-152910198D01*
X78430225Y-152910198D02*
X78358797Y-153053055D01*
X78358797Y-153053055D02*
X78287368Y-153124484D01*
X78287368Y-153124484D02*
X78144511Y-153195912D01*
X78144511Y-153195912D02*
X77930225Y-153195912D01*
X79073082Y-153195912D02*
X79073082Y-151695912D01*
X79073082Y-152267341D02*
X79215940Y-152195912D01*
X79215940Y-152195912D02*
X79501654Y-152195912D01*
X79501654Y-152195912D02*
X79644511Y-152267341D01*
X79644511Y-152267341D02*
X79715940Y-152338769D01*
X79715940Y-152338769D02*
X79787368Y-152481626D01*
X79787368Y-152481626D02*
X79787368Y-152910198D01*
X79787368Y-152910198D02*
X79715940Y-153053055D01*
X79715940Y-153053055D02*
X79644511Y-153124484D01*
X79644511Y-153124484D02*
X79501654Y-153195912D01*
X79501654Y-153195912D02*
X79215940Y-153195912D01*
X79215940Y-153195912D02*
X79073082Y-153124484D01*
X80644511Y-153195912D02*
X80501654Y-153124484D01*
X80501654Y-153124484D02*
X80430225Y-153053055D01*
X80430225Y-153053055D02*
X80358797Y-152910198D01*
X80358797Y-152910198D02*
X80358797Y-152481626D01*
X80358797Y-152481626D02*
X80430225Y-152338769D01*
X80430225Y-152338769D02*
X80501654Y-152267341D01*
X80501654Y-152267341D02*
X80644511Y-152195912D01*
X80644511Y-152195912D02*
X80858797Y-152195912D01*
X80858797Y-152195912D02*
X81001654Y-152267341D01*
X81001654Y-152267341D02*
X81073083Y-152338769D01*
X81073083Y-152338769D02*
X81144511Y-152481626D01*
X81144511Y-152481626D02*
X81144511Y-152910198D01*
X81144511Y-152910198D02*
X81073083Y-153053055D01*
X81073083Y-153053055D02*
X81001654Y-153124484D01*
X81001654Y-153124484D02*
X80858797Y-153195912D01*
X80858797Y-153195912D02*
X80644511Y-153195912D01*
X81573083Y-152195912D02*
X82144511Y-152195912D01*
X81787368Y-151695912D02*
X81787368Y-152981626D01*
X81787368Y-152981626D02*
X81858797Y-153124484D01*
X81858797Y-153124484D02*
X82001654Y-153195912D01*
X82001654Y-153195912D02*
X82144511Y-153195912D01*
X82644511Y-153195912D02*
X82644511Y-152195912D01*
X82644511Y-151695912D02*
X82573083Y-151767341D01*
X82573083Y-151767341D02*
X82644511Y-151838769D01*
X82644511Y-151838769D02*
X82715940Y-151767341D01*
X82715940Y-151767341D02*
X82644511Y-151695912D01*
X82644511Y-151695912D02*
X82644511Y-151838769D01*
X84001655Y-153124484D02*
X83858797Y-153195912D01*
X83858797Y-153195912D02*
X83573083Y-153195912D01*
X83573083Y-153195912D02*
X83430226Y-153124484D01*
X83430226Y-153124484D02*
X83358797Y-153053055D01*
X83358797Y-153053055D02*
X83287369Y-152910198D01*
X83287369Y-152910198D02*
X83287369Y-152481626D01*
X83287369Y-152481626D02*
X83358797Y-152338769D01*
X83358797Y-152338769D02*
X83430226Y-152267341D01*
X83430226Y-152267341D02*
X83573083Y-152195912D01*
X83573083Y-152195912D02*
X83858797Y-152195912D01*
X83858797Y-152195912D02*
X84001655Y-152267341D01*
X84573083Y-153124484D02*
X84715940Y-153195912D01*
X84715940Y-153195912D02*
X85001654Y-153195912D01*
X85001654Y-153195912D02*
X85144511Y-153124484D01*
X85144511Y-153124484D02*
X85215940Y-152981626D01*
X85215940Y-152981626D02*
X85215940Y-152910198D01*
X85215940Y-152910198D02*
X85144511Y-152767341D01*
X85144511Y-152767341D02*
X85001654Y-152695912D01*
X85001654Y-152695912D02*
X84787369Y-152695912D01*
X84787369Y-152695912D02*
X84644511Y-152624484D01*
X84644511Y-152624484D02*
X84573083Y-152481626D01*
X84573083Y-152481626D02*
X84573083Y-152410198D01*
X84573083Y-152410198D02*
X84644511Y-152267341D01*
X84644511Y-152267341D02*
X84787369Y-152195912D01*
X84787369Y-152195912D02*
X85001654Y-152195912D01*
X85001654Y-152195912D02*
X85144511Y-152267341D01*
X66144510Y-155610828D02*
X66144510Y-154110828D01*
X66144510Y-154110828D02*
X66715939Y-154110828D01*
X66715939Y-154110828D02*
X66858796Y-154182257D01*
X66858796Y-154182257D02*
X66930225Y-154253685D01*
X66930225Y-154253685D02*
X67001653Y-154396542D01*
X67001653Y-154396542D02*
X67001653Y-154610828D01*
X67001653Y-154610828D02*
X66930225Y-154753685D01*
X66930225Y-154753685D02*
X66858796Y-154825114D01*
X66858796Y-154825114D02*
X66715939Y-154896542D01*
X66715939Y-154896542D02*
X66144510Y-154896542D01*
X67644510Y-155610828D02*
X67644510Y-154110828D01*
X67644510Y-154110828D02*
X68001653Y-154110828D01*
X68001653Y-154110828D02*
X68215939Y-154182257D01*
X68215939Y-154182257D02*
X68358796Y-154325114D01*
X68358796Y-154325114D02*
X68430225Y-154467971D01*
X68430225Y-154467971D02*
X68501653Y-154753685D01*
X68501653Y-154753685D02*
X68501653Y-154967971D01*
X68501653Y-154967971D02*
X68430225Y-155253685D01*
X68430225Y-155253685D02*
X68358796Y-155396542D01*
X68358796Y-155396542D02*
X68215939Y-155539400D01*
X68215939Y-155539400D02*
X68001653Y-155610828D01*
X68001653Y-155610828D02*
X67644510Y-155610828D01*
X71073082Y-155610828D02*
X70215939Y-155610828D01*
X70644510Y-155610828D02*
X70644510Y-154110828D01*
X70644510Y-154110828D02*
X70501653Y-154325114D01*
X70501653Y-154325114D02*
X70358796Y-154467971D01*
X70358796Y-154467971D02*
X70215939Y-154539400D01*
X71715938Y-155467971D02*
X71787367Y-155539400D01*
X71787367Y-155539400D02*
X71715938Y-155610828D01*
X71715938Y-155610828D02*
X71644510Y-155539400D01*
X71644510Y-155539400D02*
X71715938Y-155467971D01*
X71715938Y-155467971D02*
X71715938Y-155610828D01*
X72715939Y-154110828D02*
X72858796Y-154110828D01*
X72858796Y-154110828D02*
X73001653Y-154182257D01*
X73001653Y-154182257D02*
X73073082Y-154253685D01*
X73073082Y-154253685D02*
X73144510Y-154396542D01*
X73144510Y-154396542D02*
X73215939Y-154682257D01*
X73215939Y-154682257D02*
X73215939Y-155039400D01*
X73215939Y-155039400D02*
X73144510Y-155325114D01*
X73144510Y-155325114D02*
X73073082Y-155467971D01*
X73073082Y-155467971D02*
X73001653Y-155539400D01*
X73001653Y-155539400D02*
X72858796Y-155610828D01*
X72858796Y-155610828D02*
X72715939Y-155610828D01*
X72715939Y-155610828D02*
X72573082Y-155539400D01*
X72573082Y-155539400D02*
X72501653Y-155467971D01*
X72501653Y-155467971D02*
X72430224Y-155325114D01*
X72430224Y-155325114D02*
X72358796Y-155039400D01*
X72358796Y-155039400D02*
X72358796Y-154682257D01*
X72358796Y-154682257D02*
X72430224Y-154396542D01*
X72430224Y-154396542D02*
X72501653Y-154253685D01*
X72501653Y-154253685D02*
X72573082Y-154182257D01*
X72573082Y-154182257D02*
X72715939Y-154110828D01*
D10*
D11*
X67126653Y-128275912D02*
X66626653Y-127561626D01*
X66269510Y-128275912D02*
X66269510Y-126775912D01*
X66269510Y-126775912D02*
X66840939Y-126775912D01*
X66840939Y-126775912D02*
X66983796Y-126847341D01*
X66983796Y-126847341D02*
X67055225Y-126918769D01*
X67055225Y-126918769D02*
X67126653Y-127061626D01*
X67126653Y-127061626D02*
X67126653Y-127275912D01*
X67126653Y-127275912D02*
X67055225Y-127418769D01*
X67055225Y-127418769D02*
X66983796Y-127490198D01*
X66983796Y-127490198D02*
X66840939Y-127561626D01*
X66840939Y-127561626D02*
X66269510Y-127561626D01*
X68412368Y-128275912D02*
X68412368Y-127490198D01*
X68412368Y-127490198D02*
X68340939Y-127347341D01*
X68340939Y-127347341D02*
X68198082Y-127275912D01*
X68198082Y-127275912D02*
X67912368Y-127275912D01*
X67912368Y-127275912D02*
X67769510Y-127347341D01*
X68412368Y-128204484D02*
X68269510Y-128275912D01*
X68269510Y-128275912D02*
X67912368Y-128275912D01*
X67912368Y-128275912D02*
X67769510Y-128204484D01*
X67769510Y-128204484D02*
X67698082Y-128061626D01*
X67698082Y-128061626D02*
X67698082Y-127918769D01*
X67698082Y-127918769D02*
X67769510Y-127775912D01*
X67769510Y-127775912D02*
X67912368Y-127704484D01*
X67912368Y-127704484D02*
X68269510Y-127704484D01*
X68269510Y-127704484D02*
X68412368Y-127633055D01*
X69126653Y-128275912D02*
X69126653Y-127275912D01*
X69126653Y-126775912D02*
X69055225Y-126847341D01*
X69055225Y-126847341D02*
X69126653Y-126918769D01*
X69126653Y-126918769D02*
X69198082Y-126847341D01*
X69198082Y-126847341D02*
X69126653Y-126775912D01*
X69126653Y-126775912D02*
X69126653Y-126918769D01*
X70055225Y-128275912D02*
X69912368Y-128204484D01*
X69912368Y-128204484D02*
X69840939Y-128061626D01*
X69840939Y-128061626D02*
X69840939Y-126775912D01*
X70555225Y-128204484D02*
X70698082Y-128275912D01*
X70698082Y-128275912D02*
X70983796Y-128275912D01*
X70983796Y-128275912D02*
X71126653Y-128204484D01*
X71126653Y-128204484D02*
X71198082Y-128061626D01*
X71198082Y-128061626D02*
X71198082Y-127990198D01*
X71198082Y-127990198D02*
X71126653Y-127847341D01*
X71126653Y-127847341D02*
X70983796Y-127775912D01*
X70983796Y-127775912D02*
X70769511Y-127775912D01*
X70769511Y-127775912D02*
X70626653Y-127704484D01*
X70626653Y-127704484D02*
X70555225Y-127561626D01*
X70555225Y-127561626D02*
X70555225Y-127490198D01*
X70555225Y-127490198D02*
X70626653Y-127347341D01*
X70626653Y-127347341D02*
X70769511Y-127275912D01*
X70769511Y-127275912D02*
X70983796Y-127275912D01*
X70983796Y-127275912D02*
X71126653Y-127347341D01*
X71840939Y-128275912D02*
X71840939Y-127275912D01*
X71840939Y-126775912D02*
X71769511Y-126847341D01*
X71769511Y-126847341D02*
X71840939Y-126918769D01*
X71840939Y-126918769D02*
X71912368Y-126847341D01*
X71912368Y-126847341D02*
X71840939Y-126775912D01*
X71840939Y-126775912D02*
X71840939Y-126918769D01*
X73198083Y-128275912D02*
X73198083Y-126775912D01*
X73198083Y-128204484D02*
X73055225Y-128275912D01*
X73055225Y-128275912D02*
X72769511Y-128275912D01*
X72769511Y-128275912D02*
X72626654Y-128204484D01*
X72626654Y-128204484D02*
X72555225Y-128133055D01*
X72555225Y-128133055D02*
X72483797Y-127990198D01*
X72483797Y-127990198D02*
X72483797Y-127561626D01*
X72483797Y-127561626D02*
X72555225Y-127418769D01*
X72555225Y-127418769D02*
X72626654Y-127347341D01*
X72626654Y-127347341D02*
X72769511Y-127275912D01*
X72769511Y-127275912D02*
X73055225Y-127275912D01*
X73055225Y-127275912D02*
X73198083Y-127347341D01*
X74483797Y-128204484D02*
X74340940Y-128275912D01*
X74340940Y-128275912D02*
X74055226Y-128275912D01*
X74055226Y-128275912D02*
X73912368Y-128204484D01*
X73912368Y-128204484D02*
X73840940Y-128061626D01*
X73840940Y-128061626D02*
X73840940Y-127490198D01*
X73840940Y-127490198D02*
X73912368Y-127347341D01*
X73912368Y-127347341D02*
X74055226Y-127275912D01*
X74055226Y-127275912D02*
X74340940Y-127275912D01*
X74340940Y-127275912D02*
X74483797Y-127347341D01*
X74483797Y-127347341D02*
X74555226Y-127490198D01*
X74555226Y-127490198D02*
X74555226Y-127633055D01*
X74555226Y-127633055D02*
X73840940Y-127775912D01*
X77198082Y-128275912D02*
X76698082Y-127561626D01*
X76340939Y-128275912D02*
X76340939Y-126775912D01*
X76340939Y-126775912D02*
X76912368Y-126775912D01*
X76912368Y-126775912D02*
X77055225Y-126847341D01*
X77055225Y-126847341D02*
X77126654Y-126918769D01*
X77126654Y-126918769D02*
X77198082Y-127061626D01*
X77198082Y-127061626D02*
X77198082Y-127275912D01*
X77198082Y-127275912D02*
X77126654Y-127418769D01*
X77126654Y-127418769D02*
X77055225Y-127490198D01*
X77055225Y-127490198D02*
X76912368Y-127561626D01*
X76912368Y-127561626D02*
X76340939Y-127561626D01*
X78055225Y-128275912D02*
X77912368Y-128204484D01*
X77912368Y-128204484D02*
X77840939Y-128133055D01*
X77840939Y-128133055D02*
X77769511Y-127990198D01*
X77769511Y-127990198D02*
X77769511Y-127561626D01*
X77769511Y-127561626D02*
X77840939Y-127418769D01*
X77840939Y-127418769D02*
X77912368Y-127347341D01*
X77912368Y-127347341D02*
X78055225Y-127275912D01*
X78055225Y-127275912D02*
X78269511Y-127275912D01*
X78269511Y-127275912D02*
X78412368Y-127347341D01*
X78412368Y-127347341D02*
X78483797Y-127418769D01*
X78483797Y-127418769D02*
X78555225Y-127561626D01*
X78555225Y-127561626D02*
X78555225Y-127990198D01*
X78555225Y-127990198D02*
X78483797Y-128133055D01*
X78483797Y-128133055D02*
X78412368Y-128204484D01*
X78412368Y-128204484D02*
X78269511Y-128275912D01*
X78269511Y-128275912D02*
X78055225Y-128275912D01*
X79198082Y-128275912D02*
X79198082Y-126775912D01*
X79198082Y-127347341D02*
X79340940Y-127275912D01*
X79340940Y-127275912D02*
X79626654Y-127275912D01*
X79626654Y-127275912D02*
X79769511Y-127347341D01*
X79769511Y-127347341D02*
X79840940Y-127418769D01*
X79840940Y-127418769D02*
X79912368Y-127561626D01*
X79912368Y-127561626D02*
X79912368Y-127990198D01*
X79912368Y-127990198D02*
X79840940Y-128133055D01*
X79840940Y-128133055D02*
X79769511Y-128204484D01*
X79769511Y-128204484D02*
X79626654Y-128275912D01*
X79626654Y-128275912D02*
X79340940Y-128275912D01*
X79340940Y-128275912D02*
X79198082Y-128204484D01*
X80769511Y-128275912D02*
X80626654Y-128204484D01*
X80626654Y-128204484D02*
X80555225Y-128133055D01*
X80555225Y-128133055D02*
X80483797Y-127990198D01*
X80483797Y-127990198D02*
X80483797Y-127561626D01*
X80483797Y-127561626D02*
X80555225Y-127418769D01*
X80555225Y-127418769D02*
X80626654Y-127347341D01*
X80626654Y-127347341D02*
X80769511Y-127275912D01*
X80769511Y-127275912D02*
X80983797Y-127275912D01*
X80983797Y-127275912D02*
X81126654Y-127347341D01*
X81126654Y-127347341D02*
X81198083Y-127418769D01*
X81198083Y-127418769D02*
X81269511Y-127561626D01*
X81269511Y-127561626D02*
X81269511Y-127990198D01*
X81269511Y-127990198D02*
X81198083Y-128133055D01*
X81198083Y-128133055D02*
X81126654Y-128204484D01*
X81126654Y-128204484D02*
X80983797Y-128275912D01*
X80983797Y-128275912D02*
X80769511Y-128275912D01*
X81698083Y-127275912D02*
X82269511Y-127275912D01*
X81912368Y-126775912D02*
X81912368Y-128061626D01*
X81912368Y-128061626D02*
X81983797Y-128204484D01*
X81983797Y-128204484D02*
X82126654Y-128275912D01*
X82126654Y-128275912D02*
X82269511Y-128275912D01*
X82769511Y-128275912D02*
X82769511Y-127275912D01*
X82769511Y-126775912D02*
X82698083Y-126847341D01*
X82698083Y-126847341D02*
X82769511Y-126918769D01*
X82769511Y-126918769D02*
X82840940Y-126847341D01*
X82840940Y-126847341D02*
X82769511Y-126775912D01*
X82769511Y-126775912D02*
X82769511Y-126918769D01*
X84126655Y-128204484D02*
X83983797Y-128275912D01*
X83983797Y-128275912D02*
X83698083Y-128275912D01*
X83698083Y-128275912D02*
X83555226Y-128204484D01*
X83555226Y-128204484D02*
X83483797Y-128133055D01*
X83483797Y-128133055D02*
X83412369Y-127990198D01*
X83412369Y-127990198D02*
X83412369Y-127561626D01*
X83412369Y-127561626D02*
X83483797Y-127418769D01*
X83483797Y-127418769D02*
X83555226Y-127347341D01*
X83555226Y-127347341D02*
X83698083Y-127275912D01*
X83698083Y-127275912D02*
X83983797Y-127275912D01*
X83983797Y-127275912D02*
X84126655Y-127347341D01*
X84698083Y-128204484D02*
X84840940Y-128275912D01*
X84840940Y-128275912D02*
X85126654Y-128275912D01*
X85126654Y-128275912D02*
X85269511Y-128204484D01*
X85269511Y-128204484D02*
X85340940Y-128061626D01*
X85340940Y-128061626D02*
X85340940Y-127990198D01*
X85340940Y-127990198D02*
X85269511Y-127847341D01*
X85269511Y-127847341D02*
X85126654Y-127775912D01*
X85126654Y-127775912D02*
X84912369Y-127775912D01*
X84912369Y-127775912D02*
X84769511Y-127704484D01*
X84769511Y-127704484D02*
X84698083Y-127561626D01*
X84698083Y-127561626D02*
X84698083Y-127490198D01*
X84698083Y-127490198D02*
X84769511Y-127347341D01*
X84769511Y-127347341D02*
X84912369Y-127275912D01*
X84912369Y-127275912D02*
X85126654Y-127275912D01*
X85126654Y-127275912D02*
X85269511Y-127347341D01*
X66269510Y-130690828D02*
X66269510Y-129190828D01*
X66269510Y-129190828D02*
X66840939Y-129190828D01*
X66840939Y-129190828D02*
X66983796Y-129262257D01*
X66983796Y-129262257D02*
X67055225Y-129333685D01*
X67055225Y-129333685D02*
X67126653Y-129476542D01*
X67126653Y-129476542D02*
X67126653Y-129690828D01*
X67126653Y-129690828D02*
X67055225Y-129833685D01*
X67055225Y-129833685D02*
X66983796Y-129905114D01*
X66983796Y-129905114D02*
X66840939Y-129976542D01*
X66840939Y-129976542D02*
X66269510Y-129976542D01*
X67769510Y-130690828D02*
X67769510Y-129190828D01*
X67769510Y-129190828D02*
X68126653Y-129190828D01*
X68126653Y-129190828D02*
X68340939Y-129262257D01*
X68340939Y-129262257D02*
X68483796Y-129405114D01*
X68483796Y-129405114D02*
X68555225Y-129547971D01*
X68555225Y-129547971D02*
X68626653Y-129833685D01*
X68626653Y-129833685D02*
X68626653Y-130047971D01*
X68626653Y-130047971D02*
X68555225Y-130333685D01*
X68555225Y-130333685D02*
X68483796Y-130476542D01*
X68483796Y-130476542D02*
X68340939Y-130619400D01*
X68340939Y-130619400D02*
X68126653Y-130690828D01*
X68126653Y-130690828D02*
X67769510Y-130690828D01*
X71198082Y-130690828D02*
X70340939Y-130690828D01*
X70769510Y-130690828D02*
X70769510Y-129190828D01*
X70769510Y-129190828D02*
X70626653Y-129405114D01*
X70626653Y-129405114D02*
X70483796Y-129547971D01*
X70483796Y-129547971D02*
X70340939Y-129619400D01*
X71840938Y-130547971D02*
X71912367Y-130619400D01*
X71912367Y-130619400D02*
X71840938Y-130690828D01*
X71840938Y-130690828D02*
X71769510Y-130619400D01*
X71769510Y-130619400D02*
X71840938Y-130547971D01*
X71840938Y-130547971D02*
X71840938Y-130690828D01*
X72840939Y-129190828D02*
X72983796Y-129190828D01*
X72983796Y-129190828D02*
X73126653Y-129262257D01*
X73126653Y-129262257D02*
X73198082Y-129333685D01*
X73198082Y-129333685D02*
X73269510Y-129476542D01*
X73269510Y-129476542D02*
X73340939Y-129762257D01*
X73340939Y-129762257D02*
X73340939Y-130119400D01*
X73340939Y-130119400D02*
X73269510Y-130405114D01*
X73269510Y-130405114D02*
X73198082Y-130547971D01*
X73198082Y-130547971D02*
X73126653Y-130619400D01*
X73126653Y-130619400D02*
X72983796Y-130690828D01*
X72983796Y-130690828D02*
X72840939Y-130690828D01*
X72840939Y-130690828D02*
X72698082Y-130619400D01*
X72698082Y-130619400D02*
X72626653Y-130547971D01*
X72626653Y-130547971D02*
X72555224Y-130405114D01*
X72555224Y-130405114D02*
X72483796Y-130119400D01*
X72483796Y-130119400D02*
X72483796Y-129762257D01*
X72483796Y-129762257D02*
X72555224Y-129476542D01*
X72555224Y-129476542D02*
X72626653Y-129333685D01*
X72626653Y-129333685D02*
X72698082Y-129262257D01*
X72698082Y-129262257D02*
X72840939Y-129190828D01*
D10*
D11*
X67476653Y-104500912D02*
X66976653Y-103786626D01*
X66619510Y-104500912D02*
X66619510Y-103000912D01*
X66619510Y-103000912D02*
X67190939Y-103000912D01*
X67190939Y-103000912D02*
X67333796Y-103072341D01*
X67333796Y-103072341D02*
X67405225Y-103143769D01*
X67405225Y-103143769D02*
X67476653Y-103286626D01*
X67476653Y-103286626D02*
X67476653Y-103500912D01*
X67476653Y-103500912D02*
X67405225Y-103643769D01*
X67405225Y-103643769D02*
X67333796Y-103715198D01*
X67333796Y-103715198D02*
X67190939Y-103786626D01*
X67190939Y-103786626D02*
X66619510Y-103786626D01*
X68762368Y-104500912D02*
X68762368Y-103715198D01*
X68762368Y-103715198D02*
X68690939Y-103572341D01*
X68690939Y-103572341D02*
X68548082Y-103500912D01*
X68548082Y-103500912D02*
X68262368Y-103500912D01*
X68262368Y-103500912D02*
X68119510Y-103572341D01*
X68762368Y-104429484D02*
X68619510Y-104500912D01*
X68619510Y-104500912D02*
X68262368Y-104500912D01*
X68262368Y-104500912D02*
X68119510Y-104429484D01*
X68119510Y-104429484D02*
X68048082Y-104286626D01*
X68048082Y-104286626D02*
X68048082Y-104143769D01*
X68048082Y-104143769D02*
X68119510Y-104000912D01*
X68119510Y-104000912D02*
X68262368Y-103929484D01*
X68262368Y-103929484D02*
X68619510Y-103929484D01*
X68619510Y-103929484D02*
X68762368Y-103858055D01*
X69476653Y-104500912D02*
X69476653Y-103500912D01*
X69476653Y-103000912D02*
X69405225Y-103072341D01*
X69405225Y-103072341D02*
X69476653Y-103143769D01*
X69476653Y-103143769D02*
X69548082Y-103072341D01*
X69548082Y-103072341D02*
X69476653Y-103000912D01*
X69476653Y-103000912D02*
X69476653Y-103143769D01*
X70405225Y-104500912D02*
X70262368Y-104429484D01*
X70262368Y-104429484D02*
X70190939Y-104286626D01*
X70190939Y-104286626D02*
X70190939Y-103000912D01*
X70905225Y-104429484D02*
X71048082Y-104500912D01*
X71048082Y-104500912D02*
X71333796Y-104500912D01*
X71333796Y-104500912D02*
X71476653Y-104429484D01*
X71476653Y-104429484D02*
X71548082Y-104286626D01*
X71548082Y-104286626D02*
X71548082Y-104215198D01*
X71548082Y-104215198D02*
X71476653Y-104072341D01*
X71476653Y-104072341D02*
X71333796Y-104000912D01*
X71333796Y-104000912D02*
X71119511Y-104000912D01*
X71119511Y-104000912D02*
X70976653Y-103929484D01*
X70976653Y-103929484D02*
X70905225Y-103786626D01*
X70905225Y-103786626D02*
X70905225Y-103715198D01*
X70905225Y-103715198D02*
X70976653Y-103572341D01*
X70976653Y-103572341D02*
X71119511Y-103500912D01*
X71119511Y-103500912D02*
X71333796Y-103500912D01*
X71333796Y-103500912D02*
X71476653Y-103572341D01*
X72190939Y-104500912D02*
X72190939Y-103500912D01*
X72190939Y-103000912D02*
X72119511Y-103072341D01*
X72119511Y-103072341D02*
X72190939Y-103143769D01*
X72190939Y-103143769D02*
X72262368Y-103072341D01*
X72262368Y-103072341D02*
X72190939Y-103000912D01*
X72190939Y-103000912D02*
X72190939Y-103143769D01*
X73548083Y-104500912D02*
X73548083Y-103000912D01*
X73548083Y-104429484D02*
X73405225Y-104500912D01*
X73405225Y-104500912D02*
X73119511Y-104500912D01*
X73119511Y-104500912D02*
X72976654Y-104429484D01*
X72976654Y-104429484D02*
X72905225Y-104358055D01*
X72905225Y-104358055D02*
X72833797Y-104215198D01*
X72833797Y-104215198D02*
X72833797Y-103786626D01*
X72833797Y-103786626D02*
X72905225Y-103643769D01*
X72905225Y-103643769D02*
X72976654Y-103572341D01*
X72976654Y-103572341D02*
X73119511Y-103500912D01*
X73119511Y-103500912D02*
X73405225Y-103500912D01*
X73405225Y-103500912D02*
X73548083Y-103572341D01*
X74833797Y-104429484D02*
X74690940Y-104500912D01*
X74690940Y-104500912D02*
X74405226Y-104500912D01*
X74405226Y-104500912D02*
X74262368Y-104429484D01*
X74262368Y-104429484D02*
X74190940Y-104286626D01*
X74190940Y-104286626D02*
X74190940Y-103715198D01*
X74190940Y-103715198D02*
X74262368Y-103572341D01*
X74262368Y-103572341D02*
X74405226Y-103500912D01*
X74405226Y-103500912D02*
X74690940Y-103500912D01*
X74690940Y-103500912D02*
X74833797Y-103572341D01*
X74833797Y-103572341D02*
X74905226Y-103715198D01*
X74905226Y-103715198D02*
X74905226Y-103858055D01*
X74905226Y-103858055D02*
X74190940Y-104000912D01*
X77548082Y-104500912D02*
X77048082Y-103786626D01*
X76690939Y-104500912D02*
X76690939Y-103000912D01*
X76690939Y-103000912D02*
X77262368Y-103000912D01*
X77262368Y-103000912D02*
X77405225Y-103072341D01*
X77405225Y-103072341D02*
X77476654Y-103143769D01*
X77476654Y-103143769D02*
X77548082Y-103286626D01*
X77548082Y-103286626D02*
X77548082Y-103500912D01*
X77548082Y-103500912D02*
X77476654Y-103643769D01*
X77476654Y-103643769D02*
X77405225Y-103715198D01*
X77405225Y-103715198D02*
X77262368Y-103786626D01*
X77262368Y-103786626D02*
X76690939Y-103786626D01*
X78405225Y-104500912D02*
X78262368Y-104429484D01*
X78262368Y-104429484D02*
X78190939Y-104358055D01*
X78190939Y-104358055D02*
X78119511Y-104215198D01*
X78119511Y-104215198D02*
X78119511Y-103786626D01*
X78119511Y-103786626D02*
X78190939Y-103643769D01*
X78190939Y-103643769D02*
X78262368Y-103572341D01*
X78262368Y-103572341D02*
X78405225Y-103500912D01*
X78405225Y-103500912D02*
X78619511Y-103500912D01*
X78619511Y-103500912D02*
X78762368Y-103572341D01*
X78762368Y-103572341D02*
X78833797Y-103643769D01*
X78833797Y-103643769D02*
X78905225Y-103786626D01*
X78905225Y-103786626D02*
X78905225Y-104215198D01*
X78905225Y-104215198D02*
X78833797Y-104358055D01*
X78833797Y-104358055D02*
X78762368Y-104429484D01*
X78762368Y-104429484D02*
X78619511Y-104500912D01*
X78619511Y-104500912D02*
X78405225Y-104500912D01*
X79548082Y-104500912D02*
X79548082Y-103000912D01*
X79548082Y-103572341D02*
X79690940Y-103500912D01*
X79690940Y-103500912D02*
X79976654Y-103500912D01*
X79976654Y-103500912D02*
X80119511Y-103572341D01*
X80119511Y-103572341D02*
X80190940Y-103643769D01*
X80190940Y-103643769D02*
X80262368Y-103786626D01*
X80262368Y-103786626D02*
X80262368Y-104215198D01*
X80262368Y-104215198D02*
X80190940Y-104358055D01*
X80190940Y-104358055D02*
X80119511Y-104429484D01*
X80119511Y-104429484D02*
X79976654Y-104500912D01*
X79976654Y-104500912D02*
X79690940Y-104500912D01*
X79690940Y-104500912D02*
X79548082Y-104429484D01*
X81119511Y-104500912D02*
X80976654Y-104429484D01*
X80976654Y-104429484D02*
X80905225Y-104358055D01*
X80905225Y-104358055D02*
X80833797Y-104215198D01*
X80833797Y-104215198D02*
X80833797Y-103786626D01*
X80833797Y-103786626D02*
X80905225Y-103643769D01*
X80905225Y-103643769D02*
X80976654Y-103572341D01*
X80976654Y-103572341D02*
X81119511Y-103500912D01*
X81119511Y-103500912D02*
X81333797Y-103500912D01*
X81333797Y-103500912D02*
X81476654Y-103572341D01*
X81476654Y-103572341D02*
X81548083Y-103643769D01*
X81548083Y-103643769D02*
X81619511Y-103786626D01*
X81619511Y-103786626D02*
X81619511Y-104215198D01*
X81619511Y-104215198D02*
X81548083Y-104358055D01*
X81548083Y-104358055D02*
X81476654Y-104429484D01*
X81476654Y-104429484D02*
X81333797Y-104500912D01*
X81333797Y-104500912D02*
X81119511Y-104500912D01*
X82048083Y-103500912D02*
X82619511Y-103500912D01*
X82262368Y-103000912D02*
X82262368Y-104286626D01*
X82262368Y-104286626D02*
X82333797Y-104429484D01*
X82333797Y-104429484D02*
X82476654Y-104500912D01*
X82476654Y-104500912D02*
X82619511Y-104500912D01*
X83119511Y-104500912D02*
X83119511Y-103500912D01*
X83119511Y-103000912D02*
X83048083Y-103072341D01*
X83048083Y-103072341D02*
X83119511Y-103143769D01*
X83119511Y-103143769D02*
X83190940Y-103072341D01*
X83190940Y-103072341D02*
X83119511Y-103000912D01*
X83119511Y-103000912D02*
X83119511Y-103143769D01*
X84476655Y-104429484D02*
X84333797Y-104500912D01*
X84333797Y-104500912D02*
X84048083Y-104500912D01*
X84048083Y-104500912D02*
X83905226Y-104429484D01*
X83905226Y-104429484D02*
X83833797Y-104358055D01*
X83833797Y-104358055D02*
X83762369Y-104215198D01*
X83762369Y-104215198D02*
X83762369Y-103786626D01*
X83762369Y-103786626D02*
X83833797Y-103643769D01*
X83833797Y-103643769D02*
X83905226Y-103572341D01*
X83905226Y-103572341D02*
X84048083Y-103500912D01*
X84048083Y-103500912D02*
X84333797Y-103500912D01*
X84333797Y-103500912D02*
X84476655Y-103572341D01*
X85048083Y-104429484D02*
X85190940Y-104500912D01*
X85190940Y-104500912D02*
X85476654Y-104500912D01*
X85476654Y-104500912D02*
X85619511Y-104429484D01*
X85619511Y-104429484D02*
X85690940Y-104286626D01*
X85690940Y-104286626D02*
X85690940Y-104215198D01*
X85690940Y-104215198D02*
X85619511Y-104072341D01*
X85619511Y-104072341D02*
X85476654Y-104000912D01*
X85476654Y-104000912D02*
X85262369Y-104000912D01*
X85262369Y-104000912D02*
X85119511Y-103929484D01*
X85119511Y-103929484D02*
X85048083Y-103786626D01*
X85048083Y-103786626D02*
X85048083Y-103715198D01*
X85048083Y-103715198D02*
X85119511Y-103572341D01*
X85119511Y-103572341D02*
X85262369Y-103500912D01*
X85262369Y-103500912D02*
X85476654Y-103500912D01*
X85476654Y-103500912D02*
X85619511Y-103572341D01*
X66619510Y-106915828D02*
X66619510Y-105415828D01*
X66619510Y-105415828D02*
X67190939Y-105415828D01*
X67190939Y-105415828D02*
X67333796Y-105487257D01*
X67333796Y-105487257D02*
X67405225Y-105558685D01*
X67405225Y-105558685D02*
X67476653Y-105701542D01*
X67476653Y-105701542D02*
X67476653Y-105915828D01*
X67476653Y-105915828D02*
X67405225Y-106058685D01*
X67405225Y-106058685D02*
X67333796Y-106130114D01*
X67333796Y-106130114D02*
X67190939Y-106201542D01*
X67190939Y-106201542D02*
X66619510Y-106201542D01*
X68119510Y-106915828D02*
X68119510Y-105415828D01*
X68119510Y-105415828D02*
X68476653Y-105415828D01*
X68476653Y-105415828D02*
X68690939Y-105487257D01*
X68690939Y-105487257D02*
X68833796Y-105630114D01*
X68833796Y-105630114D02*
X68905225Y-105772971D01*
X68905225Y-105772971D02*
X68976653Y-106058685D01*
X68976653Y-106058685D02*
X68976653Y-106272971D01*
X68976653Y-106272971D02*
X68905225Y-106558685D01*
X68905225Y-106558685D02*
X68833796Y-106701542D01*
X68833796Y-106701542D02*
X68690939Y-106844400D01*
X68690939Y-106844400D02*
X68476653Y-106915828D01*
X68476653Y-106915828D02*
X68119510Y-106915828D01*
X71548082Y-106915828D02*
X70690939Y-106915828D01*
X71119510Y-106915828D02*
X71119510Y-105415828D01*
X71119510Y-105415828D02*
X70976653Y-105630114D01*
X70976653Y-105630114D02*
X70833796Y-105772971D01*
X70833796Y-105772971D02*
X70690939Y-105844400D01*
X72190938Y-106772971D02*
X72262367Y-106844400D01*
X72262367Y-106844400D02*
X72190938Y-106915828D01*
X72190938Y-106915828D02*
X72119510Y-106844400D01*
X72119510Y-106844400D02*
X72190938Y-106772971D01*
X72190938Y-106772971D02*
X72190938Y-106915828D01*
X73190939Y-105415828D02*
X73333796Y-105415828D01*
X73333796Y-105415828D02*
X73476653Y-105487257D01*
X73476653Y-105487257D02*
X73548082Y-105558685D01*
X73548082Y-105558685D02*
X73619510Y-105701542D01*
X73619510Y-105701542D02*
X73690939Y-105987257D01*
X73690939Y-105987257D02*
X73690939Y-106344400D01*
X73690939Y-106344400D02*
X73619510Y-106630114D01*
X73619510Y-106630114D02*
X73548082Y-106772971D01*
X73548082Y-106772971D02*
X73476653Y-106844400D01*
X73476653Y-106844400D02*
X73333796Y-106915828D01*
X73333796Y-106915828D02*
X73190939Y-106915828D01*
X73190939Y-106915828D02*
X73048082Y-106844400D01*
X73048082Y-106844400D02*
X72976653Y-106772971D01*
X72976653Y-106772971D02*
X72905224Y-106630114D01*
X72905224Y-106630114D02*
X72833796Y-106344400D01*
X72833796Y-106344400D02*
X72833796Y-105987257D01*
X72833796Y-105987257D02*
X72905224Y-105701542D01*
X72905224Y-105701542D02*
X72976653Y-105558685D01*
X72976653Y-105558685D02*
X73048082Y-105487257D01*
X73048082Y-105487257D02*
X73190939Y-105415828D01*
D10*
D11*
X67411653Y-81385912D02*
X66911653Y-80671626D01*
X66554510Y-81385912D02*
X66554510Y-79885912D01*
X66554510Y-79885912D02*
X67125939Y-79885912D01*
X67125939Y-79885912D02*
X67268796Y-79957341D01*
X67268796Y-79957341D02*
X67340225Y-80028769D01*
X67340225Y-80028769D02*
X67411653Y-80171626D01*
X67411653Y-80171626D02*
X67411653Y-80385912D01*
X67411653Y-80385912D02*
X67340225Y-80528769D01*
X67340225Y-80528769D02*
X67268796Y-80600198D01*
X67268796Y-80600198D02*
X67125939Y-80671626D01*
X67125939Y-80671626D02*
X66554510Y-80671626D01*
X68697368Y-81385912D02*
X68697368Y-80600198D01*
X68697368Y-80600198D02*
X68625939Y-80457341D01*
X68625939Y-80457341D02*
X68483082Y-80385912D01*
X68483082Y-80385912D02*
X68197368Y-80385912D01*
X68197368Y-80385912D02*
X68054510Y-80457341D01*
X68697368Y-81314484D02*
X68554510Y-81385912D01*
X68554510Y-81385912D02*
X68197368Y-81385912D01*
X68197368Y-81385912D02*
X68054510Y-81314484D01*
X68054510Y-81314484D02*
X67983082Y-81171626D01*
X67983082Y-81171626D02*
X67983082Y-81028769D01*
X67983082Y-81028769D02*
X68054510Y-80885912D01*
X68054510Y-80885912D02*
X68197368Y-80814484D01*
X68197368Y-80814484D02*
X68554510Y-80814484D01*
X68554510Y-80814484D02*
X68697368Y-80743055D01*
X69411653Y-81385912D02*
X69411653Y-80385912D01*
X69411653Y-79885912D02*
X69340225Y-79957341D01*
X69340225Y-79957341D02*
X69411653Y-80028769D01*
X69411653Y-80028769D02*
X69483082Y-79957341D01*
X69483082Y-79957341D02*
X69411653Y-79885912D01*
X69411653Y-79885912D02*
X69411653Y-80028769D01*
X70340225Y-81385912D02*
X70197368Y-81314484D01*
X70197368Y-81314484D02*
X70125939Y-81171626D01*
X70125939Y-81171626D02*
X70125939Y-79885912D01*
X70840225Y-81314484D02*
X70983082Y-81385912D01*
X70983082Y-81385912D02*
X71268796Y-81385912D01*
X71268796Y-81385912D02*
X71411653Y-81314484D01*
X71411653Y-81314484D02*
X71483082Y-81171626D01*
X71483082Y-81171626D02*
X71483082Y-81100198D01*
X71483082Y-81100198D02*
X71411653Y-80957341D01*
X71411653Y-80957341D02*
X71268796Y-80885912D01*
X71268796Y-80885912D02*
X71054511Y-80885912D01*
X71054511Y-80885912D02*
X70911653Y-80814484D01*
X70911653Y-80814484D02*
X70840225Y-80671626D01*
X70840225Y-80671626D02*
X70840225Y-80600198D01*
X70840225Y-80600198D02*
X70911653Y-80457341D01*
X70911653Y-80457341D02*
X71054511Y-80385912D01*
X71054511Y-80385912D02*
X71268796Y-80385912D01*
X71268796Y-80385912D02*
X71411653Y-80457341D01*
X72125939Y-81385912D02*
X72125939Y-80385912D01*
X72125939Y-79885912D02*
X72054511Y-79957341D01*
X72054511Y-79957341D02*
X72125939Y-80028769D01*
X72125939Y-80028769D02*
X72197368Y-79957341D01*
X72197368Y-79957341D02*
X72125939Y-79885912D01*
X72125939Y-79885912D02*
X72125939Y-80028769D01*
X73483083Y-81385912D02*
X73483083Y-79885912D01*
X73483083Y-81314484D02*
X73340225Y-81385912D01*
X73340225Y-81385912D02*
X73054511Y-81385912D01*
X73054511Y-81385912D02*
X72911654Y-81314484D01*
X72911654Y-81314484D02*
X72840225Y-81243055D01*
X72840225Y-81243055D02*
X72768797Y-81100198D01*
X72768797Y-81100198D02*
X72768797Y-80671626D01*
X72768797Y-80671626D02*
X72840225Y-80528769D01*
X72840225Y-80528769D02*
X72911654Y-80457341D01*
X72911654Y-80457341D02*
X73054511Y-80385912D01*
X73054511Y-80385912D02*
X73340225Y-80385912D01*
X73340225Y-80385912D02*
X73483083Y-80457341D01*
X74768797Y-81314484D02*
X74625940Y-81385912D01*
X74625940Y-81385912D02*
X74340226Y-81385912D01*
X74340226Y-81385912D02*
X74197368Y-81314484D01*
X74197368Y-81314484D02*
X74125940Y-81171626D01*
X74125940Y-81171626D02*
X74125940Y-80600198D01*
X74125940Y-80600198D02*
X74197368Y-80457341D01*
X74197368Y-80457341D02*
X74340226Y-80385912D01*
X74340226Y-80385912D02*
X74625940Y-80385912D01*
X74625940Y-80385912D02*
X74768797Y-80457341D01*
X74768797Y-80457341D02*
X74840226Y-80600198D01*
X74840226Y-80600198D02*
X74840226Y-80743055D01*
X74840226Y-80743055D02*
X74125940Y-80885912D01*
X77483082Y-81385912D02*
X76983082Y-80671626D01*
X76625939Y-81385912D02*
X76625939Y-79885912D01*
X76625939Y-79885912D02*
X77197368Y-79885912D01*
X77197368Y-79885912D02*
X77340225Y-79957341D01*
X77340225Y-79957341D02*
X77411654Y-80028769D01*
X77411654Y-80028769D02*
X77483082Y-80171626D01*
X77483082Y-80171626D02*
X77483082Y-80385912D01*
X77483082Y-80385912D02*
X77411654Y-80528769D01*
X77411654Y-80528769D02*
X77340225Y-80600198D01*
X77340225Y-80600198D02*
X77197368Y-80671626D01*
X77197368Y-80671626D02*
X76625939Y-80671626D01*
X78340225Y-81385912D02*
X78197368Y-81314484D01*
X78197368Y-81314484D02*
X78125939Y-81243055D01*
X78125939Y-81243055D02*
X78054511Y-81100198D01*
X78054511Y-81100198D02*
X78054511Y-80671626D01*
X78054511Y-80671626D02*
X78125939Y-80528769D01*
X78125939Y-80528769D02*
X78197368Y-80457341D01*
X78197368Y-80457341D02*
X78340225Y-80385912D01*
X78340225Y-80385912D02*
X78554511Y-80385912D01*
X78554511Y-80385912D02*
X78697368Y-80457341D01*
X78697368Y-80457341D02*
X78768797Y-80528769D01*
X78768797Y-80528769D02*
X78840225Y-80671626D01*
X78840225Y-80671626D02*
X78840225Y-81100198D01*
X78840225Y-81100198D02*
X78768797Y-81243055D01*
X78768797Y-81243055D02*
X78697368Y-81314484D01*
X78697368Y-81314484D02*
X78554511Y-81385912D01*
X78554511Y-81385912D02*
X78340225Y-81385912D01*
X79483082Y-81385912D02*
X79483082Y-79885912D01*
X79483082Y-80457341D02*
X79625940Y-80385912D01*
X79625940Y-80385912D02*
X79911654Y-80385912D01*
X79911654Y-80385912D02*
X80054511Y-80457341D01*
X80054511Y-80457341D02*
X80125940Y-80528769D01*
X80125940Y-80528769D02*
X80197368Y-80671626D01*
X80197368Y-80671626D02*
X80197368Y-81100198D01*
X80197368Y-81100198D02*
X80125940Y-81243055D01*
X80125940Y-81243055D02*
X80054511Y-81314484D01*
X80054511Y-81314484D02*
X79911654Y-81385912D01*
X79911654Y-81385912D02*
X79625940Y-81385912D01*
X79625940Y-81385912D02*
X79483082Y-81314484D01*
X81054511Y-81385912D02*
X80911654Y-81314484D01*
X80911654Y-81314484D02*
X80840225Y-81243055D01*
X80840225Y-81243055D02*
X80768797Y-81100198D01*
X80768797Y-81100198D02*
X80768797Y-80671626D01*
X80768797Y-80671626D02*
X80840225Y-80528769D01*
X80840225Y-80528769D02*
X80911654Y-80457341D01*
X80911654Y-80457341D02*
X81054511Y-80385912D01*
X81054511Y-80385912D02*
X81268797Y-80385912D01*
X81268797Y-80385912D02*
X81411654Y-80457341D01*
X81411654Y-80457341D02*
X81483083Y-80528769D01*
X81483083Y-80528769D02*
X81554511Y-80671626D01*
X81554511Y-80671626D02*
X81554511Y-81100198D01*
X81554511Y-81100198D02*
X81483083Y-81243055D01*
X81483083Y-81243055D02*
X81411654Y-81314484D01*
X81411654Y-81314484D02*
X81268797Y-81385912D01*
X81268797Y-81385912D02*
X81054511Y-81385912D01*
X81983083Y-80385912D02*
X82554511Y-80385912D01*
X82197368Y-79885912D02*
X82197368Y-81171626D01*
X82197368Y-81171626D02*
X82268797Y-81314484D01*
X82268797Y-81314484D02*
X82411654Y-81385912D01*
X82411654Y-81385912D02*
X82554511Y-81385912D01*
X83054511Y-81385912D02*
X83054511Y-80385912D01*
X83054511Y-79885912D02*
X82983083Y-79957341D01*
X82983083Y-79957341D02*
X83054511Y-80028769D01*
X83054511Y-80028769D02*
X83125940Y-79957341D01*
X83125940Y-79957341D02*
X83054511Y-79885912D01*
X83054511Y-79885912D02*
X83054511Y-80028769D01*
X84411655Y-81314484D02*
X84268797Y-81385912D01*
X84268797Y-81385912D02*
X83983083Y-81385912D01*
X83983083Y-81385912D02*
X83840226Y-81314484D01*
X83840226Y-81314484D02*
X83768797Y-81243055D01*
X83768797Y-81243055D02*
X83697369Y-81100198D01*
X83697369Y-81100198D02*
X83697369Y-80671626D01*
X83697369Y-80671626D02*
X83768797Y-80528769D01*
X83768797Y-80528769D02*
X83840226Y-80457341D01*
X83840226Y-80457341D02*
X83983083Y-80385912D01*
X83983083Y-80385912D02*
X84268797Y-80385912D01*
X84268797Y-80385912D02*
X84411655Y-80457341D01*
X84983083Y-81314484D02*
X85125940Y-81385912D01*
X85125940Y-81385912D02*
X85411654Y-81385912D01*
X85411654Y-81385912D02*
X85554511Y-81314484D01*
X85554511Y-81314484D02*
X85625940Y-81171626D01*
X85625940Y-81171626D02*
X85625940Y-81100198D01*
X85625940Y-81100198D02*
X85554511Y-80957341D01*
X85554511Y-80957341D02*
X85411654Y-80885912D01*
X85411654Y-80885912D02*
X85197369Y-80885912D01*
X85197369Y-80885912D02*
X85054511Y-80814484D01*
X85054511Y-80814484D02*
X84983083Y-80671626D01*
X84983083Y-80671626D02*
X84983083Y-80600198D01*
X84983083Y-80600198D02*
X85054511Y-80457341D01*
X85054511Y-80457341D02*
X85197369Y-80385912D01*
X85197369Y-80385912D02*
X85411654Y-80385912D01*
X85411654Y-80385912D02*
X85554511Y-80457341D01*
X66554510Y-83800828D02*
X66554510Y-82300828D01*
X66554510Y-82300828D02*
X67125939Y-82300828D01*
X67125939Y-82300828D02*
X67268796Y-82372257D01*
X67268796Y-82372257D02*
X67340225Y-82443685D01*
X67340225Y-82443685D02*
X67411653Y-82586542D01*
X67411653Y-82586542D02*
X67411653Y-82800828D01*
X67411653Y-82800828D02*
X67340225Y-82943685D01*
X67340225Y-82943685D02*
X67268796Y-83015114D01*
X67268796Y-83015114D02*
X67125939Y-83086542D01*
X67125939Y-83086542D02*
X66554510Y-83086542D01*
X68054510Y-83800828D02*
X68054510Y-82300828D01*
X68054510Y-82300828D02*
X68411653Y-82300828D01*
X68411653Y-82300828D02*
X68625939Y-82372257D01*
X68625939Y-82372257D02*
X68768796Y-82515114D01*
X68768796Y-82515114D02*
X68840225Y-82657971D01*
X68840225Y-82657971D02*
X68911653Y-82943685D01*
X68911653Y-82943685D02*
X68911653Y-83157971D01*
X68911653Y-83157971D02*
X68840225Y-83443685D01*
X68840225Y-83443685D02*
X68768796Y-83586542D01*
X68768796Y-83586542D02*
X68625939Y-83729400D01*
X68625939Y-83729400D02*
X68411653Y-83800828D01*
X68411653Y-83800828D02*
X68054510Y-83800828D01*
X71483082Y-83800828D02*
X70625939Y-83800828D01*
X71054510Y-83800828D02*
X71054510Y-82300828D01*
X71054510Y-82300828D02*
X70911653Y-82515114D01*
X70911653Y-82515114D02*
X70768796Y-82657971D01*
X70768796Y-82657971D02*
X70625939Y-82729400D01*
X72125938Y-83657971D02*
X72197367Y-83729400D01*
X72197367Y-83729400D02*
X72125938Y-83800828D01*
X72125938Y-83800828D02*
X72054510Y-83729400D01*
X72054510Y-83729400D02*
X72125938Y-83657971D01*
X72125938Y-83657971D02*
X72125938Y-83800828D01*
X73125939Y-82300828D02*
X73268796Y-82300828D01*
X73268796Y-82300828D02*
X73411653Y-82372257D01*
X73411653Y-82372257D02*
X73483082Y-82443685D01*
X73483082Y-82443685D02*
X73554510Y-82586542D01*
X73554510Y-82586542D02*
X73625939Y-82872257D01*
X73625939Y-82872257D02*
X73625939Y-83229400D01*
X73625939Y-83229400D02*
X73554510Y-83515114D01*
X73554510Y-83515114D02*
X73483082Y-83657971D01*
X73483082Y-83657971D02*
X73411653Y-83729400D01*
X73411653Y-83729400D02*
X73268796Y-83800828D01*
X73268796Y-83800828D02*
X73125939Y-83800828D01*
X73125939Y-83800828D02*
X72983082Y-83729400D01*
X72983082Y-83729400D02*
X72911653Y-83657971D01*
X72911653Y-83657971D02*
X72840224Y-83515114D01*
X72840224Y-83515114D02*
X72768796Y-83229400D01*
X72768796Y-83229400D02*
X72768796Y-82872257D01*
X72768796Y-82872257D02*
X72840224Y-82586542D01*
X72840224Y-82586542D02*
X72911653Y-82443685D01*
X72911653Y-82443685D02*
X72983082Y-82372257D01*
X72983082Y-82372257D02*
X73125939Y-82300828D01*
D12*
%TO.P,,2,-*%
%TO.N,Net-(BT4--)*%
X66000000Y-134000000D03*
%TD*%
%TO.P,,2,-*%
%TO.N,Net-(BT4--)*%
X84000000Y-134000000D03*
%TD*%
%TO.P,,2,-*%
%TO.N,Net-(BT4--)*%
X74000000Y-134000000D03*
%TD*%
%TO.P,,2,-*%
%TO.N,Net-(BT4--)*%
X60000000Y-134000000D03*
%TD*%
%TO.P,,2,-*%
%TO.N,Net-(BT4--)*%
X62000000Y-134000000D03*
%TD*%
%TO.P,,2,-*%
%TO.N,Net-(BT4--)*%
X94000000Y-134000000D03*
%TD*%
%TO.P,,2,-*%
%TO.N,Net-(BT4--)*%
X82000000Y-134000000D03*
%TD*%
%TO.P,,2,-*%
%TO.N,Net-(BT4--)*%
X88000000Y-134000000D03*
%TD*%
%TO.P,,2,-*%
%TO.N,Net-(BT4--)*%
X68000000Y-134000000D03*
%TD*%
%TO.P,,2,-*%
%TO.N,Net-(BT4--)*%
X72000000Y-134000000D03*
%TD*%
%TO.P,,2,-*%
%TO.N,Net-(BT4--)*%
X90000000Y-134000000D03*
%TD*%
%TO.P,,2,-*%
%TO.N,Net-(BT4--)*%
X96000000Y-134000000D03*
%TD*%
%TO.P,,2,-*%
%TO.N,Net-(BT4--)*%
X64000000Y-134000000D03*
%TD*%
%TO.P,,2,-*%
%TO.N,Net-(BT4--)*%
X70000000Y-134000000D03*
%TD*%
%TO.P,,2,-*%
%TO.N,Net-(BT4--)*%
X80000000Y-134000000D03*
%TD*%
%TO.P,,2,-*%
%TO.N,Net-(BT4--)*%
X58000000Y-134000000D03*
%TD*%
%TO.P,,2,-*%
%TO.N,Net-(BT4--)*%
X92000000Y-134000000D03*
%TD*%
%TO.P,,2,-*%
%TO.N,Net-(BT4--)*%
X122000000Y-134000000D03*
%TD*%
%TO.P,,2,-*%
%TO.N,Net-(BT4--)*%
X104000000Y-134000000D03*
%TD*%
%TO.P,,2,-*%
%TO.N,Net-(BT4--)*%
X108000000Y-134000000D03*
%TD*%
%TO.P,,2,-*%
%TO.N,Net-(BT4--)*%
X116000000Y-134000000D03*
%TD*%
%TO.P,,2,-*%
%TO.N,Net-(BT4--)*%
X128000000Y-134000000D03*
%TD*%
%TO.P,,2,-*%
%TO.N,Net-(BT4--)*%
X118000000Y-134000000D03*
%TD*%
%TO.P,,2,-*%
%TO.N,Net-(BT4--)*%
X102000000Y-134000000D03*
%TD*%
%TO.P,,2,-*%
%TO.N,Net-(BT4--)*%
X78000000Y-134000000D03*
%TD*%
%TO.P,,2,-*%
%TO.N,Net-(BT4--)*%
X126000000Y-134000000D03*
%TD*%
%TO.P,,2,-*%
%TO.N,Net-(BT4--)*%
X120000000Y-134000000D03*
%TD*%
%TO.P,,2,-*%
%TO.N,Net-(BT4--)*%
X114000000Y-134000000D03*
%TD*%
%TO.P,,2,-*%
%TO.N,Net-(BT4--)*%
X100000000Y-134000000D03*
%TD*%
%TO.P,,2,-*%
%TO.N,Net-(BT4--)*%
X86000000Y-134000000D03*
%TD*%
%TO.P,,2,-*%
%TO.N,Net-(BT4--)*%
X110000000Y-134000000D03*
%TD*%
%TO.P,,2,-*%
%TO.N,Net-(BT4--)*%
X112000000Y-134000000D03*
%TD*%
%TO.P,,2,-*%
%TO.N,Net-(BT4--)*%
X56000000Y-134000000D03*
%TD*%
%TO.P,,2,-*%
%TO.N,Net-(BT4--)*%
X98000000Y-134000000D03*
%TD*%
%TO.P,,2,-*%
%TO.N,Net-(BT4--)*%
X54000000Y-134000000D03*
%TD*%
%TO.P,,2,-*%
%TO.N,Net-(BT4--)*%
X106000000Y-134000000D03*
%TD*%
%TO.P,,2,-*%
%TO.N,Net-(BT4--)*%
X76000000Y-134000000D03*
%TD*%
%TO.P,,2,-*%
%TO.N,Net-(BT4--)*%
X124000000Y-134000000D03*
%TD*%
%TO.P,,2,-*%
%TO.N,Net-(BT4--)*%
X130000000Y-134000000D03*
%TD*%
%TO.P,,2,-*%
%TO.N,Net-(BT4--)*%
X52000000Y-134000000D03*
%TD*%
%TO.P,,2,-*%
%TO.N,Net-(BT4--)*%
X66000000Y-109000000D03*
%TD*%
%TO.P,,2,-*%
%TO.N,Net-(BT4--)*%
X84000000Y-109000000D03*
%TD*%
%TO.P,,2,-*%
%TO.N,Net-(BT4--)*%
X74000000Y-109000000D03*
%TD*%
%TO.P,,2,-*%
%TO.N,Net-(BT4--)*%
X60000000Y-109000000D03*
%TD*%
%TO.P,,2,-*%
%TO.N,Net-(BT4--)*%
X62000000Y-109000000D03*
%TD*%
%TO.P,,2,-*%
%TO.N,Net-(BT4--)*%
X94000000Y-109000000D03*
%TD*%
%TO.P,,2,-*%
%TO.N,Net-(BT4--)*%
X82000000Y-109000000D03*
%TD*%
%TO.P,,2,-*%
%TO.N,Net-(BT4--)*%
X88000000Y-109000000D03*
%TD*%
%TO.P,,2,-*%
%TO.N,Net-(BT4--)*%
X68000000Y-109000000D03*
%TD*%
%TO.P,,2,-*%
%TO.N,Net-(BT4--)*%
X72000000Y-109000000D03*
%TD*%
%TO.P,,2,-*%
%TO.N,Net-(BT4--)*%
X90000000Y-109000000D03*
%TD*%
%TO.P,,2,-*%
%TO.N,Net-(BT4--)*%
X96000000Y-109000000D03*
%TD*%
%TO.P,,2,-*%
%TO.N,Net-(BT4--)*%
X64000000Y-109000000D03*
%TD*%
%TO.P,,2,-*%
%TO.N,Net-(BT4--)*%
X70000000Y-109000000D03*
%TD*%
%TO.P,,2,-*%
%TO.N,Net-(BT4--)*%
X80000000Y-109000000D03*
%TD*%
%TO.P,,2,-*%
%TO.N,Net-(BT4--)*%
X58000000Y-109000000D03*
%TD*%
%TO.P,,2,-*%
%TO.N,Net-(BT4--)*%
X92000000Y-109000000D03*
%TD*%
%TO.P,,2,-*%
%TO.N,Net-(BT4--)*%
X122000000Y-109000000D03*
%TD*%
%TO.P,,2,-*%
%TO.N,Net-(BT4--)*%
X104000000Y-109000000D03*
%TD*%
%TO.P,,2,-*%
%TO.N,Net-(BT4--)*%
X108000000Y-109000000D03*
%TD*%
%TO.P,,2,-*%
%TO.N,Net-(BT4--)*%
X116000000Y-109000000D03*
%TD*%
%TO.P,,2,-*%
%TO.N,Net-(BT4--)*%
X128000000Y-109000000D03*
%TD*%
%TO.P,,2,-*%
%TO.N,Net-(BT4--)*%
X118000000Y-109000000D03*
%TD*%
%TO.P,,2,-*%
%TO.N,Net-(BT4--)*%
X102000000Y-109000000D03*
%TD*%
%TO.P,,2,-*%
%TO.N,Net-(BT4--)*%
X78000000Y-109000000D03*
%TD*%
%TO.P,,2,-*%
%TO.N,Net-(BT4--)*%
X126000000Y-109000000D03*
%TD*%
%TO.P,,2,-*%
%TO.N,Net-(BT4--)*%
X120000000Y-109000000D03*
%TD*%
%TO.P,,2,-*%
%TO.N,Net-(BT4--)*%
X114000000Y-109000000D03*
%TD*%
%TO.P,,2,-*%
%TO.N,Net-(BT4--)*%
X100000000Y-109000000D03*
%TD*%
%TO.P,,2,-*%
%TO.N,Net-(BT4--)*%
X86000000Y-109000000D03*
%TD*%
%TO.P,,2,-*%
%TO.N,Net-(BT4--)*%
X110000000Y-109000000D03*
%TD*%
%TO.P,,2,-*%
%TO.N,Net-(BT4--)*%
X112000000Y-109000000D03*
%TD*%
%TO.P,,2,-*%
%TO.N,Net-(BT4--)*%
X56000000Y-109000000D03*
%TD*%
%TO.P,,2,-*%
%TO.N,Net-(BT4--)*%
X98000000Y-109000000D03*
%TD*%
%TO.P,,2,-*%
%TO.N,Net-(BT4--)*%
X54000000Y-109000000D03*
%TD*%
%TO.P,,2,-*%
%TO.N,Net-(BT4--)*%
X106000000Y-109000000D03*
%TD*%
%TO.P,,2,-*%
%TO.N,Net-(BT4--)*%
X76000000Y-109000000D03*
%TD*%
%TO.P,,2,-*%
%TO.N,Net-(BT4--)*%
X124000000Y-109000000D03*
%TD*%
%TO.P,,2,-*%
%TO.N,Net-(BT4--)*%
X130000000Y-109000000D03*
%TD*%
%TO.P,,2,-*%
%TO.N,Net-(BT4--)*%
X52000000Y-109000000D03*
%TD*%
%TO.P,,2,-*%
%TO.N,Net-(BT4--)*%
X52000000Y-86000000D03*
%TD*%
%TO.P,,2,-*%
%TO.N,Net-(BT4--)*%
X130000000Y-86000000D03*
%TD*%
%TO.P,,2,-*%
%TO.N,Net-(BT4--)*%
X54000000Y-86000000D03*
%TD*%
%TO.P,,2,-*%
%TO.N,Net-(BT4--)*%
X56000000Y-86000000D03*
%TD*%
%TO.P,,2,-*%
%TO.N,Net-(BT4--)*%
X58000000Y-86000000D03*
%TD*%
%TO.P,,2,-*%
%TO.N,Net-(BT4--)*%
X60000000Y-86000000D03*
%TD*%
%TO.P,,2,-*%
%TO.N,Net-(BT4--)*%
X62000000Y-86000000D03*
%TD*%
%TO.P,,2,-*%
%TO.N,Net-(BT4--)*%
X64000000Y-86000000D03*
%TD*%
%TO.P,,2,-*%
%TO.N,Net-(BT4--)*%
X66000000Y-86000000D03*
%TD*%
%TO.P,,2,-*%
%TO.N,Net-(BT4--)*%
X68000000Y-86000000D03*
%TD*%
%TO.P,,2,-*%
%TO.N,Net-(BT4--)*%
X70000000Y-86000000D03*
%TD*%
%TO.P,,2,-*%
%TO.N,Net-(BT4--)*%
X72000000Y-86000000D03*
%TD*%
%TO.P,,2,-*%
%TO.N,Net-(BT4--)*%
X74000000Y-86000000D03*
%TD*%
%TO.P,,2,-*%
%TO.N,Net-(BT4--)*%
X76000000Y-86000000D03*
%TD*%
%TO.P,,2,-*%
%TO.N,Net-(BT4--)*%
X78000000Y-86000000D03*
%TD*%
%TO.P,,2,-*%
%TO.N,Net-(BT4--)*%
X80000000Y-86000000D03*
%TD*%
%TO.P,,2,-*%
%TO.N,Net-(BT4--)*%
X82000000Y-86000000D03*
%TD*%
%TO.P,,2,-*%
%TO.N,Net-(BT4--)*%
X84000000Y-86000000D03*
%TD*%
%TO.P,,2,-*%
%TO.N,Net-(BT4--)*%
X86000000Y-86000000D03*
%TD*%
%TO.P,,2,-*%
%TO.N,Net-(BT4--)*%
X88000000Y-86000000D03*
%TD*%
%TO.P,,2,-*%
%TO.N,Net-(BT4--)*%
X90000000Y-86000000D03*
%TD*%
%TO.P,,2,-*%
%TO.N,Net-(BT4--)*%
X92000000Y-86000000D03*
%TD*%
%TO.P,,2,-*%
%TO.N,Net-(BT4--)*%
X94000000Y-86000000D03*
%TD*%
%TO.P,,2,-*%
%TO.N,Net-(BT4--)*%
X96000000Y-86000000D03*
%TD*%
%TO.P,,2,-*%
%TO.N,Net-(BT4--)*%
X98000000Y-86000000D03*
%TD*%
%TO.P,,2,-*%
%TO.N,Net-(BT4--)*%
X100000000Y-86000000D03*
%TD*%
%TO.P,,2,-*%
%TO.N,Net-(BT4--)*%
X128000000Y-86000000D03*
%TD*%
%TO.P,,2,-*%
%TO.N,Net-(BT4--)*%
X126000000Y-86000000D03*
%TD*%
%TO.P,,2,-*%
%TO.N,Net-(BT4--)*%
X124000000Y-86000000D03*
%TD*%
%TO.P,,2,-*%
%TO.N,Net-(BT4--)*%
X122000000Y-86000000D03*
%TD*%
%TO.P,,2,-*%
%TO.N,Net-(BT4--)*%
X120000000Y-86000000D03*
%TD*%
%TO.P,,2,-*%
%TO.N,Net-(BT4--)*%
X118000000Y-86000000D03*
%TD*%
%TO.P,,2,-*%
%TO.N,Net-(BT4--)*%
X116000000Y-86000000D03*
%TD*%
%TO.P,,2,-*%
%TO.N,Net-(BT4--)*%
X114000000Y-86000000D03*
%TD*%
%TO.P,,2,-*%
%TO.N,Net-(BT4--)*%
X112000000Y-86000000D03*
%TD*%
%TO.P,,2,-*%
%TO.N,Net-(BT4--)*%
X110000000Y-86000000D03*
%TD*%
%TO.P,,2,-*%
%TO.N,Net-(BT4--)*%
X108000000Y-86000000D03*
%TD*%
%TO.P,,2,-*%
%TO.N,Net-(BT4--)*%
X106000000Y-86000000D03*
%TD*%
%TO.P,,2,-*%
%TO.N,Net-(BT4--)*%
X104000000Y-86000000D03*
%TD*%
%TO.P,,2,-*%
%TO.N,Net-(BT4--)*%
X102000000Y-86000000D03*
%TD*%
D13*
%TO.P,BT4,1,+*%
%TO.N,Net-(BT1-+)*%
X121750000Y-147920000D03*
D12*
%TO.P,BT4,2,-*%
%TO.N,Net-(BT4--)*%
X121750000Y-142920000D03*
%TD*%
D13*
%TO.P,BT2,1,+*%
%TO.N,Net-(BT1-+)*%
X79350000Y-147870000D03*
D12*
%TO.P,BT2,2,-*%
%TO.N,Net-(BT1--)*%
X79350000Y-142870000D03*
%TD*%
D14*
%TO.P,F1,1*%
%TO.N,Net-(BT1--)*%
X97350000Y-149920000D03*
X100750000Y-149920000D03*
%TO.P,F1,2*%
%TO.N,Net-(SW1-A)*%
X97350000Y-140000000D03*
X100750000Y-140000000D03*
%TD*%
D13*
%TO.P,BT1,1,+*%
%TO.N,Net-(BT1-+)*%
X86250000Y-147920000D03*
D12*
%TO.P,BT1,2,-*%
%TO.N,Net-(BT1--)*%
X86250000Y-142920000D03*
%TD*%
D13*
%TO.P,BT5,1,+*%
%TO.N,Net-(BT1-+)*%
X65525000Y-147695000D03*
D12*
%TO.P,BT5,2,-*%
%TO.N,Net-(BT1--)*%
X65525000Y-142695000D03*
%TD*%
D15*
%TO.P,,2,B*%
%TO.N,N/C*%
X56190000Y-145060000D03*
%TD*%
%TO.P,,2,B*%
%TO.N,N/C*%
X110750000Y-144920000D03*
%TD*%
D13*
%TO.P,BT3,1,+*%
%TO.N,Net-(BT1-+)*%
X72325000Y-147695000D03*
D12*
%TO.P,BT3,2,-*%
%TO.N,Net-(BT1--)*%
X72325000Y-142695000D03*
%TD*%
D16*
%TO.P,SW1,1,A*%
%TO.N,Net-(SW1-A)*%
X110750000Y-141420000D03*
%TO.P,SW1,2,B*%
%TO.N,Net-(BT4--)*%
X110750000Y-149040000D03*
%TD*%
D13*
%TO.P,BT4,1,+*%
%TO.N,Net-(BT1-+)*%
X121875000Y-123000000D03*
D12*
%TO.P,BT4,2,-*%
%TO.N,Net-(BT4--)*%
X121875000Y-118000000D03*
%TD*%
D13*
%TO.P,BT2,1,+*%
%TO.N,Net-(BT1-+)*%
X79475000Y-122950000D03*
D12*
%TO.P,BT2,2,-*%
%TO.N,Net-(BT1--)*%
X79475000Y-117950000D03*
%TD*%
D14*
%TO.P,F1,1*%
%TO.N,Net-(BT1--)*%
X97475000Y-125000000D03*
X100875000Y-125000000D03*
%TO.P,F1,2*%
%TO.N,Net-(SW1-A)*%
X97475000Y-115080000D03*
X100875000Y-115080000D03*
%TD*%
D13*
%TO.P,BT1,1,+*%
%TO.N,Net-(BT1-+)*%
X86375000Y-123000000D03*
D12*
%TO.P,BT1,2,-*%
%TO.N,Net-(BT1--)*%
X86375000Y-118000000D03*
%TD*%
D13*
%TO.P,BT5,1,+*%
%TO.N,Net-(BT1-+)*%
X65650000Y-122775000D03*
D12*
%TO.P,BT5,2,-*%
%TO.N,Net-(BT1--)*%
X65650000Y-117775000D03*
%TD*%
D15*
%TO.P,,2,B*%
%TO.N,N/C*%
X56315000Y-120140000D03*
%TD*%
%TO.P,,2,B*%
%TO.N,N/C*%
X110875000Y-120000000D03*
%TD*%
D13*
%TO.P,BT3,1,+*%
%TO.N,Net-(BT1-+)*%
X72450000Y-122775000D03*
D12*
%TO.P,BT3,2,-*%
%TO.N,Net-(BT1--)*%
X72450000Y-117775000D03*
%TD*%
D16*
%TO.P,SW1,1,A*%
%TO.N,Net-(SW1-A)*%
X110875000Y-116500000D03*
%TO.P,SW1,2,B*%
%TO.N,Net-(BT4--)*%
X110875000Y-124120000D03*
%TD*%
D13*
%TO.P,BT4,1,+*%
%TO.N,Net-(BT1-+)*%
X122225000Y-99225000D03*
D12*
%TO.P,BT4,2,-*%
%TO.N,Net-(BT4--)*%
X122225000Y-94225000D03*
%TD*%
D13*
%TO.P,BT2,1,+*%
%TO.N,Net-(BT1-+)*%
X79825000Y-99175000D03*
D12*
%TO.P,BT2,2,-*%
%TO.N,Net-(BT1--)*%
X79825000Y-94175000D03*
%TD*%
D14*
%TO.P,F1,1*%
%TO.N,Net-(BT1--)*%
X97825000Y-101225000D03*
X101225000Y-101225000D03*
%TO.P,F1,2*%
%TO.N,Net-(SW1-A)*%
X97825000Y-91305000D03*
X101225000Y-91305000D03*
%TD*%
D13*
%TO.P,BT1,1,+*%
%TO.N,Net-(BT1-+)*%
X86725000Y-99225000D03*
D12*
%TO.P,BT1,2,-*%
%TO.N,Net-(BT1--)*%
X86725000Y-94225000D03*
%TD*%
D13*
%TO.P,BT5,1,+*%
%TO.N,Net-(BT1-+)*%
X66000000Y-99000000D03*
D12*
%TO.P,BT5,2,-*%
%TO.N,Net-(BT1--)*%
X66000000Y-94000000D03*
%TD*%
D15*
%TO.P,,2,B*%
%TO.N,N/C*%
X56665000Y-96365000D03*
%TD*%
%TO.P,,2,B*%
%TO.N,N/C*%
X111225000Y-96225000D03*
%TD*%
D13*
%TO.P,BT3,1,+*%
%TO.N,Net-(BT1-+)*%
X72800000Y-99000000D03*
D12*
%TO.P,BT3,2,-*%
%TO.N,Net-(BT1--)*%
X72800000Y-94000000D03*
%TD*%
D16*
%TO.P,SW1,1,A*%
%TO.N,Net-(SW1-A)*%
X111225000Y-92725000D03*
%TO.P,SW1,2,B*%
%TO.N,Net-(BT4--)*%
X111225000Y-100345000D03*
%TD*%
D15*
%TO.P,,2,B*%
%TO.N,N/C*%
X56600000Y-73250000D03*
%TD*%
D16*
%TO.P,SW1,2,B*%
%TO.N,Net-(BT4--)*%
X111160000Y-77230000D03*
%TO.P,SW1,1,A*%
%TO.N,Net-(SW1-A)*%
X111160000Y-69610000D03*
%TD*%
D15*
%TO.P,,2,B*%
%TO.N,N/C*%
X111160000Y-73110000D03*
%TD*%
D14*
%TO.P,F1,1*%
%TO.N,Net-(BT1--)*%
X97760000Y-78110000D03*
X101160000Y-78110000D03*
%TO.P,F1,2*%
%TO.N,Net-(SW1-A)*%
X97760000Y-68190000D03*
X101160000Y-68190000D03*
%TD*%
D12*
%TO.P,BT5,2,-*%
%TO.N,Net-(BT1--)*%
X65935000Y-70885000D03*
D13*
%TO.P,BT5,1,+*%
%TO.N,Net-(BT1-+)*%
X65935000Y-75885000D03*
%TD*%
D12*
%TO.P,BT4,2,-*%
%TO.N,Net-(BT4--)*%
X122160000Y-71110000D03*
D13*
%TO.P,BT4,1,+*%
%TO.N,Net-(BT1-+)*%
X122160000Y-76110000D03*
%TD*%
D12*
%TO.P,BT3,2,-*%
%TO.N,Net-(BT1--)*%
X72735000Y-70885000D03*
D13*
%TO.P,BT3,1,+*%
%TO.N,Net-(BT1-+)*%
X72735000Y-75885000D03*
%TD*%
D12*
%TO.P,BT2,2,-*%
%TO.N,Net-(BT1--)*%
X79760000Y-71060000D03*
D13*
%TO.P,BT2,1,+*%
%TO.N,Net-(BT1-+)*%
X79760000Y-76060000D03*
%TD*%
D12*
%TO.P,BT1,2,-*%
%TO.N,Net-(BT1--)*%
X86660000Y-71110000D03*
D13*
%TO.P,BT1,1,+*%
%TO.N,Net-(BT1-+)*%
X86660000Y-76110000D03*
%TD*%
D17*
%TO.N,Net-(BT4--)*%
X110750000Y-149040000D02*
X110750000Y-149770000D01*
X120090000Y-142485000D02*
X113535000Y-149040000D01*
X110990000Y-150010000D02*
X114660000Y-150010000D01*
X121750000Y-142920000D02*
X120750000Y-142920000D01*
X113535000Y-149040000D02*
X110750000Y-149040000D01*
X114660000Y-150010000D02*
X121750000Y-142920000D01*
%TO.N,Net-(BT1--)*%
X65525000Y-142695000D02*
X65750000Y-142920000D01*
%TO.N,Net-(BT4--)*%
X110750000Y-149770000D02*
X110990000Y-150010000D01*
%TO.N,Net-(BT1--)*%
X65300000Y-142920000D02*
X65525000Y-142695000D01*
X97350000Y-149920000D02*
X97350000Y-149395000D01*
%TO.N,Net-(SW1-A)*%
X97650000Y-140300000D02*
X97350000Y-140000000D01*
%TO.N,Net-(BT1--)*%
X97650000Y-149095000D02*
X97700000Y-149045000D01*
%TO.N,Net-(BT1-+)*%
X65750000Y-147920000D02*
X65525000Y-147695000D01*
%TO.N,Net-(BT1--)*%
X97350000Y-149395000D02*
X97650000Y-149095000D01*
X86025000Y-142695000D02*
X86250000Y-142920000D01*
%TO.N,Net-(BT4--)*%
X110875000Y-124120000D02*
X110875000Y-124850000D01*
X120215000Y-117565000D02*
X113660000Y-124120000D01*
X111115000Y-125090000D02*
X114785000Y-125090000D01*
X121875000Y-118000000D02*
X120875000Y-118000000D01*
X113660000Y-124120000D02*
X110875000Y-124120000D01*
X114785000Y-125090000D02*
X121875000Y-118000000D01*
%TO.N,Net-(BT1--)*%
X65650000Y-117775000D02*
X65875000Y-118000000D01*
%TO.N,Net-(BT4--)*%
X110875000Y-124850000D02*
X111115000Y-125090000D01*
%TO.N,Net-(BT1--)*%
X65425000Y-118000000D02*
X65650000Y-117775000D01*
X97475000Y-125000000D02*
X97475000Y-124475000D01*
%TO.N,Net-(SW1-A)*%
X97775000Y-115380000D02*
X97475000Y-115080000D01*
%TO.N,Net-(BT1--)*%
X97775000Y-124175000D02*
X97825000Y-124125000D01*
%TO.N,Net-(BT1-+)*%
X65875000Y-123000000D02*
X65650000Y-122775000D01*
%TO.N,Net-(BT1--)*%
X97475000Y-124475000D02*
X97775000Y-124175000D01*
X86150000Y-117775000D02*
X86375000Y-118000000D01*
%TO.N,Net-(BT4--)*%
X111225000Y-100345000D02*
X111225000Y-101075000D01*
X120565000Y-93790000D02*
X114010000Y-100345000D01*
X111465000Y-101315000D02*
X115135000Y-101315000D01*
X122225000Y-94225000D02*
X121225000Y-94225000D01*
X114010000Y-100345000D02*
X111225000Y-100345000D01*
X115135000Y-101315000D02*
X122225000Y-94225000D01*
%TO.N,Net-(BT1--)*%
X66000000Y-94000000D02*
X66225000Y-94225000D01*
%TO.N,Net-(BT4--)*%
X111225000Y-101075000D02*
X111465000Y-101315000D01*
%TO.N,Net-(BT1--)*%
X65775000Y-94225000D02*
X66000000Y-94000000D01*
X97825000Y-101225000D02*
X97825000Y-100700000D01*
%TO.N,Net-(SW1-A)*%
X98125000Y-91605000D02*
X97825000Y-91305000D01*
%TO.N,Net-(BT1--)*%
X98125000Y-100400000D02*
X98175000Y-100350000D01*
%TO.N,Net-(BT1-+)*%
X66225000Y-99225000D02*
X66000000Y-99000000D01*
%TO.N,Net-(BT1--)*%
X97825000Y-100700000D02*
X98125000Y-100400000D01*
X86500000Y-94000000D02*
X86725000Y-94225000D01*
%TO.N,Net-(BT4--)*%
X115070000Y-78200000D02*
X122160000Y-71110000D01*
X111400000Y-78200000D02*
X115070000Y-78200000D01*
X111160000Y-77960000D02*
X111400000Y-78200000D01*
X111160000Y-77230000D02*
X111160000Y-77960000D01*
X113945000Y-77230000D02*
X111160000Y-77230000D01*
X120500000Y-70675000D02*
X113945000Y-77230000D01*
X122160000Y-71110000D02*
X121160000Y-71110000D01*
%TO.N,Net-(BT1-+)*%
X66160000Y-76110000D02*
X65935000Y-75885000D01*
%TO.N,Net-(BT1--)*%
X86435000Y-70885000D02*
X86660000Y-71110000D01*
X65935000Y-70885000D02*
X66160000Y-71110000D01*
X65710000Y-71110000D02*
X65935000Y-70885000D01*
X97760000Y-77585000D02*
X98060000Y-77285000D01*
X98060000Y-77285000D02*
X98110000Y-77235000D01*
X97760000Y-78110000D02*
X97760000Y-77585000D01*
%TO.N,Net-(SW1-A)*%
X98060000Y-68490000D02*
X97760000Y-68190000D01*
%TD*%
M02*
