%TF.GenerationSoftware,KiCad,Pcbnew,8.0.6*%
%TF.CreationDate,2024-11-20T17:21:21-05:00*%
%TF.ProjectId,RailsidePDB,5261696c-7369-4646-9550-44422e6b6963,rev?*%
%TF.SameCoordinates,Original*%
%TF.FileFunction,Soldermask,Bot*%
%TF.FilePolarity,Negative*%
%FSLAX46Y46*%
G04 Gerber Fmt 4.6, Leading zero omitted, Abs format (unit mm)*
G04 Created by KiCad (PCBNEW 8.0.6) date 2024-11-20 17:21:21*
%MOMM*%
%LPD*%
G01*
G04 APERTURE LIST*
G04 Aperture macros list*
%AMRoundRect*
0 Rectangle with rounded corners*
0 $1 Rounding radius*
0 $2 $3 $4 $5 $6 $7 $8 $9 X,Y pos of 4 corners*
0 Add a 4 corners polygon primitive as box body*
4,1,4,$2,$3,$4,$5,$6,$7,$8,$9,$2,$3,0*
0 Add four circle primitives for the rounded corners*
1,1,$1+$1,$2,$3*
1,1,$1+$1,$4,$5*
1,1,$1+$1,$6,$7*
1,1,$1+$1,$8,$9*
0 Add four rect primitives between the rounded corners*
20,1,$1+$1,$2,$3,$4,$5,0*
20,1,$1+$1,$4,$5,$6,$7,0*
20,1,$1+$1,$6,$7,$8,$9,0*
20,1,$1+$1,$8,$9,$2,$3,0*%
G04 Aperture macros list end*
%ADD10C,3.000000*%
%ADD11RoundRect,0.750000X0.750000X-0.750000X0.750000X0.750000X-0.750000X0.750000X-0.750000X-0.750000X0*%
%ADD12C,2.780000*%
%ADD13O,6.000000X6.000000*%
%ADD14O,4.000000X1.500000*%
G04 APERTURE END LIST*
D10*
%TO.C,*%
X66000000Y-134000000D03*
%TD*%
%TO.C,*%
X84000000Y-134000000D03*
%TD*%
%TO.C,*%
X74000000Y-134000000D03*
%TD*%
%TO.C,*%
X60000000Y-134000000D03*
%TD*%
%TO.C,*%
X62000000Y-134000000D03*
%TD*%
%TO.C,*%
X94000000Y-134000000D03*
%TD*%
%TO.C,*%
X82000000Y-134000000D03*
%TD*%
%TO.C,*%
X88000000Y-134000000D03*
%TD*%
%TO.C,*%
X68000000Y-134000000D03*
%TD*%
%TO.C,*%
X72000000Y-134000000D03*
%TD*%
%TO.C,*%
X90000000Y-134000000D03*
%TD*%
%TO.C,*%
X96000000Y-134000000D03*
%TD*%
%TO.C,*%
X64000000Y-134000000D03*
%TD*%
%TO.C,*%
X70000000Y-134000000D03*
%TD*%
%TO.C,*%
X80000000Y-134000000D03*
%TD*%
%TO.C,*%
X58000000Y-134000000D03*
%TD*%
%TO.C,*%
X92000000Y-134000000D03*
%TD*%
%TO.C,*%
X122000000Y-134000000D03*
%TD*%
%TO.C,*%
X104000000Y-134000000D03*
%TD*%
%TO.C,*%
X108000000Y-134000000D03*
%TD*%
%TO.C,*%
X116000000Y-134000000D03*
%TD*%
%TO.C,*%
X128000000Y-134000000D03*
%TD*%
%TO.C,*%
X118000000Y-134000000D03*
%TD*%
%TO.C,*%
X102000000Y-134000000D03*
%TD*%
%TO.C,*%
X78000000Y-134000000D03*
%TD*%
%TO.C,*%
X126000000Y-134000000D03*
%TD*%
%TO.C,*%
X120000000Y-134000000D03*
%TD*%
%TO.C,*%
X114000000Y-134000000D03*
%TD*%
%TO.C,*%
X100000000Y-134000000D03*
%TD*%
%TO.C,*%
X86000000Y-134000000D03*
%TD*%
%TO.C,*%
X110000000Y-134000000D03*
%TD*%
%TO.C,*%
X112000000Y-134000000D03*
%TD*%
%TO.C,*%
X56000000Y-134000000D03*
%TD*%
%TO.C,*%
X98000000Y-134000000D03*
%TD*%
%TO.C,*%
X54000000Y-134000000D03*
%TD*%
%TO.C,*%
X106000000Y-134000000D03*
%TD*%
%TO.C,*%
X76000000Y-134000000D03*
%TD*%
%TO.C,*%
X124000000Y-134000000D03*
%TD*%
%TO.C,*%
X130000000Y-134000000D03*
%TD*%
%TO.C,*%
X52000000Y-134000000D03*
%TD*%
%TO.C,*%
X66000000Y-109000000D03*
%TD*%
%TO.C,*%
X84000000Y-109000000D03*
%TD*%
%TO.C,*%
X74000000Y-109000000D03*
%TD*%
%TO.C,*%
X60000000Y-109000000D03*
%TD*%
%TO.C,*%
X62000000Y-109000000D03*
%TD*%
%TO.C,*%
X94000000Y-109000000D03*
%TD*%
%TO.C,*%
X82000000Y-109000000D03*
%TD*%
%TO.C,*%
X88000000Y-109000000D03*
%TD*%
%TO.C,*%
X68000000Y-109000000D03*
%TD*%
%TO.C,*%
X72000000Y-109000000D03*
%TD*%
%TO.C,*%
X90000000Y-109000000D03*
%TD*%
%TO.C,*%
X96000000Y-109000000D03*
%TD*%
%TO.C,*%
X64000000Y-109000000D03*
%TD*%
%TO.C,*%
X70000000Y-109000000D03*
%TD*%
%TO.C,*%
X80000000Y-109000000D03*
%TD*%
%TO.C,*%
X58000000Y-109000000D03*
%TD*%
%TO.C,*%
X92000000Y-109000000D03*
%TD*%
%TO.C,*%
X122000000Y-109000000D03*
%TD*%
%TO.C,*%
X104000000Y-109000000D03*
%TD*%
%TO.C,*%
X108000000Y-109000000D03*
%TD*%
%TO.C,*%
X116000000Y-109000000D03*
%TD*%
%TO.C,*%
X128000000Y-109000000D03*
%TD*%
%TO.C,*%
X118000000Y-109000000D03*
%TD*%
%TO.C,*%
X102000000Y-109000000D03*
%TD*%
%TO.C,*%
X78000000Y-109000000D03*
%TD*%
%TO.C,*%
X126000000Y-109000000D03*
%TD*%
%TO.C,*%
X120000000Y-109000000D03*
%TD*%
%TO.C,*%
X114000000Y-109000000D03*
%TD*%
%TO.C,*%
X100000000Y-109000000D03*
%TD*%
%TO.C,*%
X86000000Y-109000000D03*
%TD*%
%TO.C,*%
X110000000Y-109000000D03*
%TD*%
%TO.C,*%
X112000000Y-109000000D03*
%TD*%
%TO.C,*%
X56000000Y-109000000D03*
%TD*%
%TO.C,*%
X98000000Y-109000000D03*
%TD*%
%TO.C,*%
X54000000Y-109000000D03*
%TD*%
%TO.C,*%
X106000000Y-109000000D03*
%TD*%
%TO.C,*%
X76000000Y-109000000D03*
%TD*%
%TO.C,*%
X124000000Y-109000000D03*
%TD*%
%TO.C,*%
X130000000Y-109000000D03*
%TD*%
%TO.C,*%
X52000000Y-109000000D03*
%TD*%
%TO.C,*%
X52000000Y-86000000D03*
%TD*%
%TO.C,*%
X130000000Y-86000000D03*
%TD*%
%TO.C,*%
X54000000Y-86000000D03*
%TD*%
%TO.C,*%
X56000000Y-86000000D03*
%TD*%
%TO.C,*%
X58000000Y-86000000D03*
%TD*%
%TO.C,*%
X60000000Y-86000000D03*
%TD*%
%TO.C,*%
X62000000Y-86000000D03*
%TD*%
%TO.C,*%
X64000000Y-86000000D03*
%TD*%
%TO.C,*%
X66000000Y-86000000D03*
%TD*%
%TO.C,*%
X68000000Y-86000000D03*
%TD*%
%TO.C,*%
X70000000Y-86000000D03*
%TD*%
%TO.C,*%
X72000000Y-86000000D03*
%TD*%
%TO.C,*%
X74000000Y-86000000D03*
%TD*%
%TO.C,*%
X76000000Y-86000000D03*
%TD*%
%TO.C,*%
X78000000Y-86000000D03*
%TD*%
%TO.C,*%
X80000000Y-86000000D03*
%TD*%
%TO.C,*%
X82000000Y-86000000D03*
%TD*%
%TO.C,*%
X84000000Y-86000000D03*
%TD*%
%TO.C,*%
X86000000Y-86000000D03*
%TD*%
%TO.C,*%
X88000000Y-86000000D03*
%TD*%
%TO.C,*%
X90000000Y-86000000D03*
%TD*%
%TO.C,*%
X92000000Y-86000000D03*
%TD*%
%TO.C,*%
X94000000Y-86000000D03*
%TD*%
%TO.C,*%
X96000000Y-86000000D03*
%TD*%
%TO.C,*%
X98000000Y-86000000D03*
%TD*%
%TO.C,*%
X100000000Y-86000000D03*
%TD*%
%TO.C,*%
X128000000Y-86000000D03*
%TD*%
%TO.C,*%
X126000000Y-86000000D03*
%TD*%
%TO.C,*%
X124000000Y-86000000D03*
%TD*%
%TO.C,*%
X122000000Y-86000000D03*
%TD*%
%TO.C,*%
X120000000Y-86000000D03*
%TD*%
%TO.C,*%
X118000000Y-86000000D03*
%TD*%
%TO.C,*%
X116000000Y-86000000D03*
%TD*%
%TO.C,*%
X114000000Y-86000000D03*
%TD*%
%TO.C,*%
X112000000Y-86000000D03*
%TD*%
%TO.C,*%
X110000000Y-86000000D03*
%TD*%
%TO.C,*%
X108000000Y-86000000D03*
%TD*%
%TO.C,*%
X106000000Y-86000000D03*
%TD*%
%TO.C,*%
X104000000Y-86000000D03*
%TD*%
%TO.C,*%
X102000000Y-86000000D03*
%TD*%
D11*
%TO.C,BT4*%
X121750000Y-147920000D03*
D10*
X121750000Y-142920000D03*
%TD*%
D11*
%TO.C,BT2*%
X79350000Y-147870000D03*
D10*
X79350000Y-142870000D03*
%TD*%
D12*
%TO.C,F1*%
X97350000Y-149920000D03*
X100750000Y-149920000D03*
X97350000Y-140000000D03*
X100750000Y-140000000D03*
%TD*%
D11*
%TO.C,BT1*%
X86250000Y-147920000D03*
D10*
X86250000Y-142920000D03*
%TD*%
D11*
%TO.C,BT5*%
X65525000Y-147695000D03*
D10*
X65525000Y-142695000D03*
%TD*%
D13*
%TO.C,*%
X56190000Y-145060000D03*
%TD*%
%TO.C,*%
X110750000Y-144920000D03*
%TD*%
D11*
%TO.C,BT3*%
X72325000Y-147695000D03*
D10*
X72325000Y-142695000D03*
%TD*%
D14*
%TO.C,SW1*%
X110750000Y-141420000D03*
%TD*%
D11*
%TO.C,BT4*%
X121875000Y-123000000D03*
D10*
X121875000Y-118000000D03*
%TD*%
D11*
%TO.C,BT2*%
X79475000Y-122950000D03*
D10*
X79475000Y-117950000D03*
%TD*%
D12*
%TO.C,F1*%
X97475000Y-125000000D03*
X100875000Y-125000000D03*
X97475000Y-115080000D03*
X100875000Y-115080000D03*
%TD*%
D11*
%TO.C,BT1*%
X86375000Y-123000000D03*
D10*
X86375000Y-118000000D03*
%TD*%
D11*
%TO.C,BT5*%
X65650000Y-122775000D03*
D10*
X65650000Y-117775000D03*
%TD*%
D13*
%TO.C,*%
X56315000Y-120140000D03*
%TD*%
%TO.C,*%
X110875000Y-120000000D03*
%TD*%
D11*
%TO.C,BT3*%
X72450000Y-122775000D03*
D10*
X72450000Y-117775000D03*
%TD*%
D14*
%TO.C,SW1*%
X110875000Y-116500000D03*
%TD*%
D11*
%TO.C,BT4*%
X122225000Y-99225000D03*
D10*
X122225000Y-94225000D03*
%TD*%
D11*
%TO.C,BT2*%
X79825000Y-99175000D03*
D10*
X79825000Y-94175000D03*
%TD*%
D12*
%TO.C,F1*%
X97825000Y-101225000D03*
X101225000Y-101225000D03*
X97825000Y-91305000D03*
X101225000Y-91305000D03*
%TD*%
D11*
%TO.C,BT1*%
X86725000Y-99225000D03*
D10*
X86725000Y-94225000D03*
%TD*%
D11*
%TO.C,BT5*%
X66000000Y-99000000D03*
D10*
X66000000Y-94000000D03*
%TD*%
D13*
%TO.C,*%
X56665000Y-96365000D03*
%TD*%
%TO.C,*%
X111225000Y-96225000D03*
%TD*%
D11*
%TO.C,BT3*%
X72800000Y-99000000D03*
D10*
X72800000Y-94000000D03*
%TD*%
D14*
%TO.C,SW1*%
X111225000Y-92725000D03*
%TD*%
D13*
%TO.C,*%
X56600000Y-73250000D03*
%TD*%
D14*
%TO.C,SW1*%
X111160000Y-69610000D03*
%TD*%
D13*
%TO.C,*%
X111160000Y-73110000D03*
%TD*%
D12*
%TO.C,F1*%
X97760000Y-78110000D03*
X101160000Y-78110000D03*
X97760000Y-68190000D03*
X101160000Y-68190000D03*
%TD*%
D10*
%TO.C,BT5*%
X65935000Y-70885000D03*
D11*
X65935000Y-75885000D03*
%TD*%
D10*
%TO.C,BT4*%
X122160000Y-71110000D03*
D11*
X122160000Y-76110000D03*
%TD*%
D10*
%TO.C,BT3*%
X72735000Y-70885000D03*
D11*
X72735000Y-75885000D03*
%TD*%
D10*
%TO.C,BT2*%
X79760000Y-71060000D03*
D11*
X79760000Y-76060000D03*
%TD*%
D10*
%TO.C,BT1*%
X86660000Y-71110000D03*
D11*
X86660000Y-76110000D03*
%TD*%
M02*
