M48
; DRILL file {KiCad 8.0.6} date 2024-11-20T17:21:26-0500
; FORMAT={-:-/ absolute / inch / decimal}
; #@! TF.CreationDate,2024-11-20T17:21:26-05:00
; #@! TF.GenerationSoftware,Kicad,Pcbnew,8.0.6
; #@! TF.FileFunction,Plated,1,2,PTH
FMAT,2
INCH
; #@! TA.AperFunction,Plated,PTH,ComponentDrill
T1C0.0315
; #@! TA.AperFunction,Plated,PTH,ComponentDrill
T2C0.0701
; #@! TA.AperFunction,Plated,PTH,ComponentDrill
T3C0.0709
; #@! TA.AperFunction,Plated,PTH,ComponentDrill
T4C0.2018
%
G90
G05
T1
X4.3602Y-5.5677
X4.3602Y-5.8677
X4.3652Y-4.5866
X4.3652Y-4.8866
X4.3764Y-2.7406
X4.3764Y-3.0406
X4.3789Y-3.6506
X4.3789Y-3.9506
T2
X3.8327Y-5.5118
X3.8327Y-5.9024
X3.8376Y-4.5307
X3.8376Y-4.9213
X3.8488Y-2.6846
X3.8488Y-3.0752
X3.8514Y-3.5947
X3.8514Y-3.9852
X3.9665Y-5.5118
X3.9665Y-5.9024
X3.9715Y-4.5307
X3.9715Y-4.9213
X3.9827Y-2.6846
X3.9827Y-3.0752
X3.9852Y-3.5947
X3.9852Y-3.9852
T3
X2.0472Y-3.3858
X2.0472Y-4.2913
X2.0472Y-5.2756
X2.126Y-3.3858
X2.126Y-4.2913
X2.126Y-5.2756
X2.2047Y-3.3858
X2.2047Y-4.2913
X2.2047Y-5.2756
X2.2835Y-3.3858
X2.2835Y-4.2913
X2.2835Y-5.2756
X2.3622Y-3.3858
X2.3622Y-4.2913
X2.3622Y-5.2756
X2.4409Y-3.3858
X2.4409Y-4.2913
X2.4409Y-5.2756
X2.5197Y-3.3858
X2.5197Y-4.2913
X2.5197Y-5.2756
X2.5797Y-5.6179
X2.5797Y-5.8148
X2.5846Y-4.6368
X2.5846Y-4.8337
X2.5959Y-2.7907
X2.5959Y-2.9876
X2.5984Y-3.3858
X2.5984Y-3.7008
X2.5984Y-3.8976
X2.5984Y-4.2913
X2.5984Y-5.2756
X2.6772Y-3.3858
X2.6772Y-4.2913
X2.6772Y-5.2756
X2.7559Y-3.3858
X2.7559Y-4.2913
X2.7559Y-5.2756
X2.8346Y-3.3858
X2.8346Y-4.2913
X2.8346Y-5.2756
X2.8474Y-5.6179
X2.8474Y-5.8148
X2.8524Y-4.6368
X2.8524Y-4.8337
X2.8636Y-2.7907
X2.8636Y-2.9876
X2.8661Y-3.7008
X2.8661Y-3.8976
X2.9134Y-3.3858
X2.9134Y-4.2913
X2.9134Y-5.2756
X2.9921Y-3.3858
X2.9921Y-4.2913
X2.9921Y-5.2756
X3.0709Y-3.3858
X3.0709Y-4.2913
X3.0709Y-5.2756
X3.124Y-5.6248
X3.124Y-5.8217
X3.1289Y-4.6437
X3.1289Y-4.8406
X3.1402Y-2.7976
X3.1402Y-2.9945
X3.1427Y-3.7077
X3.1427Y-3.9045
X3.1496Y-3.3858
X3.1496Y-4.2913
X3.1496Y-5.2756
X3.2283Y-3.3858
X3.2283Y-4.2913
X3.2283Y-5.2756
X3.3071Y-3.3858
X3.3071Y-4.2913
X3.3071Y-5.2756
X3.3858Y-3.3858
X3.3858Y-4.2913
X3.3858Y-5.2756
X3.3957Y-5.6268
X3.3957Y-5.8236
X3.4006Y-4.6457
X3.4006Y-4.8425
X3.4118Y-2.7996
X3.4118Y-2.9965
X3.4144Y-3.7096
X3.4144Y-3.9065
X3.4646Y-3.3858
X3.4646Y-4.2913
X3.4646Y-5.2756
X3.5433Y-3.3858
X3.5433Y-4.2913
X3.5433Y-5.2756
X3.622Y-3.3858
X3.622Y-4.2913
X3.622Y-5.2756
X3.7008Y-3.3858
X3.7008Y-4.2913
X3.7008Y-5.2756
X3.7795Y-3.3858
X3.7795Y-4.2913
X3.7795Y-5.2756
X3.8583Y-3.3858
X3.8583Y-4.2913
X3.8583Y-5.2756
X3.937Y-3.3858
X3.937Y-4.2913
X3.937Y-5.2756
X4.0157Y-3.3858
X4.0157Y-4.2913
X4.0157Y-5.2756
X4.0945Y-3.3858
X4.0945Y-4.2913
X4.0945Y-5.2756
X4.1732Y-3.3858
X4.1732Y-4.2913
X4.1732Y-5.2756
X4.252Y-3.3858
X4.252Y-4.2913
X4.252Y-5.2756
X4.3307Y-3.3858
X4.3307Y-4.2913
X4.3307Y-5.2756
X4.4094Y-3.3858
X4.4094Y-4.2913
X4.4094Y-5.2756
X4.4882Y-3.3858
X4.4882Y-4.2913
X4.4882Y-5.2756
X4.5669Y-3.3858
X4.5669Y-4.2913
X4.5669Y-5.2756
X4.6457Y-3.3858
X4.6457Y-4.2913
X4.6457Y-5.2756
X4.7244Y-3.3858
X4.7244Y-4.2913
X4.7244Y-5.2756
X4.7933Y-5.6268
X4.7933Y-5.8236
X4.7982Y-4.6457
X4.7982Y-4.8425
X4.8031Y-3.3858
X4.8031Y-4.2913
X4.8031Y-5.2756
X4.8094Y-2.7996
X4.8094Y-2.9965
X4.812Y-3.7096
X4.812Y-3.9065
X4.8819Y-3.3858
X4.8819Y-4.2913
X4.8819Y-5.2756
X4.9606Y-3.3858
X4.9606Y-4.2913
X4.9606Y-5.2756
X5.0394Y-3.3858
X5.0394Y-4.2913
X5.0394Y-5.2756
X5.1181Y-3.3858
X5.1181Y-4.2913
X5.1181Y-5.2756
T4
X2.2122Y-5.711
X2.2171Y-4.7299
X2.2283Y-2.8839
X2.2309Y-3.7939
X4.3602Y-5.7055
X4.3652Y-4.7244
X4.3764Y-2.8783
X4.3789Y-3.7884
M30
