%TF.GenerationSoftware,KiCad,Pcbnew,8.0.5*%
%TF.CreationDate,2024-12-04T12:21:55-05:00*%
%TF.ProjectId,RailsidePDB,5261696c-7369-4646-9550-44422e6b6963,rev?*%
%TF.SameCoordinates,Original*%
%TF.FileFunction,Legend,Top*%
%TF.FilePolarity,Positive*%
%FSLAX46Y46*%
G04 Gerber Fmt 4.6, Leading zero omitted, Abs format (unit mm)*
G04 Created by KiCad (PCBNEW 8.0.5) date 2024-12-04 12:21:55*
%MOMM*%
%LPD*%
G01*
G04 APERTURE LIST*
%ADD10C,0.300000*%
%ADD11C,0.150000*%
%ADD12C,0.120000*%
G04 APERTURE END LIST*
D10*
X64911653Y-80885912D02*
X64411653Y-80171626D01*
X64054510Y-80885912D02*
X64054510Y-79385912D01*
X64054510Y-79385912D02*
X64625939Y-79385912D01*
X64625939Y-79385912D02*
X64768796Y-79457341D01*
X64768796Y-79457341D02*
X64840225Y-79528769D01*
X64840225Y-79528769D02*
X64911653Y-79671626D01*
X64911653Y-79671626D02*
X64911653Y-79885912D01*
X64911653Y-79885912D02*
X64840225Y-80028769D01*
X64840225Y-80028769D02*
X64768796Y-80100198D01*
X64768796Y-80100198D02*
X64625939Y-80171626D01*
X64625939Y-80171626D02*
X64054510Y-80171626D01*
X66197368Y-80885912D02*
X66197368Y-80100198D01*
X66197368Y-80100198D02*
X66125939Y-79957341D01*
X66125939Y-79957341D02*
X65983082Y-79885912D01*
X65983082Y-79885912D02*
X65697368Y-79885912D01*
X65697368Y-79885912D02*
X65554510Y-79957341D01*
X66197368Y-80814484D02*
X66054510Y-80885912D01*
X66054510Y-80885912D02*
X65697368Y-80885912D01*
X65697368Y-80885912D02*
X65554510Y-80814484D01*
X65554510Y-80814484D02*
X65483082Y-80671626D01*
X65483082Y-80671626D02*
X65483082Y-80528769D01*
X65483082Y-80528769D02*
X65554510Y-80385912D01*
X65554510Y-80385912D02*
X65697368Y-80314484D01*
X65697368Y-80314484D02*
X66054510Y-80314484D01*
X66054510Y-80314484D02*
X66197368Y-80243055D01*
X66911653Y-80885912D02*
X66911653Y-79885912D01*
X66911653Y-79385912D02*
X66840225Y-79457341D01*
X66840225Y-79457341D02*
X66911653Y-79528769D01*
X66911653Y-79528769D02*
X66983082Y-79457341D01*
X66983082Y-79457341D02*
X66911653Y-79385912D01*
X66911653Y-79385912D02*
X66911653Y-79528769D01*
X67840225Y-80885912D02*
X67697368Y-80814484D01*
X67697368Y-80814484D02*
X67625939Y-80671626D01*
X67625939Y-80671626D02*
X67625939Y-79385912D01*
X68340225Y-80814484D02*
X68483082Y-80885912D01*
X68483082Y-80885912D02*
X68768796Y-80885912D01*
X68768796Y-80885912D02*
X68911653Y-80814484D01*
X68911653Y-80814484D02*
X68983082Y-80671626D01*
X68983082Y-80671626D02*
X68983082Y-80600198D01*
X68983082Y-80600198D02*
X68911653Y-80457341D01*
X68911653Y-80457341D02*
X68768796Y-80385912D01*
X68768796Y-80385912D02*
X68554511Y-80385912D01*
X68554511Y-80385912D02*
X68411653Y-80314484D01*
X68411653Y-80314484D02*
X68340225Y-80171626D01*
X68340225Y-80171626D02*
X68340225Y-80100198D01*
X68340225Y-80100198D02*
X68411653Y-79957341D01*
X68411653Y-79957341D02*
X68554511Y-79885912D01*
X68554511Y-79885912D02*
X68768796Y-79885912D01*
X68768796Y-79885912D02*
X68911653Y-79957341D01*
X69625939Y-80885912D02*
X69625939Y-79885912D01*
X69625939Y-79385912D02*
X69554511Y-79457341D01*
X69554511Y-79457341D02*
X69625939Y-79528769D01*
X69625939Y-79528769D02*
X69697368Y-79457341D01*
X69697368Y-79457341D02*
X69625939Y-79385912D01*
X69625939Y-79385912D02*
X69625939Y-79528769D01*
X70983083Y-80885912D02*
X70983083Y-79385912D01*
X70983083Y-80814484D02*
X70840225Y-80885912D01*
X70840225Y-80885912D02*
X70554511Y-80885912D01*
X70554511Y-80885912D02*
X70411654Y-80814484D01*
X70411654Y-80814484D02*
X70340225Y-80743055D01*
X70340225Y-80743055D02*
X70268797Y-80600198D01*
X70268797Y-80600198D02*
X70268797Y-80171626D01*
X70268797Y-80171626D02*
X70340225Y-80028769D01*
X70340225Y-80028769D02*
X70411654Y-79957341D01*
X70411654Y-79957341D02*
X70554511Y-79885912D01*
X70554511Y-79885912D02*
X70840225Y-79885912D01*
X70840225Y-79885912D02*
X70983083Y-79957341D01*
X72268797Y-80814484D02*
X72125940Y-80885912D01*
X72125940Y-80885912D02*
X71840226Y-80885912D01*
X71840226Y-80885912D02*
X71697368Y-80814484D01*
X71697368Y-80814484D02*
X71625940Y-80671626D01*
X71625940Y-80671626D02*
X71625940Y-80100198D01*
X71625940Y-80100198D02*
X71697368Y-79957341D01*
X71697368Y-79957341D02*
X71840226Y-79885912D01*
X71840226Y-79885912D02*
X72125940Y-79885912D01*
X72125940Y-79885912D02*
X72268797Y-79957341D01*
X72268797Y-79957341D02*
X72340226Y-80100198D01*
X72340226Y-80100198D02*
X72340226Y-80243055D01*
X72340226Y-80243055D02*
X71625940Y-80385912D01*
X74983082Y-80885912D02*
X74483082Y-80171626D01*
X74125939Y-80885912D02*
X74125939Y-79385912D01*
X74125939Y-79385912D02*
X74697368Y-79385912D01*
X74697368Y-79385912D02*
X74840225Y-79457341D01*
X74840225Y-79457341D02*
X74911654Y-79528769D01*
X74911654Y-79528769D02*
X74983082Y-79671626D01*
X74983082Y-79671626D02*
X74983082Y-79885912D01*
X74983082Y-79885912D02*
X74911654Y-80028769D01*
X74911654Y-80028769D02*
X74840225Y-80100198D01*
X74840225Y-80100198D02*
X74697368Y-80171626D01*
X74697368Y-80171626D02*
X74125939Y-80171626D01*
X75840225Y-80885912D02*
X75697368Y-80814484D01*
X75697368Y-80814484D02*
X75625939Y-80743055D01*
X75625939Y-80743055D02*
X75554511Y-80600198D01*
X75554511Y-80600198D02*
X75554511Y-80171626D01*
X75554511Y-80171626D02*
X75625939Y-80028769D01*
X75625939Y-80028769D02*
X75697368Y-79957341D01*
X75697368Y-79957341D02*
X75840225Y-79885912D01*
X75840225Y-79885912D02*
X76054511Y-79885912D01*
X76054511Y-79885912D02*
X76197368Y-79957341D01*
X76197368Y-79957341D02*
X76268797Y-80028769D01*
X76268797Y-80028769D02*
X76340225Y-80171626D01*
X76340225Y-80171626D02*
X76340225Y-80600198D01*
X76340225Y-80600198D02*
X76268797Y-80743055D01*
X76268797Y-80743055D02*
X76197368Y-80814484D01*
X76197368Y-80814484D02*
X76054511Y-80885912D01*
X76054511Y-80885912D02*
X75840225Y-80885912D01*
X76983082Y-80885912D02*
X76983082Y-79385912D01*
X76983082Y-79957341D02*
X77125940Y-79885912D01*
X77125940Y-79885912D02*
X77411654Y-79885912D01*
X77411654Y-79885912D02*
X77554511Y-79957341D01*
X77554511Y-79957341D02*
X77625940Y-80028769D01*
X77625940Y-80028769D02*
X77697368Y-80171626D01*
X77697368Y-80171626D02*
X77697368Y-80600198D01*
X77697368Y-80600198D02*
X77625940Y-80743055D01*
X77625940Y-80743055D02*
X77554511Y-80814484D01*
X77554511Y-80814484D02*
X77411654Y-80885912D01*
X77411654Y-80885912D02*
X77125940Y-80885912D01*
X77125940Y-80885912D02*
X76983082Y-80814484D01*
X78554511Y-80885912D02*
X78411654Y-80814484D01*
X78411654Y-80814484D02*
X78340225Y-80743055D01*
X78340225Y-80743055D02*
X78268797Y-80600198D01*
X78268797Y-80600198D02*
X78268797Y-80171626D01*
X78268797Y-80171626D02*
X78340225Y-80028769D01*
X78340225Y-80028769D02*
X78411654Y-79957341D01*
X78411654Y-79957341D02*
X78554511Y-79885912D01*
X78554511Y-79885912D02*
X78768797Y-79885912D01*
X78768797Y-79885912D02*
X78911654Y-79957341D01*
X78911654Y-79957341D02*
X78983083Y-80028769D01*
X78983083Y-80028769D02*
X79054511Y-80171626D01*
X79054511Y-80171626D02*
X79054511Y-80600198D01*
X79054511Y-80600198D02*
X78983083Y-80743055D01*
X78983083Y-80743055D02*
X78911654Y-80814484D01*
X78911654Y-80814484D02*
X78768797Y-80885912D01*
X78768797Y-80885912D02*
X78554511Y-80885912D01*
X79483083Y-79885912D02*
X80054511Y-79885912D01*
X79697368Y-79385912D02*
X79697368Y-80671626D01*
X79697368Y-80671626D02*
X79768797Y-80814484D01*
X79768797Y-80814484D02*
X79911654Y-80885912D01*
X79911654Y-80885912D02*
X80054511Y-80885912D01*
X80554511Y-80885912D02*
X80554511Y-79885912D01*
X80554511Y-79385912D02*
X80483083Y-79457341D01*
X80483083Y-79457341D02*
X80554511Y-79528769D01*
X80554511Y-79528769D02*
X80625940Y-79457341D01*
X80625940Y-79457341D02*
X80554511Y-79385912D01*
X80554511Y-79385912D02*
X80554511Y-79528769D01*
X81911655Y-80814484D02*
X81768797Y-80885912D01*
X81768797Y-80885912D02*
X81483083Y-80885912D01*
X81483083Y-80885912D02*
X81340226Y-80814484D01*
X81340226Y-80814484D02*
X81268797Y-80743055D01*
X81268797Y-80743055D02*
X81197369Y-80600198D01*
X81197369Y-80600198D02*
X81197369Y-80171626D01*
X81197369Y-80171626D02*
X81268797Y-80028769D01*
X81268797Y-80028769D02*
X81340226Y-79957341D01*
X81340226Y-79957341D02*
X81483083Y-79885912D01*
X81483083Y-79885912D02*
X81768797Y-79885912D01*
X81768797Y-79885912D02*
X81911655Y-79957341D01*
X82483083Y-80814484D02*
X82625940Y-80885912D01*
X82625940Y-80885912D02*
X82911654Y-80885912D01*
X82911654Y-80885912D02*
X83054511Y-80814484D01*
X83054511Y-80814484D02*
X83125940Y-80671626D01*
X83125940Y-80671626D02*
X83125940Y-80600198D01*
X83125940Y-80600198D02*
X83054511Y-80457341D01*
X83054511Y-80457341D02*
X82911654Y-80385912D01*
X82911654Y-80385912D02*
X82697369Y-80385912D01*
X82697369Y-80385912D02*
X82554511Y-80314484D01*
X82554511Y-80314484D02*
X82483083Y-80171626D01*
X82483083Y-80171626D02*
X82483083Y-80100198D01*
X82483083Y-80100198D02*
X82554511Y-79957341D01*
X82554511Y-79957341D02*
X82697369Y-79885912D01*
X82697369Y-79885912D02*
X82911654Y-79885912D01*
X82911654Y-79885912D02*
X83054511Y-79957341D01*
X64054510Y-83300828D02*
X64054510Y-81800828D01*
X64054510Y-81800828D02*
X64625939Y-81800828D01*
X64625939Y-81800828D02*
X64768796Y-81872257D01*
X64768796Y-81872257D02*
X64840225Y-81943685D01*
X64840225Y-81943685D02*
X64911653Y-82086542D01*
X64911653Y-82086542D02*
X64911653Y-82300828D01*
X64911653Y-82300828D02*
X64840225Y-82443685D01*
X64840225Y-82443685D02*
X64768796Y-82515114D01*
X64768796Y-82515114D02*
X64625939Y-82586542D01*
X64625939Y-82586542D02*
X64054510Y-82586542D01*
X65554510Y-83300828D02*
X65554510Y-81800828D01*
X65554510Y-81800828D02*
X65911653Y-81800828D01*
X65911653Y-81800828D02*
X66125939Y-81872257D01*
X66125939Y-81872257D02*
X66268796Y-82015114D01*
X66268796Y-82015114D02*
X66340225Y-82157971D01*
X66340225Y-82157971D02*
X66411653Y-82443685D01*
X66411653Y-82443685D02*
X66411653Y-82657971D01*
X66411653Y-82657971D02*
X66340225Y-82943685D01*
X66340225Y-82943685D02*
X66268796Y-83086542D01*
X66268796Y-83086542D02*
X66125939Y-83229400D01*
X66125939Y-83229400D02*
X65911653Y-83300828D01*
X65911653Y-83300828D02*
X65554510Y-83300828D01*
X68983082Y-83300828D02*
X68125939Y-83300828D01*
X68554510Y-83300828D02*
X68554510Y-81800828D01*
X68554510Y-81800828D02*
X68411653Y-82015114D01*
X68411653Y-82015114D02*
X68268796Y-82157971D01*
X68268796Y-82157971D02*
X68125939Y-82229400D01*
X69625938Y-83157971D02*
X69697367Y-83229400D01*
X69697367Y-83229400D02*
X69625938Y-83300828D01*
X69625938Y-83300828D02*
X69554510Y-83229400D01*
X69554510Y-83229400D02*
X69625938Y-83157971D01*
X69625938Y-83157971D02*
X69625938Y-83300828D01*
X70268796Y-81943685D02*
X70340224Y-81872257D01*
X70340224Y-81872257D02*
X70483082Y-81800828D01*
X70483082Y-81800828D02*
X70840224Y-81800828D01*
X70840224Y-81800828D02*
X70983082Y-81872257D01*
X70983082Y-81872257D02*
X71054510Y-81943685D01*
X71054510Y-81943685D02*
X71125939Y-82086542D01*
X71125939Y-82086542D02*
X71125939Y-82229400D01*
X71125939Y-82229400D02*
X71054510Y-82443685D01*
X71054510Y-82443685D02*
X70197367Y-83300828D01*
X70197367Y-83300828D02*
X71125939Y-83300828D01*
D11*
X78714700Y-67521428D02*
X78714700Y-66378571D01*
X79286128Y-66949999D02*
X78143271Y-66949999D01*
X71689700Y-67346428D02*
X71689700Y-66203571D01*
X72261128Y-66774999D02*
X71118271Y-66774999D01*
X95857142Y-73931009D02*
X95523809Y-73931009D01*
X95523809Y-74454819D02*
X95523809Y-73454819D01*
X95523809Y-73454819D02*
X95999999Y-73454819D01*
X96809523Y-73788152D02*
X96809523Y-74454819D01*
X96380952Y-73788152D02*
X96380952Y-74311961D01*
X96380952Y-74311961D02*
X96428571Y-74407200D01*
X96428571Y-74407200D02*
X96523809Y-74454819D01*
X96523809Y-74454819D02*
X96666666Y-74454819D01*
X96666666Y-74454819D02*
X96761904Y-74407200D01*
X96761904Y-74407200D02*
X96809523Y-74359580D01*
X97238095Y-74407200D02*
X97333333Y-74454819D01*
X97333333Y-74454819D02*
X97523809Y-74454819D01*
X97523809Y-74454819D02*
X97619047Y-74407200D01*
X97619047Y-74407200D02*
X97666666Y-74311961D01*
X97666666Y-74311961D02*
X97666666Y-74264342D01*
X97666666Y-74264342D02*
X97619047Y-74169104D01*
X97619047Y-74169104D02*
X97523809Y-74121485D01*
X97523809Y-74121485D02*
X97380952Y-74121485D01*
X97380952Y-74121485D02*
X97285714Y-74073866D01*
X97285714Y-74073866D02*
X97238095Y-73978628D01*
X97238095Y-73978628D02*
X97238095Y-73931009D01*
X97238095Y-73931009D02*
X97285714Y-73835771D01*
X97285714Y-73835771D02*
X97380952Y-73788152D01*
X97380952Y-73788152D02*
X97523809Y-73788152D01*
X97523809Y-73788152D02*
X97619047Y-73835771D01*
X98476190Y-74407200D02*
X98380952Y-74454819D01*
X98380952Y-74454819D02*
X98190476Y-74454819D01*
X98190476Y-74454819D02*
X98095238Y-74407200D01*
X98095238Y-74407200D02*
X98047619Y-74311961D01*
X98047619Y-74311961D02*
X98047619Y-73931009D01*
X98047619Y-73931009D02*
X98095238Y-73835771D01*
X98095238Y-73835771D02*
X98190476Y-73788152D01*
X98190476Y-73788152D02*
X98380952Y-73788152D01*
X98380952Y-73788152D02*
X98476190Y-73835771D01*
X98476190Y-73835771D02*
X98523809Y-73931009D01*
X98523809Y-73931009D02*
X98523809Y-74026247D01*
X98523809Y-74026247D02*
X98047619Y-74121485D01*
X85614700Y-67571428D02*
X85614700Y-66428571D01*
X86186128Y-66999999D02*
X85043271Y-66999999D01*
D12*
%TO.C,BT2*%
X75890000Y-68240000D02*
X81310000Y-68240000D01*
X75890000Y-76960000D02*
X75890000Y-68240000D01*
X77190000Y-78660000D02*
X75890000Y-76960000D01*
X77190000Y-78660000D02*
X80010000Y-78660000D01*
X80010000Y-78660000D02*
X81310000Y-76960000D01*
X81310000Y-76960000D02*
X81310000Y-68240000D01*
%TO.C,BT3*%
X68865000Y-68065000D02*
X74285000Y-68065000D01*
X68865000Y-76785000D02*
X68865000Y-68065000D01*
X70165000Y-78485000D02*
X68865000Y-76785000D01*
X70165000Y-78485000D02*
X72985000Y-78485000D01*
X72985000Y-78485000D02*
X74285000Y-76785000D01*
X74285000Y-76785000D02*
X74285000Y-68065000D01*
%TO.C,BT4*%
X105790000Y-68400000D02*
X111210000Y-68400000D01*
X105790000Y-77120000D02*
X105790000Y-68400000D01*
X107090000Y-78820000D02*
X105790000Y-77120000D01*
X107090000Y-78820000D02*
X109910000Y-78820000D01*
X109910000Y-78820000D02*
X111210000Y-77120000D01*
X111210000Y-77120000D02*
X111210000Y-68400000D01*
%TO.C,Fuse*%
X88900000Y-71530000D02*
X88900000Y-78470000D01*
X88900000Y-78470000D02*
X105100000Y-78470000D01*
X95400000Y-73000000D02*
X98600000Y-73000000D01*
X96250000Y-75000000D02*
X97750000Y-75000000D01*
X98600000Y-77000000D02*
X95400000Y-77000000D01*
X105100000Y-71530000D02*
X88900000Y-71530000D01*
X105100000Y-78470000D02*
X105100000Y-71530000D01*
%TO.C,BT1*%
X82540000Y-68290000D02*
X87960000Y-68290000D01*
X82540000Y-77010000D02*
X82540000Y-68290000D01*
X83840000Y-78710000D02*
X82540000Y-77010000D01*
X83840000Y-78710000D02*
X86660000Y-78710000D01*
X86660000Y-78710000D02*
X87960000Y-77010000D01*
X87960000Y-77010000D02*
X87960000Y-68290000D01*
%TD*%
M02*
