%TF.GenerationSoftware,KiCad,Pcbnew,8.0.5*%
%TF.CreationDate,2024-12-04T12:22:01-05:00*%
%TF.ProjectId,RailsidePDB,5261696c-7369-4646-9550-44422e6b6963,rev?*%
%TF.SameCoordinates,Original*%
%TF.FileFunction,Drillmap*%
%TF.FilePolarity,Positive*%
%FSLAX45Y45*%
G04 Gerber Fmt 4.5, Leading zero omitted, Abs format (unit mm)*
G04 Created by KiCad (PCBNEW 8.0.5) date 2024-12-04 12:22:01*
%MOMM*%
%LPD*%
G01*
G04 APERTURE LIST*
%ADD10C,0.200000*%
%ADD11C,0.100000*%
%ADD12C,0.178000*%
%ADD13C,0.180000*%
%ADD14C,0.680000*%
G04 APERTURE END LIST*
D10*
X5800000Y-6200000D02*
X11250000Y-6200000D01*
X11250000Y-8450000D01*
X5800000Y-8450000D01*
X5800000Y-6200000D01*
D11*
X10160000Y-6660000D02*
X10240000Y-6740000D01*
X10240000Y-6660000D02*
X10160000Y-6740000D01*
D12*
X9293000Y-7330000D02*
G75*
G02*
X9115000Y-7330000I-89000J0D01*
G01*
X9115000Y-7330000D02*
G75*
G02*
X9293000Y-7330000I89000J0D01*
G01*
X9293000Y-7670000D02*
G75*
G02*
X9115000Y-7670000I-89000J0D01*
G01*
X9115000Y-7670000D02*
G75*
G02*
X9293000Y-7670000I89000J0D01*
G01*
X10285000Y-7330000D02*
G75*
G02*
X10107000Y-7330000I-89000J0D01*
G01*
X10107000Y-7330000D02*
G75*
G02*
X10285000Y-7330000I89000J0D01*
G01*
X10285000Y-7670000D02*
G75*
G02*
X10107000Y-7670000I-89000J0D01*
G01*
X10107000Y-7670000D02*
G75*
G02*
X10285000Y-7670000I89000J0D01*
G01*
D13*
X7157500Y-6987500D02*
X7157500Y-7167500D01*
X7067500Y-7077500D02*
X7247500Y-7077500D01*
X7157500Y-7487500D02*
X7157500Y-7667500D01*
X7067500Y-7577500D02*
X7247500Y-7577500D01*
X7860000Y-7005000D02*
X7860000Y-7185000D01*
X7770000Y-7095000D02*
X7950000Y-7095000D01*
X7860000Y-7505000D02*
X7860000Y-7685000D01*
X7770000Y-7595000D02*
X7950000Y-7595000D01*
X8525000Y-7010000D02*
X8525000Y-7190000D01*
X8435000Y-7100000D02*
X8615000Y-7100000D01*
X8525000Y-7510000D02*
X8525000Y-7690000D01*
X8435000Y-7600000D02*
X8615000Y-7600000D01*
X10850000Y-7021000D02*
X10850000Y-7201000D01*
X10760000Y-7111000D02*
X10940000Y-7111000D01*
X10850000Y-7521000D02*
X10850000Y-7701000D01*
X10760000Y-7611000D02*
X10940000Y-7611000D01*
D14*
X6590419Y-7540419D02*
X6590419Y-7059581D01*
X6109581Y-7059581D01*
X6109581Y-7540419D01*
X6590419Y-7540419D01*
X9990419Y-6940419D02*
X9990419Y-6459581D01*
X9509581Y-6459581D01*
X9509581Y-6940419D01*
X9990419Y-6940419D01*
D10*
X6050777Y-8771484D02*
X6050777Y-8571484D01*
X6050777Y-8571484D02*
X6098396Y-8571484D01*
X6098396Y-8571484D02*
X6126967Y-8581008D01*
X6126967Y-8581008D02*
X6146015Y-8600055D01*
X6146015Y-8600055D02*
X6155539Y-8619103D01*
X6155539Y-8619103D02*
X6165062Y-8657198D01*
X6165062Y-8657198D02*
X6165062Y-8685770D01*
X6165062Y-8685770D02*
X6155539Y-8723865D01*
X6155539Y-8723865D02*
X6146015Y-8742912D01*
X6146015Y-8742912D02*
X6126967Y-8761960D01*
X6126967Y-8761960D02*
X6098396Y-8771484D01*
X6098396Y-8771484D02*
X6050777Y-8771484D01*
X6250777Y-8771484D02*
X6250777Y-8638150D01*
X6250777Y-8676246D02*
X6260301Y-8657198D01*
X6260301Y-8657198D02*
X6269824Y-8647674D01*
X6269824Y-8647674D02*
X6288872Y-8638150D01*
X6288872Y-8638150D02*
X6307920Y-8638150D01*
X6374586Y-8771484D02*
X6374586Y-8638150D01*
X6374586Y-8571484D02*
X6365062Y-8581008D01*
X6365062Y-8581008D02*
X6374586Y-8590531D01*
X6374586Y-8590531D02*
X6384110Y-8581008D01*
X6384110Y-8581008D02*
X6374586Y-8571484D01*
X6374586Y-8571484D02*
X6374586Y-8590531D01*
X6498396Y-8771484D02*
X6479348Y-8761960D01*
X6479348Y-8761960D02*
X6469824Y-8742912D01*
X6469824Y-8742912D02*
X6469824Y-8571484D01*
X6603158Y-8771484D02*
X6584110Y-8761960D01*
X6584110Y-8761960D02*
X6574586Y-8742912D01*
X6574586Y-8742912D02*
X6574586Y-8571484D01*
X6831729Y-8771484D02*
X6831729Y-8571484D01*
X6831729Y-8571484D02*
X6898396Y-8714341D01*
X6898396Y-8714341D02*
X6965062Y-8571484D01*
X6965062Y-8571484D02*
X6965062Y-8771484D01*
X7146015Y-8771484D02*
X7146015Y-8666722D01*
X7146015Y-8666722D02*
X7136491Y-8647674D01*
X7136491Y-8647674D02*
X7117443Y-8638150D01*
X7117443Y-8638150D02*
X7079348Y-8638150D01*
X7079348Y-8638150D02*
X7060301Y-8647674D01*
X7146015Y-8761960D02*
X7126967Y-8771484D01*
X7126967Y-8771484D02*
X7079348Y-8771484D01*
X7079348Y-8771484D02*
X7060301Y-8761960D01*
X7060301Y-8761960D02*
X7050777Y-8742912D01*
X7050777Y-8742912D02*
X7050777Y-8723865D01*
X7050777Y-8723865D02*
X7060301Y-8704817D01*
X7060301Y-8704817D02*
X7079348Y-8695293D01*
X7079348Y-8695293D02*
X7126967Y-8695293D01*
X7126967Y-8695293D02*
X7146015Y-8685770D01*
X7241253Y-8638150D02*
X7241253Y-8838150D01*
X7241253Y-8647674D02*
X7260301Y-8638150D01*
X7260301Y-8638150D02*
X7298396Y-8638150D01*
X7298396Y-8638150D02*
X7317443Y-8647674D01*
X7317443Y-8647674D02*
X7326967Y-8657198D01*
X7326967Y-8657198D02*
X7336491Y-8676246D01*
X7336491Y-8676246D02*
X7336491Y-8733389D01*
X7336491Y-8733389D02*
X7326967Y-8752436D01*
X7326967Y-8752436D02*
X7317443Y-8761960D01*
X7317443Y-8761960D02*
X7298396Y-8771484D01*
X7298396Y-8771484D02*
X7260301Y-8771484D01*
X7260301Y-8771484D02*
X7241253Y-8761960D01*
X7422205Y-8752436D02*
X7431729Y-8761960D01*
X7431729Y-8761960D02*
X7422205Y-8771484D01*
X7422205Y-8771484D02*
X7412682Y-8761960D01*
X7412682Y-8761960D02*
X7422205Y-8752436D01*
X7422205Y-8752436D02*
X7422205Y-8771484D01*
X7422205Y-8647674D02*
X7431729Y-8657198D01*
X7431729Y-8657198D02*
X7422205Y-8666722D01*
X7422205Y-8666722D02*
X7412682Y-8657198D01*
X7412682Y-8657198D02*
X7422205Y-8647674D01*
X7422205Y-8647674D02*
X7422205Y-8666722D01*
D11*
X5710000Y-9060000D02*
X5790000Y-9140000D01*
X5790000Y-9060000D02*
X5710000Y-9140000D01*
D10*
X6088872Y-8991484D02*
X6107920Y-8991484D01*
X6107920Y-8991484D02*
X6126967Y-9001008D01*
X6126967Y-9001008D02*
X6136491Y-9010531D01*
X6136491Y-9010531D02*
X6146015Y-9029579D01*
X6146015Y-9029579D02*
X6155539Y-9067674D01*
X6155539Y-9067674D02*
X6155539Y-9115293D01*
X6155539Y-9115293D02*
X6146015Y-9153389D01*
X6146015Y-9153389D02*
X6136491Y-9172436D01*
X6136491Y-9172436D02*
X6126967Y-9181960D01*
X6126967Y-9181960D02*
X6107920Y-9191484D01*
X6107920Y-9191484D02*
X6088872Y-9191484D01*
X6088872Y-9191484D02*
X6069824Y-9181960D01*
X6069824Y-9181960D02*
X6060301Y-9172436D01*
X6060301Y-9172436D02*
X6050777Y-9153389D01*
X6050777Y-9153389D02*
X6041253Y-9115293D01*
X6041253Y-9115293D02*
X6041253Y-9067674D01*
X6041253Y-9067674D02*
X6050777Y-9029579D01*
X6050777Y-9029579D02*
X6060301Y-9010531D01*
X6060301Y-9010531D02*
X6069824Y-9001008D01*
X6069824Y-9001008D02*
X6088872Y-8991484D01*
X6241253Y-9172436D02*
X6250777Y-9181960D01*
X6250777Y-9181960D02*
X6241253Y-9191484D01*
X6241253Y-9191484D02*
X6231729Y-9181960D01*
X6231729Y-9181960D02*
X6241253Y-9172436D01*
X6241253Y-9172436D02*
X6241253Y-9191484D01*
X6365062Y-9077198D02*
X6346015Y-9067674D01*
X6346015Y-9067674D02*
X6336491Y-9058150D01*
X6336491Y-9058150D02*
X6326967Y-9039103D01*
X6326967Y-9039103D02*
X6326967Y-9029579D01*
X6326967Y-9029579D02*
X6336491Y-9010531D01*
X6336491Y-9010531D02*
X6346015Y-9001008D01*
X6346015Y-9001008D02*
X6365062Y-8991484D01*
X6365062Y-8991484D02*
X6403158Y-8991484D01*
X6403158Y-8991484D02*
X6422205Y-9001008D01*
X6422205Y-9001008D02*
X6431729Y-9010531D01*
X6431729Y-9010531D02*
X6441253Y-9029579D01*
X6441253Y-9029579D02*
X6441253Y-9039103D01*
X6441253Y-9039103D02*
X6431729Y-9058150D01*
X6431729Y-9058150D02*
X6422205Y-9067674D01*
X6422205Y-9067674D02*
X6403158Y-9077198D01*
X6403158Y-9077198D02*
X6365062Y-9077198D01*
X6365062Y-9077198D02*
X6346015Y-9086722D01*
X6346015Y-9086722D02*
X6336491Y-9096246D01*
X6336491Y-9096246D02*
X6326967Y-9115293D01*
X6326967Y-9115293D02*
X6326967Y-9153389D01*
X6326967Y-9153389D02*
X6336491Y-9172436D01*
X6336491Y-9172436D02*
X6346015Y-9181960D01*
X6346015Y-9181960D02*
X6365062Y-9191484D01*
X6365062Y-9191484D02*
X6403158Y-9191484D01*
X6403158Y-9191484D02*
X6422205Y-9181960D01*
X6422205Y-9181960D02*
X6431729Y-9172436D01*
X6431729Y-9172436D02*
X6441253Y-9153389D01*
X6441253Y-9153389D02*
X6441253Y-9115293D01*
X6441253Y-9115293D02*
X6431729Y-9096246D01*
X6431729Y-9096246D02*
X6422205Y-9086722D01*
X6422205Y-9086722D02*
X6403158Y-9077198D01*
X6565062Y-8991484D02*
X6584110Y-8991484D01*
X6584110Y-8991484D02*
X6603158Y-9001008D01*
X6603158Y-9001008D02*
X6612682Y-9010531D01*
X6612682Y-9010531D02*
X6622205Y-9029579D01*
X6622205Y-9029579D02*
X6631729Y-9067674D01*
X6631729Y-9067674D02*
X6631729Y-9115293D01*
X6631729Y-9115293D02*
X6622205Y-9153389D01*
X6622205Y-9153389D02*
X6612682Y-9172436D01*
X6612682Y-9172436D02*
X6603158Y-9181960D01*
X6603158Y-9181960D02*
X6584110Y-9191484D01*
X6584110Y-9191484D02*
X6565062Y-9191484D01*
X6565062Y-9191484D02*
X6546015Y-9181960D01*
X6546015Y-9181960D02*
X6536491Y-9172436D01*
X6536491Y-9172436D02*
X6526967Y-9153389D01*
X6526967Y-9153389D02*
X6517443Y-9115293D01*
X6517443Y-9115293D02*
X6517443Y-9067674D01*
X6517443Y-9067674D02*
X6526967Y-9029579D01*
X6526967Y-9029579D02*
X6536491Y-9010531D01*
X6536491Y-9010531D02*
X6546015Y-9001008D01*
X6546015Y-9001008D02*
X6565062Y-8991484D01*
X6755539Y-8991484D02*
X6774586Y-8991484D01*
X6774586Y-8991484D02*
X6793634Y-9001008D01*
X6793634Y-9001008D02*
X6803158Y-9010531D01*
X6803158Y-9010531D02*
X6812682Y-9029579D01*
X6812682Y-9029579D02*
X6822205Y-9067674D01*
X6822205Y-9067674D02*
X6822205Y-9115293D01*
X6822205Y-9115293D02*
X6812682Y-9153389D01*
X6812682Y-9153389D02*
X6803158Y-9172436D01*
X6803158Y-9172436D02*
X6793634Y-9181960D01*
X6793634Y-9181960D02*
X6774586Y-9191484D01*
X6774586Y-9191484D02*
X6755539Y-9191484D01*
X6755539Y-9191484D02*
X6736491Y-9181960D01*
X6736491Y-9181960D02*
X6726967Y-9172436D01*
X6726967Y-9172436D02*
X6717443Y-9153389D01*
X6717443Y-9153389D02*
X6707920Y-9115293D01*
X6707920Y-9115293D02*
X6707920Y-9067674D01*
X6707920Y-9067674D02*
X6717443Y-9029579D01*
X6717443Y-9029579D02*
X6726967Y-9010531D01*
X6726967Y-9010531D02*
X6736491Y-9001008D01*
X6736491Y-9001008D02*
X6755539Y-8991484D01*
X6907920Y-9191484D02*
X6907920Y-9058150D01*
X6907920Y-9077198D02*
X6917443Y-9067674D01*
X6917443Y-9067674D02*
X6936491Y-9058150D01*
X6936491Y-9058150D02*
X6965063Y-9058150D01*
X6965063Y-9058150D02*
X6984110Y-9067674D01*
X6984110Y-9067674D02*
X6993634Y-9086722D01*
X6993634Y-9086722D02*
X6993634Y-9191484D01*
X6993634Y-9086722D02*
X7003158Y-9067674D01*
X7003158Y-9067674D02*
X7022205Y-9058150D01*
X7022205Y-9058150D02*
X7050777Y-9058150D01*
X7050777Y-9058150D02*
X7069824Y-9067674D01*
X7069824Y-9067674D02*
X7079348Y-9086722D01*
X7079348Y-9086722D02*
X7079348Y-9191484D01*
X7174586Y-9191484D02*
X7174586Y-9058150D01*
X7174586Y-9077198D02*
X7184110Y-9067674D01*
X7184110Y-9067674D02*
X7203158Y-9058150D01*
X7203158Y-9058150D02*
X7231729Y-9058150D01*
X7231729Y-9058150D02*
X7250777Y-9067674D01*
X7250777Y-9067674D02*
X7260301Y-9086722D01*
X7260301Y-9086722D02*
X7260301Y-9191484D01*
X7260301Y-9086722D02*
X7269824Y-9067674D01*
X7269824Y-9067674D02*
X7288872Y-9058150D01*
X7288872Y-9058150D02*
X7317443Y-9058150D01*
X7317443Y-9058150D02*
X7336491Y-9067674D01*
X7336491Y-9067674D02*
X7346015Y-9086722D01*
X7346015Y-9086722D02*
X7346015Y-9191484D01*
X7736491Y-8981960D02*
X7565063Y-9239103D01*
X7993634Y-8991484D02*
X8012682Y-8991484D01*
X8012682Y-8991484D02*
X8031729Y-9001008D01*
X8031729Y-9001008D02*
X8041253Y-9010531D01*
X8041253Y-9010531D02*
X8050777Y-9029579D01*
X8050777Y-9029579D02*
X8060301Y-9067674D01*
X8060301Y-9067674D02*
X8060301Y-9115293D01*
X8060301Y-9115293D02*
X8050777Y-9153389D01*
X8050777Y-9153389D02*
X8041253Y-9172436D01*
X8041253Y-9172436D02*
X8031729Y-9181960D01*
X8031729Y-9181960D02*
X8012682Y-9191484D01*
X8012682Y-9191484D02*
X7993634Y-9191484D01*
X7993634Y-9191484D02*
X7974586Y-9181960D01*
X7974586Y-9181960D02*
X7965063Y-9172436D01*
X7965063Y-9172436D02*
X7955539Y-9153389D01*
X7955539Y-9153389D02*
X7946015Y-9115293D01*
X7946015Y-9115293D02*
X7946015Y-9067674D01*
X7946015Y-9067674D02*
X7955539Y-9029579D01*
X7955539Y-9029579D02*
X7965063Y-9010531D01*
X7965063Y-9010531D02*
X7974586Y-9001008D01*
X7974586Y-9001008D02*
X7993634Y-8991484D01*
X8146015Y-9172436D02*
X8155539Y-9181960D01*
X8155539Y-9181960D02*
X8146015Y-9191484D01*
X8146015Y-9191484D02*
X8136491Y-9181960D01*
X8136491Y-9181960D02*
X8146015Y-9172436D01*
X8146015Y-9172436D02*
X8146015Y-9191484D01*
X8279348Y-8991484D02*
X8298396Y-8991484D01*
X8298396Y-8991484D02*
X8317444Y-9001008D01*
X8317444Y-9001008D02*
X8326967Y-9010531D01*
X8326967Y-9010531D02*
X8336491Y-9029579D01*
X8336491Y-9029579D02*
X8346015Y-9067674D01*
X8346015Y-9067674D02*
X8346015Y-9115293D01*
X8346015Y-9115293D02*
X8336491Y-9153389D01*
X8336491Y-9153389D02*
X8326967Y-9172436D01*
X8326967Y-9172436D02*
X8317444Y-9181960D01*
X8317444Y-9181960D02*
X8298396Y-9191484D01*
X8298396Y-9191484D02*
X8279348Y-9191484D01*
X8279348Y-9191484D02*
X8260301Y-9181960D01*
X8260301Y-9181960D02*
X8250777Y-9172436D01*
X8250777Y-9172436D02*
X8241253Y-9153389D01*
X8241253Y-9153389D02*
X8231729Y-9115293D01*
X8231729Y-9115293D02*
X8231729Y-9067674D01*
X8231729Y-9067674D02*
X8241253Y-9029579D01*
X8241253Y-9029579D02*
X8250777Y-9010531D01*
X8250777Y-9010531D02*
X8260301Y-9001008D01*
X8260301Y-9001008D02*
X8279348Y-8991484D01*
X8412682Y-8991484D02*
X8536491Y-8991484D01*
X8536491Y-8991484D02*
X8469825Y-9067674D01*
X8469825Y-9067674D02*
X8498396Y-9067674D01*
X8498396Y-9067674D02*
X8517444Y-9077198D01*
X8517444Y-9077198D02*
X8526968Y-9086722D01*
X8526968Y-9086722D02*
X8536491Y-9105770D01*
X8536491Y-9105770D02*
X8536491Y-9153389D01*
X8536491Y-9153389D02*
X8526968Y-9172436D01*
X8526968Y-9172436D02*
X8517444Y-9181960D01*
X8517444Y-9181960D02*
X8498396Y-9191484D01*
X8498396Y-9191484D02*
X8441253Y-9191484D01*
X8441253Y-9191484D02*
X8422206Y-9181960D01*
X8422206Y-9181960D02*
X8412682Y-9172436D01*
X8726968Y-9191484D02*
X8612682Y-9191484D01*
X8669825Y-9191484D02*
X8669825Y-8991484D01*
X8669825Y-8991484D02*
X8650777Y-9020055D01*
X8650777Y-9020055D02*
X8631729Y-9039103D01*
X8631729Y-9039103D02*
X8612682Y-9048627D01*
X8907920Y-8991484D02*
X8812682Y-8991484D01*
X8812682Y-8991484D02*
X8803158Y-9086722D01*
X8803158Y-9086722D02*
X8812682Y-9077198D01*
X8812682Y-9077198D02*
X8831729Y-9067674D01*
X8831729Y-9067674D02*
X8879349Y-9067674D01*
X8879349Y-9067674D02*
X8898396Y-9077198D01*
X8898396Y-9077198D02*
X8907920Y-9086722D01*
X8907920Y-9086722D02*
X8917444Y-9105770D01*
X8917444Y-9105770D02*
X8917444Y-9153389D01*
X8917444Y-9153389D02*
X8907920Y-9172436D01*
X8907920Y-9172436D02*
X8898396Y-9181960D01*
X8898396Y-9181960D02*
X8879349Y-9191484D01*
X8879349Y-9191484D02*
X8831729Y-9191484D01*
X8831729Y-9191484D02*
X8812682Y-9181960D01*
X8812682Y-9181960D02*
X8803158Y-9172436D01*
X8993634Y-8991484D02*
X8993634Y-9029579D01*
X9069825Y-8991484D02*
X9069825Y-9029579D01*
X9365063Y-9267674D02*
X9355539Y-9258150D01*
X9355539Y-9258150D02*
X9336491Y-9229579D01*
X9336491Y-9229579D02*
X9326968Y-9210531D01*
X9326968Y-9210531D02*
X9317444Y-9181960D01*
X9317444Y-9181960D02*
X9307920Y-9134341D01*
X9307920Y-9134341D02*
X9307920Y-9096246D01*
X9307920Y-9096246D02*
X9317444Y-9048627D01*
X9317444Y-9048627D02*
X9326968Y-9020055D01*
X9326968Y-9020055D02*
X9336491Y-9001008D01*
X9336491Y-9001008D02*
X9355539Y-8972436D01*
X9355539Y-8972436D02*
X9365063Y-8962912D01*
X9546015Y-9191484D02*
X9431730Y-9191484D01*
X9488872Y-9191484D02*
X9488872Y-8991484D01*
X9488872Y-8991484D02*
X9469825Y-9020055D01*
X9469825Y-9020055D02*
X9450777Y-9039103D01*
X9450777Y-9039103D02*
X9431730Y-9048627D01*
X9784111Y-9191484D02*
X9784111Y-8991484D01*
X9869825Y-9191484D02*
X9869825Y-9086722D01*
X9869825Y-9086722D02*
X9860301Y-9067674D01*
X9860301Y-9067674D02*
X9841253Y-9058150D01*
X9841253Y-9058150D02*
X9812682Y-9058150D01*
X9812682Y-9058150D02*
X9793634Y-9067674D01*
X9793634Y-9067674D02*
X9784111Y-9077198D01*
X9993634Y-9191484D02*
X9974587Y-9181960D01*
X9974587Y-9181960D02*
X9965063Y-9172436D01*
X9965063Y-9172436D02*
X9955539Y-9153389D01*
X9955539Y-9153389D02*
X9955539Y-9096246D01*
X9955539Y-9096246D02*
X9965063Y-9077198D01*
X9965063Y-9077198D02*
X9974587Y-9067674D01*
X9974587Y-9067674D02*
X9993634Y-9058150D01*
X9993634Y-9058150D02*
X10022206Y-9058150D01*
X10022206Y-9058150D02*
X10041253Y-9067674D01*
X10041253Y-9067674D02*
X10050777Y-9077198D01*
X10050777Y-9077198D02*
X10060301Y-9096246D01*
X10060301Y-9096246D02*
X10060301Y-9153389D01*
X10060301Y-9153389D02*
X10050777Y-9172436D01*
X10050777Y-9172436D02*
X10041253Y-9181960D01*
X10041253Y-9181960D02*
X10022206Y-9191484D01*
X10022206Y-9191484D02*
X9993634Y-9191484D01*
X10174587Y-9191484D02*
X10155539Y-9181960D01*
X10155539Y-9181960D02*
X10146015Y-9162912D01*
X10146015Y-9162912D02*
X10146015Y-8991484D01*
X10326968Y-9181960D02*
X10307920Y-9191484D01*
X10307920Y-9191484D02*
X10269825Y-9191484D01*
X10269825Y-9191484D02*
X10250777Y-9181960D01*
X10250777Y-9181960D02*
X10241253Y-9162912D01*
X10241253Y-9162912D02*
X10241253Y-9086722D01*
X10241253Y-9086722D02*
X10250777Y-9067674D01*
X10250777Y-9067674D02*
X10269825Y-9058150D01*
X10269825Y-9058150D02*
X10307920Y-9058150D01*
X10307920Y-9058150D02*
X10326968Y-9067674D01*
X10326968Y-9067674D02*
X10336492Y-9086722D01*
X10336492Y-9086722D02*
X10336492Y-9105770D01*
X10336492Y-9105770D02*
X10241253Y-9124817D01*
X10403158Y-9267674D02*
X10412682Y-9258150D01*
X10412682Y-9258150D02*
X10431730Y-9229579D01*
X10431730Y-9229579D02*
X10441253Y-9210531D01*
X10441253Y-9210531D02*
X10450777Y-9181960D01*
X10450777Y-9181960D02*
X10460301Y-9134341D01*
X10460301Y-9134341D02*
X10460301Y-9096246D01*
X10460301Y-9096246D02*
X10450777Y-9048627D01*
X10450777Y-9048627D02*
X10441253Y-9020055D01*
X10441253Y-9020055D02*
X10431730Y-9001008D01*
X10431730Y-9001008D02*
X10412682Y-8972436D01*
X10412682Y-8972436D02*
X10403158Y-8962912D01*
D12*
X5790000Y-9364000D02*
G75*
G02*
X5612000Y-9364000I-89000J0D01*
G01*
X5612000Y-9364000D02*
G75*
G02*
X5790000Y-9364000I89000J0D01*
G01*
D10*
X6155539Y-9455484D02*
X6041253Y-9455484D01*
X6098396Y-9455484D02*
X6098396Y-9255484D01*
X6098396Y-9255484D02*
X6079348Y-9284055D01*
X6079348Y-9284055D02*
X6060301Y-9303103D01*
X6060301Y-9303103D02*
X6041253Y-9312627D01*
X6241253Y-9436436D02*
X6250777Y-9445960D01*
X6250777Y-9445960D02*
X6241253Y-9455484D01*
X6241253Y-9455484D02*
X6231729Y-9445960D01*
X6231729Y-9445960D02*
X6241253Y-9436436D01*
X6241253Y-9436436D02*
X6241253Y-9455484D01*
X6317443Y-9255484D02*
X6450777Y-9255484D01*
X6450777Y-9255484D02*
X6365062Y-9455484D01*
X6555539Y-9341198D02*
X6536491Y-9331674D01*
X6536491Y-9331674D02*
X6526967Y-9322150D01*
X6526967Y-9322150D02*
X6517443Y-9303103D01*
X6517443Y-9303103D02*
X6517443Y-9293579D01*
X6517443Y-9293579D02*
X6526967Y-9274531D01*
X6526967Y-9274531D02*
X6536491Y-9265008D01*
X6536491Y-9265008D02*
X6555539Y-9255484D01*
X6555539Y-9255484D02*
X6593634Y-9255484D01*
X6593634Y-9255484D02*
X6612682Y-9265008D01*
X6612682Y-9265008D02*
X6622205Y-9274531D01*
X6622205Y-9274531D02*
X6631729Y-9293579D01*
X6631729Y-9293579D02*
X6631729Y-9303103D01*
X6631729Y-9303103D02*
X6622205Y-9322150D01*
X6622205Y-9322150D02*
X6612682Y-9331674D01*
X6612682Y-9331674D02*
X6593634Y-9341198D01*
X6593634Y-9341198D02*
X6555539Y-9341198D01*
X6555539Y-9341198D02*
X6536491Y-9350722D01*
X6536491Y-9350722D02*
X6526967Y-9360246D01*
X6526967Y-9360246D02*
X6517443Y-9379293D01*
X6517443Y-9379293D02*
X6517443Y-9417389D01*
X6517443Y-9417389D02*
X6526967Y-9436436D01*
X6526967Y-9436436D02*
X6536491Y-9445960D01*
X6536491Y-9445960D02*
X6555539Y-9455484D01*
X6555539Y-9455484D02*
X6593634Y-9455484D01*
X6593634Y-9455484D02*
X6612682Y-9445960D01*
X6612682Y-9445960D02*
X6622205Y-9436436D01*
X6622205Y-9436436D02*
X6631729Y-9417389D01*
X6631729Y-9417389D02*
X6631729Y-9379293D01*
X6631729Y-9379293D02*
X6622205Y-9360246D01*
X6622205Y-9360246D02*
X6612682Y-9350722D01*
X6612682Y-9350722D02*
X6593634Y-9341198D01*
X6755539Y-9255484D02*
X6774586Y-9255484D01*
X6774586Y-9255484D02*
X6793634Y-9265008D01*
X6793634Y-9265008D02*
X6803158Y-9274531D01*
X6803158Y-9274531D02*
X6812682Y-9293579D01*
X6812682Y-9293579D02*
X6822205Y-9331674D01*
X6822205Y-9331674D02*
X6822205Y-9379293D01*
X6822205Y-9379293D02*
X6812682Y-9417389D01*
X6812682Y-9417389D02*
X6803158Y-9436436D01*
X6803158Y-9436436D02*
X6793634Y-9445960D01*
X6793634Y-9445960D02*
X6774586Y-9455484D01*
X6774586Y-9455484D02*
X6755539Y-9455484D01*
X6755539Y-9455484D02*
X6736491Y-9445960D01*
X6736491Y-9445960D02*
X6726967Y-9436436D01*
X6726967Y-9436436D02*
X6717443Y-9417389D01*
X6717443Y-9417389D02*
X6707920Y-9379293D01*
X6707920Y-9379293D02*
X6707920Y-9331674D01*
X6707920Y-9331674D02*
X6717443Y-9293579D01*
X6717443Y-9293579D02*
X6726967Y-9274531D01*
X6726967Y-9274531D02*
X6736491Y-9265008D01*
X6736491Y-9265008D02*
X6755539Y-9255484D01*
X6907920Y-9455484D02*
X6907920Y-9322150D01*
X6907920Y-9341198D02*
X6917443Y-9331674D01*
X6917443Y-9331674D02*
X6936491Y-9322150D01*
X6936491Y-9322150D02*
X6965063Y-9322150D01*
X6965063Y-9322150D02*
X6984110Y-9331674D01*
X6984110Y-9331674D02*
X6993634Y-9350722D01*
X6993634Y-9350722D02*
X6993634Y-9455484D01*
X6993634Y-9350722D02*
X7003158Y-9331674D01*
X7003158Y-9331674D02*
X7022205Y-9322150D01*
X7022205Y-9322150D02*
X7050777Y-9322150D01*
X7050777Y-9322150D02*
X7069824Y-9331674D01*
X7069824Y-9331674D02*
X7079348Y-9350722D01*
X7079348Y-9350722D02*
X7079348Y-9455484D01*
X7174586Y-9455484D02*
X7174586Y-9322150D01*
X7174586Y-9341198D02*
X7184110Y-9331674D01*
X7184110Y-9331674D02*
X7203158Y-9322150D01*
X7203158Y-9322150D02*
X7231729Y-9322150D01*
X7231729Y-9322150D02*
X7250777Y-9331674D01*
X7250777Y-9331674D02*
X7260301Y-9350722D01*
X7260301Y-9350722D02*
X7260301Y-9455484D01*
X7260301Y-9350722D02*
X7269824Y-9331674D01*
X7269824Y-9331674D02*
X7288872Y-9322150D01*
X7288872Y-9322150D02*
X7317443Y-9322150D01*
X7317443Y-9322150D02*
X7336491Y-9331674D01*
X7336491Y-9331674D02*
X7346015Y-9350722D01*
X7346015Y-9350722D02*
X7346015Y-9455484D01*
X7736491Y-9245960D02*
X7565063Y-9503103D01*
X7993634Y-9255484D02*
X8012682Y-9255484D01*
X8012682Y-9255484D02*
X8031729Y-9265008D01*
X8031729Y-9265008D02*
X8041253Y-9274531D01*
X8041253Y-9274531D02*
X8050777Y-9293579D01*
X8050777Y-9293579D02*
X8060301Y-9331674D01*
X8060301Y-9331674D02*
X8060301Y-9379293D01*
X8060301Y-9379293D02*
X8050777Y-9417389D01*
X8050777Y-9417389D02*
X8041253Y-9436436D01*
X8041253Y-9436436D02*
X8031729Y-9445960D01*
X8031729Y-9445960D02*
X8012682Y-9455484D01*
X8012682Y-9455484D02*
X7993634Y-9455484D01*
X7993634Y-9455484D02*
X7974586Y-9445960D01*
X7974586Y-9445960D02*
X7965063Y-9436436D01*
X7965063Y-9436436D02*
X7955539Y-9417389D01*
X7955539Y-9417389D02*
X7946015Y-9379293D01*
X7946015Y-9379293D02*
X7946015Y-9331674D01*
X7946015Y-9331674D02*
X7955539Y-9293579D01*
X7955539Y-9293579D02*
X7965063Y-9274531D01*
X7965063Y-9274531D02*
X7974586Y-9265008D01*
X7974586Y-9265008D02*
X7993634Y-9255484D01*
X8146015Y-9436436D02*
X8155539Y-9445960D01*
X8155539Y-9445960D02*
X8146015Y-9455484D01*
X8146015Y-9455484D02*
X8136491Y-9445960D01*
X8136491Y-9445960D02*
X8146015Y-9436436D01*
X8146015Y-9436436D02*
X8146015Y-9455484D01*
X8279348Y-9255484D02*
X8298396Y-9255484D01*
X8298396Y-9255484D02*
X8317444Y-9265008D01*
X8317444Y-9265008D02*
X8326967Y-9274531D01*
X8326967Y-9274531D02*
X8336491Y-9293579D01*
X8336491Y-9293579D02*
X8346015Y-9331674D01*
X8346015Y-9331674D02*
X8346015Y-9379293D01*
X8346015Y-9379293D02*
X8336491Y-9417389D01*
X8336491Y-9417389D02*
X8326967Y-9436436D01*
X8326967Y-9436436D02*
X8317444Y-9445960D01*
X8317444Y-9445960D02*
X8298396Y-9455484D01*
X8298396Y-9455484D02*
X8279348Y-9455484D01*
X8279348Y-9455484D02*
X8260301Y-9445960D01*
X8260301Y-9445960D02*
X8250777Y-9436436D01*
X8250777Y-9436436D02*
X8241253Y-9417389D01*
X8241253Y-9417389D02*
X8231729Y-9379293D01*
X8231729Y-9379293D02*
X8231729Y-9331674D01*
X8231729Y-9331674D02*
X8241253Y-9293579D01*
X8241253Y-9293579D02*
X8250777Y-9274531D01*
X8250777Y-9274531D02*
X8260301Y-9265008D01*
X8260301Y-9265008D02*
X8279348Y-9255484D01*
X8412682Y-9255484D02*
X8546015Y-9255484D01*
X8546015Y-9255484D02*
X8460301Y-9455484D01*
X8660301Y-9255484D02*
X8679349Y-9255484D01*
X8679349Y-9255484D02*
X8698396Y-9265008D01*
X8698396Y-9265008D02*
X8707920Y-9274531D01*
X8707920Y-9274531D02*
X8717444Y-9293579D01*
X8717444Y-9293579D02*
X8726968Y-9331674D01*
X8726968Y-9331674D02*
X8726968Y-9379293D01*
X8726968Y-9379293D02*
X8717444Y-9417389D01*
X8717444Y-9417389D02*
X8707920Y-9436436D01*
X8707920Y-9436436D02*
X8698396Y-9445960D01*
X8698396Y-9445960D02*
X8679349Y-9455484D01*
X8679349Y-9455484D02*
X8660301Y-9455484D01*
X8660301Y-9455484D02*
X8641253Y-9445960D01*
X8641253Y-9445960D02*
X8631729Y-9436436D01*
X8631729Y-9436436D02*
X8622206Y-9417389D01*
X8622206Y-9417389D02*
X8612682Y-9379293D01*
X8612682Y-9379293D02*
X8612682Y-9331674D01*
X8612682Y-9331674D02*
X8622206Y-9293579D01*
X8622206Y-9293579D02*
X8631729Y-9274531D01*
X8631729Y-9274531D02*
X8641253Y-9265008D01*
X8641253Y-9265008D02*
X8660301Y-9255484D01*
X8917444Y-9455484D02*
X8803158Y-9455484D01*
X8860301Y-9455484D02*
X8860301Y-9255484D01*
X8860301Y-9255484D02*
X8841253Y-9284055D01*
X8841253Y-9284055D02*
X8822206Y-9303103D01*
X8822206Y-9303103D02*
X8803158Y-9312627D01*
X8993634Y-9255484D02*
X8993634Y-9293579D01*
X9069825Y-9255484D02*
X9069825Y-9293579D01*
X9365063Y-9531674D02*
X9355539Y-9522150D01*
X9355539Y-9522150D02*
X9336491Y-9493579D01*
X9336491Y-9493579D02*
X9326968Y-9474531D01*
X9326968Y-9474531D02*
X9317444Y-9445960D01*
X9317444Y-9445960D02*
X9307920Y-9398341D01*
X9307920Y-9398341D02*
X9307920Y-9360246D01*
X9307920Y-9360246D02*
X9317444Y-9312627D01*
X9317444Y-9312627D02*
X9326968Y-9284055D01*
X9326968Y-9284055D02*
X9336491Y-9265008D01*
X9336491Y-9265008D02*
X9355539Y-9236436D01*
X9355539Y-9236436D02*
X9365063Y-9226912D01*
X9526968Y-9322150D02*
X9526968Y-9455484D01*
X9479349Y-9245960D02*
X9431730Y-9388817D01*
X9431730Y-9388817D02*
X9555539Y-9388817D01*
X9784111Y-9455484D02*
X9784111Y-9255484D01*
X9869825Y-9455484D02*
X9869825Y-9350722D01*
X9869825Y-9350722D02*
X9860301Y-9331674D01*
X9860301Y-9331674D02*
X9841253Y-9322150D01*
X9841253Y-9322150D02*
X9812682Y-9322150D01*
X9812682Y-9322150D02*
X9793634Y-9331674D01*
X9793634Y-9331674D02*
X9784111Y-9341198D01*
X9993634Y-9455484D02*
X9974587Y-9445960D01*
X9974587Y-9445960D02*
X9965063Y-9436436D01*
X9965063Y-9436436D02*
X9955539Y-9417389D01*
X9955539Y-9417389D02*
X9955539Y-9360246D01*
X9955539Y-9360246D02*
X9965063Y-9341198D01*
X9965063Y-9341198D02*
X9974587Y-9331674D01*
X9974587Y-9331674D02*
X9993634Y-9322150D01*
X9993634Y-9322150D02*
X10022206Y-9322150D01*
X10022206Y-9322150D02*
X10041253Y-9331674D01*
X10041253Y-9331674D02*
X10050777Y-9341198D01*
X10050777Y-9341198D02*
X10060301Y-9360246D01*
X10060301Y-9360246D02*
X10060301Y-9417389D01*
X10060301Y-9417389D02*
X10050777Y-9436436D01*
X10050777Y-9436436D02*
X10041253Y-9445960D01*
X10041253Y-9445960D02*
X10022206Y-9455484D01*
X10022206Y-9455484D02*
X9993634Y-9455484D01*
X10174587Y-9455484D02*
X10155539Y-9445960D01*
X10155539Y-9445960D02*
X10146015Y-9426912D01*
X10146015Y-9426912D02*
X10146015Y-9255484D01*
X10326968Y-9445960D02*
X10307920Y-9455484D01*
X10307920Y-9455484D02*
X10269825Y-9455484D01*
X10269825Y-9455484D02*
X10250777Y-9445960D01*
X10250777Y-9445960D02*
X10241253Y-9426912D01*
X10241253Y-9426912D02*
X10241253Y-9350722D01*
X10241253Y-9350722D02*
X10250777Y-9331674D01*
X10250777Y-9331674D02*
X10269825Y-9322150D01*
X10269825Y-9322150D02*
X10307920Y-9322150D01*
X10307920Y-9322150D02*
X10326968Y-9331674D01*
X10326968Y-9331674D02*
X10336492Y-9350722D01*
X10336492Y-9350722D02*
X10336492Y-9369770D01*
X10336492Y-9369770D02*
X10241253Y-9388817D01*
X10412682Y-9445960D02*
X10431730Y-9455484D01*
X10431730Y-9455484D02*
X10469825Y-9455484D01*
X10469825Y-9455484D02*
X10488873Y-9445960D01*
X10488873Y-9445960D02*
X10498396Y-9426912D01*
X10498396Y-9426912D02*
X10498396Y-9417389D01*
X10498396Y-9417389D02*
X10488873Y-9398341D01*
X10488873Y-9398341D02*
X10469825Y-9388817D01*
X10469825Y-9388817D02*
X10441253Y-9388817D01*
X10441253Y-9388817D02*
X10422206Y-9379293D01*
X10422206Y-9379293D02*
X10412682Y-9360246D01*
X10412682Y-9360246D02*
X10412682Y-9350722D01*
X10412682Y-9350722D02*
X10422206Y-9331674D01*
X10422206Y-9331674D02*
X10441253Y-9322150D01*
X10441253Y-9322150D02*
X10469825Y-9322150D01*
X10469825Y-9322150D02*
X10488873Y-9331674D01*
X10565063Y-9531674D02*
X10574587Y-9522150D01*
X10574587Y-9522150D02*
X10593634Y-9493579D01*
X10593634Y-9493579D02*
X10603158Y-9474531D01*
X10603158Y-9474531D02*
X10612682Y-9445960D01*
X10612682Y-9445960D02*
X10622206Y-9398341D01*
X10622206Y-9398341D02*
X10622206Y-9360246D01*
X10622206Y-9360246D02*
X10612682Y-9312627D01*
X10612682Y-9312627D02*
X10603158Y-9284055D01*
X10603158Y-9284055D02*
X10593634Y-9265008D01*
X10593634Y-9265008D02*
X10574587Y-9236436D01*
X10574587Y-9236436D02*
X10565063Y-9226912D01*
D13*
X5700000Y-9572000D02*
X5700000Y-9752000D01*
X5610000Y-9662000D02*
X5790000Y-9662000D01*
D10*
X6155539Y-9753484D02*
X6041253Y-9753484D01*
X6098396Y-9753484D02*
X6098396Y-9553484D01*
X6098396Y-9553484D02*
X6079348Y-9582055D01*
X6079348Y-9582055D02*
X6060301Y-9601103D01*
X6060301Y-9601103D02*
X6041253Y-9610627D01*
X6241253Y-9734436D02*
X6250777Y-9743960D01*
X6250777Y-9743960D02*
X6241253Y-9753484D01*
X6241253Y-9753484D02*
X6231729Y-9743960D01*
X6231729Y-9743960D02*
X6241253Y-9734436D01*
X6241253Y-9734436D02*
X6241253Y-9753484D01*
X6365062Y-9639198D02*
X6346015Y-9629674D01*
X6346015Y-9629674D02*
X6336491Y-9620150D01*
X6336491Y-9620150D02*
X6326967Y-9601103D01*
X6326967Y-9601103D02*
X6326967Y-9591579D01*
X6326967Y-9591579D02*
X6336491Y-9572531D01*
X6336491Y-9572531D02*
X6346015Y-9563008D01*
X6346015Y-9563008D02*
X6365062Y-9553484D01*
X6365062Y-9553484D02*
X6403158Y-9553484D01*
X6403158Y-9553484D02*
X6422205Y-9563008D01*
X6422205Y-9563008D02*
X6431729Y-9572531D01*
X6431729Y-9572531D02*
X6441253Y-9591579D01*
X6441253Y-9591579D02*
X6441253Y-9601103D01*
X6441253Y-9601103D02*
X6431729Y-9620150D01*
X6431729Y-9620150D02*
X6422205Y-9629674D01*
X6422205Y-9629674D02*
X6403158Y-9639198D01*
X6403158Y-9639198D02*
X6365062Y-9639198D01*
X6365062Y-9639198D02*
X6346015Y-9648722D01*
X6346015Y-9648722D02*
X6336491Y-9658246D01*
X6336491Y-9658246D02*
X6326967Y-9677293D01*
X6326967Y-9677293D02*
X6326967Y-9715389D01*
X6326967Y-9715389D02*
X6336491Y-9734436D01*
X6336491Y-9734436D02*
X6346015Y-9743960D01*
X6346015Y-9743960D02*
X6365062Y-9753484D01*
X6365062Y-9753484D02*
X6403158Y-9753484D01*
X6403158Y-9753484D02*
X6422205Y-9743960D01*
X6422205Y-9743960D02*
X6431729Y-9734436D01*
X6431729Y-9734436D02*
X6441253Y-9715389D01*
X6441253Y-9715389D02*
X6441253Y-9677293D01*
X6441253Y-9677293D02*
X6431729Y-9658246D01*
X6431729Y-9658246D02*
X6422205Y-9648722D01*
X6422205Y-9648722D02*
X6403158Y-9639198D01*
X6565062Y-9553484D02*
X6584110Y-9553484D01*
X6584110Y-9553484D02*
X6603158Y-9563008D01*
X6603158Y-9563008D02*
X6612682Y-9572531D01*
X6612682Y-9572531D02*
X6622205Y-9591579D01*
X6622205Y-9591579D02*
X6631729Y-9629674D01*
X6631729Y-9629674D02*
X6631729Y-9677293D01*
X6631729Y-9677293D02*
X6622205Y-9715389D01*
X6622205Y-9715389D02*
X6612682Y-9734436D01*
X6612682Y-9734436D02*
X6603158Y-9743960D01*
X6603158Y-9743960D02*
X6584110Y-9753484D01*
X6584110Y-9753484D02*
X6565062Y-9753484D01*
X6565062Y-9753484D02*
X6546015Y-9743960D01*
X6546015Y-9743960D02*
X6536491Y-9734436D01*
X6536491Y-9734436D02*
X6526967Y-9715389D01*
X6526967Y-9715389D02*
X6517443Y-9677293D01*
X6517443Y-9677293D02*
X6517443Y-9629674D01*
X6517443Y-9629674D02*
X6526967Y-9591579D01*
X6526967Y-9591579D02*
X6536491Y-9572531D01*
X6536491Y-9572531D02*
X6546015Y-9563008D01*
X6546015Y-9563008D02*
X6565062Y-9553484D01*
X6755539Y-9553484D02*
X6774586Y-9553484D01*
X6774586Y-9553484D02*
X6793634Y-9563008D01*
X6793634Y-9563008D02*
X6803158Y-9572531D01*
X6803158Y-9572531D02*
X6812682Y-9591579D01*
X6812682Y-9591579D02*
X6822205Y-9629674D01*
X6822205Y-9629674D02*
X6822205Y-9677293D01*
X6822205Y-9677293D02*
X6812682Y-9715389D01*
X6812682Y-9715389D02*
X6803158Y-9734436D01*
X6803158Y-9734436D02*
X6793634Y-9743960D01*
X6793634Y-9743960D02*
X6774586Y-9753484D01*
X6774586Y-9753484D02*
X6755539Y-9753484D01*
X6755539Y-9753484D02*
X6736491Y-9743960D01*
X6736491Y-9743960D02*
X6726967Y-9734436D01*
X6726967Y-9734436D02*
X6717443Y-9715389D01*
X6717443Y-9715389D02*
X6707920Y-9677293D01*
X6707920Y-9677293D02*
X6707920Y-9629674D01*
X6707920Y-9629674D02*
X6717443Y-9591579D01*
X6717443Y-9591579D02*
X6726967Y-9572531D01*
X6726967Y-9572531D02*
X6736491Y-9563008D01*
X6736491Y-9563008D02*
X6755539Y-9553484D01*
X6907920Y-9753484D02*
X6907920Y-9620150D01*
X6907920Y-9639198D02*
X6917443Y-9629674D01*
X6917443Y-9629674D02*
X6936491Y-9620150D01*
X6936491Y-9620150D02*
X6965063Y-9620150D01*
X6965063Y-9620150D02*
X6984110Y-9629674D01*
X6984110Y-9629674D02*
X6993634Y-9648722D01*
X6993634Y-9648722D02*
X6993634Y-9753484D01*
X6993634Y-9648722D02*
X7003158Y-9629674D01*
X7003158Y-9629674D02*
X7022205Y-9620150D01*
X7022205Y-9620150D02*
X7050777Y-9620150D01*
X7050777Y-9620150D02*
X7069824Y-9629674D01*
X7069824Y-9629674D02*
X7079348Y-9648722D01*
X7079348Y-9648722D02*
X7079348Y-9753484D01*
X7174586Y-9753484D02*
X7174586Y-9620150D01*
X7174586Y-9639198D02*
X7184110Y-9629674D01*
X7184110Y-9629674D02*
X7203158Y-9620150D01*
X7203158Y-9620150D02*
X7231729Y-9620150D01*
X7231729Y-9620150D02*
X7250777Y-9629674D01*
X7250777Y-9629674D02*
X7260301Y-9648722D01*
X7260301Y-9648722D02*
X7260301Y-9753484D01*
X7260301Y-9648722D02*
X7269824Y-9629674D01*
X7269824Y-9629674D02*
X7288872Y-9620150D01*
X7288872Y-9620150D02*
X7317443Y-9620150D01*
X7317443Y-9620150D02*
X7336491Y-9629674D01*
X7336491Y-9629674D02*
X7346015Y-9648722D01*
X7346015Y-9648722D02*
X7346015Y-9753484D01*
X7736491Y-9543960D02*
X7565063Y-9801103D01*
X7993634Y-9553484D02*
X8012682Y-9553484D01*
X8012682Y-9553484D02*
X8031729Y-9563008D01*
X8031729Y-9563008D02*
X8041253Y-9572531D01*
X8041253Y-9572531D02*
X8050777Y-9591579D01*
X8050777Y-9591579D02*
X8060301Y-9629674D01*
X8060301Y-9629674D02*
X8060301Y-9677293D01*
X8060301Y-9677293D02*
X8050777Y-9715389D01*
X8050777Y-9715389D02*
X8041253Y-9734436D01*
X8041253Y-9734436D02*
X8031729Y-9743960D01*
X8031729Y-9743960D02*
X8012682Y-9753484D01*
X8012682Y-9753484D02*
X7993634Y-9753484D01*
X7993634Y-9753484D02*
X7974586Y-9743960D01*
X7974586Y-9743960D02*
X7965063Y-9734436D01*
X7965063Y-9734436D02*
X7955539Y-9715389D01*
X7955539Y-9715389D02*
X7946015Y-9677293D01*
X7946015Y-9677293D02*
X7946015Y-9629674D01*
X7946015Y-9629674D02*
X7955539Y-9591579D01*
X7955539Y-9591579D02*
X7965063Y-9572531D01*
X7965063Y-9572531D02*
X7974586Y-9563008D01*
X7974586Y-9563008D02*
X7993634Y-9553484D01*
X8146015Y-9734436D02*
X8155539Y-9743960D01*
X8155539Y-9743960D02*
X8146015Y-9753484D01*
X8146015Y-9753484D02*
X8136491Y-9743960D01*
X8136491Y-9743960D02*
X8146015Y-9734436D01*
X8146015Y-9734436D02*
X8146015Y-9753484D01*
X8279348Y-9553484D02*
X8298396Y-9553484D01*
X8298396Y-9553484D02*
X8317444Y-9563008D01*
X8317444Y-9563008D02*
X8326967Y-9572531D01*
X8326967Y-9572531D02*
X8336491Y-9591579D01*
X8336491Y-9591579D02*
X8346015Y-9629674D01*
X8346015Y-9629674D02*
X8346015Y-9677293D01*
X8346015Y-9677293D02*
X8336491Y-9715389D01*
X8336491Y-9715389D02*
X8326967Y-9734436D01*
X8326967Y-9734436D02*
X8317444Y-9743960D01*
X8317444Y-9743960D02*
X8298396Y-9753484D01*
X8298396Y-9753484D02*
X8279348Y-9753484D01*
X8279348Y-9753484D02*
X8260301Y-9743960D01*
X8260301Y-9743960D02*
X8250777Y-9734436D01*
X8250777Y-9734436D02*
X8241253Y-9715389D01*
X8241253Y-9715389D02*
X8231729Y-9677293D01*
X8231729Y-9677293D02*
X8231729Y-9629674D01*
X8231729Y-9629674D02*
X8241253Y-9591579D01*
X8241253Y-9591579D02*
X8250777Y-9572531D01*
X8250777Y-9572531D02*
X8260301Y-9563008D01*
X8260301Y-9563008D02*
X8279348Y-9553484D01*
X8412682Y-9553484D02*
X8546015Y-9553484D01*
X8546015Y-9553484D02*
X8460301Y-9753484D01*
X8660301Y-9553484D02*
X8679349Y-9553484D01*
X8679349Y-9553484D02*
X8698396Y-9563008D01*
X8698396Y-9563008D02*
X8707920Y-9572531D01*
X8707920Y-9572531D02*
X8717444Y-9591579D01*
X8717444Y-9591579D02*
X8726968Y-9629674D01*
X8726968Y-9629674D02*
X8726968Y-9677293D01*
X8726968Y-9677293D02*
X8717444Y-9715389D01*
X8717444Y-9715389D02*
X8707920Y-9734436D01*
X8707920Y-9734436D02*
X8698396Y-9743960D01*
X8698396Y-9743960D02*
X8679349Y-9753484D01*
X8679349Y-9753484D02*
X8660301Y-9753484D01*
X8660301Y-9753484D02*
X8641253Y-9743960D01*
X8641253Y-9743960D02*
X8631729Y-9734436D01*
X8631729Y-9734436D02*
X8622206Y-9715389D01*
X8622206Y-9715389D02*
X8612682Y-9677293D01*
X8612682Y-9677293D02*
X8612682Y-9629674D01*
X8612682Y-9629674D02*
X8622206Y-9591579D01*
X8622206Y-9591579D02*
X8631729Y-9572531D01*
X8631729Y-9572531D02*
X8641253Y-9563008D01*
X8641253Y-9563008D02*
X8660301Y-9553484D01*
X8822206Y-9753484D02*
X8860301Y-9753484D01*
X8860301Y-9753484D02*
X8879349Y-9743960D01*
X8879349Y-9743960D02*
X8888872Y-9734436D01*
X8888872Y-9734436D02*
X8907920Y-9705865D01*
X8907920Y-9705865D02*
X8917444Y-9667770D01*
X8917444Y-9667770D02*
X8917444Y-9591579D01*
X8917444Y-9591579D02*
X8907920Y-9572531D01*
X8907920Y-9572531D02*
X8898396Y-9563008D01*
X8898396Y-9563008D02*
X8879349Y-9553484D01*
X8879349Y-9553484D02*
X8841253Y-9553484D01*
X8841253Y-9553484D02*
X8822206Y-9563008D01*
X8822206Y-9563008D02*
X8812682Y-9572531D01*
X8812682Y-9572531D02*
X8803158Y-9591579D01*
X8803158Y-9591579D02*
X8803158Y-9639198D01*
X8803158Y-9639198D02*
X8812682Y-9658246D01*
X8812682Y-9658246D02*
X8822206Y-9667770D01*
X8822206Y-9667770D02*
X8841253Y-9677293D01*
X8841253Y-9677293D02*
X8879349Y-9677293D01*
X8879349Y-9677293D02*
X8898396Y-9667770D01*
X8898396Y-9667770D02*
X8907920Y-9658246D01*
X8907920Y-9658246D02*
X8917444Y-9639198D01*
X8993634Y-9553484D02*
X8993634Y-9591579D01*
X9069825Y-9553484D02*
X9069825Y-9591579D01*
X9365063Y-9829674D02*
X9355539Y-9820150D01*
X9355539Y-9820150D02*
X9336491Y-9791579D01*
X9336491Y-9791579D02*
X9326968Y-9772531D01*
X9326968Y-9772531D02*
X9317444Y-9743960D01*
X9317444Y-9743960D02*
X9307920Y-9696341D01*
X9307920Y-9696341D02*
X9307920Y-9658246D01*
X9307920Y-9658246D02*
X9317444Y-9610627D01*
X9317444Y-9610627D02*
X9326968Y-9582055D01*
X9326968Y-9582055D02*
X9336491Y-9563008D01*
X9336491Y-9563008D02*
X9355539Y-9534436D01*
X9355539Y-9534436D02*
X9365063Y-9524912D01*
X9469825Y-9639198D02*
X9450777Y-9629674D01*
X9450777Y-9629674D02*
X9441253Y-9620150D01*
X9441253Y-9620150D02*
X9431730Y-9601103D01*
X9431730Y-9601103D02*
X9431730Y-9591579D01*
X9431730Y-9591579D02*
X9441253Y-9572531D01*
X9441253Y-9572531D02*
X9450777Y-9563008D01*
X9450777Y-9563008D02*
X9469825Y-9553484D01*
X9469825Y-9553484D02*
X9507920Y-9553484D01*
X9507920Y-9553484D02*
X9526968Y-9563008D01*
X9526968Y-9563008D02*
X9536491Y-9572531D01*
X9536491Y-9572531D02*
X9546015Y-9591579D01*
X9546015Y-9591579D02*
X9546015Y-9601103D01*
X9546015Y-9601103D02*
X9536491Y-9620150D01*
X9536491Y-9620150D02*
X9526968Y-9629674D01*
X9526968Y-9629674D02*
X9507920Y-9639198D01*
X9507920Y-9639198D02*
X9469825Y-9639198D01*
X9469825Y-9639198D02*
X9450777Y-9648722D01*
X9450777Y-9648722D02*
X9441253Y-9658246D01*
X9441253Y-9658246D02*
X9431730Y-9677293D01*
X9431730Y-9677293D02*
X9431730Y-9715389D01*
X9431730Y-9715389D02*
X9441253Y-9734436D01*
X9441253Y-9734436D02*
X9450777Y-9743960D01*
X9450777Y-9743960D02*
X9469825Y-9753484D01*
X9469825Y-9753484D02*
X9507920Y-9753484D01*
X9507920Y-9753484D02*
X9526968Y-9743960D01*
X9526968Y-9743960D02*
X9536491Y-9734436D01*
X9536491Y-9734436D02*
X9546015Y-9715389D01*
X9546015Y-9715389D02*
X9546015Y-9677293D01*
X9546015Y-9677293D02*
X9536491Y-9658246D01*
X9536491Y-9658246D02*
X9526968Y-9648722D01*
X9526968Y-9648722D02*
X9507920Y-9639198D01*
X9784111Y-9753484D02*
X9784111Y-9553484D01*
X9869825Y-9753484D02*
X9869825Y-9648722D01*
X9869825Y-9648722D02*
X9860301Y-9629674D01*
X9860301Y-9629674D02*
X9841253Y-9620150D01*
X9841253Y-9620150D02*
X9812682Y-9620150D01*
X9812682Y-9620150D02*
X9793634Y-9629674D01*
X9793634Y-9629674D02*
X9784111Y-9639198D01*
X9993634Y-9753484D02*
X9974587Y-9743960D01*
X9974587Y-9743960D02*
X9965063Y-9734436D01*
X9965063Y-9734436D02*
X9955539Y-9715389D01*
X9955539Y-9715389D02*
X9955539Y-9658246D01*
X9955539Y-9658246D02*
X9965063Y-9639198D01*
X9965063Y-9639198D02*
X9974587Y-9629674D01*
X9974587Y-9629674D02*
X9993634Y-9620150D01*
X9993634Y-9620150D02*
X10022206Y-9620150D01*
X10022206Y-9620150D02*
X10041253Y-9629674D01*
X10041253Y-9629674D02*
X10050777Y-9639198D01*
X10050777Y-9639198D02*
X10060301Y-9658246D01*
X10060301Y-9658246D02*
X10060301Y-9715389D01*
X10060301Y-9715389D02*
X10050777Y-9734436D01*
X10050777Y-9734436D02*
X10041253Y-9743960D01*
X10041253Y-9743960D02*
X10022206Y-9753484D01*
X10022206Y-9753484D02*
X9993634Y-9753484D01*
X10174587Y-9753484D02*
X10155539Y-9743960D01*
X10155539Y-9743960D02*
X10146015Y-9724912D01*
X10146015Y-9724912D02*
X10146015Y-9553484D01*
X10326968Y-9743960D02*
X10307920Y-9753484D01*
X10307920Y-9753484D02*
X10269825Y-9753484D01*
X10269825Y-9753484D02*
X10250777Y-9743960D01*
X10250777Y-9743960D02*
X10241253Y-9724912D01*
X10241253Y-9724912D02*
X10241253Y-9648722D01*
X10241253Y-9648722D02*
X10250777Y-9629674D01*
X10250777Y-9629674D02*
X10269825Y-9620150D01*
X10269825Y-9620150D02*
X10307920Y-9620150D01*
X10307920Y-9620150D02*
X10326968Y-9629674D01*
X10326968Y-9629674D02*
X10336492Y-9648722D01*
X10336492Y-9648722D02*
X10336492Y-9667770D01*
X10336492Y-9667770D02*
X10241253Y-9686817D01*
X10412682Y-9743960D02*
X10431730Y-9753484D01*
X10431730Y-9753484D02*
X10469825Y-9753484D01*
X10469825Y-9753484D02*
X10488873Y-9743960D01*
X10488873Y-9743960D02*
X10498396Y-9724912D01*
X10498396Y-9724912D02*
X10498396Y-9715389D01*
X10498396Y-9715389D02*
X10488873Y-9696341D01*
X10488873Y-9696341D02*
X10469825Y-9686817D01*
X10469825Y-9686817D02*
X10441253Y-9686817D01*
X10441253Y-9686817D02*
X10422206Y-9677293D01*
X10422206Y-9677293D02*
X10412682Y-9658246D01*
X10412682Y-9658246D02*
X10412682Y-9648722D01*
X10412682Y-9648722D02*
X10422206Y-9629674D01*
X10422206Y-9629674D02*
X10441253Y-9620150D01*
X10441253Y-9620150D02*
X10469825Y-9620150D01*
X10469825Y-9620150D02*
X10488873Y-9629674D01*
X10565063Y-9829674D02*
X10574587Y-9820150D01*
X10574587Y-9820150D02*
X10593634Y-9791579D01*
X10593634Y-9791579D02*
X10603158Y-9772531D01*
X10603158Y-9772531D02*
X10612682Y-9743960D01*
X10612682Y-9743960D02*
X10622206Y-9696341D01*
X10622206Y-9696341D02*
X10622206Y-9658246D01*
X10622206Y-9658246D02*
X10612682Y-9610627D01*
X10612682Y-9610627D02*
X10603158Y-9582055D01*
X10603158Y-9582055D02*
X10593634Y-9563008D01*
X10593634Y-9563008D02*
X10574587Y-9534436D01*
X10574587Y-9534436D02*
X10565063Y-9524912D01*
X5760711Y-10032711D02*
X5760711Y-9891289D01*
X5619289Y-9891289D01*
X5619289Y-10032711D01*
X5760711Y-10032711D01*
X6136491Y-9853484D02*
X6098396Y-9853484D01*
X6098396Y-9853484D02*
X6079348Y-9863008D01*
X6079348Y-9863008D02*
X6069824Y-9872531D01*
X6069824Y-9872531D02*
X6050777Y-9901103D01*
X6050777Y-9901103D02*
X6041253Y-9939198D01*
X6041253Y-9939198D02*
X6041253Y-10015389D01*
X6041253Y-10015389D02*
X6050777Y-10034436D01*
X6050777Y-10034436D02*
X6060301Y-10043960D01*
X6060301Y-10043960D02*
X6079348Y-10053484D01*
X6079348Y-10053484D02*
X6117443Y-10053484D01*
X6117443Y-10053484D02*
X6136491Y-10043960D01*
X6136491Y-10043960D02*
X6146015Y-10034436D01*
X6146015Y-10034436D02*
X6155539Y-10015389D01*
X6155539Y-10015389D02*
X6155539Y-9967770D01*
X6155539Y-9967770D02*
X6146015Y-9948722D01*
X6146015Y-9948722D02*
X6136491Y-9939198D01*
X6136491Y-9939198D02*
X6117443Y-9929674D01*
X6117443Y-9929674D02*
X6079348Y-9929674D01*
X6079348Y-9929674D02*
X6060301Y-9939198D01*
X6060301Y-9939198D02*
X6050777Y-9948722D01*
X6050777Y-9948722D02*
X6041253Y-9967770D01*
X6241253Y-10034436D02*
X6250777Y-10043960D01*
X6250777Y-10043960D02*
X6241253Y-10053484D01*
X6241253Y-10053484D02*
X6231729Y-10043960D01*
X6231729Y-10043960D02*
X6241253Y-10034436D01*
X6241253Y-10034436D02*
X6241253Y-10053484D01*
X6365062Y-9939198D02*
X6346015Y-9929674D01*
X6346015Y-9929674D02*
X6336491Y-9920150D01*
X6336491Y-9920150D02*
X6326967Y-9901103D01*
X6326967Y-9901103D02*
X6326967Y-9891579D01*
X6326967Y-9891579D02*
X6336491Y-9872531D01*
X6336491Y-9872531D02*
X6346015Y-9863008D01*
X6346015Y-9863008D02*
X6365062Y-9853484D01*
X6365062Y-9853484D02*
X6403158Y-9853484D01*
X6403158Y-9853484D02*
X6422205Y-9863008D01*
X6422205Y-9863008D02*
X6431729Y-9872531D01*
X6431729Y-9872531D02*
X6441253Y-9891579D01*
X6441253Y-9891579D02*
X6441253Y-9901103D01*
X6441253Y-9901103D02*
X6431729Y-9920150D01*
X6431729Y-9920150D02*
X6422205Y-9929674D01*
X6422205Y-9929674D02*
X6403158Y-9939198D01*
X6403158Y-9939198D02*
X6365062Y-9939198D01*
X6365062Y-9939198D02*
X6346015Y-9948722D01*
X6346015Y-9948722D02*
X6336491Y-9958246D01*
X6336491Y-9958246D02*
X6326967Y-9977293D01*
X6326967Y-9977293D02*
X6326967Y-10015389D01*
X6326967Y-10015389D02*
X6336491Y-10034436D01*
X6336491Y-10034436D02*
X6346015Y-10043960D01*
X6346015Y-10043960D02*
X6365062Y-10053484D01*
X6365062Y-10053484D02*
X6403158Y-10053484D01*
X6403158Y-10053484D02*
X6422205Y-10043960D01*
X6422205Y-10043960D02*
X6431729Y-10034436D01*
X6431729Y-10034436D02*
X6441253Y-10015389D01*
X6441253Y-10015389D02*
X6441253Y-9977293D01*
X6441253Y-9977293D02*
X6431729Y-9958246D01*
X6431729Y-9958246D02*
X6422205Y-9948722D01*
X6422205Y-9948722D02*
X6403158Y-9939198D01*
X6565062Y-9853484D02*
X6584110Y-9853484D01*
X6584110Y-9853484D02*
X6603158Y-9863008D01*
X6603158Y-9863008D02*
X6612682Y-9872531D01*
X6612682Y-9872531D02*
X6622205Y-9891579D01*
X6622205Y-9891579D02*
X6631729Y-9929674D01*
X6631729Y-9929674D02*
X6631729Y-9977293D01*
X6631729Y-9977293D02*
X6622205Y-10015389D01*
X6622205Y-10015389D02*
X6612682Y-10034436D01*
X6612682Y-10034436D02*
X6603158Y-10043960D01*
X6603158Y-10043960D02*
X6584110Y-10053484D01*
X6584110Y-10053484D02*
X6565062Y-10053484D01*
X6565062Y-10053484D02*
X6546015Y-10043960D01*
X6546015Y-10043960D02*
X6536491Y-10034436D01*
X6536491Y-10034436D02*
X6526967Y-10015389D01*
X6526967Y-10015389D02*
X6517443Y-9977293D01*
X6517443Y-9977293D02*
X6517443Y-9929674D01*
X6517443Y-9929674D02*
X6526967Y-9891579D01*
X6526967Y-9891579D02*
X6536491Y-9872531D01*
X6536491Y-9872531D02*
X6546015Y-9863008D01*
X6546015Y-9863008D02*
X6565062Y-9853484D01*
X6755539Y-9853484D02*
X6774586Y-9853484D01*
X6774586Y-9853484D02*
X6793634Y-9863008D01*
X6793634Y-9863008D02*
X6803158Y-9872531D01*
X6803158Y-9872531D02*
X6812682Y-9891579D01*
X6812682Y-9891579D02*
X6822205Y-9929674D01*
X6822205Y-9929674D02*
X6822205Y-9977293D01*
X6822205Y-9977293D02*
X6812682Y-10015389D01*
X6812682Y-10015389D02*
X6803158Y-10034436D01*
X6803158Y-10034436D02*
X6793634Y-10043960D01*
X6793634Y-10043960D02*
X6774586Y-10053484D01*
X6774586Y-10053484D02*
X6755539Y-10053484D01*
X6755539Y-10053484D02*
X6736491Y-10043960D01*
X6736491Y-10043960D02*
X6726967Y-10034436D01*
X6726967Y-10034436D02*
X6717443Y-10015389D01*
X6717443Y-10015389D02*
X6707920Y-9977293D01*
X6707920Y-9977293D02*
X6707920Y-9929674D01*
X6707920Y-9929674D02*
X6717443Y-9891579D01*
X6717443Y-9891579D02*
X6726967Y-9872531D01*
X6726967Y-9872531D02*
X6736491Y-9863008D01*
X6736491Y-9863008D02*
X6755539Y-9853484D01*
X6907920Y-10053484D02*
X6907920Y-9920150D01*
X6907920Y-9939198D02*
X6917443Y-9929674D01*
X6917443Y-9929674D02*
X6936491Y-9920150D01*
X6936491Y-9920150D02*
X6965063Y-9920150D01*
X6965063Y-9920150D02*
X6984110Y-9929674D01*
X6984110Y-9929674D02*
X6993634Y-9948722D01*
X6993634Y-9948722D02*
X6993634Y-10053484D01*
X6993634Y-9948722D02*
X7003158Y-9929674D01*
X7003158Y-9929674D02*
X7022205Y-9920150D01*
X7022205Y-9920150D02*
X7050777Y-9920150D01*
X7050777Y-9920150D02*
X7069824Y-9929674D01*
X7069824Y-9929674D02*
X7079348Y-9948722D01*
X7079348Y-9948722D02*
X7079348Y-10053484D01*
X7174586Y-10053484D02*
X7174586Y-9920150D01*
X7174586Y-9939198D02*
X7184110Y-9929674D01*
X7184110Y-9929674D02*
X7203158Y-9920150D01*
X7203158Y-9920150D02*
X7231729Y-9920150D01*
X7231729Y-9920150D02*
X7250777Y-9929674D01*
X7250777Y-9929674D02*
X7260301Y-9948722D01*
X7260301Y-9948722D02*
X7260301Y-10053484D01*
X7260301Y-9948722D02*
X7269824Y-9929674D01*
X7269824Y-9929674D02*
X7288872Y-9920150D01*
X7288872Y-9920150D02*
X7317443Y-9920150D01*
X7317443Y-9920150D02*
X7336491Y-9929674D01*
X7336491Y-9929674D02*
X7346015Y-9948722D01*
X7346015Y-9948722D02*
X7346015Y-10053484D01*
X7736491Y-9843960D02*
X7565063Y-10101103D01*
X7993634Y-9853484D02*
X8012682Y-9853484D01*
X8012682Y-9853484D02*
X8031729Y-9863008D01*
X8031729Y-9863008D02*
X8041253Y-9872531D01*
X8041253Y-9872531D02*
X8050777Y-9891579D01*
X8050777Y-9891579D02*
X8060301Y-9929674D01*
X8060301Y-9929674D02*
X8060301Y-9977293D01*
X8060301Y-9977293D02*
X8050777Y-10015389D01*
X8050777Y-10015389D02*
X8041253Y-10034436D01*
X8041253Y-10034436D02*
X8031729Y-10043960D01*
X8031729Y-10043960D02*
X8012682Y-10053484D01*
X8012682Y-10053484D02*
X7993634Y-10053484D01*
X7993634Y-10053484D02*
X7974586Y-10043960D01*
X7974586Y-10043960D02*
X7965063Y-10034436D01*
X7965063Y-10034436D02*
X7955539Y-10015389D01*
X7955539Y-10015389D02*
X7946015Y-9977293D01*
X7946015Y-9977293D02*
X7946015Y-9929674D01*
X7946015Y-9929674D02*
X7955539Y-9891579D01*
X7955539Y-9891579D02*
X7965063Y-9872531D01*
X7965063Y-9872531D02*
X7974586Y-9863008D01*
X7974586Y-9863008D02*
X7993634Y-9853484D01*
X8146015Y-10034436D02*
X8155539Y-10043960D01*
X8155539Y-10043960D02*
X8146015Y-10053484D01*
X8146015Y-10053484D02*
X8136491Y-10043960D01*
X8136491Y-10043960D02*
X8146015Y-10034436D01*
X8146015Y-10034436D02*
X8146015Y-10053484D01*
X8231729Y-9872531D02*
X8241253Y-9863008D01*
X8241253Y-9863008D02*
X8260301Y-9853484D01*
X8260301Y-9853484D02*
X8307920Y-9853484D01*
X8307920Y-9853484D02*
X8326967Y-9863008D01*
X8326967Y-9863008D02*
X8336491Y-9872531D01*
X8336491Y-9872531D02*
X8346015Y-9891579D01*
X8346015Y-9891579D02*
X8346015Y-9910627D01*
X8346015Y-9910627D02*
X8336491Y-9939198D01*
X8336491Y-9939198D02*
X8222206Y-10053484D01*
X8222206Y-10053484D02*
X8346015Y-10053484D01*
X8517444Y-9853484D02*
X8479348Y-9853484D01*
X8479348Y-9853484D02*
X8460301Y-9863008D01*
X8460301Y-9863008D02*
X8450777Y-9872531D01*
X8450777Y-9872531D02*
X8431729Y-9901103D01*
X8431729Y-9901103D02*
X8422206Y-9939198D01*
X8422206Y-9939198D02*
X8422206Y-10015389D01*
X8422206Y-10015389D02*
X8431729Y-10034436D01*
X8431729Y-10034436D02*
X8441253Y-10043960D01*
X8441253Y-10043960D02*
X8460301Y-10053484D01*
X8460301Y-10053484D02*
X8498396Y-10053484D01*
X8498396Y-10053484D02*
X8517444Y-10043960D01*
X8517444Y-10043960D02*
X8526968Y-10034436D01*
X8526968Y-10034436D02*
X8536491Y-10015389D01*
X8536491Y-10015389D02*
X8536491Y-9967770D01*
X8536491Y-9967770D02*
X8526968Y-9948722D01*
X8526968Y-9948722D02*
X8517444Y-9939198D01*
X8517444Y-9939198D02*
X8498396Y-9929674D01*
X8498396Y-9929674D02*
X8460301Y-9929674D01*
X8460301Y-9929674D02*
X8441253Y-9939198D01*
X8441253Y-9939198D02*
X8431729Y-9948722D01*
X8431729Y-9948722D02*
X8422206Y-9967770D01*
X8603158Y-9853484D02*
X8736491Y-9853484D01*
X8736491Y-9853484D02*
X8650777Y-10053484D01*
X8793634Y-9853484D02*
X8926968Y-9853484D01*
X8926968Y-9853484D02*
X8841253Y-10053484D01*
X8993634Y-9853484D02*
X8993634Y-9891579D01*
X9069825Y-9853484D02*
X9069825Y-9891579D01*
X9365063Y-10129674D02*
X9355539Y-10120150D01*
X9355539Y-10120150D02*
X9336491Y-10091579D01*
X9336491Y-10091579D02*
X9326968Y-10072531D01*
X9326968Y-10072531D02*
X9317444Y-10043960D01*
X9317444Y-10043960D02*
X9307920Y-9996341D01*
X9307920Y-9996341D02*
X9307920Y-9958246D01*
X9307920Y-9958246D02*
X9317444Y-9910627D01*
X9317444Y-9910627D02*
X9326968Y-9882055D01*
X9326968Y-9882055D02*
X9336491Y-9863008D01*
X9336491Y-9863008D02*
X9355539Y-9834436D01*
X9355539Y-9834436D02*
X9365063Y-9824912D01*
X9431730Y-9872531D02*
X9441253Y-9863008D01*
X9441253Y-9863008D02*
X9460301Y-9853484D01*
X9460301Y-9853484D02*
X9507920Y-9853484D01*
X9507920Y-9853484D02*
X9526968Y-9863008D01*
X9526968Y-9863008D02*
X9536491Y-9872531D01*
X9536491Y-9872531D02*
X9546015Y-9891579D01*
X9546015Y-9891579D02*
X9546015Y-9910627D01*
X9546015Y-9910627D02*
X9536491Y-9939198D01*
X9536491Y-9939198D02*
X9422206Y-10053484D01*
X9422206Y-10053484D02*
X9546015Y-10053484D01*
X9784111Y-10053484D02*
X9784111Y-9853484D01*
X9869825Y-10053484D02*
X9869825Y-9948722D01*
X9869825Y-9948722D02*
X9860301Y-9929674D01*
X9860301Y-9929674D02*
X9841253Y-9920150D01*
X9841253Y-9920150D02*
X9812682Y-9920150D01*
X9812682Y-9920150D02*
X9793634Y-9929674D01*
X9793634Y-9929674D02*
X9784111Y-9939198D01*
X9993634Y-10053484D02*
X9974587Y-10043960D01*
X9974587Y-10043960D02*
X9965063Y-10034436D01*
X9965063Y-10034436D02*
X9955539Y-10015389D01*
X9955539Y-10015389D02*
X9955539Y-9958246D01*
X9955539Y-9958246D02*
X9965063Y-9939198D01*
X9965063Y-9939198D02*
X9974587Y-9929674D01*
X9974587Y-9929674D02*
X9993634Y-9920150D01*
X9993634Y-9920150D02*
X10022206Y-9920150D01*
X10022206Y-9920150D02*
X10041253Y-9929674D01*
X10041253Y-9929674D02*
X10050777Y-9939198D01*
X10050777Y-9939198D02*
X10060301Y-9958246D01*
X10060301Y-9958246D02*
X10060301Y-10015389D01*
X10060301Y-10015389D02*
X10050777Y-10034436D01*
X10050777Y-10034436D02*
X10041253Y-10043960D01*
X10041253Y-10043960D02*
X10022206Y-10053484D01*
X10022206Y-10053484D02*
X9993634Y-10053484D01*
X10174587Y-10053484D02*
X10155539Y-10043960D01*
X10155539Y-10043960D02*
X10146015Y-10024912D01*
X10146015Y-10024912D02*
X10146015Y-9853484D01*
X10326968Y-10043960D02*
X10307920Y-10053484D01*
X10307920Y-10053484D02*
X10269825Y-10053484D01*
X10269825Y-10053484D02*
X10250777Y-10043960D01*
X10250777Y-10043960D02*
X10241253Y-10024912D01*
X10241253Y-10024912D02*
X10241253Y-9948722D01*
X10241253Y-9948722D02*
X10250777Y-9929674D01*
X10250777Y-9929674D02*
X10269825Y-9920150D01*
X10269825Y-9920150D02*
X10307920Y-9920150D01*
X10307920Y-9920150D02*
X10326968Y-9929674D01*
X10326968Y-9929674D02*
X10336492Y-9948722D01*
X10336492Y-9948722D02*
X10336492Y-9967770D01*
X10336492Y-9967770D02*
X10241253Y-9986817D01*
X10412682Y-10043960D02*
X10431730Y-10053484D01*
X10431730Y-10053484D02*
X10469825Y-10053484D01*
X10469825Y-10053484D02*
X10488873Y-10043960D01*
X10488873Y-10043960D02*
X10498396Y-10024912D01*
X10498396Y-10024912D02*
X10498396Y-10015389D01*
X10498396Y-10015389D02*
X10488873Y-9996341D01*
X10488873Y-9996341D02*
X10469825Y-9986817D01*
X10469825Y-9986817D02*
X10441253Y-9986817D01*
X10441253Y-9986817D02*
X10422206Y-9977293D01*
X10422206Y-9977293D02*
X10412682Y-9958246D01*
X10412682Y-9958246D02*
X10412682Y-9948722D01*
X10412682Y-9948722D02*
X10422206Y-9929674D01*
X10422206Y-9929674D02*
X10441253Y-9920150D01*
X10441253Y-9920150D02*
X10469825Y-9920150D01*
X10469825Y-9920150D02*
X10488873Y-9929674D01*
X10565063Y-10129674D02*
X10574587Y-10120150D01*
X10574587Y-10120150D02*
X10593634Y-10091579D01*
X10593634Y-10091579D02*
X10603158Y-10072531D01*
X10603158Y-10072531D02*
X10612682Y-10043960D01*
X10612682Y-10043960D02*
X10622206Y-9996341D01*
X10622206Y-9996341D02*
X10622206Y-9958246D01*
X10622206Y-9958246D02*
X10612682Y-9910627D01*
X10612682Y-9910627D02*
X10603158Y-9882055D01*
X10603158Y-9882055D02*
X10593634Y-9863008D01*
X10593634Y-9863008D02*
X10574587Y-9834436D01*
X10574587Y-9834436D02*
X10565063Y-9824912D01*
M02*
